<svg xmlns="http://www.w3.org/2000/svg" viewBox="0 0 16.93 17.45"><path d="M16.32.15h-3.35c-.22 0-.42.16-.45.39l-1.2 7.53H1.74l-.62-4.94h9.05c.25 0 .46-.2.46-.46s-.2-.46-.46-.46H.61c-.13 0-.26.06-.34.15-.09.1-.13.23-.11.36l.73 5.85c.03.23.22.4.45.4h9.84l-.43 2.68H1.7c-.25 0-.46.2-.46.46s.2.46.46.46h9.44c.22 0 .42-.16.45-.39l.56-3.52s.03-.09.03-.14l1.18-7.46h2.96c.25 0 .46-.2.46-.46s-.2-.46-.46-.46zM3.69 13.28a2.01 2.01 0 100 4.02 2.01 2.01 0 000-4.02zm0 3.11c-.6 0-1.1-.49-1.1-1.1s.49-1.1 1.1-1.1 1.1.49 1.1 1.1-.49 1.1-1.1 1.1zm5.43-3.11a2.01 2.01 0 100 4.02 2.01 2.01 0 000-4.02zm0 3.11c-.6 0-1.1-.49-1.1-1.1s.49-1.1 1.1-1.1 1.1.49 1.1 1.1-.49 1.1-1.1 1.1z" fill="#fff" stroke="#fff" stroke-width=".3"/></svg>