<svg xmlns="http://www.w3.org/2000/svg" viewBox="0 0 26.18 29"><path d="M10.04 21.86c1.14 0 2.63-1.09 5.71-4.74 3.08-3.65 4.8-6.32 3.99-7-.35-.3-1.04-.87-1.73-1.44l5.54-6.56 1.37 1.14c1.8 1.5 1.91 7.07-1.18 12.25-3.1 5.19-9.41 10.89-11.16 11.7-1.75.81-6.64 2.94-8.96 1.01-.48-.4-.89-.74-1.24-1.02l5.6-6.63c.89.71 1.44 1.31 2.06 1.31zm5.9-14.92c-.44-.37-.49-.78-.08-1.26.41-.49 3.9-4.62 4.41-5.23s.7-.51 1.01-.24c.13.11.6.5 1.17.98l-5.54 6.56c-.46-.38-.83-.69-.97-.81zM4.74 18.78c.37-.31.52-.5.96-.13.14.12.6.52 1.17.99l-5.6 6.64c-.5-.41-.75-.65-.98-.95-.46-.59-.33-1 .08-1.49.41-.49 4-4.74 4.37-5.05z" fill="#fff"/></svg>