<svg xmlns="http://www.w3.org/2000/svg" viewBox="0 0 21.91 21.91"><path d="M6.5 0h.09c1.37 0 2.63.72 3.32 1.9l1.03 1.75 1.03-1.75C12.66.72 13.93 0 15.29 0h.09c2.08 0 3.77 1.69 3.77 3.77 0 .62-.15 1.16-.41 1.71h1.78c.76 0 1.37.61 1.37 1.37v2.74c0 .76-.61 1.37-1.37 1.37H1.37C.61 10.96 0 10.35 0 9.59V6.85c0-.76.61-1.37 1.37-1.37h1.78c-.26-.55-.41-1.1-.41-1.71C2.74 1.69 4.42 0 6.5 0zM1.37 12.32h8.21v9.58H3.42c-1.13 0-2.05-.92-2.05-2.05v-7.53zm6.78-9.38c-.33-.55-.92-.89-1.55-.89h-.09a1.71 1.71 0 100 3.42h3.14L8.16 2.94zm7.25-.89h-.09c-.64 0-1.23.34-1.55.89l-1.49 2.53h3.14a1.71 1.71 0 100-3.42zM12.32 21.9v-9.58h8.21v7.53c0 1.13-.92 2.05-2.05 2.05h-6.16z" fill="#e6442b"/></svg>