<svg xmlns="http://www.w3.org/2000/svg" viewBox="0 0 14.62 14.55"><path d="M8.43 12V9.69q0-.27.28-.27h1.26c.11 0 .17-.02.18-.14.09-.6.19-1.2.28-1.8.02-.14-.08-.12-.16-.13H8.7q-.27 0-.27-.28V5.93c0-.68.41-1.09 1.09-1.12.28-.02.57-.02.85-.02.12 0 .17-.04.17-.17V3.18c0-.08 0-.15-.12-.17-.7-.09-1.39-.17-2.09-.07-1.19.17-1.99 1.04-2.11 2.24-.06.64-.02 1.27-.03 1.91 0 .25 0 .25-.26.25H4.55c-.15 0-.21.05-.21.2v1.67c0 .16.06.2.21.2h1.44c.15 0 .21.04.21.2v4.75c0 .18-.02.19-.22.15-1.25-.24-2.36-.75-3.33-1.57C1.19 11.74.31 10.19.07 8.31c-.3-2.28.35-4.29 1.92-5.99C3.03 1.19 4.32.45 5.84.16c2.43-.47 4.59.13 6.42 1.8a6.898 6.898 0 012.24 4.07c.42 2.54-.28 4.73-2.1 6.56-1.04 1.04-2.3 1.66-3.73 1.95-.23.05-.24.04-.24-.2v-2.32z" fill="#825a17"/></svg>