<svg xmlns="http://www.w3.org/2000/svg" viewBox="0 0 19.32 12.57"><path d="M12.1 2.09c.41.2.8.33 1.14.56.07.05.13 0 .18-.04.24-.14.47-.29.71-.43s.4-.09.55.14c.1.16.2.32.28.49.1.2.06.34-.13.46-.15.1-.31.18-.47.27-.1.05-.11.11-.06.22.43.9.84 1.8 1.18 2.74.2.57.62.94 1.17 1.17.06.03.14.07.19.03.29-.21.58-.05.87-.01.41.06.83.14 1.24.21.3.05.35.12.36.41.02.86.01 1.72-.23 2.56-.16.55-.38 1.05-.8 1.46-.24.23-.49.32-.83.17-.53-.23-1.07-.42-1.61-.62-.13-.05-.26-.1-.35-.23-.06-.08-.15-.09-.24-.1-1.02-.15-1.96-.52-2.88-.96-.49-.23-.85-.64-1.2-1.03-.36-.39-.7-.8-.99-1.24-.03-.04-.06-.09-.1-.12-.09-.09-.19-.21-.32-.18-.11.02-.07.18-.09.28-.09.37-.27.68-.57.92-.38.31-.73.27-1.01-.13-.06-.09-.12-.14-.23-.14-.5-.01-.78-.29-.81-.79 0-.1 0-.21.01-.31 0-.06.06-.14-.01-.18-.06-.03-.11.03-.16.06-1.82 1.01-3.65 2.03-5.47 3.04-.07.04-.13.07-.2.1-.27.14-.42.1-.55-.13-.13-.23-.09-.37.18-.53C2.76 9.06 4.66 7.9 6.57 6.75c.14-.08.23-.14.05-.28-.1-.07-.15-.19-.18-.3-.04-.17-.12-.15-.23-.07-.41.28-.83.56-1.25.84C3.54 7.9 2.12 8.86.7 9.81c-.27.18-.43.17-.59-.03-.16-.21-.13-.38.1-.55.63-.47 1.27-.93 1.9-1.39 1.38-1.01 2.77-2.02 4.15-3.03.16-.12.21-.18.02-.33-.25-.19-.23-.56.04-.83.28-.28.58-.54.81-.87.15-.21.28-.45.52-.57.64-.3 1.28-.62 1.96-.82.27-.08.57-.06.83.07.21.11.37.06.55-.08.56-.42 1.12-.82 1.69-1.22.29-.21.42-.18.63.11.09.13.19.25.27.39.13.21.1.38-.11.52-.44.31-.89.61-1.38.94zm4.82 6.65c-.06-.16.08-.43-.24-.52-.91-.27-1.48-.89-1.78-1.78-.27-.81-.66-1.57-1.01-2.35-.07-.16-.15-.21-.33-.11-.48.28-.96.55-1.45.81-.15.08-.18.14-.02.24.14.09.27.18.41.27.16.1.32.13.48.01.15-.1.29-.09.39.06.1.15.02.27-.1.37-.24.22-.61.25-.94.06-.23-.13-.45-.29-.68-.44-.41-.26-.76-.62-1.21-.8-.67-.27-1.35-.5-1.99-.83-.34-.18-.7.07-.69.45 0 .35.2.59.48.76.28.17.57.32.86.48.68.38 1.36.75 1.91 1.33.2.21.36.45.43.72.07.27.21.51.38.73.34.45.73.83 1.19 1.15.13.09.23.21.12.38-.11.18-.25.15-.4.05-.81-.55-1.44-1.25-1.79-2.18a1.33 1.33 0 00-.27-.46c-.31-.33-.67-.59-1.06-.83-.08-.05-.15-.04-.23 0-.34.13-.44.44-.46.74-.04.52-.13 1-.43 1.44-.09.12 0 .26.09.34.1.09.18-.02.25-.09.29-.27.39-.61.31-1-.02-.1-.06-.2-.08-.3-.02-.11.02-.21.12-.27.1-.06.23-.07.29.02.12.18.3.21.47.28.29.12.53.3.7.57.34.52.74.98 1.17 1.42.32.33.66.62 1.1.8.9.36 1.82.68 2.79.84.29.05.46-.02.62-.22.06-.07.11-.14.16-.21.37-.58.41-1.24.45-1.93zm1.89.24v-.36c.01-.17-.07-.24-.23-.26-.3-.04-.61-.09-.9-.16-.2-.04-.25.03-.25.22 0 .26.02.52 0 .78-.06.82-.25 1.6-.9 2.18-.12.1-.11.15.04.21.34.12.67.24 1 .38.18.08.31.03.43-.11.21-.25.37-.53.47-.83.23-.66.31-1.35.33-2.05zm-6.07-6.02c-.31-.18-.65-.28-.97-.44-.14-.07-.26-.06-.39.04-.5.35-1 .68-1.5 1.02-.04.03-.11.04-.11.13.3.12.61.24.9.38.13.06.22.04.33-.03.53-.33 1.07-.65 1.61-.97.05-.03.11-.05.13-.13zm-4.41.18c.13.04.24-.03.35-.11.4-.29.8-.57 1.19-.87.09-.07.3-.14.24-.24-.07-.13-.27-.08-.42-.05-.07.01-.13.03-.19.06-.24.1-.47.24-.72.31-.64.19-1.15.55-1.5 1.13-.13.21-.33.36-.52.52-.05.04-.13.1-.1.18.03.08.12.08.19.08.22.02.34-.1.41-.3.15-.44.57-.73 1.04-.71zm-.77 4.88c.03.15.03.33.2.38.14.04.21-.1.29-.2.28-.35.31-.76.34-1.18 0-.05 0-.13-.07-.09-.21.12-.5.17-.6.42-.08.21-.1.45-.15.67zM6.9 5.79c.02.1 0 .22.1.28.1.06.19 0 .27-.06.18-.11.39-.59.35-.78-.02-.11-.09-.05-.13-.02-.16.1-.31.21-.46.31-.1.07-.11.17-.13.28z" fill="#825a17"/></svg>