<svg xmlns="http://www.w3.org/2000/svg" viewBox="0 0 14.23 11.68"><path d="M14.04 10.17L12.99 8.7a.732.732 0 00-.63-.33H1.86c-.28 0-.48.1-.63.32C.82 9.28.41 9.86 0 10.44V11c.26.51.7.67 1.24.67h11.74c.21 0 .41-.02.6-.09.63-.23.84-.86.45-1.41zm-5.66.54H5.85c-.2 0-.22-.05-.12-.23.15-.28.35-.41.68-.39.52.03 1.03 0 1.55 0 .23 0 .56.28.58.5.02.15-.1.11-.17.11zM1.67 7.34c.33.32.74.39 1.18.39h8.66c.94-.03 1.44-.56 1.44-1.49V1.38c0-.29-.07-.55-.23-.78-.3-.44-.74-.6-1.25-.6H2.72c-.85 0-1.45.53-1.46 1.28v5.14c0 .36.14.66.4.91zm.56-5.86c0-.39.12-.51.52-.51h8.71c.41 0 .53.12.53.53v4.58c0 .44-.09.53-.55.53H2.75c-.43 0-.53-.09-.53-.52V1.48z" fill="#825a17"/></svg>