<svg id="_イヤー_2" xmlns="http://www.w3.org/2000/svg" viewBox="0 0 28.79 21.15"><defs><style>.cls-1{fill:#fff}</style></defs><g id="_イヤー_1-2"><path class="cls-1" d="M14.39 14.56c.79 0 1.54-.31 2.1-.87l2.95-2.94 9.31-9.32C28.61.61 27.9 0 27.04 0H1.73C.88 0 .17.62.03 1.43l12.26 12.26c.56.56 1.31.87 2.1.87zM2.66 7L.02 4.35v.02L0 4.35v12.8l6.4-6.4L2.66 7z"/><path class="cls-1" d="M20.92 12.23h-.01l-2.94 2.93c-.96.95-2.22 1.48-3.57 1.48s-2.62-.53-3.57-1.48l-2.94-2.94L.1 20c.24.67.88 1.15 1.64 1.15h25.31c.76 0 1.4-.48 1.64-1.15l-7.77-7.77zm7.86-7.86v-.02l-6.36 6.36-.03.03-.01.01 6.4 6.4V9.64l.01-5.28-.01.01z"/></g></svg>