<svg xmlns="http://www.w3.org/2000/svg" viewBox="0 0 55.66 40.69"><path d="M2.47 40.34c-.24-.23-.35-.47-.35-.7 0-.35.18-.7.53-1.06 2.47-2.11 4.34-4.26 5.64-6.43 1.29-2.17 1.94-4.2 1.94-6.08 0-2.11-.94-3.64-2.82-4.58-2.35-1.29-4.17-2.67-5.46-4.14C.66 15.88.01 13.86.01 11.27c0-3.05 1.11-5.69 3.35-7.93C5.58 1.12 8.22 0 11.27 0s5.87 1.15 8.1 3.44c2.23 2.29 3.35 5.14 3.35 8.54 0 6.34-1.91 12.07-5.73 17.18-3.82 5.11-8.13 8.9-12.95 11.36l-.7.18c-.35 0-.65-.12-.88-.35zm33.12 0c-.24-.23-.35-.53-.35-.88s.12-.64.35-.88c2.47-2.23 4.34-4.43 5.64-6.61 1.29-2.17 1.94-4.14 1.94-5.9 0-2.23-.94-3.76-2.82-4.58-2.35-1.06-4.14-2.38-5.37-3.96-1.23-1.59-1.85-3.67-1.85-6.25 0-3.05 1.08-5.69 3.26-7.93C38.56 1.12 41.17 0 44.23 0s5.87 1.15 8.1 3.44c2.23 2.29 3.35 5.14 3.35 8.54 0 6.34-1.91 12.07-5.73 17.18-3.82 5.11-8.13 8.9-12.95 11.36l-.7.18c-.24 0-.47-.12-.71-.35z" fill="#fff"/><path d="M2.47 40.34c-.24-.23-.35-.47-.35-.7 0-.35.18-.7.53-1.06 2.47-2.11 4.34-4.26 5.64-6.43 1.29-2.17 1.94-4.2 1.94-6.08 0-2.11-.94-3.64-2.82-4.58-2.35-1.29-4.17-2.67-5.46-4.14C.66 15.88.01 13.86.01 11.27c0-3.05 1.11-5.69 3.35-7.93C5.58 1.12 8.22 0 11.27 0s5.87 1.15 8.1 3.44c2.23 2.29 3.35 5.14 3.35 8.54 0 6.34-1.91 12.07-5.73 17.18-3.82 5.11-8.13 8.9-12.95 11.36l-.7.18c-.35 0-.65-.12-.88-.35zm33.12 0c-.24-.23-.35-.53-.35-.88s.12-.64.35-.88c2.47-2.23 4.34-4.43 5.64-6.61 1.29-2.17 1.94-4.14 1.94-5.9 0-2.23-.94-3.76-2.82-4.58-2.35-1.06-4.14-2.38-5.37-3.96-1.23-1.59-1.85-3.67-1.85-6.25 0-3.05 1.08-5.69 3.26-7.93C38.56 1.12 41.17 0 44.23 0s5.87 1.15 8.1 3.44c2.23 2.29 3.35 5.14 3.35 8.54 0 6.34-1.91 12.07-5.73 17.18-3.82 5.11-8.13 8.9-12.95 11.36l-.7.18c-.24 0-.47-.12-.71-.35z" fill="#a21b2a"/></svg>