<svg id="_イヤー_2" xmlns="http://www.w3.org/2000/svg" viewBox="0 0 557.27 104.23"><defs><style>.cls-3{fill:#e4007f}.cls-4,.cls-5{fill:#231815}.cls-5{fill-rule:evenodd}</style></defs><g id="_イヤー_1-2"><path class="cls-4" d="M.45 7.73c-.03.25.08.49.28.64.2.14.36.2.45.24.03.3.25.55.55.62.53.12 1.05.12 1.42.17.4.08.44.17.44.17.12.3.45.46.76.41.28-.04.52-.07.75-.07 1.06-.04 1.79.52 3.2.65.05.12.12.23.22.31.16.13.37.19.58.14.06-.01.11-.02.2-.02.64-.04 1.31.58 2.4.66.18 0 .38-.03.58-.1.36.23.8.25 1.12.25h.04c.53 0 1.04-.08 1.43-.08.13 0 .25.01.33.03.3.06.6-.08.74-.36.1-.32.76-.49 1.44-1.1h.46c.23 0 .45-.12.58-.31.02-.05.05-.1.07-.15.18-.16.4-.4.36-.7 0-.12-.02-.23-.06-.31.07-.03.13-.04.18-.07.89-.36.89-1.24.89-1.76v-.3a.69.69 0 00.43-.54c.02-.12.02-.23.02-.33.02-.52-.31-.93-.45-1.04-.09-.12-.07-.08-.08-.12 0 0 0-.08.04-.19.07-.21.03-.44-.1-.62a.716.716 0 00-.56-.28h-.34v-.04c0-.35-.25-.65-.6-.68-.35-.07-.68-.09-.84-.15-.02 0-.05-.02-.07-.02a.697.697 0 00-.68-.59c-1.21 0-1.96-.27-2.22-.7-.12-.2-.31-.3-.52-.31-.1-.02-.16 0-.16 0-1.06 0-1.82-.23-2.3-.6l-.51-.13c-.19.01-.35.09-.48.17A.669.669 0 009.9.35c-.28.01-.55.03-.82.03C7.78.34 6.45 0 5.03 0c-.67 0-1.37.09-2.05.34-.24.08-.42.31-.46.55-.01.18-.09.24-.45.52-.31.2-.82.7-.88 1.43-.72.59-.77 1.54-.77 2.32 0 .69.06 1.39.06 1.99 0 .2 0 .4-.02.57M20 15.09s.01.01.01.02c-.04.03-.1.07-.2.12-.21.12-.57.52-.57.98l.05.29c.52 1.21 1.54 1.58 1.86 2.07.15.22.38.31.62.28.2-.02.41-.03.64-.03 1.38 0 2.88.37 4.42.38.65 0 1.31-.07 1.96-.28.66.24 1.37.28 2.05.28.58 0 1.16-.03 1.68-.03.45 0 .85.02 1.19.09 0 .1.03.28.37.54.44.2.8.26 1 .36.15.1.11.03.15.13 0 .03 0 .08-.01.12-.05.28.08.54.3.7v.15c0 .04 0 .1.02.15a.69.69 0 00-.29.38c-.37 1.02-.73 1.21-1.53 1.4-.81.17-2.02.09-3.48.2-.36.01-.64.3-.65.65h.02c-.06.08-.42.19-.67.6-.34.04-.7.05-1.09.05H26.8c-.74 0-1.49.02-2.19.44-.64.37-1.02 1.13-1.08 2.06-.6.4-.69 1.18-.7 1.62-.01.65-.12 1.18-.17 1.18-.22.23-.24.58-.06.86.05.07.11.13.17.18-.17 1.74-.46 3.63-.46 5.56 0 .81.05 1.61.18 2.41.17.78.61 1.25.58 1.47.09.52.12 1.05.12 1.59 0 1.37-.2 2.84-.2 4.4 0 .52.03 1.01.07 1.53a.7.7 0 00.34.52c.04.04.1.06.16.07 0 .26-.09.73-.09 1.21 0 .17.02.35.08.56.08.25.28.42.53.47.01-.03.04.05.26.2.69 2.32 2.68 3.42 4.94 3.87.3.53.98.67 1.17.67.08 0 .15.02.19.03.05.27.24.48.51.55.18.06.32.06.46.06.35 0 .68-.07.89-.07.04.07.09.13.16.19.15.12.33.17.52.15.36-.07.92-.07 1.58-.07 1.16 0 2.63 0 3.82-.25a.75.75 0 00.44-.3c.04-.05.06-.11.08-.15.14 0 .32.04.53.04.06.1.13.17.2.21.04.12.09.23.17.31a.7.7 0 00.64.2c.23-.05.41-.07.57-.07 1.29-.12 1.2 1.25 2.63 2.43.1.76.19 1.53.19 2.16 0 1-.19 1.6-.69 1.98-.5.08-1.11.21-1.55.68-.77-.02-1.54-.02-2.3-.02-3.2 0-6.25.16-9.01.63-.21.03-.37.15-.49.32.03.21-1.12.33-2.3.41-.21.03-.39.15-.5.32-.03.04-.05.08-.07.12h-.07c-.08 0-.15.01-.15.01-.24.07-.45.24-.52.48-.12.38-.15.7-.19.85-.33.06-.58.35-.58.69v1.48c0 .32.21.59.52.68 1.07.29 2.28.35 3.54.35s2.65-.07 3.9-.07h.67c.08.25.29.43.55.46.45.07.93.09 1.41.09 1.27 0 2.63-.15 3.78-.15 1.89.09 2.64.23 2.66 1.53 0 .05 0 .12-.01.17 0 .23.08.41.23.54.04.04.09.08.14.11-.23.81-.88 1.53-.96 3.01-.68.39-1.59.51-2.69.51-.65 0-1.35-.04-2.06-.04-1.13 0-2.32.09-3.44.6l-.35.36c-.26.62-.35 1.23-.35 1.81.01 1.58.62 2.88.6 4.18v.04c0 .23.1.44.28.58 1.31.94 2.66 2.14 4.82 2.56.19.65.7.97.94 1.15v.15c0 .41.02.84.02 1.18 0 .86-.17 1.11-.26 1.11-.27.09-.48.33-.49.63-.15 2.06-.6 4.32-.6 6.6 0 .97.09 1.96.32 2.93.05.21.21.39.41.48.49.17.87.76 1.69 1.29.28.17.63.12.86-.1h.07c.15 0 .23.09.23.09.05.23.2.42.41.51.12.04.25.09.44.09h.05c.07 0 .15 0 .23-.05.1.04.2.07.28.05.18 0 .31-.05.44-.09.13-.05.23-.15.31-.26.03.02.05.05.08.07.19.24.53.32.81.19.22-.09.37-.29.41-.52 1.36-.49 1.55-1.69 2.05-1.67.25-.09.44-.32.47-.6.04-.52.31-1.06.33-1.96.09-.04.18-.1.24-.17a.74.74 0 00.17-.56 4.23 4.23 0 01-.05-.69c-.02-1.18.48-2.01.61-3.42.12-.04.24-.12.31-.22.13-.16.19-.36.16-.57-.03-.22-.05-.42-.05-.59.02-.99.41-1.35 1.08-1.85h1.08c.85.89 1.54.76 1.39 1.3v.15c-.01.17.04.36.15.52.13.14.29.22.48.25.21-.06.27.27.85.71.01.24.17.46.4.56.7.19 1.03 1.48 2.45 2.09.06.2.2.36.4.45.59.2.96.78 1.47 1.53.15.2.41.32.67.28h.25v.27c-.03.19.03.37.15.52.13.15.3.24.49.25.46.04.62.23 1.02.68.36.44 1.03 1.12 2.12 1.1h.01c.21 0 .4-.09.54-.26.22-.28.61-.59.94-1.11.13-.21.14-.49 0-.7-.41-.72-.75-1.47-.97-2.35a.69.69 0 00-.54-.51.18.18 0 01-.05-.07.408.408 0 00-.21-.15.663.663 0 00-.32-.32c-.01.04-.1-.12-.35-.28a.71.71 0 00-.36-.46c-.69-.23-1.07-1.58-2.56-2.14-.12-.17-.27-.31-.42-.35-.03-.09-.05-.16-.11-.24-.05-.04-.12-.08-.18-.12-.09-.17-.23-.32-.36-.36a.938.938 0 00-.15-.06c-.56-.66-1.16-1.34-1.91-1.93v-1.95c.44-.23.69-.6.84-.84.35-.06.62-.26.71-.33v-.04s.02 0 .09.03c.21.07.46.01.64-.14.12-.11.2-.23.24-.4 1.49-.44 1.71-1.94 2.2-2.07.16-.09.27-.25.32-.43.13-.64.2-1.13.2-1.61 0-.6-.09-1.12-.2-1.91l-.24-.44c-1.09-.68-2.17-.63-2.03-.8a.735.735 0 00-.62-.39h-.62c-.72 0-1.47.01-2.16.01-1.58.03-2.8-.19-3.23-.74-.02-.23-.03-.45-.03-.67-.01-1.74.59-2.93.95-4.59.43-.1.74-.45.82-.63.05-.07.07-.13.1-.15.8-.13 1.4-.31 2.14-.31.17 0 .37.01.59.04.18.03.37-.02.51-.15.05-.04.1-.1.14-.15.33.1.97.36 1.63.39.2.01.43-.04.65-.14.13.07.27.11.38.09.18 0 .32-.04.44-.09.14-.07.24-.15.3-.27.03.02.05.05.07.07.19.23.5.31.77.21.28-.1.47-.36.47-.65v-.49c.09-.01.2-.05.33-.11.12-.07.21-.18.28-.29.21-.09.39-.25.41-.51 0-.02.01-.07.01-.17.02-.23-.13-.47-.3-.64v-.32a.64.64 0 00-.2-.48c-.09-.11-.22-.13-.34-.15a.852.852 0 00-.17-.2c-.93-.72-2.12-.82-3.33-.88-.03-.11-.1-.2-.19-.28a.666.666 0 00-.57-.17c-.2.03-.37.04-.52.04-.66.01-1.2-.22-2.02-.3-.36-.52-.99-.63-1.25-.69-.19-.05-.31-.11-.35-.12h.02s0-.09.02-.16a.714.714 0 00-.29-.73c-.47-.27-.82-1.33-.79-2.64 0-1.3.27-2.79.52-3.77.54-.23.88-.63 1.11-.93.8-.09 1.24-.33 1.76-.31.13 0 .28 0 .45.04.21.04.44-.03.59-.17.11-.08.16-.2.2-.33 1.07-.12 2.34-.12 3.28-.93.15 0 .3.01.45.01 1.34 0 2.15-.38 3.16-.37.15 0 .33.01.5.03.2.02.39-.04.54-.17.15-.13.23-.32.23-.51-.04-.12 0-.04.73-.46l.3-.44c0-.06.02-.1.02-.17.1-.02.19-.04.28-.07.2-.09.36-.25.42-.46.04-.21.28-.34.83-.64.46-.22 1.18-.76 1.26-1.66 1.3-.8 1.71-2.01 2.55-2.29.27-.12.44-.4.42-.68-.01-.12-.01-.22-.01-.33-.01-1.94.6-3.43.61-5.65.26-.09.44-.35.44-.64v-.39c0-.43-.01-.87-.01-1.27 0-.66.08-1.19.2-1.39.16-.26.12-.61-.09-.85-.14-.16-.17-.24-.17-.47-.03-.43.28-1.11.37-1.93.01-.27.03-.52.03-.76 0-1.72-.62-3.23-1.85-4.14-.12-.65-.37-.78-.3-.86 0-.03 0-.09.04-.2.09-.33-.08-.65-.37-.8-.17.14-.13-.95-.81-2.04l-.47-.25h-.16c-.24 0-.4-.04-.4-.07v-.03c-.02-.38-.33-.65-.71-.65-.09 0-.15.01-.21.01-.68.04-1.14-.42-2.22-.57a.67.67 0 00-.65-.46h-.37c-.42 0-.8-.01-.99-.09-.21-.07-.17-.07-.2-.15a.702.702 0 00-.68-.5h-4.58c-.31 0-.58.2-.67.48-.19 0-.46-.04-.77-.07a.655.655 0 00-.59-.41c-.27-.03-.55-.04-.84-.04-.79 0-1.62.05-2.36.05-.43 0-.83 0-1.18-.05v-1.05c.14-.09.27-.22.32-.35.11-.22.13-.38.13-.52.63-.28 1.26-.53 1.93-.75.29.09.58.13.87.13 1.44-.02 2.92-.82 3.76-.78.19 0 .32.02.4.08.19.09.41.11.6.01.12-.06.22-.14.3-.25h.14c.16 0 .37.01.61.01h.18c.19 0 .38-.1.49-.24.06-.07.11-.15.14-.21 2.09-.17 2.64-1.41 4.02-1.32.22.01.44-.07.58-.25.09-.09.14-.2.17-.33.03-.01.06-.04.08-.07.06-.05.11-.11.14-.17.11-.07.19-.14.26-.25l.02-.02c.22-.03.63-.44.58-.8 0-.15-.03-.28-.08-.41l-.22-.29c-.2-.14-.36-.2-.48-.24a.65.65 0 00-.12-.49.684.684 0 00-.57-.3h-6.37c-.18 0-.36.07-.49.2-.07.09-.12.15-.15.24-1.23.07-2.08.36-3.11.34-.23 0-.48-.01-.75-.04a.705.705 0 00-.74.49c-.05 0-.15.02-.26.01-.4 0-1-.11-1.57-.11h-.12c-.44-.54-1.01-.81-1.49-1.03-.22-1.39-.37-2.87-.52-4.35a.697.697 0 00-.66-.63s-.06-.14-.07-.37c0-.37-.31-.66-.69-.66h-.84a.725.725 0 00-.15-.25.743.743 0 00-.49-.2h-.66c-.19-.17-.44-.32-.72-.31-.81.13-.99.44-1.1.38-.02 0-.03 0-.05-.01a.69.69 0 00-.9.33c-.03.04-.03.09-.05.13-.11 0-.28.01-.48.04-.3 0-1.07.44-1.04 1.15 0 .09.01.12.01.12 0 .02-.01.04-.01.07-.58.68-.6 1.59-.62 2.44 0 .68.05 1.4.05 2.03v.03c-.26.1-.44.33-.46.63-.15 1.34-.49 1.71-1.85 1.85-.22.01-.41.12-.53.29a.545.545 0 00-.21-.17c-.26-.14-.46-.14-.61-.14h-.25c-.37-.61-.98-.77-1.26-.85-.49-4.34-.5-7.5-.56-12.22 0-.21-.09-.4-.25-.52-.16-.15-.37-.19-.57-.15h-.12s-.01 0-.1-.09c-.11-.12-.51-.46-1.04-.44-.2 0-.4.04-.61.11-.27.07-.46.33-.48.6-.09.03-.25.09-.46.23l-.25.33c-.08.23-.08.39-.08.57 0 .44.07.82.08 1.08-.19.06-.34.2-.42.39-.13.27-.18.56-.18.84.04.85.44 1.52.54 1.76 0 0-.01.01-.03.01-.23.1-.37.32-.39.57-.03.25.08.49.28.63.04.02.07.06.09.07-.04.08-.13.24-.29.51-.08.22-.11.33-.11.45 0 .25.11.44.25.57-.2.33-.3.73-.29 1.05.04.82.34 1.53.47 2.08-.22.09-.38.33-.4.59v.14c-.03 1.63-.89 2.01-2.8 2.13-.04-.07-.08-.15-.15-.21a.744.744 0 00-.51-.2c-.41.01-.79.01-1.16.01-2.57 0-4.07-.31-6.65-.33-.43-.65-1.3-.71-1.74-.73a.714.714 0 00-.6.26c-.14.17-.18.41-.13.62M44.39 39.9zm-.55-18.23a.8.8 0 00-.21.15c-.06.07-.11.15-.15.21-.6.05-1.14.27-1.56.63-.8-.45-1.7-.65-2.46-.88v-.28c0-.17 0-.45-.1-.72.26-.14.71-.44.84-1.06.41-.13.77-.3 1.09-.49.29.12.63.2 1.01.21.28.41.74.59 1.15.66.04.08.1.17.18.25.06.05.13.09.2.14v1.17zm-1.42 12.57c.05.44.17 1.02.7 1.37.11 1.1.31 2.02.31 3.09 0 .25-.01.53-.04.82v.18c.1.35.3.54.46.62.03.36.05.69.05 1.02 0 2.22-.54 3.78-1.5 4.85-.74.12-1.49.17-2.22.17-2.73 0-5.39-.79-7.06-1.94v-.35c0-1.23-.37-1.92-.35-2.77v-.5c-.1-.34-.27-.52-.46-.62.01-.17.04-.37.04-.61 0-.27 0-.72-.32-1.08v-.66c0-.78.04-1.5.17-2.1.36-.17.58-.52.66-.69.05-.11.09-.18.12-.23.04 0 .1.01.17.02.12 0 .3 0 .51-.16 1.48-1.05.97-.97 3.12-1.37.95-.15 1.96-.33 2.86-.32.63 0 1.19.08 1.64.27.13-.09.31.62 1.12.97m19.65-1.93c.32.31.7.77 1.31 1.1.04.98.23 1.81.47 2.57-.21.33-.24.71-.24 1 .04.53.08.97.29 1.39-.19.62-.54 1.33-.56 2.42-.59.4-.72 1.16-.73 1.7-.25.17-.42.43-.47.62-.02.09-.06.17-.08.23-.26.05-.54.14-.77.36-.16.13-.28.32-.35.53-1.33.3-2.79.48-4.44.48h-.91c-.25-.31-.64-.54-1.06-.6-.06-.5-.01-1.27-.35-2 .19-.48.25-.97.25-1.44-.02-1.22-.37-2.35-.37-3.38 0-.19 0-.38.04-.55a.75.75 0 00-.27-.65c-.27-.19-.45-.7-.45-1.45 0-.6.1-1.27.21-1.87.67-.38 1.82-.54 3.15-.52 1.31 0 2.77.11 4.16.11.4 0 .78 0 1.16-.04M.38 32.25c.48.01.53 1.51 1.95 2.14.53 1.54 2.08 1.62 2 2.09.1.25.34.42.61.44.32.01.63.02.92.02 1.87 0 3.26-.36 4.91-.36.31 0 .63.01.97.05.31.02.6-.16.7-.44.73-.09 1.19-.61 1.4-.91.28-.36.3-.4.52-.42.34-.04.61-.29.65-.62.12-1.16.4-2.04.42-3.08 0-.65-.13-1.34-.49-2.05l-.37-.33c-1.19-.46-2.26-.83-2.61-1.48a.815.815 0 00-.46-.34c-1.5-.3-3.1-.53-4.69-.53-1.3 0-2.59.15-3.81.56-.21.07-.39.25-.45.47-1.43.3-1.79 1.66-2.24 1.83-.19.13-.3.34-.3.57v1.79c0 .25.15.5.38.61m11.67 30.39c.34-.26.48-.68.48-.83.02-.09.03-.17.04-.22.14-.14.2-.31.2-.52 0-.24-.12-.47-.34-.6-.25-.15-.7-.43-1.33-.42-.15 0-.31 0-.47.04a.78.78 0 00-.52.43c-.84 2.01-1.88 3.37-4.18 3.72a.69.69 0 00-.61.68v.06h-.26a.688.688 0 00-.56.2c-.15.15-.23.34-.21.54v.29h-.05c-.33 0-.6.23-.68.54-.18.99-.4 1.71-.65 1.74-.3.15-.46.5-.37.82.01.07.01.1.02.1h-.03a1.1 1.1 0 00-.3.53c-.52.32-.71.94-.76 1.21-.04.2-.09.35-.12.39-.37.05-.63.36-.62.73v.1c.04.25-.13.17-.24.92v.11c-.21.16-.41.4-.5.81-.05.32.13.65.46.75.06-.03.13.11.29.31a.49.49 0 00-.07.34c0 .23.06.33.11.46.07.17.2.28.35.36v.1c.01.29.05.49.05.57a.7.7 0 00.46.84c.38.1.7.13.85.18h.01c.05.34.33.59.69.59h2.81c.33 0 .63-.25.69-.6.08-.04.43-.11.9-.15.33-.04.57-.33.59-.66.03-.65.34-.76 1.1-1.19.2-.1.33-.27.36-.48.16-.97.36-1.55.59-1.55.23-.09.39-.27.45-.51.5-2.4 1.13-4.82 1.13-7.85 0-.62-.02-1.29-.08-1.97-.01-.05-.01-.09-.03-.15.09-.07.17-.16.21-.24.13-.24.13-.4.13-.52"/><path class="cls-5" d="M179.47 11.64v.3h.12V15h.12c.04.24.08.46.12.7h.11v.2h.12c.04.13.08.26.12.4h.11v.3h.12c.04.33.07.65.11.98h.12c.04.13.08.26.12.4h.12v.19c.16.12.32.21.47.31v.19c.11.06.23.14.34.19v.2c.08.04.16.07.23.1v.2c.16.1.32.19.47.29v.1h.23c.04.07.08.13.12.2h.23v.1h.35v.09h.24v.09h.23c.08.09.16.2.24.3h.23c.12.12.23.25.35.39h.24c.03.07.08.12.11.19h.35v.11c1.05.09 2.1.19 3.14.3v.09c.15.04.32.07.47.1.03.06.08.12.12.2h.24c.03.06.07.13.11.19h.23c.04.07.08.14.12.2h.24v.09c.81.16 1.63.33 2.44.49v.1h.23v.11h.35v.09c.24.03.47.08.7.11v.09h.22v.09h.35v.1h.24v.1h.23v.09h.23c.05.07.08.14.13.2.23.06.46.14.69.19v.11l2.09.09v.1h.46v.1h.58v.1h1.74v.09h1.05v.1h1.39v.09h1.28v.11h.46v.08h.36v.11c.15.03.31.07.46.1v.09h.23c.11.13.23.27.35.4h.23c.27.25.54.52.81.79.16.04.31.06.46.09v.1h.35v.09h.81v.1h1.16v.11h.46v.09h.47v.09h.58v.09c.7.18 1.52-.09 2.09-.09 1.74-.03 3-.07 4.31-.4.57-.02 1.16-.06 1.74-.09v-.1h1.39c.64-.09 1.56-.11 2.1-.3h.35c.08-.09.15-.2.24-.29.08-.04.15-.07.23-.1.23-.31-.06-.79.11-1.18h.12v-.2h.11c.09-.1.16-.2.24-.31.69-.13 1.39-.25 2.09-.39h3.13v-.1h3.03v-.1h1.51v-.09h.93v-.1h.94v-.1c.42-.03.85-.07 1.28-.09v-.09h.58v-.11h.46v-.09h.46v-.11c.35-.03.69-.06 1.05-.1v-.09c.77-.02 1.55-.07 2.33-.1v-.09h.34c.31-.3.63-.6.93-.89h.23c.04-.07.08-.14.12-.2h.24v-.11c.65-.03 1.32-.05 1.97-.1v-.09c.16-.04.31-.08.47-.11.07-.09.15-.19.23-.29h.24l.23-.2v-.19c.08-.04.16-.07.24-.11v-.19h.12v-.4c.11-.29.24-.59.35-.89.08-.02.16-.05.24-.09v-.21c.15-.08.31-.18.46-.28.04-.15.08-.28.12-.41h.11c.2-.44-.04-1.91-.23-2.08-.25-.81-1.13-.52-1.97-.79v-.09h-.35c-.04-.08-.08-.14-.12-.21h-.23c-.32-.29-.62-.59-.93-.88h-.24c-.05-.07-.08-.14-.12-.2h-.24v-.12c-.62-.02-1.23-.04-1.86-.09v-.09c-.27-.02-.54-.08-.81-.1v-.09h-.24v-.09h-.35v-.11c-.77-.2-1.98.15-2.44.29v.1h-.58v.09h-.46v-.09c-.93-.02-1.86-.08-2.79-.1v.1h-.36v.09l-.69.21v.09h-.23v.1h-.23v.1h-.24v.09c-.65.13-1.31.27-1.97.4-2.48.03-4.96.07-7.45.09v.1h-.81v.09h-.7v.11h-.81c-.19.04-.79.19-1.17.1v-.1h-.47v-.11h-.35v-.09h-.35v-.1H219v-.09c-.24-.04-.47-.07-.7-.09v-.1h-.22v-.1c-.36-.1-.7-.19-1.05-.29-.05-.07-.09-.14-.13-.2-.15-.04-.31-.07-.46-.12v-.09h-.24v-.09c-.23-.08-.46-.12-.69-.19v-.09h-.36v-.11c-.86-.24-1.7.24-2.32 0v-.09h-.24c-.23-.24-.47-.46-.7-.7-.15-.04-.32-.06-.46-.09v-.1h-.46c-.87-.24-1.86.24-2.79 0v-.09h-.58c-.77-.44-1.55-.87-2.32-1.3v-.2c-.11-.07-.23-.13-.35-.2v-.2h-.12c-.08-.1-.15-.2-.23-.3h-.23V9.5c-.39-.05-.78-.08-1.16-.1v.1c-.64.14-1.81-.09-2.22-.22h-.46v-.09h-.35V9.1h-.35V9h-.24v-.09h-.23a1.06 1.06 0 01-.12-.2h-.23v-.1c-.16-.02-.31-.07-.46-.1v-.09h-.35v-.11c-1.08-.3-2.03.5-3.13.2v-.09h-.36v-.11h-.23v-.09h-.35v-.09h-.24v-.11c-.6-.17-1.83.12-2.2.2-1.63-.04-3.26-.07-4.89-.09-.93-.25-1.72-.7-2.91-.7v.1h-.23c-.03.07-.08.13-.12.2h-.11v.2h-.12v.2h-.11v.3h-.12v.19h-.11c-.08.1-.15.2-.23.3-.84.13-2.07.33-2.68.69-.15.17-.3.33-.46.49-.26.23-.4.17-.48.6h-.11c.11.3.24.6.35.89h.12zm32.58 27.56c-.67-.04-2.24-.39-3.03-.2v.1h-1.62v.09h-1.17v.11c-.24.04-.47.05-.7.09v.1h-.24v.1c-.23.07-.47.13-.7.19v.11c-.58.09-1.17.19-1.74.3-.36.11-.61.43-.93.57-.07.29-.26.49-.35.7v.4c-.17.46-.38 1.47-.12 1.98.54.49 1.09.99 1.63 1.49h.23c.08.09.16.19.24.28h.23c.04.07.08.15.12.2h.23c.05.07.08.14.12.22.23.05.47.12.7.18 3.09 1.42 8.16 1.69 12.9 1.69 2.54 0 5.16.07 7.1-.41h1.28v-.1h.35v-.09h.23v-.11h.23v-.1c.24-.06.47-.12.71-.2v-.09h.46v-.09h.46v-.09h1.05v-.11h.93c.87-.2 1.87-.44 2.1-1.18.33-.31-.09-1.05.11-1.49h.12v-.2c.12-.06.24-.14.35-.2v-.2c.15-.09.31-.2.47-.3v-.18h.12v-.3h.12v-.6h.12v-.69h.12c.08-.26 0-.78-.12-.89-.2-.64-.65-.46-1.28-.68v-.1c-.16-.04-.3-.07-.46-.1v-.09h-.24c-.04-.07-.08-.14-.12-.2-.37-.3-.8-.7-1.28-.88h-.35v-.11c-.31-.09-1.91-.09-2.32 0v.11l-3.49-.21v.1c-.27.04-.54.07-.81.11v.09h-.35v.1c-.15.02-.31.06-.48.09v.1h-.35v.09h-.35v.1h-.35v.11h-.47V39H221v.1h-.82v.09h-1.63c-.43.12-3 .25-3.6.11v-.11h-2.9zm36.98 25.6v-.11c-1.39-.36-2.79-.73-4.18-1.09-.66-.06-1.32-.13-1.98-.2v-.1h-.35v-.09h-.35c-.04-.08-.08-.14-.12-.2h-.23c-.07-.1-.15-.2-.23-.3h-.12v-.19c-.08-.04-.16-.07-.23-.1v-.2c-.24-.17-.47-.34-.7-.5h-.23v-.09h-.47v-.09h-1.16c-.94 0-2.16-.13-2.91.09-.39.12-1.23.66-1.86.49v-.1h-.35c-.04-.05-.08-.14-.12-.2-.15-.02-.31-.04-.46-.1-.04-.06-.08-.12-.12-.19-.19-.02-.39-.07-.58-.09v-.1c-1.63-.17-3.26-.33-4.89-.49v-.1h-.58c-.52-.15-1.22-.36-1.74-.5h-1.05c-.54-.21-1.08-.46-1.63-.68-.49-.14-1.54.21-1.87.29-.89-.07-1.77-.12-2.68-.2-.38-.09-.77-.19-1.16-.29-.39-.37-.77-.73-1.16-1.09h-.24v-.11h-.23v-.08h-2.21v-.11h-.24v-.1h-.23c-.52-.23-.52-.39-1.4-.39-.24.16-.47.33-.7.49-.08.11-.16.19-.23.3l-.46.09v.1c-.57.17-1.85-.11-2.2-.2h-.82c-.54-.14-1.3-.27-1.85-.4h-1.29v-.09c-.75-.18-1.76.09-2.21.2-.4.11-1.37.09-1.86 0-.85-.12-2.6-.48-3.49-.2h-.35c-.19.2-.39.38-.59.59h-.23v.1H194v-.1h-.24c-.2-.2-.38-.39-.57-.59-.21-.04-.4-.07-.59-.09v-.09h-.47v.09h-.46c-.04.06-.09.12-.11.19h-.23v.1c-.16.11-.32.19-.47.3v.2c-.12.07-.23.13-.35.2v.2c-.19.13-.38.27-.58.41-.04.05-.08.12-.12.2-.43.23-1.57.22-2.1.38h-.34c-.08.09-.16.2-.24.31-.16.08-.32.19-.47.28-.03.13-.08.27-.12.4h-.12v.2h-.11v.2h-.12v.2h-.12c-.03.12-.08.25-.11.38-.7.53-1.4 1.05-2.1 1.58-.15.46-.31.93-.46 1.39v.47h-.12v.31h-.11v.3h-.12c-.03.36-.07.73-.12 1.08h-.11c.03.83.08 1.66.11 2.48-.03.46-.08.93-.11 1.39h.11v.48h.12v.39h.12v.4c.03.06.41.54.46.59h.23c.04.08.08.13.12.21.15.02.3.06.45.09.05.07.09.13.12.2h.24l.23.2v.2c.12.06.23.13.35.19v.2c.5.39 1.01.78 1.51 1.18v.2c.08.03.15.06.24.1.04.17.07.33.11.49.24.23.47.46.7.7h.24v.09h.23v.1h.35v.1h.35v.09h.35v.1h.36c.03.06.08.14.12.2h.23v.1h.23c.16.16.31.33.46.49.08.04.16.07.23.1v.19c.08.04.15.08.24.09v.22c.07.03.15.06.23.09v.11c.49.29 1.17.01 1.74.2v.1c.15.02.31.07.46.09.04.07.08.14.11.2h.24c.03.07.07.13.11.2.55.17 1.09.33 1.63.49l.23.2h.24c.04.07.07.15.11.2h.24c.04.07.08.14.11.21.16.03.32.06.46.09v.09h.23v.09c.73.24 1.62-.19 1.98-.28h.58v-.11c.33-.09 1.02 0 1.16.11h.47c.04.06.08.12.11.19h.23c.04.07.08.13.12.2h.12v.19h.12v.2h.12v.19h.12v.2h.12c.07.09.16.2.23.3.2.04.39.07.59.09v.1c.19.04 1.57-.23 1.74-.29v-.1h.24v-.09c.33-.12 1.87-.36 2.44-.2v.1c.23.07.46.14.69.2.08.1.16.2.24.29h.23c.04.08.08.14.12.21.16.03.32.06.47.09v.11c.46-.03.92-.07 1.39-.11v-.09h.23v-.11c.43-.02.86-.04 1.28-.1 2.06.21 4.11.41 6.16.61v.1h.24c.28.2.54.38.82.58.04.09.08.2.11.3.2.17.52.23.7.4.72-.04 1.1-.26 1.63-.4.54-.03 1.09-.07 1.63-.09v-.11h.35v-.09h.23c.04-.07.08-.12.12-.2h.23v-.1c.24-.07.46-.12.7-.2v-.09c.72-.23 1.61.19 1.98.28.39.04.78.08 1.17.1.2.05.9.21 1.28.1.57-.29 1.17-.59 1.74-.9l1.28-.09v-.11h4.19v.11l.7.09v.11c.16.02.31.07.46.1v.1h.35v.1c.38.03.77.05 1.16.09v.11h.59v.09h.58v.1c.61.15 2.07-.06 2.44-.19v-.11h.23v-.09c.16-.04.31-.07.47-.1v-.1h.35v-.1c.7-.07 1.39-.14 2.1-.2.35-.12.61-.44.93-.6v-.39c.04-.13.14.04.12-.09h-.12v-.31h-.12c-.23-.42-.35-.76-.35-1.39.31-.3.61-.59.93-.89.54-.24 1.08-.46 1.62-.7.23-.23.48-.45.7-.69h.23c.27-.25.54-.52.81-.8.12-.05.24-.12.35-.19.05-.13.08-.27.12-.39.08-.04.16-.07.24-.11.04-.12.08-.26.12-.38.08-.04.15-.07.23-.1l.12-.39c.07-.04.16-.07.23-.1.04-.13.08-.26.12-.4h.12c.04-.12.08-.26.11-.39h.11v-.3h.12v-.19h.12v-.31h.11v-.19h.12c.04-.19.08-.4.12-.59h.12c.17-.43-.15-1.03-.23-1.29-.11-.36.42-1.34.59-1.48-.04-.63-.33-.86-.7-1.19-.08-.03-.15-.07-.24-.1v-.19c-.12-.07-.23-.13-.34-.21v-.19l-.24-.2v-.19h-.12v-.2a.643.643 0 00-.24-.1c-.04-.14-.08-.27-.11-.4-.12-.07-.23-.12-.34-.2v-.2l-.24-.09c-.15-.17-.31-.33-.45-.5h-.24c-.07-.09-.15-.2-.23-.28h-.23c-.05-.07-.08-.14-.12-.22-.24-.04-.47-.12-.7-.19v-.09c-.23-.08-.46-.13-.7-.19m204.98-3.26v-.73h-.1v-.42h-.11v-.31h-.1c-.03-.15-.07-.29-.11-.42-.09-.07-.2-.14-.3-.23v-.19c-.08-.04-.15-.09-.22-.12-.15-.17-.28-.35-.42-.52h-.21c-.04-.07-.07-.14-.1-.2h-.21c-.03-.08-.07-.14-.11-.23h-.2l-.21-.19h-.2v-.11h-.21v-.12H451v-.1h-.2l-.21-.2h-.21c-.03-.08-.06-.14-.1-.22h-.21c-.03-.07-.07-.14-.1-.2-.24-.15-.56-.12-.85-.22v-.09c-1.04-.04-2.1-.07-3.13-.1v-.11h-.53v-.11h-.32v-.11h-.31v-.09h-.32v-.12c-1.12-.36-2.19.65-3.35.32-.98-.2-1.95-.42-2.94-.63v-.09h-.31v-.12h-.32v-.1h-.31v-.1h-.32v-.11c-.21-.03-.42-.07-.63-.11v-.09c-.13-.04-.28-.07-.42-.12v-.09h-.32c-.03-.07-.06-.15-.11-.21-.14-.04-.28-.07-.43-.12-.37-.42-.77-.84-1.15-1.26h-.2c-.04-.07-.07-.14-.11-.2h-.21l-.21-.21h-.21v-.11h-.21v-.09h-.21v-.12h-.21l-.21-.2h-.21c-.04-.07-.07-.15-.11-.2-.2-.07-.42-.14-.62-.23-.08-.09-.15-.21-.21-.31h-.21c-.18-.21-.36-.41-.52-.63-.15-.1-.29-.2-.42-.32v-.19c-.07-.05-.15-.07-.21-.12-.04-.1-.07-.21-.11-.31h-.11c-.11-.31-.22-.63-.32-.94h-.11v-.21h-.11v-.33h-.09v-.31h-.11v-.31h-.11v-.41c-.07-.22-.43-.86-.31-1.26h.1v-.32h.11v-.2h.1v-.21c.11-.07.22-.13.31-.21.05-.1.08-.21.11-.31.17-.15.35-.29.53-.41v-.23c.17-.13.36-.28.53-.41v-.22c.18-.13.34-.27.52-.41v-.2c.25-.23.49-.42.73-.64v-.21c.21-.17.42-.35.63-.52v-.2c.08-.04.14-.08.21-.11.04-.11.07-.21.1-.32h.11c.03-.14.07-.28.11-.41.07-.04.14-.08.2-.1v-.22c.08-.04.15-.06.22-.1v-.1c.07-.04.14-.08.21-.1v-.22c.17-.15.35-.28.53-.41v-.22c.07-.04.13-.07.21-.1.07-.22.13-.41.21-.64h.11c.03-.12.07-.28.1-.41h.11v-.31h.1v-.23h.11c.03-.23.07-.48.11-.73h.11v-.3h.1c.04-.25.08-.49.11-.74h.09v-.42c.11-.31.26-1.31.12-1.77h-.12v-.33h-.09v-.2h-.11v-.33a.505.505 0 01-.21-.1v-.2c-.07-.02-.14-.07-.21-.11v-.2c-.28-.22-.55-.43-.83-.63h-.32v-.11h-.42v-.09h-.53c-.14-.05-.96-.28-1.15-.22v.1h-.32v.12h-.21v.09h-.21c-.04.07-.07.13-.1.21h-.21c-.04.07-.07.15-.11.2h-.21c-.07.11-.15.21-.21.33h-.21c-.11.14-.22.28-.32.42h-.22c-.66.72-1.31 1.46-1.98 2.19-.15.11-.28.21-.43.31v.1h-.2c-.34.4-.7.78-1.05 1.16h-.22c-.31.36-.63.69-.93 1.06h-.21c-.1.15-.21.27-.32.42-.35.31-.7.62-1.04.94-1.09 1.11-2.17 2.23-3.26 3.34h-.2c-.15.19-.29.35-.43.53h-.21c-.03.08-.08.15-.11.22h-.11c-.04.06-.07.14-.11.2h-.2c-.08.12-.15.21-.21.32h-.21c-.04.07-.07.15-.1.2h-.2c-.04.08-.07.14-.11.21-.11.04-.21.07-.31.1v.12c-.14.03-.29.07-.42.1-.03.07-.07.14-.1.2h-.21c-.04.08-.08.14-.12.22h-.21c-.03.07-.07.15-.11.22-.21.07-.41.12-.62.21v.1h-.21v.1c-.21.07-.43.15-.64.21v.1c-.21.04-.41.07-.63.11v.11c-1.13 0-1.23-.3-1.68-.94-.07-.04-.14-.07-.21-.1-.04-.15-.07-.28-.11-.43-.07-.03-.14-.07-.21-.1-.07-.22-.14-.42-.21-.64-.07-.03-.15-.06-.21-.09-.04-.14-.07-.29-.11-.43-.07-.04-.15-.07-.21-.09-.03-.14-.07-.28-.11-.42-.07-.04-.14-.08-.21-.11v-.22h-.11v-.2h-.11v-.31h-.11c-.03-.14-.07-.29-.1-.43h-.11v-.32h-.1v-.2c-.08-.04-.14-.09-.21-.11v-.21c-.07-.04-.14-.08-.21-.1-.03-.1-.07-.21-.1-.32h-.11c-.04-.15-.07-.28-.11-.41-.07-.05-.15-.07-.21-.12-.07-.2-.13-.42-.21-.62-.06-.04-.13-.07-.2-.12-.04-.12-.07-.26-.11-.41h-.1v-.2h-.11v-.21h-.11v-.23h-.1v-.2h-.11v-.23h-.1v-.19l-.21-.23v-.2c-.07-.04-.15-.07-.22-.11-.03-.14-.06-.28-.1-.42h-.1v-.21h-.11v-.2h-.1v-.22l-.21-.21v-.2c-.06-.02-.13-.07-.2-.1-.32-.74-.64-1.47-.94-2.22-.08-.03-.14-.06-.22-.09-.03-.14-.06-.28-.1-.42-.07-.04-.14-.07-.21-.12-.04-.13-.07-.27-.11-.41-.06-.02-.13-.08-.2-.1-.04-.15-.07-.28-.11-.42-.08-.04-.14-.08-.21-.11-.31-.73-.62-1.45-.94-2.2-.08-.04-.14-.07-.21-.1v-.22c-.07-.02-.14-.07-.21-.09v-.22c-.08-.04-.14-.07-.21-.1v-.21c-.08-.04-.15-.07-.21-.12v-.2c-.08-.03-.13-.06-.21-.1-.03-.11-.06-.21-.09-.31h-.11c-.04-.14-.07-.28-.1-.42-.07-.03-.14-.07-.21-.1-.03-.12-.07-.21-.1-.3h-.11c-.03-.15-.07-.28-.11-.44h-.1c-.04-.1-.07-.2-.1-.31-.07-.04-.15-.07-.22-.1v-.21c-.1-.07-.2-.14-.3-.2-.04-.12-.07-.23-.11-.32-.07-.04-.15-.07-.21-.1v-.22c-.07-.03-.13-.07-.21-.11-.03-.09-.07-.2-.11-.31h-.11v-.2c-.09-.07-.21-.15-.31-.21v-.22c-.25-.2-.48-.42-.73-.62v-.21c-.07-.04-.14-.06-.21-.09-.03-.19-.07-.36-.12-.53h-.1c.05-1.11.61-1.45.95-2.2.1-.46.21-.92.31-1.37.19-.2.35-.42.53-.63 1.1-.18 1.93.14 2.83.43h.53v.1h.52v.1h.74v.11h.62v.11h.41v.1h.43v.11c.31.03.63.06.94.11v.09c.46.04.91.07 1.37.11 1.88.56 5.09.79 7.13.21h1.05v-.11h.84V19c.59-.04 1.18-.07 1.78-.11v-.09h.31v-.11h.32v-.11h.31v-.1h.22v-.11h.21c.03-.07.07-.14.1-.21h.21c.14-.17.28-.36.42-.53.11-.06.21-.13.31-.2v-.21c.08-.03.15-.08.21-.11v-.2h.1v-.33h.11v-.31h.11v-.53h.1c-.03-.7-.07-1.39-.1-2.09h-.11c-.03-.14-.07-.28-.11-.42-.1-.07-.2-.13-.31-.2-.28-.31-.55-.63-.84-.95h-.21a1.85 1.85 0 01-.1-.2c-.15-.04-.28-.08-.43-.11v-.11h-.42v-.09h-3.47v.09c-.55.04-1.12.08-1.68.11v-.11h-1.26v-.09c-.84-.04-1.68-.08-2.52-.11-1.11-.32-2.57-.3-3.68-.63h-.84v-.1h-.63v-.1h-.53v-.11h-.41v-.1h-.42v-.1c-.32-.04-.63-.08-.95-.11v-.11c-.95-.07-1.88-.15-2.83-.21v-.1c-.21-.04-.42-.07-.64-.11v-.1h-.2v-.11h-.33v-.09h-.2v-.12h-.42v-.11h-.33v-.09h-.41v-.1h-.31v-.1h-.31v-.11h-.32v-.12h-.31v-.1h-.32v-.1h-.41v-.1h-.31v-.1h-.42v-.11c-.53-.11-1.05-.2-1.57-.32v-.1h-.32v-.1h-.31v-.11h-.42v-.11c-.45-.06-.91-.13-1.37-.2v-.11c-.24-.04-.49-.07-.74-.09v-.11c-.24-.04-.49-.07-.73-.12v-.09c-.25-.03-.49-.07-.73-.11v-.09h-.32v-.12h-.42v-.09h-.31v-.1h-.42v-.1c-.21-.04-.42-.08-.64-.12v-.1h-.31v-.1h-.31v-.12h-.31v-.1h-.32v-.09h-.31v-.11h-.32v-.09h-.32V5.1h-.42c-.47-.16-1.1-.36-1.57-.52h-.74v-.09h-.84c-.25-.09-1.26-.35-1.67-.22v.1h-.32v.12h-.31c-.04.07-.07.14-.11.2h-.21c-.03.07-.06.13-.09.22h-.22V5c-.14.11-.28.23-.42.33-.16.21.11.09-.21.31-.05.49-.43 1.66-.21 2.32h.11c.04.17.07.34.11.52.07.04.14.07.21.1v.22c.11.07.21.14.32.21.33.33.7.84 1.15 1.04.21.04.42.08.63.11v.11h.53v.11c.31.04.63.06.94.1v.1h.43v.11h.31v.1h.32v.1h.2V11h.32v.11h.21v.1c.17.04.35.06.53.09v.12c.31.07.62.13.94.21v.09h.21v.11c.31.07.63.15.94.21v.1h.21v.11h.31v.11c.21.05.42.14.62.2v.1h.22v.12h.21v.1h.21v.11h.21v.1c.21.07.41.14.63.2v.1h.31v.11h.21v.11l.63.21v.12h.31v.09h.21v.1h.32v.11h.32v.1h.31v.11h.31v.11h.22v.09c.31.08.63.15.94.22.46.19 1.02.44 1.46.63.08.22.15.41.21.63h-.11v.3c-.1.07-.2.15-.3.21-.08.1-.15.2-.21.33h-.11v.2l-.52.43v.21c-.07.03-.15.06-.21.09-.04.11-.07.22-.11.32h-.11c-.03.15-.07.28-.11.42-.06.03-.13.06-.2.11v.2c-.08.04-.15.07-.21.11v.21c-.11.07-.22.15-.32.2v.22c-.09.07-.2.13-.31.2v.21h-.1v.22c-.07.03-.14.07-.21.1v.2l-.21.23v.2h-.1v.2c-.07.04-.15.08-.22.12-.04.14-.07.28-.1.42-.07.03-.15.06-.21.1-.04.14-.07.28-.11.42-.07.03-.14.07-.21.11v.2l-.2.21v.2h-.11v.22h-.11v.2h-.1v.21h-.11v.22l-.21.2v.2c-.07.04-.15.08-.21.11v.22h-.11v.2l-.21.23v.2c-.07.03-.14.07-.21.11v.2h-.11c-.14.18-.24.25-.31.53-.37.09-.57.4-.84.62v.11h-.21c-.07.11-.14.2-.21.31h-.11v.2c-.17.15-.35.29-.52.41v.23c-.07.02-.15.07-.21.1v.2c-.11.07-.21.15-.32.21v.22c-.07.03-.14.07-.22.1-.03.1-.07.21-.1.31h-.11v.22c-.07.03-.14.06-.21.1v.2c-.17.14-.35.28-.53.43v.2c-.1.07-.21.14-.31.21v.2c-.07.04-.14.07-.21.12-.04.11-.08.2-.11.31h-.11c-.03.14-.06.27-.1.42-.08.02-.15.08-.21.1-.04.15-.07.28-.11.41-.07.04-.14.07-.21.12-.03.14-.07.28-.11.42-.08.03-.14.06-.21.09-.25.57-.49 1.13-.73 1.7l-.21.2v.21c-.07.04-.13.07-.21.11-.04.15-.07.28-.12.43h-.09c-.07.2-.14.41-.21.62h-.11v.3h-.1v.22h-.11v.31h-.1c-.2.54 0 1.23-.11 1.88-.05.32-.25 1.13-.11 1.59h.11v.31h.11v.21c.07.02.14.07.21.09v.22c.14.1.28.21.42.31v.22c.24.2.48.41.72.63.04.07.08.12.11.2h.21c.04.07.07.15.11.2.17.03.34.08.52.12.66.26 1.75.58 2.62.3h.42v-.11h.22c.02-.07.06-.14.09-.2h.21c.07-.12.14-.22.21-.32h.21c.07-.11.14-.2.22-.33.27-.23.56-.47.84-.73.03-.15.07-.28.11-.41.07-.04.14-.07.21-.12v-.2h.11v-.22h.1v-.3h.11c.07-.22.15-.43.21-.63h.11c.03-.15.07-.28.11-.43.07-.03.14-.06.21-.11v-.2h.11v-.23h.1v-.2l.21-.22v-.2c.07-.04.14-.08.2-.1.04-.15.07-.28.11-.42l.21-.12c.03-.14.07-.28.11-.42.07-.03.14-.05.21-.1l.22-.62c.07-.04.13-.08.21-.12v-.21h.1v-.2c.07-.03.14-.07.21-.11v-.2c.07-.05.14-.09.21-.12v-.2c.07-.02.14-.07.2-.1v-.21c.08-.04.16-.07.21-.11v-.2h.11v-.23c.07-.03.14-.07.21-.1.06-.2.13-.41.2-.63h.11c.03-.11.08-.2.11-.3.07-.04.14-.07.21-.11v-.23h.11v-.19c.07-.05.14-.08.21-.12.04-.13.07-.28.11-.42.07-.04.14-.07.21-.1v-.31h.11v-.21h.11v-.31h.11v-.31h.11v-.32h.09v-.31h.1v-.32h.11c.08-.1.14-.21.21-.3h.63c.04.05.07.13.11.2.14.1.28.2.42.32v.2c.07.04.15.07.21.11.03.15.07.28.1.42h.11v.2h.11v.21h.1v.21l.21.21v.2c.07.04.14.08.21.11v.22l.21.2v.23h.11v.19h.1v.23c.07.04.14.07.21.11v.2l.2.22v.21h.11v.21h.1c.11.31.21.62.31.94h.11l.52 1.15c-.05.03-.12.04-.18.09-.09.04-.21.52-.3.59-.45.37-1 .76-1.21.89-.21.15-.43.15-.6.32-.44.43-.44.81-.6 1.18-.03.09-.53.23-.6.3-.46.52-1.02.97-1.5 1.5-.41.46-.74 1.21-1.21 1.8-.42.54-1.12 1-1.5 1.5-.17.23-.18.69-.31.89-.04.08-.21.16-.29.29-.36.57-.56.62-.91.92-.1.07.09.49 0 .6-.2.25-.71.34-.9.6-.1.13.07.44 0 .6-.04.1-.53.18-.6.3-.09.14.06.44 0 .61-.04.09-.53.19-.61.3-.07.1-.3.51-.3.59-.01.36-.2.14-.3.3-.32.5-.81 1.74-.9 2.4-.07.55.05 1.29 0 1.8.82.08.91.88 1.19 1.51.91.05 1.85.46 2.71.28.41-.09 1.09-.83 1.2-.89.22-.14.42-.13.6-.31.47-.43.72-1.17 1.2-1.79.09-.12.48-.21.6-.3.11-.09-.08-.5 0-.6.25-.33.62-.52.89-.89.24-.32.38-.61.61-.89.23-.29.72-.65.9-.92.09-.12-.07-.44 0-.59.04-.1.52-.2.6-.31.21-.3.36-.88.6-1.19.2-.25.7-.36.9-.6.09-.11-.07-.46 0-.6.04-.09.53-.22.6-.3.06-.08.29-.52.29-.61.03-.63.96-.89 1.2-1.18.1-.12-.06-.46 0-.61.04-.07.53-.2.6-.3.28-.32.58-.54.91-.9.03-.04.01-.12 0-.2l.39.84c-.23.39-.44.82-.69 1.16-.35.45-.89.78-1.2 1.18-.4.54-.52 1.02-.9 1.51-.3.38-.9.8-1.2 1.2-.35.46-.53 1.04-.9 1.5-.38.46-.81.7-1.19 1.21-.18.22-.44.38-.6.6-.19.24-.1.65-.31.89-.35.46-.86.78-1.19 1.21-.19.23-.45.38-.61.59-.19.25-.09.63-.29.89-.33.44-.85.76-1.2 1.21-.37.48-.54 1.05-.91 1.5-.32.39-.85.81-1.2 1.2-.37.43-.85.78-1.21 1.21-.19.22-.13.69-.29.89-.39.52-.9.82-1.21 1.21-.16.19-.46.38-.6.6v2.4c.82.81 1.71 1.53 3.3 1.21.03 0-.01-.28 0-.31.08-.1.5.07.6 0 .67-.47.98-1.29 1.51-1.79 2.49-2.41 4.59-4.62 6.6-6.61.93-.94 2.1-1.76 2.7-2.4.21-.22.09-.65.3-.9.36-.42.84-.76 1.21-1.2.34-.44.58-.78.9-1.2.34-.46 1.18-1.21 1.2-1.5.03-.6.69-.65.89-.92.01 0 .02-.02.03-.04h.17c.04.07.07.14.11.21.24.22.46.43.63.74v.19c.07.04.14.09.21.12v.2h.11v.22h.1v.2h.11v.21h.1v.22h.1v.21h.11v.21h.11l.09.42h.11c.04.14.07.27.1.41h.11c.03.14.07.28.1.42h.11c.04.14.07.28.11.42h.1v.31h.11c.04.13.07.28.1.42h.1v.31h.11v.32h.11v.21h.1c.04.22.08.41.11.62h.11v.21h.11v.43h.1v.31h.11c.09.29-.02 1.31-.11 1.46-.07.04-.14.08-.21.11v.21c-.11.07-.21.15-.32.2v.11h-.21c-.13.18-.28.36-.41.53h-.22v.09c-.1.07-.21.15-.31.21-.04.08-.08.14-.11.22h-.21c-.04.07-.07.15-.11.21-.14.04-.28.07-.41.11v.09c-.21.08-.42.15-.62.22v.1h-.32v.1h-.22v.12h-.2v.09c-.22.07-.42.14-.64.21v.1h-.31v.1h-.32v.11h-.21v.11h-.31v.12c-.21.02-.43.06-.63.09v.1h-.21v.11c-.31.08-.62.14-.94.21v.11c-.17.03-.35.07-.52.09v.12h-.21v.1h-.3V63c-.15.04-.28.08-.43.11v.12h-.21v.09h-.3v.1c-.15.04-.29.07-.43.12v.1h-.2v.1h-.22v.09h-.22l-.21.22h-.2c-.04.08-.07.15-.1.22h-.21c-.04.07-.08.14-.11.2h-.21c-.11.15-.21.28-.32.42-.14.1-.28.21-.42.3v.22c-.07.03-.14.08-.21.11-.07.2-.15.41-.21.63h-.11v.2h-.1v.31h-.1v1.78c0 .5-.06 1.12.1 1.47h.1v.21c.07.04.13.07.22.1v.21c.1.07.2.14.31.21v.21c.18.14.35.28.53.42v.2c.14.12.28.21.42.32v.1h.21c.04.07.07.14.11.21.49.17.97.34 1.46.52h.53c1.51.46 3.51.28 4.93-.21h.42v-.09h.43v-.1c.21-.06.42-.08.63-.12V72h.21v-.11c.21-.03.42-.07.62-.1v-.11c.32-.07.64-.14.95-.21v-.09c.21-.07.42-.15.63-.22v-.11h.21v-.09h.21c.04-.08.07-.15.11-.22h.2l.21-.21h.21v-.1h.21v-.1h.21v-.11h.21l.21-.2h.2l.11-.21h.21c.03-.07.07-.14.11-.21h.21c.03-.07.07-.15.11-.21h.2c.04-.07.08-.15.11-.21h.21c.03-.07.07-.14.11-.22h.2c.53-.55 1.05-1.12 1.57-1.67h.22c.24-.28.49-.56.73-.84h.21c.49-.6.98-1.2 1.47-1.78v-.22h.11v-.2h.11v-.22l.2-.22v-.2h.1c.11-.15.21-.28.31-.41.68.02 1.33.06 2 .09.33 0 .77-.05.94.1.51.15.42.41.63.85h.1v.31h.11v.21c.14.11.28.21.41.32v.09h.21c.04.07.08.15.11.22h.21v.11h.2v.09h.21v.12h.21c.04.08.07.15.11.21h.21c.37.27.74 1.11.94 1.57.28.07.76.23 1.16.11v-.11c.33-.08 1.21-.09 1.47 0v.11c.14.03.28.07.43.11.04.07.07.13.1.21.25.21.49.41.73.63v.21c.21.17.42.34.62.52v.22c.15.1.28.2.42.31v.21c.11.06.21.14.32.2v.21c.07.04.14.07.21.1.1.15.21.28.32.43h.21v.09h.2v.11h.32v.11c.24.04.49.07.73.11v.09c.14.04.28.07.42.12.11.14.21.28.32.41h.21c.03.07.06.14.09.22.32.1.64.2.95.3v.11h.21v.12h.21v.09c.21.07.41.14.63.22v.1c.53.07 1.04.14 1.58.21v.11h.41v.11c.21.02.43.05.64.09v.09h.21v.12h.31v.1c.41.06.84.13 1.26.2v.11h.32v.1h.31v.12h.32v.09h.31v.09h.32v.12h.32v.1c.21.04.41.07.63.1.03.08.07.15.1.21.15.04.28.07.42.12.04.07.07.13.11.2h.21v.12h1.26v-.12c.55-.03 1.11-.07 1.67-.1.46-.31.91-.62 1.37-.93.49-.12.98-.22 1.47-.33v-.1c.21-.18.42-.35.63-.52v-.22c.07-.03.14-.07.21-.11v-.2h.1c.05-.15.08-.29.11-.43.63-.66 1.26-1.32 1.89-1.99.45-.42.91-.84 1.36-1.26v-.21h.1v-.22h.11v-.3h.1v-.65h.11v-.52h.1c.04-.2.07-.41.11-.63h.1v-.3h.12v-.32h.1v-.31h.11v-.33h.09c.04-.24.08-.46.11-.72h.1v-.2h.11c.03-.22.07-.42.1-.64h.11c.13-.41-.02-2.22-.11-2.52m-77.69 5.61v-.74c.04-.15.26-.82.2-1.04h-.1v-.54h-.1v-.31h-.11v-.42h-.11c-.33-1.1.67-1.63.32-2.72h-.1v-.32h-.11v-.2h-.11v-.31h-.1v-.22h-.11v-.52h-.11c-.09-.33.07-.78.11-.94v-.64c.1-.3.42-1.1.21-1.66h-.1c-.08-.22-.14-.43-.21-.64h-.11v-.2h-.1v-.33h-.1v-.62c-.24-.81-.2-1.99-.42-2.84v-.52h.1v-.74h.11c.12-.39.39-2.47.21-3.04h-.11v-.3h-.11v-.22h-.11v-.2c-.06-.04-.14-.07-.21-.11v-.21c-.06-.03-.14-.07-.21-.11v-.31h-.11c-.19-.58.49-1.53.21-2.31h-.11c-.04-.14-.07-.28-.11-.42h-.11c-.04-.27-.07-.56-.1-.84h-.11v-.1h.11v-.62h.1v-.63h.11l-.21-3.04h-.11v-.31h-.1v-.22h-.11v-.21h-.1c-.07-.21-.13-.41-.21-.63h-.11v-.41h-.11c-.1-.36.28-1.41.11-1.98-.22-.76-.3-1.75-.53-2.53v-.94H373v-1.05h-.11v-1.05h-.11v-.94c-.07-.64-.14-1.26-.21-1.89h-.11v-.53h-.11v-.63h-.11v-.73h-.11v-.85c-.32-1.07-.51-2.4-.84-3.46-.04-.39-.08-.76-.11-1.15h-.11v-.32h-.1v-.31h-.11v-.31h-.09v-.32h-.11v-.43h-.09c-.07-.31-.15-.62-.22-.93h-.11c-.07-.22-.14-.41-.2-.63h-.11c-.11-.31-.21-.63-.32-.94-.07-.04-.14-.07-.21-.11-.04-.14-.07-.28-.11-.42-.17-.13-.35-.28-.52-.41-.03-.07-.07-.15-.1-.22h-.21c-.03-.06-.07-.13-.11-.2-.14-.03-.29-.07-.43-.1v-.1a6.22 6.22 0 00-.41-.11v-.1h-.42v-.12h-.63v-.1h-.73c-.8-.23-1.87-.37-2.63-.62-.28-.04-.56-.08-.83-.11-1.47-.53-3.22-.88-4.73-1.36h-.52v-.1h-.52v-.11h-.53v-.11h-.62c-.99-.3-2.37-.24-3.36-.52h-1.37c-.72-.12-2.01 0-3.04 0h-.94c-1.07-.32-2.2-.65-3.57-.62v.1c-.17.03-.35.07-.53.09-.04.09-.07.15-.1.23h-.22l-.1.2c-.21.17-.42.36-.63.52-.04.14-.07.28-.11.42h-.11c-.06.53-.14 1.05-.2 1.58-.32 1.05-.57 2.53-.12 3.57h.12v.2h.1v.22c.06.04.14.07.21.09v.21c.07.04.14.07.21.11v.2c.1.08.2.15.31.23v.2c.07.03.15.08.21.11.03.14.07.28.1.41h.12c.06.21.13.43.2.63h.11v.32h.11v.31h.11v.42h.1v.41h.1v.54h.11v.53h.11v.4h.1v.32h.11v.32h.11v.31h.11v.31h.11v.41h.11v.42h.1v.63h.11v.63h.11v.52h.09v.54h.12v.52h.1v.52c.27.83.37 1.96.62 2.85v.72h.11c.03.49.07.98.11 1.47h.11v1.57c.37 1.31.31 3.04.32 4.74 0 .76.15 1.31.31 1.88.19.65-.09 2.4-.21 2.84v1.14h-.1c.04 1.64.07 3.28.1 4.94h-.1v.94h-.12v.62h-.1v.73h-.1v1.06c-.25.84-.49 1.67-.74 2.51-.04.44-.07.9-.11 1.36h-.11v.74h-.1v.94h-.12v.84h-.09l-.21 2.94h-.1v.73h-.11v.64c-.36 1.17-.57 2.89-.21 4.2v.73c.13.42.28.84.42 1.25.07.04.15.08.21.12v.2c.07.04.13.07.21.11.14.17.28.35.41.52h.21c.04.07.08.15.11.21.28.14 1.7.36 2.21.21 2.15-.68 2.96-3.79 3.67-5.99v-.53c.15-.46.27-1.18.41-1.67v-.73h.11v-.84h.11v-1.04h.1c.03-.74.07-1.47.1-2.21h.12v-.31h.1c.46-.79 1.75-.68 2.73-.41h1.26v.1h1.47v.09c.53.15.92-.14 1.26.22.74.2.72.94 1.05 1.57h.1v.21h.12c.07.2.14.43.21.62h.1v.33h.11v.63h.11c-.03.6-.07 1.18-.11 1.78.04.49.28 1.69.11 2.31h-.11v.94h-.11v.94h-.1c-.04.64-.07 1.26-.1 1.89h-.11v.94c-.41 1.45-.23 3.38-.62 4.83v.94h-.11v.94h-.11c-.03.63-.07 1.26-.1 1.9h-.11v.94h-.11v.44h-.1v.29h-.11v.33h-.11v.41h-.1v1.57h.1c-.03.61-.07 1.2-.1 1.79h-.11c-.04.45-.07.92-.11 1.37h-.1c-.08.21-.14.42-.21.63h-.12v.21h-.09v.32h-.11c-.17.53.25 1.48.32 1.89-.04.1-.07.2-.12.31-.02.67-.06 1.34-.09 2h-.11v1.78h.11c.03.15.07.28.09.42.08.03.15.08.22.1v.21c.11.08.21.15.32.22v.21c.08.03.14.07.21.1.04.18.07.35.11.52h.11c.13.42-.24 1.21-.32 1.47v1.58s.16.07.1.31h-.1c-.03.59-.07 1.18-.11 1.79h.11v.51h.1c.13.44-.07.67.21.95.41.7.7.17 1.47.41v.11h.31v.1h.21v.11h.21c.04.07.07.15.11.22h.2c.07.09.14.2.21.31h.21l.53.62h.21l.21.22v.2c.14.12.28.21.41.31v.21l.21.12v.21c.25.21.49.42.73.62.51 0 .84-.01 1.16-.2.03-.08.07-.15.11-.21.2-.04.42-.07.63-.12v-.09c.48-.04.98-.07 1.46-.11v-.1c.32-.07.64-.15.95-.2v-.12c.15-.03.28-.06.42-.1v-.09h.21v-.12c.11-.03.21-.07.31-.11.04-.07.07-.12.11-.2h.21c.15-.17.28-.35.43-.53.31-.28.62-.57.94-.84v-.21c.1-.07.21-.13.32-.2v-.21c.07-.04.13-.07.21-.11v-.2c.07-.03.14-.07.21-.1.03-.1.07-.22.11-.32h.1c.04-.15.08-.29.11-.42.07-.04.14-.07.21-.11v-.2c.07-.05.13-.08.21-.12v-.21c.11-.07.2-.12.31-.21v-.2c.11-.07.21-.15.31-.21v-.2c.08-.05.15-.09.22-.12v-.21h.11c.1-.74.21-1.48.32-2.21.37-1.11.65-2.48 1.05-3.57v-.41h.1v-.32h.11v-.52h.1v-.64h.11v-.62h.11v-1.26c.31-1.08.21-2.59.52-3.68v-1.26h.11v-1.37h.1v-1.57c.2-.68.22-1.54.22-2.41 0-.72-.06-1.66.1-2.21-.04-.84-.07-1.69-.1-2.51h.1c.03-.73.07-1.47.1-2.21h-.1v-.84h-.1c-.11-.36-.24-2.4-.11-2.83h.11zM359.8 47.57v.74h-.1v.2c-.03.06-.15.1-.2.23-.22.04-.43.07-.64.1v.1c-.67-.02-1.33-.08-1.99-.1-.3-.09-1.54-.25-1.99-.1-.81.24-1.39.73-2.42.73-.08-.11-.19-.15-.32-.21-.28-.68-.34-1.37-.21-2.21v-1.46h.12c.14-.54 0-2.04-.12-2.42-.14-.51.03-2.22.21-2.42.11-.38.23-.28.42-.52.92 0 1.32.32 1.89.63.14.03.28.07.42.1.04.07.07.15.1.21h.21v.1h.42v.11c.62.16 1.15-.46 1.88-.21v.1h.32v.11c.21.07.42.15.63.2v.12h.21c.14.17.28.35.42.52.11.07.21.13.32.21.37.57 0 1.45.21 2.21.22.78.48 1.96.2 2.92m2.53-28.1h-.12v.2h-.1c-.03.22-.06.42-.1.64h-.11v.31h-.11v.33h-.1v.31h-.11v.31h-.1c-.04.24-.07.49-.11.74h-.1c-.1.62-.21 1.25-.32 1.87-.17.25-.35.49-.53.75-.5.08-.9.12-1.36-.12v-.11h-.21v-.09h-.32v-.11h-.21v-.09h-.52c-1.26-.4-2.98-.38-4.3 0h-.84v.09h-.53v.11c-.24.04-.49.07-.73.09v-.09c-.95-.04-1.34-1.24-1.58-2v-.84h-.11v-.94h-.09c-.04-.32-.07-.62-.11-.94h-.12v-.31h-.1v-.22h-.11v-.31h-.1v-.41h-.11v-.43h-.11c-.15-.46-.01-.98 0-1.35.13-.11.34-.38.42-.54.19-.02.71-.09.84-.21h.42v.11H352v.1h1.36v.11h1.05v.1h.95v.1h.73v.1h1.05v.12h.95v.09h.74v.11h.84v.11c.76.22 1.72-.17 2.31.21.04.07.07.15.1.2.1.08.22.15.31.21.21.32.04 1.37-.09 1.69m-86.48 2.2h.1v.29h.11v.22h.1v.2c.13.1.28.2.41.31v.2c.14.09.27.2.41.3v.2c.21.17.42.34.62.51.04.08.07.15.11.23.14.03.27.05.41.09v.11h.31v.1h.4v.09h.41v.1h.52c.33.11 1.32.36 1.83.21v-.1h.41v-.11h.3v-.1h.41v-.09c.91-.08 1.84-.13 2.76-.21v-.09c.88.03 1.77.05 2.65.09 2.48 0 4.65.17 6.54.72h2.97v.12h.51v.09h.4v.1h.72v.1h3.37v.09c.31.03.62.07.92.11v.09h.51v.1h.92v.11c.61.17 1.59-.07 2.15.09h3.06c.68.12 1.37.23 2.05.31v.11c.51.23 1.35 1.13 2.25.81v-.1h.2v-.09c.2-.09.42-.14.62-.22v-.1c.13-.04.27-.07.41-.09v-.11h.3v-.09c.21-.04.41-.08.61-.11v-.09c.2-.08.41-.15.62-.23v-.09h.2v-.11c.2-.07.41-.14.61-.2.04-.08.07-.15.1-.2h.21c.03-.07.06-.13.1-.2h.21c.03-.07.06-.15.09-.21h.2v-.1h.21v-.1h.31v-.11h.3v-.1c.13-.03.27-.06.41-.09v-.1h.2c.1-.15.21-.28.31-.42.37-.33.75-.68 1.12-1.01v-.2c.1-.07.21-.15.3-.21v-.2c.08-.04.13-.07.2-.09.03-.17.07-.34.11-.51h.11c.03-.14.06-.28.1-.41h.1c.03-.17.07-.35.1-.52h.11v-.51h.1v-.52h-.1c-.03-.27-.07-.54-.11-.81h-.1v-.32h-.1c-.13-.41.03-1.56-.2-1.83-.04-.67-.54-.93-1.02-1.12h-.3v-.12c-.17-.02-.34-.05-.51-.09v-.09h-.21v-.11h-.31v-.1c-.17-.03-.33-.09-.51-.11v-.09h-.21v-.1h-.31v-.11h-.2v-.09h-.2c-.08-.1-.15-.21-.21-.31-.1-.02-.2-.07-.31-.1-.1-.14-.2-.27-.3-.41h-.2v-.1c-.5-.22-1.24.08-1.84-.1v-.11h-.51v-.1h-.2v-.1h-.31v-.1h-.2v-.1h-1.23v.1h-.4v.1h-.3v.1h-.41v.1h-1.33v.11h-1.03v.1h-.92c-.28-.08-.93-.39-1.43-.21v.11h-.2c-.03.07-.07.14-.1.2-.37.14-.75.27-1.13.41h-.61c-.87.25-2.13.2-3.28.2h-1.54v-.1h-.41v-.1h-.41v-.09h-.41v-.11h-1.12v-.09h-1.43v-.11h-4.09v-.1h-1.43v-.1h-3.48v.1l-4.19.21c-1.06.3-2.1.63-3.07 1.02-.21.03-.41.07-.61.09v.11h-.2v.1h-.31v.11c-.12.03-.27.07-.4.09-.04.07-.07.14-.11.21h-.21v.1h-.21c-.03.07-.06.14-.09.2h-.21v.12h-.2v.09h-.2v.09h-.2v.11h-.21v.09h-.21l-.2.21h-.2c-.1.14-.21.28-.31.41-.08.04-.13.07-.21.11-.03.13-.07.27-.09.41h-.11v.2h-.1v.31h-.11c.03.75.07 1.51.11 2.24-.02.44-.38.81-.21 1.34m60.63 17.34h-.11v-.21a.443.443 0 01-.2-.11v-.2c-.07-.02-.13-.07-.21-.09v-.21c-.06-.03-.13-.06-.2-.09-.06-.21-.13-.41-.2-.62a.667.667 0 01-.21-.09c-.04-.13-.06-.28-.11-.41h-.1c-.03-.1-.07-.2-.09-.32-.07-.02-.15-.07-.21-.09v-.2c-.14-.12-.27-.21-.41-.31v-.2c-.14-.11-.28-.22-.41-.32-.03-.06-.07-.14-.1-.19h-.21c-.13-.17-.27-.36-.41-.53-.1-.02-.2-.06-.29-.09-.04-.07-.07-.12-.11-.21-.14-.02-.27-.07-.41-.09-.03-.07-.06-.15-.11-.2-.2-.09-.4-.14-.6-.21v-.1h-.2v-.1c-.21-.07-.41-.14-.61-.21v-.1h-.31v-.09h-.2v-.11h-.21v-.11h-.2v-.09h-.2v-.09h-.21v-.12h-.2v-.09h-.21v-.1c-.48-.27-1.73-.78-2.66-.51v.1c-.85.04-1.7.06-2.55.09v-.09h-1.33v.09c-1.02.04-2.04.09-3.07.12h-1.43c-.55.16-1.19.2-1.94.2h-1.12v.1h-1.13v.09c-.68-.03-1.36-.07-2.04-.09v-.1h-.51v-.11h-.2c-.27-.21-.55-.4-.82-.61-.07-.11-.13-.2-.2-.3h-.21c-.04-.09-.06-.15-.1-.22h-.3v-.1c-.93-.3-1.85.49-2.35.72v.11h-.41v.1h-.1v-.1h-.51v-.11h-.2v-.1h-.21v-.11h-.2v-.09h-.2v-.09h-.2v-.11c-.13-.04-.28-.07-.41-.11v-.1h-.31v-.1h-.4v-.1h-.93v-.1h-.41V31h-.4v-.09h-.5v-.11h-.41v.11h-.72c-.26.07-.75.36-1.22.2-.42-.14-1.15-.88-1.73-.72v.11h-.31v.11c-.32.12-1.84.35-2.35.2v-.11h-.41v-.09h-.2v-.11h-.2c-.1-.14-.21-.28-.3-.41h-.21c-.11-.13-.21-.28-.31-.41-.13-.04-.28-.07-.41-.1v-.11c-.93-.33-2.11.6-2.86.82-.51.16-1.7-.25-1.95-.41-.03-.06-.06-.14-.1-.2h-.21v-.1c-.28-.11-1.18-.08-1.53 0v.1h-.52v-.1c-.2-.04-.4-.07-.61-.11-.03-.06-.07-.13-.09-.19h-.21c-.07-.11-.13-.22-.21-.31h-.2v-.11c-.17-.03-.34-.07-.52-.11v-.09l-.7.09v.11h-.21v.11c-.17.02-.34.06-.51.09v.11h-.21v.11h-.2v.09h-.3v.1l-2.14.21c-.72.2-1.44.41-2.15.61-.31.09-.77-.06-.92-.09-.54-.15-1.96.04-2.25.2-.13.17-.27.36-.4.52-.43.41-1.11.83-1.33 1.43v.72h-.1v.41h-.1c-.04.13-.07.27-.1.41h-.1v.2c-.24.17-.48.34-.72.5h-.21c-.03.09-.06.14-.1.21h-.2c-.04.07-.08.14-.11.21-.17.13-.34.27-.51.41-.12.17 0 .22-.21.4v.81h.1c.04.15.07.28.11.41h.09v1.02h-.09c-.04.2-.07.41-.11.62h-.1v.2h-.11c-.02.21-.06.41-.1.62h-.11c-.03.39-.07.82-.1 1.23h-.1v.61h-.1c.03.35.07.68.1 1.02.28.54.55 1.1.81 1.63.08.04.14.07.21.11v.21c.09.05.2.13.31.2v.21h.09c.11.14.2.28.31.41h.21c.1.14.21.28.31.39.13.06.27.08.41.11.03.07.06.14.1.21.13.04.27.07.41.1v.1c.13.04.27.07.41.1v.11h.3v.09h.2v.11h.3v.11h.31v.09h.31v.11h.41v.1h.41v.09h.41v.11h.32v.09c.16.05.34.07.5.11v.11h.2v.09h.31c.24.17.48.35.71.51v.2c.18.15.35.28.52.41v.11h.2v.09h1.22c.31.09.88.36 1.43.2.19-.04.7-.29 1.02-.2.7.21.92.95 1.63 1.13.46.41 1.46-.29 1.64-.52h.82v.1h.2v.09c.13.04.27.07.41.1.03.07.07.15.1.22.13.09.27.2.41.3.09.11.07.2.2.3-.03 1.38-.72 1.45-1.12 2.36-.04.25-.07.48-.11.73h-.1c-.03.22-.07.44-.11.67 0 0-.01.03-.03.04h-.08c0 .06-.01.12-.02.17-.57.92-1.12 1.78-1.39 2.22-.72 1.13-1.37 1.64-2.05 2.56-.39.53-.63 1.02-1.02 1.53-.51.68-1.06.91-1.53 1.54-.17.2.11.77 0 1.02-.08.16-.9.35-1.04.5-.38.52-.53.63-1.01 1.03-.17.14.16.85 0 1.02-.66.78-1.9 1.26-2.56 2.05-.53.65-.47 1.45-1.01 2.05-.89.97-2.22 1.55-3.06 2.56-.42.49-.57 1.54-1.03 2.05-.91.99-2.13 2.13-3.06 3.06-1.14 1.12-2.64 1.93-3.59 3.07-.43.52-.59 1.57-1.02 2.04-1.68 1.85-4.05 3.34-5.62 5.1-.39.45-.55 1.5-1.02 2.05-.46.57-1.67 1.01-2.05 1.54-.15.23.12.76 0 1.03-.08.17-.9.28-1.02.51-.38.69-.18 1.34-.5 2.04-.22.46-.47.17-.52 1.02-.05.94-.99 1.31-1.02 2.04-.02.46-.49.4-.51.52-.32 1.31.24 2.48 0 3.57.63.07 1.21.15 1.02 1.03 2.38.48 3.14-.54 4.09-1.03.55-.27 1.4-.13 2.04-.51.15-.08.39-.86.52-1.02.14-.17.84.15 1.02 0 .66-.54 1.17-1.79 2.04-2.56.18-.15.8.12 1.02 0 .14-.06.37-.89.51-1.01.46-.38 1.15-.57 1.53-1.03.48-.56.53-1.5 1.02-2.04 1.24-1.33 2.83-2.2 4.1-3.58.53-.58.58-1.51 1.02-2.04.64-.77 1.83-1.19 2.56-2.04.16-.19-.11-.79 0-1.02.06-.15.9-.37 1.02-.52.41-.49.62-1.03 1.02-1.53 1.21-1.53 2.62-3.41 3.58-4.61.47-.59 2.01-2.02 2.04-2.56.04-.93 1.11-1.18 1.53-1.52.16-.15-.14-.85 0-1.02.14-.19.83-.36 1.02-.52.17-.13-.14-.84 0-1.02.47-.6 1.09-.88 1.53-1.53.93-1.37 2.01-3.25 2.56-4.1.36-.57.52-.62 1.03-1.02.15-.12-.09-.84 0-1.03.02-.06.44.05.5 0 .16-.12-.11-.84 0-1.02.08-.15.88-.38 1.02-.5.16-.15-.11-.84 0-1.02.05-.08.44.04.51 0 .15-.14-.09-.85 0-1.03.03-.07.45.05.51 0 .17-.15.4-1.36.51-1.53.37-.57.52-.62 1.03-1.04.15-.11-.09-.82 0-1.01.03-.06.45.05.51 0 .05-.04.05-.17.04-.3l.55.05v-.2c.07-.03.15-.06.21-.09v-.22c.07-.03.15-.06.21-.09v-.2h.11v-.2h.1c.11-.45.2-.89.31-1.33h.1v-.22c.07-.03.14-.05.2-.09v-.2c.35-.31.69-.62 1.03-.92V53c.07-.03.14-.06.21-.1.03-.17.07-.33.1-.51h.1v-.2h.11v-.31h.1c.04-.15.07-.28.11-.42.06-.03.13-.07.2-.09.14-.17.28-.35.4-.52.14-.03.28-.05.42-.09v-.1c.33-.15 1.53-.24 1.94-.12v.12h.31v.1c.61.04 1.23.07 1.84.09.11.14.18.11.31.21v.1h.2c.17.31.35.61.51.92-.03.41-.07.81-.1 1.22h-.11c-.09.25-.33 1.58-.2 1.95h.1v.31c.07.04.14.06.21.09.03.15.07.28.1.42.07.03.14.06.21.1v.2h.11v.31h.09c-.06.33-.13.68-.2 1.01h-.09c-.25.65-.48 1.3-.72 1.94.04 1.75.07 3.48.1 5.23h-.1v.39h-.1c-.07.22-.14.41-.2.62-.07.03-.14.07-.21.09v.21h-.1v.31h-.1c-.11.33.05.86.1 1.02-.03.65-.06 1.29-.1 1.94h.1v.31h.1c.04.14.08.27.11.4h.11l.09.62h.11c.04.77.06 1.56.1 2.35h.1v.3h.11c.07.21.13.41.2.62.11.06.2.12.32.2.15.23.21.41.41.62.17.13.34.27.51.41v.2c.09.07.2.14.3.21v.2c.06.02.13.06.2.1v.2c.1.07.2.13.31.2v.2c.17.15.34.28.51.42v.2l.2.2h.21c.13.17.27.35.41.52h.2l.32.41h.09v.2c.13.1.28.21.41.32v.2c.13.1.27.2.41.3v.22h.11c.09.14.2.27.29.41h.21c.1.14.21.28.31.42h.21c.1.12.2.26.31.38h.11V81c.06.03.14.07.2.09v.19c.07.06.14.09.2.12v.22c.14.09.27.2.41.3v.11h.21c.04.06.07.14.1.2.24.13.58.08.82.21v.11h.2c.14.17.28.33.41.5h.2c.17.2.35.4.52.62h.2c.03.07.07.13.1.2l.51.41c.24.28.48.54.72.81h.2c.03.07.07.14.1.2h.2v.1c.2.04.41.07.62.1.47.18 1.45.68 1.74 1.03.62 0 .85-.07 1.22-.31.04-.06.07-.14.11-.2h.2v-.1h.51v-.1c.65.12 1.3.27 1.95.41v.11c.7.21 1.72-.18 2.15-.31.58-.02 1.16-.08 1.74-.1v-.1h.31v-.1c.2-.07.41-.14.62-.21v-.1h.2c.04-.05.07-.14.11-.2.52-.2 1.02-.41 1.54-.61.07-.09.14-.2.2-.3h.2c.58-.61 1.15-1.23 1.74-1.84h.2c.07-.11.14-.21.21-.3.14-.04.27-.07.41-.1.03-.08.06-.14.09-.21.21-.07.41-.14.61-.2.04-.08.07-.15.11-.22h.2c.03-.06.07-.13.1-.2.21-.17.41-.34.61-.51.04-.1.07-.2.11-.29.07-.04.14-.09.2-.12.04-.14.07-.27.11-.41.07-.04.14-.07.2-.11.25-.68.48-1.36.72-2.05v-.6h.1V75.6h-.1c-.03-.24-.07-.49-.09-.71h-.1c-.07-.21-.14-.41-.21-.62-.11-.07-.21-.14-.31-.2v-.22l-.61-.52c-.07-.09-.13-.2-.2-.3h-.2c-.07-.1-.13-.2-.21-.31h-.2v-.09c-.32-.15-2.42-.46-2.96-.3v.09h-.41v.09h-.31v.12h-.31v.09h-.21v.12h-.31v.09h-.2v.1h-.19c-.04.07-.08.13-.11.2h-.21c-.03.07-.07.13-.1.2h-.21c-.13.17-.28.34-.41.52h-.21c-.1.14-.2.27-.31.41h-.2c-.03.07-.07.14-.1.2-.14.05-.27.08-.41.11v.1h-.21v.11h-.21v.09c-.2.08-.41.13-.61.2v.11h-.3v.09c-.28.04-.54.07-.82.1-.48.19-1.55 1.08-2.14.92v-.1h-.41v-.1h-.21v-.11l-.61-.09v-.1h-.62v-.11h-.41v-.09h-.2v-.1h-.2v-.11c-.07-.04-.14-.06-.21-.1v-.2c-.07-.03-.14-.07-.2-.09v-.2h-.11v-.21c-.17-.23-.34-.48-.51-.71h-.2v-.11c-.17-.04-.35-.07-.51-.1-.24-.2-.48-.41-.72-.61-.11-.3-.21-.62-.31-.92h-.1c-.07-.2-.13-.41-.2-.61h-.11v-.2h-.1v-.2c-.2-.17-.41-.34-.61-.51-.2-.24-.41-.48-.62-.73-.1-.06-.2-.13-.3-.2v-.2h-.1v-.22c-.07-.03-.14-.05-.21-.09v-.2c-.07-.03-.14-.07-.21-.11v-.2h-.1c-.03-.12-.07-.27-.1-.41h-.11c-.18-.51.12-1.93.21-2.24v-.51h.1v-.82c-.27-.99-.17-2.01.11-2.97.03-.54.07-1.09.1-1.63h.11v-.31h.1c.03-.13.07-.27.1-.4h.11v-.21h.1c.07-.3.13-.61.21-.91h.1v-1.12h.1v-.52h.11v-.31h.1v-.31h.11v-.32h.1v-1.21h-.1c.03-.21.07-.41.1-.62.64-.11 1.16 0 1.73.2h.31v.1h.41c.24.09.68.36 1.12.2v-.09h.3v-.1c.16-.11.18-.15.41-.2.17-.61.93-.94 1.53-1.13h.62v-.11h.51v-.09h.31v-.1h.31v-.1h.41v-.1c.27-.03.54-.07.81-.1v-.09c.14-.04.28-.09.41-.11v-.1c.18-.04.34-.07.51-.09v-.12c.48-.06.96-.14 1.44-.2v-.1c.2-.07.41-.13.61-.2v-.1c.92-.33 1.57.98 2.46.73v-.12h.31v-.09c.13-.04.27-.07.41-.11v-.1h.2v-.09h.2l.21-.21h.2c.04-.07.07-.14.1-.2.14-.04.27-.07.41-.11.04-.05.06-.13.1-.2h.21c.16-.21.34-.41.5-.62.1-.07.21-.14.31-.2v-.21l.21-.09c.03-.13.07-.28.1-.41.07-.02.14-.07.21-.1v-.2c.11-.07.2-.14.31-.2v-.21l.5-.41c.3-.33.61-.68.92-1.02h.21c.24-.27.47-.54.7-.81.14-.1.28-.2.41-.31v-.21c.14-.11.27-.2.41-.3v-.2c.1-.07.21-.13.31-.21v-.2c.07-.04.14-.07.21-.1.03-.14.06-.28.09-.41.07-.04.14-.07.2-.1.07-.2.13-.41.21-.6.06-.04.13-.09.2-.11.03-.15.07-.28.11-.41.07-.03.14-.07.2-.1v-.2a.67.67 0 01.21-.1v-.21h.1v-.21h.11v-.3h.1c.11-.35-.02-2.56-.1-2.77"/><path class="cls-4" d="M126.98 57.33c.04-.1.08-.18.11-.26 1.81-.64 2.06-2.25 3.05-2.48.33-.12.5-.49.39-.84-.01-.04-.02-.07-.03-.1.12-.05.36-.15.62-.34.85-.84.82-1.47 1.06-1.34h.22c.3.07.61-.11.72-.41.02-.25.64-.51 1.51-.77.26-.08.43-.33.44-.61h.03c.07-.07.3-.12.58-.17.28-.05.5-.28.53-.59-.13-.14.35-.22.72-.94.72-.07 1.43-.12 2.15-.2 1.23 1.21 2.84 2.06 4.94 2.16.1.25.32.43.59.44 1.62.01 3.31 0 5.11-.16.26-.02.52-.04.78-.09.11.23.32.36.57.36 3.26-.07 6.05.02 6.7 2.26.05.18.17.31.33.39.11.04.22.07.33.04.02.04.03.05.05.06.03.27.06.52.08.79.19 2.22.02 4.2.23 6.57.02.28.05.59.08.89-.12.13-.21.27-.24.38-.11.32-.11.57-.11.72a.53.53 0 00-.32.15c-.15.12-.23.3-.23.49.04 1.26-1.31 1.54-3.07 2.11-.23.07-.4.26-.44.51-.54.17-.9.59-1.13.86-.32.34-.42.48-.82.53a.64.64 0 00-.56.59c-.03.05.03.03-.24.18-.18.09-.47.15-.78.32-1.37-.2-2.59-.36-2.94-1.03a.633.633 0 00-.56-.3c-.08 0-.11.01-.13.01-1.2.17-1.33-.97-2.37-2.17l-.03-.43c-.08-.7-.17-1.49-.72-2.06v-.03a.705.705 0 00-.21-.46.612.612 0 00-.46-.15c-.14 0-.28.02-.4.04-.27.01-.48.23-.56.48-.04.14-.02.25-.01.32 0 .12.04.24.09.33-.08.06-.13.12-.18.23-.01 0-.03-.04-.05-.04-.15 0-.28 0-.41-.03v-.09c-.01-.16-.06-.27-.09-.38a.68.68 0 00-.41-.37c-.17-.04-.32-.03-.44-.03-.03 0-.05.01-.09.01a.672.672 0 00-.22-.46.577.577 0 00-.45-.15c-.13 0-.27.03-.4.04-.17 0-.32.1-.43.23-.05.07-.05.16-.08.24l-.41.23c-.33.42-.69.85-.98 1.39-.15.1-.57.38-.7.94l-.1.07c-.43.57-.27 1.01-.32 1.26-.09.05-.19.13-.26.21-.11.14-.16.31-.15.49.05.57.1 1.12.14 1.69.03.19.12.36.26.48.04.04.09.06.15.08.18 1.27.79 1.47.74 1.96v.06c.02.29.22.52.48.57.27.07.46.35.75.92.21.44.46 1.08 1.04 1.47.15.68.71 1.05.97 1.18.34.23.34.2.37.41.01.05.01.09.01.12 0 .19.07.36.18.49.13.12.3.19.46.18.49-.16.79.76 2.2.8.04.09.11.16.19.23.15.11.34.15.52.1.08-.02.16-.04.25-.04.44-.09.84.23 1.77.18.04 0 .09-.01.13-.01.56.54 1.37.58 2.06.52 1.02-.1 2.1-.45 2.71-.57.16-.04.31-.14.4-.28.03-.05.05-.09.07-.13.3 0 .58 0 .85-.03 2.65-.27 3.96-1.57 5.97-1.92.17-.04.32-.15.41-.3a.5.5 0 00.09-.24c1.58-.44 2.23-1.59 3.18-1.95.24-.11.4-.38.37-.68v-.04h.04c.2-.01.38-.13.48-.31.06-.11.09-.2.09-.3.16 0 .33-.07.44-.21.12-.13.19-.32.17-.51v-.04h.04c.2-.01.37-.12.47-.3.09-.12.12-.29.09-.46.29 0 .54-.23.6-.54.02-.12.02-.22.02-.3 0-.03-.02-.05-.02-.07 1.21-.65 2.33-1.71 2.46-3.49a.67.67 0 00.42-.62c-.03-2.4.14-4.96-.08-7.58-.1-1.17-.27-2.35-.59-3.54-.24-.77-.34-1.53-.41-2.32-.08-1.01-.09-2.08-.19-3.25-.06-.7-.14-1.44-.3-2.23a.657.657 0 00-.59-.5c-.04-.08-.13-.41-.2-.84-.08-.32-.36-.55-.67-.52-.02.02-.03.02-.03.02v-.05c-.04-.32-.27-.57-.58-.6-.38-.03-.74-.04-.92-.11-.2-.09-.14-.02-.19-.17-.07-.34-.36-.58-.69-.54-.11.01-.2.04-.27.04-.24.03-.42 0-.44-.02v-.02a.609.609 0 00-.54-.56h-.16c-.85.09-1.49-.29-2.61-.32a.876.876 0 00-.19-.24.555.555 0 00-.48-.12c-.16.02-.31.04-.45.05-.95.09-1.75-.17-2.98-.09-.04 0-.08.02-.12.04a.61.61 0 00-.53-.34c-.46 0-.93.02-1.42.07-1.31.13-2.68.37-3.92.49-1.58.15-2.83.05-3.49-.49.11-.24.16-.49.12-.68a2.58 2.58 0 00-.17-.64c.12-.16.19-.33.23-.41.12-.19.1-.18.12-.18h.16c.33.03.63-.2.69-.54.02-.1.02-.2.01-.27.38-.18.59-.56.64-.7.01-.02.02-.05.02-.07h.07c.18.04.33 0 .48-.09.14-.1.23-.25.27-.44.01-.11.01-.19.01-.28v-.03c.49-.2.76-.62.89-.85.23-.37.24-.41.43-.44.3-.06.52-.33.52-.65-.05-1.08 1.01-1.38 1.8-2.74.84-.3 1.45-1.1 1.53-2.08.99-1.03 1.2-2.38 1.79-2.99.58-.13 1.18-.28 1.72-.6.19.04.38.05.56.04.69-.07 1.3-.38 1.88-.44.15 0 .31 0 .45.01.32.06.64-.17.71-.51h.05c.21-.24 1.23 0 1.85-.81h.13c1.25-.18 1.53-.82 2.09-.81h.17c.17 0 .36-.07.47-.2a.7.7 0 00.17-.52v-.04c.03 0 .05-.01.09-.01h.14c.21 0 .43-.12.54-.32.03-.03.04-.07.05-.11.11-.03.24-.07.38-.17.89-.87.74-1.39 1.01-1.3h.1c.35.03.64-.24.67-.61.02-.34.02-.67.05-.8 0-.04.02-.07.03-.08.25-.06.44-.29.47-.57.01-.24.02-.46 0-.68-.11-1.04-.57-1.44-.61-1.87-.07-.33-.35-.56-.67-.52-.26.03-.53.05-.77.08-.98-.4-2.03-.45-3.08-.36-2.11.2-4.29.98-5.99 1.19-.24.02-.43.2-.52.41-.04.01-.07.01-.11.01-1.03.12-1.5.51-2.14.54-.09.01-.19.02-.27.01-.19 0-.36.07-.48.23-.07.07-.13.17-.15.29-1.5.26-2.58.81-4.03.94-.23.03-.47.04-.73.03-.19 0-.37.1-.49.25-.13-.07-.32-.14-.61-.15-.11.01-.11.04-.11.01l-.34.24c-.19.34-1.23.56-2.33.7-.26.04-.46.25-.52.49h-.04c-.08.01-.16.01-.23.04-.15.01-.43.02-.69.17a.75.75 0 00-.51-.12c-.08 0-.16.03-.24.04l-.26.19c-.02.23-1.06.14-2.05.43a1.44 1.44 0 00-.71-.41h-.04c.05-.15.21-.45.2-1.06-.02-.13-.04-.26-.08-.41.13-.07.23-.17.29-.3.36-.79.43-1.62.37-2.38-.09-1.13-.47-2.19-.76-3.17a.654.654 0 00-.58-.46h-.02c-.05-.09-.1-.34-.15-.62a.654.654 0 00-.49-.56c-.2-.57-.66-.9-.89-1.03-.34-.25-.36-.22-.4-.49v-.06c0-.36-.24-.64-.57-.66-.32-.04-.39-.12-.51-.89 0-.09-.01-.22 0-.35 0-.2-.11-.41-.28-.54a.556.556 0 00-.17-.09v-.06a.654.654 0 00-.22-.47.698.698 0 00-.45-.15c-.2.02-.39.04-.57.04v-.02a.673.673 0 00-.52-.61c-.73-.13-1.53-.18-2.43-.1-.05 0-.1 0-.16.02a.677.677 0 00-.32-.27c-.24-.1-.41-.07-.54-.07-.17.01-.29.04-.34.04h-.01c-.15.02-.31.11-.42.25-.07.07-.1.15-.13.23-.11 0-.23.01-.34.02l-.13.04c-.62.28-.59.78-.58 1.02-.13.02-.29.13-.44.51-.13.49-.03.94-.05 1.26 0 .14-.01.23-.02.28-.29.09-.46.38-.44.68.06.79.13 1.58.2 2.38.02.25.19.46.41.56.01 0 .11.07.19.49.08.38.13.92.29 1.43.07.19.21.35.41.41.2-.08.4.84.73 1.9l.3.36c.87.33 1.25 2.03 2.87 2.71.04.35.07.72.09 1.07-.31.25-.46.6-.56.89-.34.11-.63.31-.86.56a.79.79 0 00-.62-.2c-.04 0-.09.01-.12.01l-.3.17c-.44.62-2.54.45-4.05 1.16-.15-.12-.37-.23-.6-.19-.1 0-.17.03-.23.04-1 .46-2.55 1.09-3.73 1.21-.36.02-.68 0-.92-.05a.63.63 0 00-.48.09c-.09.06-.17.15-.22.26h-.11c-.24.04-.64 0-1.04.04-.15 0-.31.04-.46.08-.23.09-.39.3-.42.54-.19.03-.52.1-.82.6l-.05.34c.07.78.13 1.58.19 2.38.03.33.28.58.58.61.72-.07 1.22 1.15 3 1.08h.12c.11.17.3.29.53.29 3.01-.05 6.16-.28 9.36-.57 1.02-.09 2.04-.19 3.07-.3l.17-.04c.54-.22 1.53-.46 2.49-.56 1.01-.12 1.98.06 2.3.27.04.57.09 1.11.14 1.66-.47.2-.67.61-.78.85-2.01.85-2.49 2.83-3.39 3.89-1.55.28-1.71 1.26-2.43 1.2h-.05c-.17.02-.34.12-.44.26a.68.68 0 00-.13.49c-.04.02-.11.07-.19.14-.18.12-.43.49-.44.86-1.3.81-1.51 1.92-2.67 2.01-.2.02-.38.16-.48.36-.05.47-1.59.83-1.72 2.56-1.06 1-3.04 1.51-4.15 3.22-.85.23-1.06.7-1.45.67h-.21c-.19 0-.37.07-.5.2-.09.12-.16.25-.16.38-1.5.65-1.89 1.9-2.83 2.14-.19.07-.33.22-.4.4-.05.6-1.31.77-2.06 2.03-1.02.54-1.66 1.37-2.26 2.1-1.13.27-1.75 1.02-2.19 1.66-.59.22-1.27.45-1.75 1.08l-.63.06c-.29.03-.52.26-.56.55.09.25-.53.46-.83 1.4-1.22.58-1.74 1.32-2.94 1.42h-.19a.65.65 0 00-.6.63l-.03.05c-.07.04-.3.09-.57.13-.25.04-.44.23-.51.47-.17.46-.18.54-.65.64h-.04c-.18 0-.33.09-.44.23-.08.09-.13.23-.14.36-2.04.9-2.08 2.96-3.39 3.17-.19.06-.34.2-.41.4-.21.84-1.68 1.21-3.29 1.63-.25.08-.42.29-.45.56-.06.03-.21.1-.37.2-.03.01-.04.02-.05.02-.1-.03-.2-.04-.28-.03-.18.03-.28.09-.39.14l-.25.28c-.3.54-.35.71-.85.78h-.21a.64.64 0 00-.62.47c-.03.73-1.78.71-2.89 2.01-2.54.67-4.79 1.51-7.48 1.93-.32.04-.54.33-.54.66-1.74 1.1-1.79 2.86-3.09 3.06-.2.07-.37.23-.44.41-.26 1.44-3.22 1.81-3.36 4.86-.38.25-.59.72-.6.99v.25c.19.73.42.83.39.97v.19c-.05.3.12.6.4.72.81.21 1.31 1.74 3.04 2.1.6.57 1.37.67 2.06.6h.03c1.05-.1 2.12-.49 2.94-.56h.11a.64.64 0 00.47-.26.68.68 0 00.12-.52c.05-.01.14-.02.24-.03.08-.01.18-.01.28-.01.19 0 .36-.07.48-.24.07-.09.11-.2.13-.29 2.36-.67 2.51-2.7 4.35-2.7.24-.03.52-.04.85 0 .17.02.34-.04.47-.14.13-.13.21-.3.23-.47.07-.04.39-.14.8-.21.2-.07.37-.24.45-.44.02-.15.22-.31.66-.54.3-.17.74-.41 1.02-.9.05-.01.11-.01.15-.02.28-.02.51-.23.56-.52-.01-.01.06-.11.46-.3.27-.12.73-.33 1-.81.52-.17.62-.41.71-.35.03 0 .09 0 .18.01.27.04.54-.12.67-.38.16-.72 1.73-.88 2.55-2.31.19-.02.39-.03.58-.05.3-.03.54-.28.56-.6-.01 0 .04-.04.19-.3 1.5-.87 1.73-2.08 3.13-2.14.07-.01.15-.01.23-.01.24 0 .45-.15.56-.38.15-.62 1.53-.79 2.33-2.07.88-.33 1.29-1.08 1.62-1.55.38-.54.57-.84 1.25-.92h.02c.17-.01.35-.1.46-.25.05-.07.09-.15.12-.22.67-.18.8-.49.93-.41.04 0 .1 0 .18.01.2.02.4-.06.54-.2.07-.07.13-.2.15-.29.96-.24 1.14-.74 1.51-.7h.08c.28-.01.53-.22.61-.52.09-.47.5-.75 1.19-1.14.54-.32 1.27-.68 1.69-1.45.79-.07 1.21-.73 1.37-1.04.24-.38.2-.39.46-.43h.05c.29 0 .55-.22.61-.52.32-1.82 2.63-2.38 4.82-3.41l.25-.24c.69-1.08 1.84-1.94 2.84-3.09.42-.05.77-.39.89-.65"/><path class="cls-5" d="M480.08 60.67c-.4 2.02-1.74 2.99-2.1 5.04 3.21 2.12 8.95 1.96 12.24 3.99.71 1.27-1.52 1.61-1.96 2.63-.55 6.31-1.97 11.54-4.6 17.98-1.57 3.86-3.56 10.31-6.9 9.96-4.15-.45-1.13-4.27.01-6.08 2.11-3.34 4.2-8.52 5.18-11.87-2.31-1.59-6.9-3.85-4.77-7.54 2.94.05 3.44 2.29 5.61 3.03 1.74-1.17 1.33-4.72 2.48-6.55-1.65-1.59-4.96-1.71-7.79-2.23-3.06 1.6-2.88 15.8-8.08 15.06-4.98-.71.99-10.77 2.24-13.85 1.95-4.75 3.82-13.39 8.42-9.58m46.02 8.82c-.49 4.81-3.7 6.57-5.67 9.72.41 3.27 3.83 15.09-.79 14.84-4.31-.22-.03-9.6-2.39-12.26-4.53 1.88-6.68 6.46-12.22 7.24-.18-.61-.88-.74-1.16-1.27.41-3.31 4.12-4.57 6.72-6.34 2.41-1.62 5.24-3.42 7.27-5.38 2.34-2.24 4.55-8.64 8.25-6.54m10.35 3.91c.13-2.45 4.12-2.86 7.25-4.11 2.78-1.12 9.35-5.03 9.87-1.17.3 2.37-5.4 3.79-8.58 4.89-3.99 1.39-7.01 3.59-8.53.39m-32.34 3.72c-7.33.94 1.02-7.64 0 0m41.37-1.14c1.54.43.67 3.03 1.61 4.02 3.63 1.27 10.31-.45 10.17 2.97-.16 3.72-6.21.79-10.08.99-1.76 3.85 1.56 13.56-1.95 13.85-3.94.34.61-9.79-.5-13.68-3.41-1.75-12.82 1.04-12.92-2.5-.11-3.27 8.79-1.54 12.55-1.77 1.12-.46.35-3.03 1.12-3.88m-48.46 3.2c-1.26 2.13-4.59.55-4.5-1.14.16-2.58 4.91-2.46 4.5 1.14"/><path d="M511.35 26.15c.04-.62-.21-.97-.18-1.58-.05 0-.13.01-.13-.03.06-.36-.15-.44-.1-.78-.04 0-.14 0-.14-.04.03-.49-.21-.7-.17-1.19-.06 0-.13 0-.14-.04 0-.3-.04-.6-.22-.73.05-.4-.16-.56-.09-.97-.16-.07-.32-.15-.31-.39-.25-.03-.25-.3-.32-.5-.18-.03-.23-.15-.23-.33-.29 0-.18-.41-.45-.43v-.17c-.2-.09-.34-.2-.41-.43-.27-.08-.44-.28-.54-.5a.846.846 0 01-.54-.52c-.22-.05-.36-.21-.46-.38h-.23c-.14-.31-.49-.4-.63-.73h-.22c-.2-.39-.69-.49-.87-.93-.42.06-.36-.34-.67-.38-.13-.23-.31-.4-.55-.52-.11-.23-.3-.41-.54-.51-.2-.38-.68-.57-.86-.92h-.22c-.06-.25-.39-.25-.41-.52-.27.01-.36-.14-.45-.3-.2.03-.32-.04-.32-.21-.21.01-.32-.04-.32-.21-.3.05-.27-.21-.54-.17v-.13c-.19-.04-.42-.04-.44-.2-.29 0-.36-.17-.64-.17v-.14c-.19-.02-.42-.02-.45-.2-.29.02-.36-.17-.63-.17v-.12c-.31 0-.47-.17-.77-.17v-.12c-.21-.03-.42-.03-.45-.22-.31 0-.46-.15-.77-.17v-.12c-.3.05-.33-.15-.63-.09V9.6c-.44.02-.6-.23-1.09-.2v-.1c-.45.05-.62-.15-1.08-.08v-.15c-.31.02-.5-.05-.54-.3-.32-.09-.55-.09-.85 0 .05.17-.16.11-.18.22-.7.04-1.34.12-2.13.08.05.23-.62.17-.64.05.44-.04.69-.23 1.17-.2-.09-.28.4 0 .37-.23-.67-.04-1.18.07-1.77.09 0 .06.01.13-.05.15-.43-.01-.69.15-1.12.15-.01.06 0 .13-.05.15-.26 0-.44.05-.54.18-.58.04-.77.41-1.36.41-.01.05 0 .12-.05.12-.43-.02-.58.23-1.04.17-.05.2-.3.2-.54.22-.01.04 0 .12-.05.12-.41-.06-.43.25-.86.17-.06.32-.68.12-.76.41-.21-.04-.18.15-.4.09-.01.05 0 .13-.05.14-.29 0-.37.2-.72.17-.03.22-.42.12-.45.33-.41-.07-.44.23-.86.17 0 .04.01.12-.05.12-.26-.06-.24.14-.49.09-.07.33-.69.12-.76.44-.21-.06-.19.12-.41.08-.03.23-.3.25-.54.28 0 .17-.12.24-.33.23-.02.26-.42.17-.49.41h-.18c-.05.13-.13.23-.23.29-.36-.04-.25.36-.62.3-.13.28-.44.38-.59.64h-.18c-.27.39-.7.65-1 1.02h-.18c.07.18-.14.12-.09.29-.39.17-.52.56-.91.73.03.37-.4.32-.4.68-.18.07-.31.18-.3.42-.43.06-.33.61-.68.72.01.19-.05.31-.24.31.03.28-.18.34-.18.6h-.13c-.04.18-.04.38-.22.42.01.28-.19.33-.19.59h-.13c.03.25-.16.25-.09.52h-.13c-.02.32-.23.46-.18.84-.33-.04-.08.5-.36.51.04.4-.25.46-.19.89-.23.06-.22.35-.21.64h-.13c.01.37-.22.51-.2.89h-.13c.07.35-.14.46-.09.81h-.13c.01.54-.22.86-.19 1.44h-.13v1.96s.13 0 .13.04c.01.3.12.53.31.68v.68h-.13v3.87s.12-.03.13.04c-.06.54.11.89.09 1.39.06 0 .13-.02.13.04.05.54.17 1 .2 1.58.04 0 .11-.01.13.04v.17c.35.06.27.51.54.64-.03.26.08.41.23.51 0 .26.2.32.18.59.05.02.13 0 .13.05.12.26.09.68.09 1.06.05 0 .12 0 .13.04-.04.69.15 1.17.19 1.79.04 0 .12 0 .13.04-.05.34.16.45.09.81.21.02.22.23.22.46.12.02.09.18.09.33.05 0 .13 0 .13.04.02.18.1.31.24.38 0 .25.2.33.17.58.18 0 .25.12.23.3.21-.05.1.14.14.22.01.04.3.22.3.25-.05.17.15.09.1.25.24.12.41.3.53.52.21.09.35.24.45.34.05.05.05.15.11.17.07.07.28.04.22.2.26 0 .37.13.45.31.25-.02.33.14.41.3.24-.07.21.15.45.09 0 .17.12.23.33.2-.03.33.49.15.53.43.2-.02.32.04.32.22.34-.03.4.2.77.17v.12c.51.03.61.41 1.18.38v.14c.26-.02.51 0 .54.2.44 0 .66.19 1.09.17v.12c.4-.05.51.15.9.09v.15c.67-.05 1 .25 1.73.16v.13c.57-.03.92.15 1.54.09v.12c.25 0 .58-.04.72.1.26-.01.51 0 .55.2.24-.05.2.14.44.09.05.25.33.28.63.29v.13h.78v.22c.27.03.14.46.54.38v.13c.22 0 .44 0 .54.07.02-.2.53.06.49-.2h.27v.13c.97.22 1.94.14 2.95 0 0-.04-.01-.12.04-.13.28.04.29-.14.58-.09.02-.05 0-.12.05-.12.27-.01.43-.16.72-.17.03-.19.26-.18.46-.22.05-.28.52-.16.58-.42.17.01.15-.16.37-.09.03-.26.43-.2.49-.42.23.04.23-.13.32-.22.24-.03.45-.12.54-.31h.19c.1-.29.53-.29.67-.57h.19c.04-.21.2-.31.46-.31 0-.18.1-.23.31-.21.01-.25.32-.22.36-.42h.18c.08-.25.35-.29.45-.52.2.07.14-.12.31-.09.02-.23.3-.23.37-.42h.18c.18-.25.36-.52.72-.6.05-.16.19-.25.36-.29.09-.25.28-.41.54-.52.14-.25.28-.49.64-.52.13-.31.5-.43.68-.73h.17c0-.17.27-.23.32-.29.1-.15-.01-.06.15-.12.04-.04.09-.18.12-.22.09-.09.29-.13.27-.31.18.08.09-.1.23-.07v-.21c.28.02.18-.31.45-.29-.04-.17.15-.11.1-.3.17-.07.32-.2.31-.44.24.06.13-.24.36-.21-.08-.29.26-.21.19-.51.37-.07.34-.5.68-.6-.03-.19.04-.3.22-.3-.03-.26.14-.36.32-.41-.02-.21.03-.31.22-.31-.02-.18.04-.3.23-.3.02-.06-.03-.15 0-.2 0-.01.16-.09.18-.15.05-.12-.04-.23.13-.16 0-.19.04-.34.23-.34.06-.21.08-.47.32-.53-.05-.19.15-.15.08-.36h.14c-.01-.3.21-.34.19-.63.19-.03.21-.2.22-.39h.14c-.02-.3.2-.34.19-.62h.13c.01-.25.03-.47.23-.52-.06-.38.24-.44.19-.81h.13c-.06-.29.15-.31.09-.6h.13c.01-.3.17-.45.18-.73h.14c0-.18.03-.36.22-.37-.07-.41.26-.45.19-.85.33.04.08-.49.36-.51-.02-.41.25-.58.17-1.03.32-.04.08-.62.37-.68-.02-.65.26-1.03.18-1.75h.13v-2.67s-.12 0-.13-.04M493.5 8.76c0-.09-.16-.02-.24-.05-.09.17.28.19.24.05" fill="#fff"/><path d="M511.48 26.18s-.12 0-.13-.04c.05-.62-.21-.97-.18-1.58-.05 0-.13.01-.13-.04.07-.35-.15-.43-.09-.77-.04 0-.13 0-.13-.04.03-.49-.22-.7-.17-1.2-.06 0-.13.01-.14-.03 0-.3-.04-.6-.22-.73.05-.4-.16-.56-.09-.97-.16-.07-.32-.15-.31-.39-.25-.03-.25-.3-.32-.5-.18-.03-.23-.15-.23-.33-.29 0-.18-.41-.45-.43v-.18c-.2-.08-.34-.19-.41-.42-.27-.08-.44-.28-.54-.51a.824.824 0 01-.54-.52c-.22-.04-.36-.2-.46-.38h-.23c-.14-.31-.49-.4-.63-.73h-.22c-.2-.39-.7-.49-.87-.93-.42.06-.36-.34-.67-.38-.13-.23-.31-.4-.55-.52-.11-.23-.3-.41-.54-.51-.2-.38-.68-.57-.86-.92h-.23c-.06-.25-.38-.25-.41-.52-.27.01-.36-.14-.45-.3-.2.03-.32-.04-.32-.21-.21.01-.32-.04-.32-.21-.3.05-.27-.21-.54-.17v-.13c-.19-.04-.42-.04-.44-.2-.3 0-.37-.17-.65-.17v-.14c-.19-.02-.42-.02-.45-.2-.29.02-.36-.17-.63-.17v-.12c-.31 0-.47-.17-.77-.17v-.12c-.21-.03-.42-.03-.45-.22-.31 0-.46-.15-.78-.17v-.12c-.3.05-.32-.15-.63-.09v-.12c-.44.02-.6-.23-1.09-.2v-.1c-.45.05-.62-.15-1.08-.09v-.14c-.31.02-.5-.05-.54-.3-.32-.09-.55-.09-.85 0 .05.17-.16.11-.18.22-.7.04-1.34.12-2.13.08.05.23-.61.17-.64.05.44-.04.69-.23 1.18-.2-.1-.28.4 0 .37-.23-.67-.04-1.18.07-1.77.09 0 .06.01.13-.05.15-.43-.01-.69.14-1.12.15-.01.06 0 .13-.05.14-.26 0-.44.06-.54.19-.58.04-.77.41-1.36.41-.01.05 0 .12-.05.12-.43-.02-.58.23-1.04.17-.05.2-.3.2-.54.22-.01.04 0 .12-.05.12-.41-.06-.43.25-.86.17-.06.32-.69.12-.77.41-.21-.04-.18.15-.4.09-.01.05 0 .13-.05.14-.29 0-.37.2-.72.17-.03.21-.42.11-.45.33-.41-.07-.44.23-.86.17 0 .04.01.12-.05.12-.26-.06-.24.14-.49.09-.07.33-.69.12-.77.43-.21-.05-.19.13-.41.09-.03.23-.31.25-.54.28 0 .17-.12.24-.33.23-.02.26-.42.17-.49.41h-.18a.66.66 0 01-.22.29c-.36-.04-.25.36-.63.3-.13.28-.44.38-.59.64h-.18c-.27.38-.7.65-1 1.02h-.18c.07.18-.15.12-.09.29-.39.16-.52.56-.91.73.03.37-.4.32-.4.68-.18.07-.31.19-.3.43-.43.06-.33.61-.68.72.02.19-.05.3-.23.3.02.28-.18.35-.18.61h-.13c-.04.18-.04.38-.22.42.01.28-.19.33-.19.59h-.13c.03.24-.16.24-.09.52h-.13c-.02.32-.23.46-.18.84-.33-.04-.08.5-.37.51.05.4-.25.46-.19.89-.23.05-.22.35-.21.64h-.13c.01.37-.22.5-.2.89h-.13c.07.35-.15.46-.09.81h-.13c.01.54-.21.86-.18 1.43h-.13v1.97s.13 0 .13.04c.01.3.12.53.31.68v.68h-.13v3.87s.12-.03.13.04c-.06.54.11.89.09 1.39.06 0 .13-.02.13.04.05.54.17 1 .2 1.58.04 0 .11-.01.13.04v.17c.35.06.27.51.54.64-.03.26.08.41.23.51 0 .26.2.32.18.59.05.02.13 0 .13.05.12.26.09.68.09 1.06.05 0 .12 0 .13.04-.04.69.15 1.17.19 1.79.04 0 .12 0 .13.04-.05.34.16.45.09.81.21.02.22.23.22.46.12.02.09.18.09.33.04 0 .12 0 .13.04.02.18.1.31.24.38 0 .25.2.33.17.58.18 0 .25.12.23.3.21-.05.1.14.14.22.01.04.3.22.3.25-.05.17.15.09.1.25.23.12.41.3.53.52.21.09.35.24.45.34.05.05.05.15.1.17.08.07.29.04.22.2.26 0 .37.13.45.31.25-.02.33.14.41.3.24-.07.21.15.45.09 0 .17.12.23.33.2-.03.33.49.15.53.43.2-.02.32.04.32.22.34-.03.4.2.77.17v.12c.51.03.61.41 1.18.38v.15c.26-.02.51 0 .54.2.44 0 .67.18 1.09.17v.12c.4-.05.51.15.9.09v.15c.67-.05 1 .25 1.73.16v.13c.57-.03.92.15 1.54.09v.12c.25 0 .58-.04.72.09.26 0 .51 0 .55.21.24-.06.2.14.44.09.05.25.33.28.64.29v.13h.78v.21c.27.04.13.47.53.38v.13c.23 0 .44 0 .55.07.02-.2.53.06.49-.2h.27v.13c.97.22 1.94.14 2.95 0 0-.04-.01-.12.04-.13.28.04.29-.14.58-.09.02-.05 0-.12.05-.12.27-.02.43-.16.72-.17.03-.18.26-.17.46-.21.05-.28.52-.16.58-.42.17.01.15-.16.37-.09.03-.27.43-.2.49-.42.23.04.23-.13.32-.22.24-.03.45-.12.54-.31h.19c.09-.29.52-.29.66-.57h.19c.04-.21.2-.31.46-.31 0-.18.1-.23.31-.21.01-.25.32-.22.36-.42h.18c.08-.25.35-.29.45-.52.2.07.14-.12.31-.09.02-.23.3-.23.37-.42h.18c.18-.25.36-.52.72-.6.05-.16.19-.25.36-.29.1-.25.28-.41.54-.52.14-.25.28-.49.64-.52.13-.31.5-.43.68-.73h.18c0-.17.27-.23.31-.29.1-.15-.01-.06.15-.12.05-.04.09-.18.13-.22.09-.09.29-.13.26-.31.19.08.1-.1.23-.07v-.21c.28.02.18-.31.45-.3-.04-.17.15-.1.1-.29.17-.07.32-.2.31-.44.24.06.13-.24.36-.21-.08-.29.26-.21.19-.51.37-.07.34-.5.69-.6-.03-.19.04-.3.22-.3-.03-.26.14-.36.32-.41-.02-.21.03-.31.22-.31-.02-.19.04-.3.23-.3.02-.06-.03-.15 0-.2 0 0 .16-.08.18-.14.05-.12-.04-.23.13-.16 0-.19.04-.34.23-.34.06-.21.08-.47.32-.53-.05-.19.15-.15.08-.36h.14c-.01-.3.21-.34.18-.63.19-.03.21-.21.23-.39h.14c-.02-.3.2-.34.19-.62h.13c.01-.25.03-.47.23-.52-.06-.38.24-.44.19-.81h.13c-.06-.29.15-.31.09-.6h.13c.01-.3.17-.45.18-.73h.14c0-.18.03-.36.22-.37-.07-.41.26-.45.19-.85.33.03.07-.49.36-.51-.02-.41.25-.58.17-1.03.32-.04.07-.62.36-.68-.02-.65.26-1.03.18-1.75h.13v-2.67zm-42.13 8.46c-.17-.05-.09-.29-.09-.38-.01-.16.02-.31 0-.47-.01-.09-.07-.12-.1-.21-.15-.76.13-1.66 0-2.47.23.09-.02.59.19.68v.85c-.07.16.16.02.13.14.02.62.27 1.45-.13 1.87m.68-1.42c-.26 0-.12.39-.32.44-.08-.23.15-.71-.14-.73v-1.02h.14c.09.3.3.47.54.63-.03.27-.28.33-.22.68m34.72-11.62c-.06.38.16.52.1.92-.24.05.05-.38-.24-.29.07-.33-.12-.43-.09-.71.13-.04.06.12.23.09m-2.94-6.21c-.25.05-.21-.15-.45-.09-.01-.15-.15-.2-.09-.43.23.12.41.3.54.52m-4.02-1.45h.23c.02.25.21.35.32.51-.31.07-.39-.09-.64-.08-.06-.23.16-.2.09-.43m-3.47-2.85c.01.22.38.12.54.21.06.33-.14.44-.1.73h-.13c-.24-.13-.35-.41-.63-.5-.03-.2-.19-.28-.4-.3.08-.2-.19-.08-.13-.23.37-.05.48.14.86.09m-1.36 6.84c.14-.06.09.3.04.3-.16.06-.12-.28-.04-.3m-.83-4.79c.19 0 .15-.15.38-.09v.12c-.08.12-.2.16-.15.38h-.32c-.05-.23.16-.19.09-.41m-.53 1.3h.44c.02.33-.24.66-.54.42.08-.09.12-.23.09-.42m-2.17-1.9h.13v-.31c.11.01.1-.05.11-.12.12-.06.33-.04.31-.21.25.04.27-.15.54-.09-.04.4-.22.65-.17 1.1-.25-.04-.1.3-.13.44-.1.06-.26.06-.24.21h-.72c.01-.38.18-.64.18-1.02m.54 5.99h.13v.12h-.13v-.12zm-.08.42v-.19c.14-.08.14.25 0 .19m-.64-2.85c.2-.05.14.12.31.09v.29c-.21-.02-.11.25-.31.23v-.6zm-2.71-4.2c.39.06.52-.15.82-.17.16-.04.05-.36.28-.33-.13-.47.33-.4.72-.4v-.12h.14v.12c-.25.24-.37.6-.55.9h-.63c0 .14-.23.07-.23.21-.31-.06-.84.1-1-.09.15-.04.5.1.45-.12m.33 6.86c-.21-.07-.29.01-.24.19h-.23v-.13c.19-.21.3-.5.31-.89h.15c-.07-.28.14-.31.09-.6h.13c.05-.15.04-.35.09-.51 0 0 .08.01.08 0 .03-.1-.04-.23 0-.35 0 0 .13.02.14 0 .06-.04-.06-.22 0-.29.23-.05-.06.4.23.29-.07.58.12.91.08 1.45-.36.12-.4.54-.8.6-.12 0-.03.15-.05.23m-.78 2.46h.09v-.21c.41-.2.58-.62 1-.83v-.2h.23c-.04-.28.07-.19.19-.31.08-.09.27-.25.45-.21v.52c-.24.09-.47.19-.55.41-.25 0-.36.13-.4.3-.44-.05-.33.4-.73.4-.09 0 0 .17-.19.12 0 .04-.01.09-.09.07v-.07zm.87 1.82v.1h-.09v.13h-.15s0 .08-.08.07c0 .2-.19.23-.32.3-.07-.18.13-.14.09-.3h.23v-.07h.08v-.13h.15c0-.07 0-.12.09-.1m-7.66-8.24c.23-.17.3-.49.69-.51.18-.2.28-.47.63-.52.04-.17.27-.15.27-.35.26.04.36-.1.41-.28.2-.04.42-.04.45-.23.26-.04.55-.07.63-.28.26 0 .51 0 .54-.22.32.02.39-.2.73-.17.08 0 .01-.12.09-.12.16.17.43.25.81.21v-.09h.36c.03.17-.24.06-.36.09.04.22-.42-.07-.32.22-.29-.07-.31.13-.58.09-.06 0-.06.06-.06.12-.28-.02-.35.16-.63.16-.08.14-.2.22-.4.23-.04 0-.04.05-.04.11-.31-.07-.23.23-.49.17-.06.01-.06.07-.06.14-.23-.07-.2.13-.4.09-.09.17-.29.24-.54.28-.08.09-.09.26-.32.22-.03.26-.48.15-.5.42-.21-.07-.15.15-.36.09-.05 0-.05.08-.05.13-.38 0-.55.23-.86.3.04-.17.14-.3.35-.3m4.3 4.67h-.13c.08.29-.25.21-.19.52-.17-.07-.08.11-.22.08-.02.06.05.23-.04.22-.16.04-.14-.32.04-.22-.07-.31.14-.38.09-.68h.13c-.04-.18.05-.17.1-.22.03 0-.02-.1 0-.12.04-.04.15-.07.19-.09.13-.03.09-.17.13-.19.05-.07.16-.07.22-.14.03-.04 0-.12.09-.09-.06-.12.21-.12.13 0h-.13c.03.29-.2.35-.17.63-.18 0-.25.12-.24.3m-.03 7.44c-.16.04-.08-.15-.1-.21h.13c-.02.06.06.22-.03.21m-12.76-3.87c-.25 0-.08.38-.27.44-.15.04-.08-.15-.08-.2.22 0 .1-.35.22-.44h.13v.21zm6.82 17.43c-.22.04-.23.26-.31.43-.15 0-.22.07-.24.21h-.21c-.07-.23.15-.2.1-.41.23.04.11-.25.35-.23-.07-.33.29-.26.31-.51.25.1-.11.27 0 .51m.95 3.36c-.04-.23.22-.2.24-.38.15 0 .19.09.31.14-.08.16-.23.29-.55.25m19.9-7.65v-.29h.18c.03.17-.04.27-.18.29m.94-1.82h-.08v.12h-.15v-.12h.15c0-.06 0-.11.08-.09v.09zm6.66 2.54h-.14c.03.29-.21.36-.17.65-.24-.01-.17.27-.24.37 0 .04-.11 0-.12 0-.05.05.05.31-.1.22-.06-.28.15-.3.1-.59.27 0 .08-.45.36-.44-.08-.26.12-.26.09-.5h.22v.29zm4.43-11c-.22-.05-.5-.05-.59-.21-.1.04-.01.23-.04.33.27-.07.29.12.54.08.08.19-.23.01-.23.14-.08.19.3-.02.23.16-.13.03-.39-.04-.45.04-.08.17.23 0 .22.13 0 .15-.22.29.09.27-.03.08-.09.12-.14.2h-.09c-.21-.17-.52-.24-.95-.2v-.14c-.46.07-.66-.12-1.07-.09-.06.15.12.08.21.09.07.21.36.21.64.21.02.25.49.09.55.29-.44.03-.6-.22-1.09-.17v-.12h-.26c-.09.04-.01.24-.15.25-.03.12.21-.03.18.08.06.15-.14.04-.08.17-.25.07-.22-.14-.46-.09.03-.26-.37-.25-.5-.13-.18-.09-.46-.05-.46-.29-.24.01-.43-.01-.45-.21-.12.04-.36-.05-.4.04.03.17.35.08.31.29.18-.07.21.08.23.08-.03 0 .15.07.2.09.06 0 .15-.02.2 0 .03.03.06.24.23.13 0 .2.26.15.32.29-.29.07-.3-.1-.55-.07.01-.2-.16-.24-.4-.22-.05-.23-.33-.23-.54-.3-.01-.17-.17-.21-.36-.2v-.14c-.33-.04-.84.09-1-.09-.31.13-.7.13-1.09.09-.08 0-.06-.09-.08-.09-.3-.08-1.02.14-1.09-.08h-3.79c.07.47-.14.66-.09 1.1h-.14c.03.58-.2.91-.17 1.46-.28.03-.23.38-.23.68h-.14c.08.41-.17.52-.17.84-.23.04-.24.27-.23.52h-.15c.04.54-.37.64-.4 1.1-.3.05-.12.56-.45.6.07.22-.15.2-.08.41h-.15c.05.27-.17.27-.22.44-.17.04 0-.19-.17-.14.13-.09.03-.39.23-.43.07-.15-.21 0-.15-.16-.13.06-.2.09-.22.16-.02.07-.08.03-.09.06-.05.09-.05.32-.09.37 0 .01-.13-.01-.14 0-.05.17-.03.38-.32.31.02-.13.16-.13.1-.31.17.07.12-.09.12-.2-.21-.07-.06.17-.23.13.02-.23.07-.4.23-.47.03-.12-.25.03-.23-.09.07-.24.44-.44.23-.68.21.04-.03-.3.23-.21-.03-.09.06-.28-.05-.3-.12.08-.16.23-.18.44h-.12c.08.12-.1.17-.1.17-.04.1-.04.34-.08.41-.02.01-.13 0-.14 0-.07.17-.04.38-.32.3.18-.33.35-.66.54-.98-.23-.4.18-.81.1-1.35h.12c.04-1.18.15-2.27.09-3.53-.25-.15-.43.1-.71.04-.06 0-.06.08-.04.13-.56.01-.97.15-1.59.09-.05 0-.05.07-.05.13-.55 0-.88.18-1.44.17-.05 0-.05.08-.05.13-.36-.05-.51.07-.82.07-.04.03-.04.07-.03.13h-.32c-.04.18-.36.09-.36.31-.25 0-.5.02-.54.2-.3-.07-.22.23-.5.19-.04 0-.04.05-.04.1-.39-.04-.37.31-.72.31-.05.07-.17.07-.14.2-.46.02-.58.36-1.04.39 0 .22-.34.14-.36.33-.28-.02-.37.17-.64.17-.03.22-.42.11-.45.33-.17-.11-.2.1-.32.17-.1.07-.32-.07-.23.15-.42-.04-.34.38-.72.37-.02.23-.35.13-.37.34-.4.06-.55.36-.76.6h-.23c0 .44-.4.51-.41.94-.17-.07-.08.12-.23.07-.07.55.13.88.09 1.37.02.05.08.04.14.04.01.75.25 1.29.19 2.12 0 .06.07.06.14.04-.07.34.14.44.09.76 0 .05.07.05.13.04-.06.47.21.62.19 1.06 0 .07.07.05.13.03 0 .25 0 .49.22.53-.03.53.36.66.41 1.12.2.06.28.26.31.49.4.2.46.67.77.95v.38s.08.04.14.04c.01.27.15.43.19.68 0 .05.06.05.13.04 0 .3-.04.65.23.72-.08.45.25.52.17.97.02.04.08.04.14.04 0 .27 0 .54.22.6-.09.47.26.52.19.97.21.04.08.39.36.35-.08.28.24.21.18.47.21 0 .21.22.5.15.06 0 .05-.05.04-.13.56.08.9-.07 1.4-.07.05 0 .05-.08.05-.13.53.09.72-.14 1.14-.16.04-.01.04-.07.04-.13.42.02.54-.21.85-.3v-.52h.14c0-.42.25-.6.18-1.1h.13c0-.25 0-.49.23-.52-.03-.28.2-.33.18-.63.18 0 .25-.09.23-.31h.12c-.06-.28.26-.2.18-.5.19 0 .25-.11.23-.3.18 0 .21-.12.23-.28.27.02.32-.13.32-.33.17 0 .24-.12.22-.3.15.01.06-.16.23-.09.08-.23.33-.36.5-.51.27-.25.51-.58.82-.73.04-.03.01-.15.08-.21.03-.04.18-.04.23-.08.06-.06.06-.17.09-.22.03-.02.11 0 .14 0 .06-.04.01-.14.09-.2.1-.12.33-.15.31-.3.32-.07.38-.07.69 0v.3c.07-.12.35-.01.31-.22h.32v.22c-.26-.05-.25.16-.44.17.03.09.24 0 .35.04.08.17-.25 0-.23.12-.07.2.3-.01.23.17-.38-.08-.11.4-.45.36-.03.15.21.04.32.07.03.13-.16.06-.1.22-.23-.06-.19.13-.41.09-.04.06-.16.06-.12.2-.25.12-.42.28-.55.51-.24.11-.42.28-.55.52-.17-.07-.09.12-.23.08v.22c-.13-.03-.05.13-.22.08 0 .48-.54.39-.54.86-.14-.04-.05.15-.22.07.09.24-.16.25-.18.31-.03.07.03.17 0 .22-.02.02-.13-.01-.13 0-.07.11-.01.36-.24.28.03.31-.21.36-.19.65-.21.04-.23.27-.23.52h-.13c.08.49-.18.66-.17 1.1h-.15c.06.31-.06.47-.09.72-.24.12-.42.29-.53.52-.21 0-.24.18-.32.3-.19.02-.41.02-.45.2-.25-.04-.23.15-.5.09-.05.01-.05.07-.05.13-.43-.02-.54.25-1.04.17-.13.23-.49.23-.87.21-.04.01-.04.06-.03.13-.93.04-1.71.23-2.62.08.02-.15-.16-.05-.1-.21-.21.01-.34-.06-.31-.26-.09-.03-.13-.1-.23-.12 0-.33-.33-.33-.32-.69-.1-.07-.23-.12-.23-.3-.21-.04-.19-.3-.32-.41v-.31c-.19-.1-.25-.33-.24-.62-.27-.19-.26-.62-.3-1.02-.2-.09-.25-.29-.24-.6 0-.04-.07-.04-.13-.04.02-.14-.01-.23-.09-.25v-.41c-.17-.04 0-.33-.23-.27 0-.23-.01-.47-.23-.51v-.34c-.16-.06-.09-.33-.31-.33.11-.23-.21-.31-.23-.33-.02-.05 0-.11 0-.13-.04-.12-.25-.19-.19-.35-.21-.03-.11-.35-.36-.33-.02-.48-.4-.6-.4-1.07-.02-.04-.07-.04-.13-.04-.02-.34-.23-.49-.19-.9 0-.04-.06-.04-.12-.04.04-.29-.17-.36-.09-.68 0-.06-.08-.04-.14-.04-.04-.62-.26-1.05-.18-1.8 0-.04-.07-.04-.13-.04.07-.46-.14-.65-.08-1.1-.28.02-.48.1-.55.3-.28-.09-.25.15-.32.22-.06.08-.3.05-.21.21-.19-.1-.21.09-.32.17-.11.06-.31-.09-.23.12-.29-.01-.32.17-.45.25-.03.01-.07.13-.09.14-.11.04-.3-.09-.22.12-.21 0-.32.04-.32.2-.29 0-.36.17-.63.17-.06 0-.05.07-.03.13-.32 0-.69-.04-.74.22-.4-.01-.8-.01-.99.17.07-.19-.14-.14-.1-.3-.64.07-.77-.36-1.31-.4-.02-.17-.25-.17-.44-.2-.04-.2-.2-.28-.41-.3a.536.536 0 00-.37-.33c-.01-.23-.09-.36-.3-.38-.04-.18-.04-.4-.23-.42.03-.25-.12-.35-.31-.38-.03-.18-.03-.41-.23-.43.04-.28-.19-.29-.17-.55-.02-.04-.08-.04-.14-.04.06-.33-.11-.41-.1-.68 0-.06-.07-.06-.13-.06-.15-.81-.12-2.01 0-2.83h.13c-.07-.41.14-.56.1-.94h.14c-.04-.61.21-.93.17-1.54h.13c-.07-.45.14-.65.1-1.08h.14v-2.95s-.08-.04-.14-.04c.04-.57-.08-.98-.1-1.49-.01-.05-.08-.05-.13-.05 0-.36-.16-.61-.17-.96-.02-.06-.08-.06-.14-.06.04-.28-.17-.36-.1-.68-.08-.03-.12-.12-.23-.12.05-.22-.07-.27-.09-.42.24-.08.11.18.31.12.02.2.03.38.24.39.03-.18.17-.44 0-.59h.3c.05-.16-.22-.02-.13-.23-.07-.15.16-.01.13-.12.09-.2-.14-.11-.13-.25.12.04.17-.01.13-.13.11.09.26.17.41.22-.08.27.22.16.13.43h.33c.02-.2-.02-.33-.09-.43.2.01.35.07.32.29.16.05.06-.13.08-.2.26-.04.28-.28.32-.52.21.04.14-.21.36-.16-.05-.38.37-.35.41-.65.49-.2.61-.73 1.18-.89.18-.19.29-.46.63-.51.03-.17.27-.15.27-.35.43.06.32-.39.72-.38.12-.12.16-.33.46-.29v-.14h.13s0-.08.09-.07v.07h-.09v.14h-.13c-.09.22-.36.26-.41.5-.25.1-.45.27-.54.52-.42.12-.48.58-.9.68.02.17-.16.15-.09.35-.38.14-.49.54-.87.68v.23c-.29.08-.36.41-.68.49 0 .2-.18.23-.18.43-.27.06-.29.32-.54.38-.04.39.2.53.19.89.01.06.06.05.13.05-.07.33.13.41.1.71.2.08.05-.17.22-.12.16-.05.01.2.22.12.14.73.05 1.66.14 2.42.21-.15.1-.6.4-.67-.05-.24.16-.2.09-.44h.14c-.07-.29.26-.21.19-.52.2-.01.2-.22.22-.41.32-.02.13-.5.46-.5 0-.18.05-.31.22-.31-.01-.23.12-.33.32-.38-.08-.38.37-.27.32-.63.23-.02.19-.3.45-.3 0-.31.21-.4.41-.52v.29c-.24.15-.36.4-.41.73-.19.04-.19.25-.23.43h-.14c0 .26-.19.32-.18.6-.19.02-.19.23-.22.42h-.14c.03.26-.24.22-.19.51-.26-.02-.09.34-.35.3-.04.24-.09.45-.32.52.02.19-.04.28-.22.28.09.22-.16.23-.19.3-.03.06.03.15 0 .23-.01 0-.12-.04-.14 0-.06.11 0 .36-.22.28.08.3-.26.22-.19.52h-.13c-.09.28-.1.62-.09 1.02h-.13c-.07.79.03 1.53-.09 2.24-.01.06-.02.1-.09.09v1.99c0 .07.08.04.09.09.01.15-.05.39.09.43v.42c.01.06.07.06.13.04.03.44.38.56.41.98.22.06.22.35.54.33v.12h1.04c.06 0 .06-.06.04-.12.31.08.35-.12.64-.09.04 0 .04-.06.03-.11.4-.01.66-.15 1.04-.17.06-.02.06-.07.04-.14.27.07.29-.09.5-.09.05 0 .04-.07.04-.13.21 0 .24-.03.37-.08.02 0 .04-.09.04-.09.13-.04.3.07.24-.12.2.02.31-.05.31-.22.21.07.18-.1.35-.08 0-.12.05-.27-.12-.2.06-.43-.12-.6-.09-.99-.02-.04-.08-.04-.14-.04 0-.54-.23-.89-.18-1.5 0-.05-.07-.04-.13-.03.07-.53-.14-.78-.1-1.29-.01-.05-.08-.05-.14-.05-.02-.74-.32-1.45-.13-2.24.17.05.28.15.37.28h-.24v.9c0 .05.08.04.14.04-.08.42.16.58.1.98 0 .04.07.04.13.04-.01.71.19 1.2.18 1.92.01.05.07.05.14.05-.04.37.08.6.13.89.19 0 .04-.33.08-.47 0-.05-.06-.05-.12-.04.06-.58-.12-.94-.09-1.49-.02-.05-.08-.05-.14-.05-.02-.18.07-.48-.09-.54-.12-.78-.1-1.7-.09-2.6h.18v-.64c.07 0 .15.01.14-.07.3.04.29.23.54.28v.3h.19c.09-.04.01-.25.05-.37.24-.01.32.13.4.29.05.15-.14.07-.23.08-.05.18.05.23.14.27.06.15-.16.01-.14.13-.02.09.2-.05.14.11-.22-.08-.22.44 0 .35-.07.41.15.57.08.98.01.05.07.04.13.04v.59c.19.07.01-.2.14-.2h.18c-.05.29.16.36.09.67 0 .07.07.07.12.04 0 .69.21 1.2.19 1.94.05.05.2.03.13.2.09-.09.27-.1.36-.17.05-.03 0-.09.04-.13.03-.02.11 0 .14 0 .06-.02.06-.17.09-.21.02-.02.2-.05.24-.09.09-.08.07-.11.09-.2.34-.04.49-.21.54-.51h.13c-.06-.33.15-.42.09-.73h.13c.02-.1 0-.2 0-.3.02-.09.11-.35.19-.38.08.57-.15.84-.19 1.32.31 0 .26-.33.6-.31.04 0 .04-.07.04-.13.25 0 .5 0 .54-.2.3.08.22-.23.5-.17.05 0 .05-.07.05-.13.3-.01.48-.14.63-.3h.41c.05-.07.17-.07.14-.2.19-.03.42-.03.45-.21h.41c.08-.17.43-.07.45-.3.3.05.33-.15.63-.09.06 0 .06-.07.05-.12h.32c-.08.21.26.06.27.21.19-.28.56-.36.68-.71.44.06.35-.38.72-.4.05 0 .05-.06.05-.12.3.07.32-.14.62-.08.01-.12.29 0 .23-.2.31.05.35-.13.64-.09.08-.25.54-.13.73-.3h.59s.05-.07.03-.13c.41.08.56-.09.91-.07.13-.17.36-.25.68-.2.05-.11.16-.65-.09-.6.06-.7-.11-1.2-.09-1.84-.14 0-.08-.21-.23-.21.04-.29-.03-.48-.09-.68 0-.05-.07-.05-.13-.05.04-.44-.15-.64-.09-1.1 0-.04-.07-.04-.13-.03v-2.35h.13c-.06-.34.15-.41.09-.73h.13c-.03-.37.21-.49.19-.88h.12c-.05-.29.16-.33.09-.64.36-.03.09-.65.45-.68-.06-.23.15-.2.09-.44h.14c-.08-.25.2-.2.18-.43.45.09.5-.2.54-.51.25-.04.34-.24.5-.37.28.01.35.23.5.37.1-.09.32-.09.54-.07.01.11.14.12.08.31-.11-.02-.12-.15-.32-.09v.16c.09.04.13.12.23.14-.1.13-.1.17 0 .3-.21.07-.04.49-.09.71h-.15c.07.43-.15.6-.09 1.02h-.15c-.11.21 0 .74-.17.8v1.79c0 .07.08.04.09.09.05.4-.11.97.08 1.24v.43s.09.03.15.03c-.03.32.15.42.09.78.01.04.08.04.15.04-.05.49.14.78.17 1.19.25.04.1.45.37.46 0 .41.18.65.17 1.07.45 0 1.17-.1 1.81-.04.05-.03.05-.08.05-.13h.31v.13c.77-.07 1.39.04 2.08.07v.13c.77 0 1.41.14 2.18.17v.12c.68-.05 1.08.15 1.77.09v.13c.83.16 1.79.04 2.67 0 .04-.01.04-.07.04-.13h.41c-.07.25.35 0 .22.29.12-.12.4-.07.64-.07v.28h-.19c.05.15.14.28.09.52h-.22c-.06.22.07.27.13.38.06.2-.22.08-.13.28.18.05.32.13.54.15v.21zm-14.25 12.76c-.15.04-.12-.31.05-.23 0-.05.01-.09.09-.08v.08h-.09c-.03.07.05.23-.05.23m-6.82-3.16c.02.09-.08.07-.09.09-.04.12.2.1.09.22h-.18c.01.16-.04.38.09.42 0 .11-.1.11-.14.17-.2-.04-.2-.28-.41-.3.02-.05.23-.28 0-.29-.07.08-.08.21-.13.29-.15.07-.03-.13-.17-.08 0 .07-.05.09-.14.08.02.15-.01.22-.08.25.05.11.17.15.23.26-.32.09-.22-.23-.45-.22.07-.04.28-.38 0-.38v-.21h.13c.02-.17 0-.32-.13-.34.07-.1.19-.15.13-.38h.18c.06-.19-.07-.2-.08-.3.16.03.05-.21.08-.3.21.09.06-.17.22-.12.04.12-.06.36.04.42.23.05-.04-.36.18-.3.02.19-.08.47.23.39v.28c.18 0 .06-.2.09-.28 0-.03.13 0 .13 0 .05-.06-.04-.25 0-.31h.18c.06.17-.13.55.13.52-.01.06.06.21-.04.2-.15.07-.01-.15-.12-.13-.19.12.05.39.04.34m-1.49.22c.05.15-.14.06-.23.09 0-.15-.08-.22-.23-.22.1-.09.19-.19.14-.43h.17c0 .15.05.34-.09.39.05.08.16.11.23.17m-2.84.18h-.32c.11.15.15.33.23.49-.1-.01-.08.07-.09.13h-.23c-.06-.18-.23-.27-.23-.51-.12.07-.12.25-.4.17-.05.09-.17.12-.14.3.03.09.21.08.22.22h-.3c0-.12 0-.22-.14-.18-.01-.17-.03-.35.14-.38-.17.04-.25-.51 0-.46-.08-.1-.2-.17-.14-.39.28 0 .22-.35.22-.63.28 0 .16-.4.46-.38v-.52c.08.01.08-.04.09-.08.22-.04 0 .34.13.37.23.07-.04-.34.18-.29v.38c0 .09.16 0 .23.04v.3c.2.05-.03-.31.23-.2v-.42h.23v.62h-.15c.07.44-.15.6-.08 1.02-.21.04-.27.28-.13.4m-1.5 0h-.32c0-.12.05-.27-.13-.22v-.3c.3.01.18-.37.44-.38v-.52h.24v.52c-.25.04-.18.36-.45.38-.07.3.12.36.22.52m-6.19-16.63v.13h-.09c0-.07 0-.15.09-.13m1.41 11.66h.13v-.22c.15-.05.07.13.09.22h-.09c.07.12-.21.12-.13 0" fill="#b5341d"/><path class="cls-3" d="M493.45 8.81c0-.09-.16-.02-.24-.05-.09.17.28.19.24.05m2.71 4.11h.13v.14h-.13zm.99.44h.09v.08h-.09zm-1.76.42c-.06.17-.19.27-.18.52-.23.03-.23.25-.23.51-.23-.1-.04.2-.23.17.06.31-.15.35-.08.64h-.14c.06.28-.15.32-.1.59h-.12c0 .41-.23.58-.19 1.02-.07 0-.16 0-.13.09v2.2c0 .08.12.03.13.09v.57c.19.15 0 .67.27.76.1-.07.01-.33.04-.47 0-.07-.12-.03-.12-.08v-3.24h.12c-.07-.33.12-.41.1-.73h.14c-.03-.38.21-.52.18-.93h.12c-.06-.28.16-.31.09-.6h.14c0-.53.3-.78.4-1.21h-.22v.12zm1.76.08h-.23v.09c.08-.01.27.05.23-.09m-.22.3v.13c.12.07.12-.2 0-.13m-.23.81h.13v.13h-.13zm-.09.33c.14.07.14-.19 0-.12v.12zm-.12.38h.12c.01-.07-.04-.08-.12-.07v.07zm-.96.44h.08v.08h-.08zm-.14.29v.08h.14c0-.07-.04-.09-.14-.08m-.09.43c.13.07.13-.2 0-.12v.12zm-.09.29h.09v.09h-.09zm-22.92 2.94h.13c0-.07-.05-.1-.13-.08v.08zm.3-.08c-.01.09.08.08.15.08.02-.08-.07-.08-.15-.08m24.34.19c.12.07.12-.18 0-.12v.12zm-25.59.4v.35c.13.04.13-.39 0-.35m1.48.12v.09h.14c0-.07-.04-.1-.14-.09m.14.31h.08v.09h-.08zm21.48 0c.05.12-.1.41.09.41-.05-.13.1-.44-.09-.41m-22.79.42h-.13c0 .12 0 .21.13.18v-.18zm22.88.09v.08h.14c0-.07-.05-.09-.14-.08m-21.38.2v.08h.13c.01-.07-.05-.09-.13-.08m21.92 1.45c0-.07-.12-.03-.09-.13v-.54c-.14-.03-.11-.11-.12-.23-.03-.04-.08-.04-.1-.07-.04-.15.1-.42-.08-.47v.54c.2.24.04.79.08 1.16.24.03-.08.57.23.55.21-.12.04-.58.09-.81m-23.43-1.37v.23c.14.05.14-.3 0-.23m1.85 0v.23c.14.05.14-.3 0-.23m23.89 0v.14c.12.06.12-.19 0-.14m.17.43v-.2c-.13-.08-.13.27 0 .2m-25.68-.12h-.14c.02.08-.06.25.1.21.08.01.01-.14.04-.21m25.78.34c.09 0 0-.15.04-.22h-.14c.02.09-.07.26.1.22m-25.69.38c-.04-.11.09-.38-.08-.38.04.12-.11.4.08.38m25.72-.31h.09v.1h-.09zm-25.63.35s-.05-.04-.09-.04v1.02c.21-.16.04-.67.09-.98m37.8 1.48v.14c.13.07.13-.19 0-.14m-37.67 2c.02.11-.2 0-.13.14.07.72-.13 1.18-.09 1.87.2 0 .04-.33.09-.48-.01-.08.21.04.13-.12-.06-.42.15-.6.1-1.01-.02-.11.21.02.13-.14v-1.95h-.13c.03.63-.16 1.05-.1 1.7m37.35-1.27h.09v.07h-.09zm-.36.07c-.11.17.27.2.22.06 0-.1-.17-.03-.22-.06m-19.22.44h.13c.08-.14-.2-.14-.13 0m-.08.08c.08.01.08-.04.08-.08h-.08v.08zm-.1.13c.09.01.09-.07.09-.12h-.09v.12zm-.36.08h.12v.12h-.12zm9.22.42c.04.16.27.09.36.09 1.06.04 2.17-.02 3.17 0 .16-.04.02.21.23.13h.86c.29 0 .71.07.81-.09-1.64-.2-3.59-.09-5.42-.13m11.07.39c.08-.01.27.06.23-.09h-.23v.09zm-14.51.14c.14.04.14-.2 0-.14v.14zm-.23.07v-.07h-.45c-.01.17.32.03.45.07m-.99.09c.04.05.48.11.45-.04-.04-.06-.48-.11-.45.04m-7.83.2h.14c0-.08-.05-.09-.14-.08v.08zm7.29 0c-.1.18.27.2.23.04 0-.09-.16-.01-.23-.04m-8.69.52h.14v.13h-.14zm10.77.51c-.07 0-.17 0-.14.07-.09.75-.19 1.5-.18 2.34.01.11-.21-.03-.14.12.08.34-.12.44-.09.73.16.04.07-.13.09-.22.24.09.05-.2.23-.17-.03-.24.16-.25.09-.52.07 0 .16.01.14-.1-.02-.94.16-1.72.08-2.75 0-.03-.03-.05-.08-.04v.52zm2.16-.17h.09v.08h-.09zm-14.01.25v.05h.14v-.13h-.14v.08zm-.41.05c-.29-.06.01.25 0 0m.31.09c.08 0 .1-.05.1-.09h-.1v.09zm-11.93 0v.3c.14.05.14-.37 0-.3m25.91 0h.13v.11h-.13zm-14.2.2v-.09c-.08-.01-.08.05-.1.09h.1zm-.09 0h-.13c-.07.12.21.12.13 0m14.2.01h.09v.09h-.09zm-25.59.19c.13.07.13-.17 0-.1v.1zm-.54 1.5c.01.11-.21-.04-.14.13-.17.68-.08 1.61-.1 2.41.16.04.03.2.1.3.03.07.12.04.14.09.02.06-.1.26.08.24.02-1.07-.07-2.27.09-3.22 0-.09.21.02.13-.13v-1.22h-.13c.04.56-.22.84-.17 1.39m26.05-1.18h.08v.09h-.08zm-17.92 1.02v.23c.14.06.14-.28 0-.23m17.46.01h.08v.08h-.08zm-13.03.93c.14.07.14-.19 0-.12v.12zm-.32.08h.1v.08h-.1zm-9.9.43v-.21c-.14-.07-.14.28 0 .21m.14.16v-.17h-.13c0 .11-.01.22.13.17m21.04-.08h.12c0-.07-.05-.11-.12-.09v.09zm-20.95.3c-.02-.07.07-.25-.09-.22.03.09-.06.25.09.22m.13.21v-.21h-.13c0 .1-.04.25.13.21m.32.3c-.1-.12-.15-.25-.32-.3-.03.23.09.32.32.3m21.48-.1h.08v.09h-.08zm-.09.23h.09v.08h-.09zm-.14.3c.13.01.17-.01.15-.12-.12-.03-.16 0-.15.12m-22.34.21v-.13h-.12v.13h.12zm.11.07c.01-.06-.04-.07-.1-.07v.07h.1zm.12.1c.03-.1-.07-.08-.13-.1v.1h.13zm-.23.21v-.07h-.13c-.03.08.06.07.13.07m.33.42v-.29h-.22c.01-.09-.01-.14-.1-.14-.04.28.2.31.32.43m-.64-.29c-.01.08.03.08.09.08v-.08h-.09zm-1.53.08v.21c.13.07.13-.29 0-.21m1.72.21c-.03-.09.05-.25-.1-.21.02.07-.06.25.1.21m3.24-.21v.09h.14c.01-.09-.03-.09-.14-.09m3.49 0c-.08-.01-.08.03-.09.09h.09v-.09zm-5.84.21c.14.07.14-.19 0-.12v.12zm2.27-.08c-.15-.05-.7-.12-.77.04.13.04.69.12.77-.04m3.35.08h.13v-.11h-.13v.11z"/><path class="cls-3" d="M473.27 34.17v-.21h-.13c0 .12-.05.27.13.21m1.04.1c.06-.09.08-.23.14-.3h-.22c.03.09-.08.33.08.3m-2.8-.22h.13v.12h-.13zm1.99.12c.13.07.13-.19 0-.13v.13zm2.04 0c-.18-.05-.59.12-.54-.13h-.32v.23c.27-.04.74.1.86-.09m-2.27-.01h.1v.18h-.1z"/><path class="cls-3" d="M475.99 34.17c.03.18-.2.03-.32.09-.05.02.03.06-.08.09-.28.03-.66-.11-.81.07.11.13.31.15.45.23.26-.15.84-.04.85-.42-.01-.04-.03-.05-.09-.05m.4.09h.14c.07-.13-.19-.13-.14 0m-.08.09c.07 0 .08-.04.08-.09h-.08v.09z"/><path class="cls-3" d="M476.22 34.47c.1.03.08-.06.1-.12h-.1v.12zm-.23.09v.09c.07 0 .09-.04.09-.09h-.09zm4.98 2.59c.07-.43-.15-.6-.09-1.02 0-.06-.14-.02-.14-.08v-.51c-.15-.12-.04-.51-.27-.55-.12.09-.05.34.08.33.03.72.24 1.24.18 2.03 0 .07.14.02.14.09-.06.35.15.42.09.77h.12v-.97c0-.07-.12-.03-.12-.09m-1.08-2h.14c0-.07-.05-.09-.14-.07v.07zm-7.29.13v-.13c-.12-.05-.12.2 0 .13m0 0v.09h.15c.02-.09-.07-.09-.15-.09m6.97.01h.09v.09h-.09zm4.98.08h.14c0-.09-.04-.11-.14-.09v.09zm-8.46.12v.09h.13c0-.09-.04-.1-.13-.09m-3.12.18v-.09h-.14c-.02.09.07.08.14.09m15.6-.09c0 .09.06.08.14.09.02-.1-.06-.09-.14-.09m-15.97.21v-.12c-.12-.06-.12.18 0 .12m6.43 0c.13.06.13-.18 0-.12v.12zm-6.43 0v.09h.15c.02-.12-.07-.09-.15-.09m.46.1h.1c.01-.09-.04-.09-.1-.09v.09zm5.65.12c.13.07.13-.19 0-.12v.12zm-4.02.88c-.47 0-.59-.37-1.08-.38v-.13h-.22c-.08-.21-.31-.31-.55-.38.05.22.16.38.45.38-.02.3.39.18.41.44.2.02.41.02.45.2.26.06.56.09.64.3h.54v-.22c-.21-.02-.34-.12-.64-.09v-.12zm-1.3-.8h.13c0-.07-.05-.09-.13-.08v.08zm4.33.51h.13c.01-.08-.04-.09-.13-.09v.09zm-.86.21c.13.07.13-.19 0-.12v.12zm-.77.21v.09h.68c-.05-.19-.47-.04-.68-.09m-.54.17c.06.16-.13.09-.09.23h.63c.03-.13-.16-.07-.09-.23h-.45zm5.55 1.03c.05.12-.09.43.1.43-.05-.15.09-.44-.1-.43m1.51.12v.08h.13c.01-.07-.05-.09-.13-.08m-1.4.31v.29c.14.04.14-.36 0-.29m.13.41c-.07.02-.11.35.04.29.07 0 .12-.35-.04-.29m1.5 0h.08v.09h-.08zm.17.4c.09 0 .02-.16.04-.22h-.14c.03.07-.06.25.1.22m12.61 0h.15c.07-.15-.21-.15-.15 0m-14.19 0v.2c.13.07.13-.27 0-.2m14.19 0h-.08v.12c.09.02.08-.07.08-.12m-12.57.12h.09v.08h-.09zm12.26.08v.08c.08.03.09-.02.09-.08h-.09zm-13.79.08h.13v.14h-.13zm1.63.22h.13c-.03-.07.06-.25-.08-.22-.1 0-.02.16-.04.22m12.15-.22h-.09v.14c.1.01.08-.07.09-.14"/><path class="cls-3" d="M483.36 40.17c-.02-.09.06-.25-.1-.21.03.09-.05.26.1.21m11.5 0h.12c.06-.12-.2-.12-.12 0m-11.41.21c-.02-.07.06-.24-.09-.21.03.07-.07.25.09.21m11.3-.21v.1c.08 0 .09-.04.1-.1h-.1zm0 .1h-.08v.11c.08.04.07-.06.08-.11"/><path class="cls-3" d="M483.77 40.89h.05v-.2c-.25.03-.07-.38-.37-.31v.22c.24-.03.11.29.32.3m12.39-.52v.09h.13c.01-.07-.05-.09-.13-.09m-1.63.09h-.09v.13c.1.01.09-.06.09-.13m-.22.22h-.11v.07c.09.02.09-.03.11-.07"/><path class="cls-3" d="M494.21 40.76h-.09v.14c.1.01.09-.06.09-.14m-9.99.95c.17-.06.09.11.23.09.04-.22-.15-.18-.09-.39-.17 0-.23-.14-.24-.3-.21.03-.12-.23-.3-.21-.04.26.16.29.17.51.18 0 .25.1.23.3m-1.62-.53v.08h.13c.01-.07-.05-.09-.13-.08m-.09.32v.12c.13.07.13-.2 0-.12m11.16 0c-.11-.04-.09.04-.09.12h.09v-.12z"/><path class="cls-3" d="M493.58 41.61h-.14c-.07.12.2.12.14 0m-10.67.1c-.01.09.07.07.14.09v-.09h-.14z"/><path class="cls-3" d="M483.04 41.79v.12c.14.05.14-.2 0-.12m1.41 0v.2c.13.06.13-.28 0-.2m-1.54.43h.14c0-.08-.04-.12-.14-.09v.09zm.36-.09h.1v.09h-.1zm-.13.28v-.12c-.13-.07-.13.2 0 .12m0 0v.09h.13c.03-.09-.05-.09-.13-.09m1.53 0v.23c.13.04.13-.3 0-.23m7.92 0h.09v.09h-.09zm-9.32.23h.1v.07h-.1zm9.32 0c-.08-.03-.08.01-.08.07h.08v-.07zm-7.83.16h.14c0-.08-.04-.11-.14-.09v.09zm7.74-.08h-.15c-.07.12.21.12.15 0m-7.6.43c.14.05.14-.28 0-.22v.22zm7.45-.21c-.07-.01-.09.02-.09.08h.09v-.08z"/><path class="cls-3" d="M492.27 43.02c-.17-.06-.13.1-.14.2h.1c.09.03.01-.14.04-.2m-8.91.21h.09v.09h-.09zm8.76-.01h-.09v.23c.16.04.08-.13.09-.23"/><path class="cls-3" d="M491.59 44.56h.15c-.01-.49.29-.66.3-1.11-.14-.03-.06.15-.21.08-.03.49-.46.6-.41 1.15h-.14c.09.64-.32.84-.32 1.4.27 0 .22-.33.45-.38-.03-.46.26-.62.17-1.13m-6.36-.74v-.17h-.13c-.03.11-.03.21.13.17m-1.64 0v.2c.15.08.15-.26 0-.2m.1.33v.09h.14c0-.08-.05-.09-.14-.09m1.77.09h-.15c.03.08-.05.26.1.2.1 0 .03-.15.05-.2m7.14 0h.09v.09h-.09zm-8.69.42v-.33c-.14-.05-.14.38 0 .33m8.6-.11v.12c.12.06.12-.2 0-.12m-8.38.5h-.13c.03.06-.06.25.09.2.09 0 .02-.15.04-.2m8.23 0h.15v.12h-.15zm-6.59.21h-.14c.03.09-.05.26.1.22.1 0 .01-.16.04-.22m6.51.21c.14.06.14-.19 0-.13v.13zm-8.05.21v-.2c-.14-.07-.14.28 0 .2m.14 0h-.14c-.01.12-.01.22.14.17v-.17zm7.76.09h.14c0-.07-.04-.09-.14-.09v.09zm-6.14.08h-.12c0 .08-.07.26.08.21.1 0 .03-.15.04-.21m-1.62.21v.22c.13.07.13-.27 0-.22m6.82.13h.09v-.13c-.09-.01-.09.07-.09.13m-.22.09v.09c.08.01.09-.04.09-.09h-.09zm-4.44.79v-.2c-.17 0-.24-.11-.22-.29-.17.06-.09-.12-.23-.09.03.31.2.5.45.58m-1.85-.2v-.16h-.14c-.01.1-.01.2.14.16m.55.44h.08v.09h-.08zm5.42.21h.08v.08h-.08zm.54 0h.09v.08h-.09zm-6.09.08h.13v.12h-.13zm.36.12c.13.08.13-.18 0-.12v.12zm5.51-.12v.12c.13.08.13-.18 0-.12m-.54.21h.09v.09h-.09zm-.09.13c0-.11-.16-.02-.24-.04-.1.17.28.18.24.04m-.45.08h.08v.09h-.08zm-4.35.22v-.13c-.13-.07-.13.18 0 .13m.45 0c.14.05.14-.2 0-.13v.13zm3.8-.09c-.08-.05-.54-.11-.54.04.08.06.54.11.54-.04m-3.39.26h-.53c.04-.14-.17-.04-.1-.17h-.23c.02.1.14.12.09.3.2-.01.35.04.36.22h.5c.04.05.05.07.14.08.19.01.55-.07.63-.17-.28-.03-.54-.1-.85-.13v-.12zm2.71-.17c-.13.04-.41-.09-.41.09.12-.05.42.08.41-.09m-1.31.17h.77c-.06-.15-.7-.15-.77 0m-.09.04c0-.06-.37-.11-.31.05 0 .06.37.09.31-.05"/></g></svg>