<svg xmlns="http://www.w3.org/2000/svg" viewBox="0 0 118.69 21.82"><path class="cls-1" d="M81.27 1.34c-.2.98-.84 1.45-1.02 2.45 1.56 1.03 4.34.95 5.94 1.94.34.61-.74.78-.95 1.28-.27 3.06-.96 5.59-2.23 8.72-.76 1.87-1.72 5-3.34 4.83-2.01-.22-.55-2.07 0-2.95 1.02-1.62 2.04-4.13 2.51-5.76-1.12-.77-3.34-1.87-2.31-3.66 1.42.02 1.67 1.11 2.72 1.47.84-.57.65-2.29 1.2-3.18-.8-.77-2.4-.83-3.78-1.08-1.48.78-1.39 7.66-3.92 7.3-2.41-.34.48-5.22 1.09-6.72.94-2.3 1.85-6.49 4.08-4.64M58.47 6.47c.23.64 1.41.41 1.71.98-.92 1.46-2.22 2.51-3.29 3.8.16 1.54 2.93.73 3.28 2.09-.12 1.01-1.99.44-2.51.16-.82 1.06.24 3.92-.71 5.12-2.83.71-1.25-3.7-1.46-5.82-.86.12-.91 1.16-1.97 1.06-.72-1.55 1.24-2.3 2.08-3.13 1.02-1 1.97-2.02 2.8-2.95-.68-.7-4.44.27-4.51-.97-.06-.86 1.24-.97 2.09-.63 1.21-1.33-.19-3.85.11-4.86.21-.7 1.11-1.08 1.8-.63.97.62.84 4.25.58 5.77M44.67 0c.67.61-.52 1.51-.71 2.17 1.14 1.65 2.27 3.27 3.58 4.76.67.76 1.97 1.3 1.93 2.6-1.66 1.43-2.88-.82-3.73-1.81-1.05-1.24-2.07-2.61-2.91-3.54-1.07 1.6-2.2 3.27-3.35 4.98-1.01 1.5-1.8 3.87-3.9 4.21-.84-2.12 1.52-3.8 2.64-5.31 1.27-1.72 2.35-3.56 3.65-4.96-.01-.53.32-.7.36-1.16 1.01-.42 1.5-1.43 2.46-1.93m58.88 5.6c-.24 2.33-1.8 3.19-2.75 4.71.2 1.59 1.86 7.32-.38 7.19-2.09-.11-.01-4.65-1.16-5.95-2.2.91-3.24 3.13-5.92 3.51-.09-.3-.43-.36-.56-.62.2-1.61 2-2.22 3.26-3.07 1.17-.78 2.54-1.66 3.52-2.61 1.13-1.09 2.21-4.19 4-3.17m5.01 1.92c.07-1.19 2-1.39 3.51-1.99 1.35-.54 4.53-2.44 4.79-.57.15 1.15-2.62 1.84-4.16 2.37-1.93.67-3.4 1.74-4.14.19M33.22 2.05c.53.85.13 2.93-.48 3.52-.29-.02-.59-.04-.88-.05-.84-1.09-.06-3.43 1.37-3.46M13.5 1.89c.96 1.35-.34 4.02-.31 5.87.61.25 1.47.27 2.19.41.52-1.33-.11-3.96.98-4.66.65 1.19-.15 3.69.48 4.88 3.64-.7 2.66 2.8-.41 2.19-.01.25-.03.49-.04.74.23.56 1.97-.2 2.17.7-.24.92-1.65.54-2.26 1.06.03.76-.25 1.81.02 2.36 1.09.87 4.5 1.47 2.76 3.53-1.39.12-1.82-.61-2.44-1.16-.63 1.09-.09 4.2-2.09 3.28-.62-1.11.43-2.48.63-3.64-.1-.34-.26-.61-.7-.63-.09-.73.64-.53.65-1.14-1.74.34-1.63 2.74-3.68 2.75-.19-1.37 1.4-2.92 2.41-3.7.43-.34 1.19-.42 1.23-.97.13-1.62-2.24-.46-2.24-2.18.52-.33 1.11.24 1.91.1.5-.07.5-.68.51-1.3-.46-.51-1.46-.55-2.32-.71-1.28 1.02-.76 4.03-2.73 4.27-.73-1.52-2.21-2.04-3.36-3.41-.82 2.22.34 6.09-.98 7.45-2.42.33-3.1-2.93-1.28-3.6-.02-1.19.32-2.71.05-3.68-1.82 1.08-2.67 3.25-4.64 4.17.59-2.68 5.05-3.2 4.92-6.66-.76-.48-2.71.11-2.59-1.17.57-.36 1.95.19 2.51-.16.78-1.15.23-3.79 1.83-4.03.17 1.16.21 2.43.1 3.83 1.35.65 2.49-.22 3.13-.86 1.09.03 1.66 1.02 1.22 1.97-1 .71-3.69-.46-4.3.66 1.01 1.23 2.48 2.06 3.51 3.28 2.11-2.11 1.86-6.85 3.17-9.85"/><path class="cls-1" d="M29.17 3.46c.42 1.02.5 2.35.85 3.43.69.04 1.37.07 2.06.11.58-.21-.46-.87.05-1.02 1.12.05 1.54.74 1.99 1.43-.36 1.15-2.45.39-3.57.7-.06 1.44.47 2.37 1.31 3.01-.65 4.12 4.07 6.61 2.54 10.59-1.93.66-3.04-1.49-2.2-2.91-.79-2.23-1.59-4.45-2.29-6.75-.83-.09-1.53-.04-2.07.19l-.18 3.38c1.01.16 1.88-.56 2.8 0 .39 2.34-5.7 4.24-6.15 2.03-.26-1.3 1.01-1.38 1.45-2.27.49-1.02.1-1.77.59-2.92-.42-.69-2.34-.04-2.45-1.01 1.04-1.06 3.77-.26 5.48-.6.06-1.13-.18-1.98-.6-2.68-1.95-.27-4.73.56-5.87-.32.76-1.43 3.68-.46 5.49-.73.67-.99-.91-3.42.78-3.64m63.74 5.84c-3.55.46.49-3.7 0 0m20.06-.56c.75.21.33 1.47.78 1.95 1.76.62 5-.22 4.93 1.44-.08 1.8-3.01.38-4.89.48-.85 1.87.76 6.57-.95 6.72-1.91.16.3-4.75-.24-6.63-1.65-.85-6.21.51-6.27-1.21-.05-1.59 4.26-.75 6.09-.86.54-.22.17-1.47.54-1.88m-23.49 1.54c-.61 1.03-2.23.27-2.18-.55.08-1.25 2.38-1.19 2.18.55m-44.52-1.9c-.33 1.46-3.65.7-3.96-.36.55-1.06 3.15-.11 3.96.36m18.54.39c.85-.18-.2 1.27.51 1.5.84.16 1.42-.27 2.06.11.51 1.52-1.38 1.52-2.31 1.94l-.18 3.52c1.16.71 3.48-.5 3.93.8-.39 1.88-3.18.17-4.48 1.09-.58-.28-1.14-.56-1.41-1.1 1.1-.79 1.53-2.34 1.55-4.34-.81-.55-2.5.41-2.91-.59-.02-1.73 2.27-.9 3.18-1.6.02-.44.04-.88.07-1.32M45.57 10.8c.02.86-.82.75-1.24 1.11-.37 1.5-1.22 2.48-1.68 3.89.05.51.95.27 1.46.37.12-.53-.03-1.37.53-1.74 2.08.37 1.6 3.03 3.49 3.57-.02 1.18-1.88.92-2.37.32-1.99-.21-3.9-.25-5.57-.44.02-.26-.09-.39-.27-.46.33-2.49 1.87-3.63 2.51-5.76-.59-.54-2.14-.22-2.14-1.29 1.34-.13 4.28-.67 5.28.43"/></svg>