<?xml version="1.0" encoding="UTF-8"?><svg id="_イヤー_2" xmlns="http://www.w3.org/2000/svg" viewBox="0 0 14.98 15.21"><defs><style>.cls-1{fill:#825a17;}</style></defs><g id="_イヤー_1-2"><g><path class="cls-1" d="M14.97,4.22C14.95,1.92,13.05,.02,10.74,0c-2.17-.01-4.34-.01-6.51,0C1.92,.02,.02,1.93,.02,4.26c0,2.16,.04,4.32-.01,6.47-.05,2.01,1.25,3.93,3.42,4.42,.07,.01,.13,.04,.19,.06h7.76c1.03-.24,1.94-.7,2.62-1.54,.62-.77,.98-1.64,.98-2.63,0-2.27,.01-4.54,0-6.81Zm-1.59,6.75c-.01,1.5-1.19,2.66-2.7,2.67-2.12,.01-4.25,.01-6.37,0-1.55,0-2.7-1.16-2.71-2.72-.01-1.1,0-2.2,0-3.3,0-1.09,0-2.18,0-3.27,0-1.58,1.16-2.74,2.75-2.75,2.1-.01,4.2-.01,6.31,0,1.55,0,2.72,1.15,2.73,2.7,.02,2.23,.02,4.45,0,6.68Z"/><path class="cls-1" d="M7.51,3.67c-2.14-.01-3.94,1.77-3.96,3.92-.02,2.15,1.77,3.97,3.94,3.98,2.14,.01,3.96-1.79,3.96-3.92,0-2.17-1.77-3.96-3.94-3.98Zm-.02,6.6c-1.48,0-2.64-1.17-2.64-2.67,0-1.47,1.18-2.64,2.68-2.63,1.46,0,2.62,1.18,2.62,2.65,0,1.48-1.17,2.65-2.66,2.65Z"/><path class="cls-1" d="M11.52,2.7c-.5,0-.9,.39-.91,.89,0,.49,.4,.9,.89,.91,.5,0,.9-.39,.9-.89,0-.51-.38-.89-.89-.9Z"/></g></g></svg>