<?xml version="1.0" encoding="UTF-8"?><svg id="_イヤー_2" xmlns="http://www.w3.org/2000/svg" viewBox="0 0 14.62 14.55"><defs><style>.cls-1{fill:#825a17;}</style></defs><g id="_イヤー_1-2"><path class="cls-1" d="M8.43,12c0-.77,0-1.54,0-2.31q0-.27,.28-.27c.42,0,.84,0,1.26,0,.11,0,.17-.02,.18-.14,.09-.6,.19-1.2,.28-1.8,.02-.14-.08-.12-.16-.13-.52,0-1.05,0-1.57,0q-.27,0-.27-.28c0-.38,0-.76,0-1.14,0-.68,.41-1.09,1.09-1.12,.28-.02,.57-.02,.85-.02,.12,0,.17-.04,.17-.17,0-.48,0-.96,0-1.44,0-.08,0-.15-.12-.17-.7-.09-1.39-.17-2.09-.07-1.19,.17-1.99,1.04-2.11,2.24-.06,.64-.02,1.27-.03,1.91,0,.25,0,.25-.26,.25-.46,0-.92,0-1.38,0-.15,0-.21,.05-.21,.2,0,.56,0,1.12,0,1.67,0,.16,.06,.2,.21,.2,.48,0,.96,0,1.44,0,.15,0,.21,.04,.21,.2,0,1.58,0,3.17,0,4.75,0,.18-.02,.19-.22,.15-1.25-.24-2.36-.75-3.33-1.57C1.19,11.74,.31,10.19,.07,8.31-.23,6.03,.42,4.02,1.99,2.32,3.03,1.19,4.32,.45,5.84,.16c2.43-.47,4.59,.13,6.42,1.8,1.21,1.09,1.97,2.46,2.24,4.07,.42,2.54-.28,4.73-2.1,6.56-1.04,1.04-2.3,1.66-3.73,1.95-.23,.05-.24,.04-.24-.2,0-.77,0-1.55,0-2.32Z"/></g></svg>