<?xml version="1.0" encoding="UTF-8"?><svg id="_イヤー_2" xmlns="http://www.w3.org/2000/svg" viewBox="0 0 14.23 11.68"><defs><style>.cls-1{fill:#825a17;}</style></defs><g id="_イヤー_1-2"><g><path class="cls-1" d="M14.04,10.17c-.35-.49-.7-.98-1.05-1.47-.16-.22-.36-.33-.63-.33-3.5,0-7,0-10.5,0-.28,0-.48,.1-.63,.32-.41,.59-.82,1.17-1.23,1.75v.56c.26,.51,.7,.67,1.24,.67,3.91,0,7.83,0,11.74,0,.21,0,.41-.02,.6-.09,.63-.23,.84-.86,.45-1.41Zm-5.66,.54c-.43,0-.85,0-1.28,0-.42,0-.83,0-1.25,0-.2,0-.22-.05-.12-.23,.15-.28,.35-.41,.68-.39,.52,.03,1.03,0,1.55,0,.23,0,.56,.28,.58,.5,.02,.15-.1,.11-.17,.11Z"/><path class="cls-1" d="M1.67,7.34c.33,.32,.74,.39,1.18,.39,2.48,0,4.96,0,7.44,0,.41,0,.81,0,1.22,0,.94-.03,1.44-.56,1.44-1.49,0-1.62,0-3.24,0-4.86,0-.29-.07-.55-.23-.78C12.42,.16,11.98,0,11.47,0c-1.45,0-2.91,0-4.36,0-1.46,0-2.92,0-4.39,0-.85,0-1.45,.53-1.46,1.28,0,1.71,0,3.42,0,5.14,0,.36,.14,.66,.4,.91ZM2.23,1.48c0-.39,.12-.51,.52-.51,2.9,0,5.81,0,8.71,0,.41,0,.53,.12,.53,.53,0,1.53,0,3.05,0,4.58,0,.44-.09,.53-.55,.53-1.44,0-2.89,0-4.33,0-1.45,0-2.9,0-4.36,0-.43,0-.53-.09-.53-.52,0-1.54,0-3.07,0-4.61Z"/></g></g></svg>