<?xml version="1.0" encoding="UTF-8"?><svg id="_イヤー_2" xmlns="http://www.w3.org/2000/svg" viewBox="0 0 400.09 254.41"><defs><style>.cls-1{fill:#809628;}.cls-2{fill:#921d23;}.cls-3{fill:#bf740f;}.cls-4{fill:#c98213;}.cls-5{fill:#231815;}.cls-6,.cls-7{fill:#221714;}.cls-8{fill:#544080;}.cls-7,.cls-9{stroke:#221714;stroke-linecap:round;stroke-linejoin:round;stroke-width:.79px;}.cls-9{fill:#fff;}</style></defs><g id="_イヤー_1-2"><g><g><path class="cls-5" d="M16.25,238.7v-7.59l-1.01,.3,.21,.59c-.1,.07-.18,.16-.28,.2-1.62,.51-3.25,.66-4.95,.38-.89-.15-1.79-.18-2.67-.46-1.79-.57-3.14-3.27-2.23-4.9,1.07-.03,2.2,.14,3.14,.63,1.56,.81,3.13,.83,4.75,.51,1-.19,1.97-.52,2.86-.76,0-1.32,.06-2.49-.02-3.65-.08-1.24-.21-2.5-.48-3.71-.29-1.33-.8-2.01-2.4-2.13-1.24-.09-1.66-.96-.98-1.99,.53-.79,1.21-1.38,2.26-1.28,1.96,.2,3.84,.65,5.37,1.97,1.02,.89,1.63,1.98,1.29,3.43-.1,.44-.03,.91-.1,1.36-.06,.34-.22,.66-.37,1.1,1.01,.26,2.1,.55,3.2,.81,1.09,.26,1.53,.91,1.27,1.99-.28,1.16-1.01,2.05-1.9,2.78-.73,.6-1.55,1.08-2.41,1.68l-.28,5.47c-.77,.13-.98,.66-.94,1.42,1.1-.49,2.17-.96,3.24-1.44,3.22-1.44,6.59-2.1,10.11-1.78,1.78,.16,3.53,.5,5.09,1.49,1.53,.97,2.75,2.15,2.94,4.09,.01,.12,.17,.23,.32,.45l.16-1.04c.1,.12,.2,.19,.2,.26,.01,.72,0,1.44-.07,2.19-.12-.75-1.2-.91-1.17-1.82-.04,.19-.11,.39-.1,.58,.1,2-.73,3.67-2.02,5.06-2.97,3.23-6.66,4.85-11.1,4.55-2.38-.16-4.34-2.21-4.46-4.83-.12-2.49,.76-4.78,1.89-6.96,.19-.36,.65-.57,1.05-.9l.46,.72c.38-.01,.7-.11,.95,0,.15,.06,.24,.42,.25,.65,.02,.34-.04,.68-.1,1.01-.21,1.15-.43,2.29-.64,3.37l-.34-.38c-.53,1.05-.5,1.5,.15,2.18,.93,.97,2.03,1.4,3.4,1.1,2.34-.5,4.4-1.43,5.87-3.4,.49-.66,.78-1.4,.84-2.21,.1-1.2-.38-2.15-1.36-2.83-.83-.57-1.77-.86-2.76-1.02-3.45-.56-6.64,.2-9.64,1.88-1.35,.76-2.62,1.67-3.92,2.51-.13,2.19,.65,4.17,.83,6.3l-.51-.06c-.15,.86-.26,1.73-.47,2.57-.11,.43-.33,.86-.59,1.22-.96,1.36-2.57,1.45-3.52,.09-.8-1.14-1.87-1.75-3.13-2.14-.04-.01-.07-.02-.11-.03q-2.44-.79-4.63,.47c-1.44,.82-2.96,1.4-4.64,1.37-.37,0-.77-.08-1.1-.23-.82-.36-1.19-1.17-.84-1.98,.3-.69,.72-1.34,1.17-1.95,.37-.51,.92-.83,1.59-.7,1.5,.28,2.77-.34,3.99-1.03,3.01-1.7,5.99-3.46,8.98-5.21,.13-.07,.23-.19,.4-.32Zm-5.22,7.37l.03,.21c1.15,.04,2.3,.09,3.46,.1,.6,0,1.02-.33,1.13-.92,.17-.97,.27-1.96,.4-2.94l-.21-.09c-1.6,1.21-3.2,2.43-4.8,3.64Zm8.08-20.54c.83-.54,.83-.67,0-1.21v1.21Z"/><path class="cls-5" d="M84.64,231.11c-.39,1.34-.74,2.68-1.17,4.01-.72,2.2-1.85,4.18-3.42,5.87-1.26,1.36-2.79,2.34-4.68,2.66-.95,.16-1.82-.06-2.66-.43-.57-.26-.95-.73-1.13-1.36-.43-1.5-.87-2.99-1.64-4.36-.13-.24-.14-.76,.02-.9,.18-.16,.66-.14,.92-.01,.61,.29,1.17,.69,1.73,1.06,.6,.4,1.17,.84,1.77,1.24,.65,.43,1.33,.39,1.91-.08,.65-.52,1.33-1.04,1.82-1.7,2.11-2.89,3.17-6.16,3.29-9.74,.03-.8,.04-1.6,.08-2.4,.04-.98-.26-1.88-.69-2.73-.41-.81-.94-1.04-1.76-.69-.94,.41-1.86,.86-2.75,1.37-.29,.17-.5,.55-.65,.88-1.35,3.1-2.68,6.21-4.02,9.32-.17,.38-.41,.74-.53,1.13-.29,.9-.89,1.46-1.81,1.56-.48,.05-.49,.41-.65,.68-.89,1.55-1.72,3.14-2.65,4.66-.45,.74-1.09,1.36-1.67,2.01-.22,.25-.52,.45-.82,.61-1.49,.78-3.01-.11-3.02-1.8-.01-1.32,.43-2.58,1.42-3.37,1.65-1.31,2.83-2.99,3.99-4.66,1.86-2.69,3.41-5.58,4.75-8.57,.07-.16,.1-.34,.2-.67-.44,.19-.75,.3-1.03,.46-1.13,.66-2.36,1.09-3.63,1.26-.78,.1-1.67-.12-2.42-.41-2.18-.83-3.38-2.52-3.79-4.77-.19-1.02,.22-1.37,1.26-1.29,.97,.07,1.81,.39,2.59,1.01,2.58,2.07,2.37,1.67,4.94,.96,1.1-.3,2.17-.71,3.23-1.11,.26-.1,.62-.29,.69-.52,.45-1.44,1.1-2.83,1.06-4.4-.04-1.28-.46-2.29-1.6-2.95-.13-.08-.25-.17-.38-.26-1.06-.76-.98-1.68,.2-2.25,.2-.1,.43-.16,.65-.22,1.65-.42,4.49,.9,5.31,2.4,1.1,2.02,1.23,4.02-.09,6.13,.69,0,1.24-.03,1.79,0,1.88,.12,3.6,.69,4.82,2.2,.91,1.13,1.23,2.53,1.38,3.93,.27,2.65,.03,5.29-.46,7.9-.03,.13-.1,.26-.21,.54-.43-.79-.45-1.51-.52-2.22,.37-.49,.4-1.15,.03-2.03v2.06Zm-7.45-12.15c-.3-.19-.68-.52-.83,.18l.83-.18Z"/><path class="cls-5" d="M240.01,233.56c.54,.37,.97,.67,1.41,.96,1.22,.81,2.29,1.79,3.12,2.97,.9,1.27,1.44,2.67,1.02,4.27-.41,1.58-1.7,2.12-3.04,1.16-.57-.41-1.09-.97-1.46-1.57-2.89-4.68-6.99-7.96-11.84-10.4-.59-.3-1.18-.62-1.77-.93,.28-.58,.7-.53,1.04-.45,2.74,.6,5.51,1.1,8.1,2.25,.62,.27,1.24,.55,1.96,.88,.71-.78,1.47-1.57,2.17-2.41,2.31-2.72,4.63-5.44,6.89-8.2,.57-.7,1-1.52,1.39-2.34,.36-.74,.06-1.29-.72-1.43-.58-.1-1.2-.13-1.79-.06-1.72,.22-3.46,.42-5.15,.8-3.03,.68-6.05,1.41-9.04,2.27-2.83,.82-5.61,1.85-8.42,2.75-.52,.17-1.15,.26-1.68,.14-2.47-.57-4.8-1.49-6.55-3.43-.44-.49-.77-1.12-1.04-1.74-.13-.31-.07-.76,.04-1.09,.18-.51,.63-.64,1.12-.42,.1,.05,.2,.11,.29,.19,1.27,1.2,2.88,1.35,4.52,1.58,2.56,.36,4.97-.31,7.43-.72,4.53-.76,9.08-1.44,13.62-2.15,1.12-.17,2.27-.23,3.37-.49,.79-.19,1.54-.59,2.29-.95,.41-.19,.76-.51,1.16-.72,.44-.24,.9-.31,1.42-.13,2.24,.8,4.32,1.86,6.06,3.52,.16,.16,.3,.34,.44,.52,.93,1.22,.88,2.27-.44,2.96-2.51,1.31-4.34,3.44-6.52,5.13-2.98,2.3-5.96,4.6-8.93,6.9-.12,.09-.24,.18-.51,.38Z"/><path class="cls-5" d="M280.59,222.24c-.27-.06-.65-.27-.79-.16-.71,.54-1.38,.15-2.02-.05-.55-.17-.62-.99-.16-1.4,.45-.4,.93-.79,1.44-1.12,.99-.65,2.13-.52,3.07-.1,1.27,.55,2.45,1.34,3.41,2.39,1.49,1.65,1.6,3.62,.97,5.56-.93,2.88-2.53,5.43-4.29,7.88-4.77,6.66-11.14,11.22-18.63,14.36-4.66,1.96-9.51,3.17-14.49,3.86-4.15,.57-8.34,.79-12.51,.45-4.69-.39-9.37-.97-13.81-2.7-1.61-.63-3.26-1.19-4.81-1.96-1.56-.77-3.06-1.69-4.5-2.67-1.9-1.3-3.47-2.96-4.74-4.89-.1-.16-.21-.32-.29-.49-.04-.1-.04-.22-.07-.41,.65-.03,1.05,.37,1.46,.7,2.57,2.04,5.06,4.23,8.08,5.58,3.01,1.34,6.04,2.66,9.32,3.3,2.66,.52,5.32,.8,8.02,.9,1.29,.04,2.58,.18,3.87,.14,4.41-.15,8.77-.66,13.06-1.77,2.83-.73,5.69-1.4,8.39-2.55,4.62-1.98,9.13-4.16,13.03-7.42,3.48-2.91,6.14-6.41,7.76-10.66,.39-1.02,.74-2.05,1.07-3.09,.13-.43,.21-.89,.21-1.34,.02-1.2-.5-1.82-1.73-2.18l-.33-.16Z"/><path class="cls-5" d="M170.89,226.62c-1.28,.65-2.56,1.3-3.82,1.96-1.85,.97-3.67,2.01-5.55,2.92-2.52,1.23-5.05,1.22-7.54-.16-.62-.35-1.09-.83-1.35-1.49-.39-.96,.08-1.63,1.11-1.49,1.13,.15,2.24,.44,3.36,.57,.58,.07,1.19-.07,1.78-.11,2.44-.17,4.25-1.86,6.41-2.71,1.8-.71,3.6-1.48,5.26-2.45,.87-.5,1.81-.61,2.68-1.01,.93-.42,1.93-.7,2.91-1.02,.94-.31,1.87-.67,2.83-.87,2.63-.55,5.28-.62,7.93-.07,.63,.13,1.27,.24,1.91,.35,1.21,.2,1.76,1.55,.97,2.49-.84,.99-1.99,1.38-3.18,1.02-1.52-.46-3.05-.37-4.58-.4-1.92-.04-3.83,.14-5.66,.87-.85,.34-1.53,.82-2.08,1.52-1.24,1.59-1.92,3.43-2.54,5.32-.69,2.12-.98,4.31-1.05,6.5-.09,3.13,.12,6.23,2.14,8.9,.93,1.22,2.05,2.11,3.52,2.59,1.01,.33,2.01,.36,3.02,0,.54-.19,1.09-.34,1.65-.44,.76-.14,1.52-.08,2.21,.32,1.35,.78,1.54,2.2,.35,3.18-.54,.45-1.23,.8-1.9,.99-2.27,.63-4.57,.74-6.83-.12-2.7-1.03-4.61-2.89-5.79-5.51-.93-2.08-1.3-4.28-1.37-6.53-.1-3.41,.34-6.76,1.35-10,.44-1.4,1.16-2.72,1.76-4.07,.12-.26,.24-.52,.36-.78l-.25-.27Z"/><path class="cls-5" d="M290.2,228.17l-.45,.72c0-1.46,.05-2.94-.02-4.41-.05-1.02-.21-2.04-.42-3.03-.27-1.21-1.01-2.1-2.15-2.65-.33-.16-.62-.4-.98-.63,.13-.24,.17-.44,.3-.55,1.51-1.34,3.95-1.41,5.46-.09,1.46,1.28,2.57,2.81,2.63,4.86,.02,.63-.03,1.27-.15,1.89-.39,2.12-.89,4.23-1.21,6.36-.37,2.43-.64,4.89-.89,7.34-.07,.67-.29,1.42,.29,2.13,1.44-.81,2.86-1.6,4.26-2.41,3.53-2.04,6.95-4.25,10.12-6.8,2.55-2.05,4.99-4.21,7.17-6.66,.81-.91,1.64-1.8,2.41-2.73,.74-.89,1.67-1.08,2.92-.9-.14,.39-.22,.74-.38,1.05-1.09,2.1-2.47,4.02-3.99,5.82-4.86,5.79-10.62,10.55-16.94,14.64-1.48,.96-2.86,1.99-4.17,3.15-1.45,1.27-2.33,1.17-3.54-.32-.94-1.16-1.62-2.47-2.04-3.94l-.95,.16c-.02-.17-.09-.33-.06-.46,.28-.94,.55-1.9,.91-2.81,.13-.32,.52-.53,.75-.76l-.38-.1c-.24-.63,.02-1.24,.15-1.85,.43-1.92,.86-3.84,1.27-5.77,.08-.4,.04-.83,.05-1.25,.08-.34,.16-.68,.23-1.02l-.27-.02,.07,1.06Zm.57-3.67l-.06,.03v.71h.06v-.74Z"/><path class="cls-5" d="M329.39,245.52c.27-.66,.45-1.24,.74-1.75,.37-.66,1-.69,1.47-.09,.26,.32,.44,.71,.62,1.09,.53,1.12,1.42,1.54,2.63,1.66,1.5,.15,2.7-.6,3.97-1.1,1.44-.57,2.79-1.38,4.16-2.12,3.56-1.92,6.78-4.33,9.91-6.88,1.88-1.53,3.61-3.27,5.41-4.9,3.2-2.89,5.92-6.22,8.66-9.53,.92-1.11,1.75-2.3,2.55-3.49,.41-.61,.81-1.07,1.6-1.09,.32-.01,.64-.21,.98-.33,.31,.39,.07,.73-.04,1.07-1.01,3.03-2.69,5.7-4.51,8.28-2.67,3.77-5.68,7.25-9.04,10.41-5.05,4.75-10.42,9.11-16.53,12.47-1.26,.7-2.49,1.47-3.72,2.23-.89,.55-1.82,.54-2.74,.15-1.71-.72-3.22-1.73-4.33-3.24-.35-.48-.63-1.06-.76-1.63-.14-.58-.23-1.09-1.02-1.21Z"/><path class="cls-5" d="M393.62,232.67c.08,.19,.16,.53,.33,.8,.65,1.04,.25,2.18-.93,2.46-.84,.2-1.71,.28-2.57,.4-1.27,.18-2.55,.34-3.82,.52-.25,.04-.49,.17-.75,.26,.65,1.1,.82,2.21,.64,3.43-.25,1.65-.39,3.31-.6,5.13,.39,0,.71,.04,1.03,0,.63-.09,1.26-.33,1.89-.32,1.65,.03,3.23-.32,4.82-.66,1.98-.41,3.76,.14,5.42,1.2,.25,.16,.48,.38,.65,.62,.73,1.01,.34,2.11-.88,2.35-.54,.11-1.15,.07-1.68-.07-2.87-.75-5.8-.9-8.72-.69-4.09,.29-8.16,.8-12.11,1.98-2.01,.6-3.76-.16-5.31-1.34-.55-.42-.81-1.21-1.32-2h-1.22c-.14-.67,.19-.92,.7-.94,.91-.03,1.79-.06,2.65,.43,1.46,.82,3.01,1.06,4.72,.7,1.92-.4,3.89-.52,5.87-.76,.2-.94,.93-1.58,.83-2.61-.1-.93,.11-1.89,.14-2.84,.02-.99-.12-1.96-.53-3.03-.57,.08-1.14,.09-1.66,.26-1.42,.47-2.86,.24-4.3,.19-.14,0-.34-.03-.41-.13-.59-.8-1.15-1.62-1.79-2.53l-1.16,.17c-.3-1.12-.07-1.48,.95-1.53,.73-.04,1.4,.02,2.04,.51,.75,.56,1.62,.7,2.59,.51,2.26-.46,4.54-.83,6.81-1.25,.18-.03,.37-.09,.53-.19,1.87-1.12,3.86-1.5,6.01-1.03,.32,.07,.66,0,1.13-.02Z"/><path class="cls-5" d="M132.29,233.1c-.96,.44-1.95,.83-2.87,1.33-2,1.09-3.92,2.31-5.5,3.99-.7,.74-1.57,1.17-2.48,1.56-.03,.01-.08,.04-.11,.03-1.53-.32-3.14,.44-4.65-.4-.77-.43-1.36-.98-1.74-1.74-.36-.7-.11-1.12,.66-1.3,1.51-.35,3.01-.75,4.54-1.05,1.84-.37,3.43-1.19,4.91-2.31,.94-.71,1.9-1.42,2.92-1.98,3.41-1.87,6.98-2.06,10.5-.44,2.08,.95,3.84,2.39,4.91,4.55,.78,1.57,.52,3.07-.03,4.85-.08-.68-.14-1.1-.19-1.53q.43-.4,.02-1v1.02c-.07,.08-.18,.14-.21,.23-.82,3.08-3.08,4.93-5.67,6.39-3.05,1.73-6.4,2.57-9.9,2.77-1.4,.08-2.81,.13-4.21,.14-.5,0-1-.17-1.49-.26-.04-.76,.4-.96,.83-1.08,.69-.19,1.4-.34,2.11-.47,3.26-.63,6.43-1.52,9.38-3.09,2.08-1.1,3.89-2.46,5.14-4.54,1.68-2.79-.39-5.82-3.22-6.19-.54-.07-1.11,.17-1.67,.25-.67,.1-1.34,.19-2.02,.29-.16-.36-.36-.59-.86-.18l.89,.15Zm-9,4.62l.13,.1,.34-.39-.11-.1-.36,.39Z"/><path class="cls-5" d="M101.94,232.55c-.55-.66,.8-1.13,.06-1.74-.52,.72-.96,1.5-1.56,2.14-.84,.89-1.86,1.25-3.09,.69-.36-.17-.81-.19-1.22-.2-1.26-.02-2.51,.02-3.77-.02-.58-.02-1.15-.19-1.75-.3,.11-.67,.51-.78,.92-.88,.96-.23,1.95-.37,2.87-.7,.81-.28,1.63-.67,2.31-1.18,.89-.67,1.16-1.62,1.08-2.81-.16-2.37-1.51-3.74-3.51-4.61-1.32-.57-2.7-1.01-4.06-1.47-1.1-.37-1.26-.46-1.63-1.23,.31-.55,.87-.54,1.39-.59,3.08-.26,5.99,.44,8.68,1.89,1.99,1.07,3.49,2.73,4.25,4.89,.76,2.17,.3,4.19-.96,6.1Z"/><path class="cls-5" d="M46.72,228.53l-1.05-.75c-.11,.21-.24,.38-.29,.58-.22,.73-.77,1.11-1.43,1.36-.28,.11-.58,.18-.88,.22-1.95,.24-3.75,.9-5.42,1.93-.16,.1-.32,.24-.5,.26-.2,.03-.49,0-.61-.12-.12-.12-.16-.46-.07-.6,.28-.44,.64-.83,.97-1.25,.39-.51,.86-.98,1.13-1.55,.42-.88,.16-1.51-.76-1.8-1.34-.42-2.63-.5-3.99,.27-1.13,.64-2.46,.93-3.73,1.3-.55,.16-.92-.24-.75-.78,.15-.46,.24-.92,.82-1.22,.93-.48,1.7-1.28,2.63-1.76,.72-.38,1.57-.58,2.39-.68,1.77-.21,3.55-.36,5.34-.43,2.37-.09,4.4,.77,6,2.51,.8,.87,.81,1.47,.21,2.51Z"/><path class="cls-5" d="M332.08,216.1c.62-.05,1.03-.05,1.42-.13,.3-.06,.59-.3,.88-.31,.24,0,.47,.28,.72,.32,1.91,.32,3.8,.7,5.58,1.51,1.09,.5,2.05,1.19,2.81,2.11,.75,.9,1.22,1.93,1.07,3.15-.18,1.49-.87,1.9-2.37,1.98-1.57,.08-2.5-.77-3.34-1.81-1.9-2.35-4.04-4.43-6.38-6.33-.08-.07-.14-.17-.4-.49Zm4.86,3.53l-.09,.13,1.08,1.08,.13-.15-1.13-1.06Z"/><path class="cls-5" d="M323.97,229.45c.09-.08,.11-.12,.15-.13,2.34-.75,4.68-1.71,7.2-1.34,1.79,.27,3.55,.81,5.12,1.79,.85,.53,1.35,1.33,1.64,2.26,.49,1.56-.62,2.78-2.22,2.41-.58-.13-1.14-.41-1.68-.69-2.28-1.16-4.69-1.95-7.13-2.68-.58-.17-1.22-.21-1.75-.48-.48-.24-.84-.72-1.32-1.16Z"/><path class="cls-5" d="M211.47,232.26c-.67,1.95-2.05,2.74-3.92,2.94,.43,0,.87,.04,1.3,0,1.01-.1,1.74,.38,2.4,1.07,.36,.38,.63,.78,.36,1.32-.28,.54-.52,1.13-1.31,1.05-.19-.02-.38,0-.6,0v-.76c-1.26-.09-2.22-.84-3.2-1.54-.37-.27-.75-.49-.61-1.09,.04-.17-.31-.43-.53-.72,.16-.21,.31-.47,.52-.67,.54-.53,1.12-1.03,1.67-1.55,.87-.83,1.94-.77,3-.62,.33,.05,.61,.38,.92,.58Z"/><path class="cls-5" d="M204.6,233.57c-.29-1.05-.65-2.08-.84-3.15-.15-.85,.73-2.11,1.53-2.48,.37-.17,.67-.11,.92,.18,.59,.7,.96,1.51,.69,2.42-.22,.76-.57,1.49-.93,2.2-.24,.48-.67,.8-1.38,.83Z"/><path class="cls-5" d="M204.56,234.56c-1.34-.09-2.49-.06-3.59-.28-.92-.18-1.6-.86-1.96-1.76-.23-.59-.03-.98,.62-1.06,.56-.07,1.13-.01,1.85-.01l.32-1.48,.11-.04c.03,.33,.07,.65,.1,.98,.06,.61,.16,1.15,.82,1.49,.49,.25,.91,.69,1.28,1.11,.21,.24,.27,.61,.45,1.06Z"/><path class="cls-5" d="M201.69,234.94c.5,.04,.93,.08,1.37,.1,.3,.02,.62-.03,.91,.04,.53,.13,.67,.68,.26,1.04-.74,.65-1.48,1.3-2.27,1.87-.9,.64-1.93,.55-2.95,.31-.33-.45-.26-.88,.1-1.23,.54-.52,1.12-1,1.69-1.48,.32-.26,.66-.49,.89-.66Z"/><path class="cls-5" d="M207.11,239.53c-.12,1.02-.84,2.08-1.39,2.02-.87-.09-1.07-.89-1.31-1.54-.46-1.26-.15-2.45,.54-3.55,.29-.46,.65-.46,.86-.03,.44,.92,.85,1.85,1.25,2.79,.06,.13,.04,.29,.05,.31Z"/></g><g><path class="cls-6" d="M102.4,128.91c-23.37,0-36.74-17.48-36.74-37.1,0-20.87,15.7-37.81,37.1-37.81,22.47,0,36.38,16.94,36.38,37.81s-13.73,37.1-36.74,37.1Zm-.54-70.81c-15.34,0-22.65,14.63-22.65,29.97,0,5.71,1.43,36.39,24.62,36.39,17.66,0,21.58-16.94,21.58-29.79,0-10.88-3.75-36.57-23.55-36.57Z"/><path class="cls-6" d="M185.41,107.22c0,.52-.3,.9-.75,.9,0,0-3.96-.37-8.15-.37-2.09,0-4.26,.07-5.98,.37h-.15c-.45,0-.67-.3-.67-.67,0-.45,.3-.97,.75-1.2,.37-.07,2.84-.45,2.84-1.64,0-1.12-9.57-11.89-11.14-12.11h-.22c-.3,0-.67,0-.75,.07-.3,.22-.37,.75-.37,1.57,0,1.35-.07,2.62-.07,3.81,0,5.61,.07,7.7,5.16,8.3,.3,.3,.45,.67,.45,1.05,0,.45-.3,.82-.67,.82,0,0-4.11-.45-8.45-.45-2.09,0-4.34,.15-6.06,.45h-.15c-.37,0-.67-.3-.67-.75,0-.37,.22-.82,.67-1.12,4.04-.45,4.41-2.09,4.56-4.11,.45-5.76,.6-22.06,.6-28.86,0-14.43,0-15.48-4.34-16.67-.3-.08-.52-.52-.52-.9,0-.3,.15-.67,.6-.67,3.96-.6,7.1-2.47,8.45-2.92,.15-.07,.3-.07,.52-.07,.3,0,.52,.07,.52,.45v.07c-.45,6.73-.3,20.79-.52,28.19,0,2.92-.08,5.38-.08,8.3,0,1.12,.53,1.57,1.12,1.57,.15,0,.3,.07,.37,.07,1.57,0,10.92-8,10.92-8.9,0-.75-1.42-.97-2.47-1.2-.37-.22-.6-.75-.6-1.2,0-.3,.15-.6,.52-.6,.07,0,2.92,.37,6.43,.37,1.94,0,4.04-.15,5.91-.45h.07c.37,0,.6,.52,.6,1.05,0,.37-.15,.75-.52,.9-1.87,.3-4.56,1.42-7.25,3.21-2.39,1.5-6.65,5.08-8,5.98-.15,.07-.3,.22-.3,.52,0,.6,2.54,3.21,12.64,13.31,1.34,1.27,2.69,2.17,4.64,2.47,.37,.3,.52,.75,.52,1.05Z"/><path class="cls-6" d="M216.28,100.51c-2.17,0-4.04-.97-4.93-4.04-.22-.67-.22-1.12-.37-1.12-.08,0-.15,.08-.22,.22-1.27,1.57-5.23,5.23-10.02,5.23s-6.8-3.74-6.8-6.28c0-2.84,2.47-5.53,5.31-6.8,5.61-2.47,9.42-3.06,11.59-4.71,.15-.07,.37,0,.45-.6,0-.37,.08-1.72,.22-3.44,0-1.12,0-7.48-5.23-7.48-2.54,0-3.96,2.17-4.04,3.06-.08,1.42-.15,2.77-2.92,4.04-.45,.22-.97,.3-1.42,.3-1.05,0-1.87-.6-1.87-1.57,0-2.17,4.93-8.22,12.34-8.22,5.38,0,8.37,2.47,8.37,8.22v1.05c-.37,4.41-.67,10.39-.67,12.04,0,3.21,1.27,6.06,2.92,6.06,1.12,0,3.14-1.2,3.22-1.27,.07-.07,.15-.07,.3-.07,.45,0,.97,.9,.97,1.42,0,0-2.09,3.96-7.18,3.96Zm-5.09-14.13c0-.6-.07-.9-.37-.9s-7.7,3.29-8.52,3.74c-1.64,.97-2.09,2.09-2.09,3.51,0,.97,.97,4.79,4.26,4.79,2.62,0,6.73-4.19,6.73-6.65v-.15c-.07-.52-.07-1.05-.07-1.57,0-.75,0-1.42,.07-2.09v-.67Z"/><path class="cls-6" d="M244.9,109.85c-4.71,0-8-2.46-8.3-6.65-.15-1.93-.22-4.26-.22-6.52,0-3.59,.15-7.25,.3-9.78v-.27c0-.6-.15-.6-.37-.6h-.67c-.97,0-2.47,.27-3.21,.33-.45,0-.67-.53-.67-1.06,0-.47,.15-1,.52-1.06,2.99-.8,6.65-3.19,8-6.65,.22-.6,.82-.86,1.27-.86,.6,0,1.05,.27,1.05,.73,0,1.73-.3,4.19-.3,4.59,0,.67,.15,.93,.67,.93,.45,0,6.13-.33,9.2-.93h.22c.67,0,.75,.67,.75,1.13,0,.93-.37,2-.67,2-4.49,.07-9.05,.53-9.65,.53-.9,0-.75,.33-.82,.73-.22,1.99-.37,5.25-.37,8.38,0,7.72,.37,11.64,5.38,11.64,1.72,0,3.44-.4,5.76-1.06h.08c.3,0,.9,.67,.9,1.13s-3.81,3.33-8.82,3.33Z"/><path class="cls-6" d="M276.07,112.21c-4.71,0-8-2.46-8.3-6.65-.15-1.93-.22-4.26-.22-6.52,0-3.59,.15-7.25,.3-9.78v-.27c0-.6-.15-.6-.37-.6h-.67c-.97,0-2.47,.27-3.22,.33-.45,0-.67-.53-.67-1.06,0-.47,.15-1,.52-1.06,2.99-.8,6.65-3.19,8-6.65,.22-.6,.82-.86,1.27-.86,.6,0,1.05,.27,1.05,.73,0,1.73-.3,4.19-.3,4.59,0,.67,.15,.93,.67,.93,.45,0,6.13-.33,9.2-.93h.22c.67,0,.75,.67,.75,1.13,0,.93-.37,2-.67,2-4.48,.07-9.05,.53-9.64,.53-.9,0-.75,.33-.82,.73-.22,1.99-.37,5.25-.37,8.38,0,7.72,.37,11.64,5.38,11.64,1.72,0,3.44-.4,5.76-1.06h.07c.3,0,.9,.67,.9,1.13s-3.81,3.33-8.82,3.33Z"/><path class="cls-6" d="M309.19,105.31c-7.48,0-14.28-5.38-14.28-15.4,0-7.7,5.68-16.15,14.73-16.15,8.3,0,10.32,6.51,10.32,7.85,0,1.05-.9,3.21-5.08,3.44-3.66,.15-9.2,.22-12.71,.22-1.57,0-2.17,.45-2.17,3.29,0,6.8,4.04,13.23,11.29,13.23,4.34,0,6.28-1.87,7.33-2.84,.15-.15,.3-.22,.52-.22,.6,0,1.19,.75,1.19,1.35,0,.67-3.14,5.23-11.14,5.23Zm-.75-29.53c-6.2,0-8,6.65-8,7.63,0,.22,.08,.37,.22,.37h.15c2.47-.9,7.4-1.35,11.29-1.72,.67-.07,2.24-.37,2.24-1.64-.08-1.72-1.87-4.64-5.91-4.64Z"/><path class="cls-6" d="M132.49,167.83c0,.37-.15,.67-.67,.67,0,0-4.34-.37-8.52-.37-2.17,0-4.26,.07-5.76,.37h-.15c-.3,0-.52-.3-.52-.67s.15-.82,.52-1.2c4.34-.52,5.01-.82,5.01-14.73,0-3.96-.3-10.17-7.1-10.17-5.31,0-8.15,3.89-8.68,6.58,.08,2.62,.15,4.41,.15,6.58v1.64c0,.75-.08,2.24-.08,3.59,0,3.89,.15,6.2,4.56,6.5,.3,.3,.45,.67,.45,1.05,0,.45-.22,.82-.67,.82,0,0-4.04-.37-8.07-.37-2.09,0-4.11,.07-5.61,.37h-.15c-.37,0-.6-.3-.6-.67s.15-.82,.6-1.2c4.04-.52,4.26-1.64,4.56-9.87,0-1.27-.07-6.2-.15-7.85-.22-5.46-3.96-7.33-7.25-7.33-5.23,0-8,3.89-8.22,6.06-.08,.97-.15,2.39-.15,3.81,0,2.17,.08,4.41,.15,5.46,.08,1.35,.08,2.24,.08,2.92,0,4.41,.6,6.28,4.79,6.8,.3,.3,.45,.75,.45,1.05,0,.45-.22,.82-.6,.82-.08,0-3.66-.45-7.85-.45-2.02,0-4.19,.07-6.13,.45h-.08c-.37,0-.6-.37-.6-.82,0-.3,.15-.75,.52-1.05,4.19-.45,4.19-.67,4.48-10.17v-7.85c-.15-4.34,.37-5.38-3.21-6.36-.3-.07-.45-.45-.45-.82s.15-.75,.45-.82c3.21-.52,5.16-2.02,6.73-2.77,.07-.07,.15-.07,.22-.07,.37,0,.75,.37,.82,.9v.3c0,1.05-.15,3.89-.15,3.89,0,.15,.23,.45,.45,.45q.08,0,.15-.08c4.41-4.04,6.88-5.08,10.09-5.08,4.04,0,7.63,1.79,9.27,5.23,.22,.45,.37,.67,.53,.67s.3-.07,.52-.37c4.86-5.38,9.12-5.53,10.47-5.53,5.61,0,10.32,3.29,10.32,10.62v7.48c0,2.17,0,6.36,.07,6.95,.3,1.87,.97,3.21,4.49,3.37,.3,.3,.52,.82,.52,1.27Z"/><path class="cls-6" d="M164.62,169.55c-2.17,0-4.04-.97-4.93-4.04-.23-.67-.23-1.12-.37-1.12-.08,0-.15,.08-.23,.22-1.27,1.57-5.23,5.23-10.02,5.23s-6.8-3.74-6.8-6.28c0-2.84,2.47-5.53,5.31-6.8,5.61-2.47,9.42-3.06,11.59-4.71,.15-.07,.37,0,.45-.6,0-.37,.08-1.72,.22-3.44,0-1.12,0-7.48-5.23-7.48-2.54,0-3.96,2.17-4.04,3.06-.08,1.42-.15,2.77-2.92,4.04-.45,.22-.97,.3-1.42,.3-1.05,0-1.87-.6-1.87-1.57,0-2.17,4.94-8.22,12.34-8.22,5.38,0,8.37,2.47,8.37,8.22v1.05c-.37,4.41-.67,10.39-.67,12.04,0,3.21,1.27,6.06,2.92,6.06,1.12,0,3.14-1.2,3.21-1.27s.15-.07,.3-.07c.45,0,.98,.9,.98,1.42,0,0-2.09,3.96-7.18,3.96Zm-5.08-14.13c0-.6-.08-.9-.37-.9s-7.7,3.29-8.52,3.74c-1.64,.97-2.09,2.09-2.09,3.51,0,.97,.97,4.79,4.26,4.79,2.62,0,6.73-4.19,6.73-6.65v-.15c-.08-.52-.08-1.05-.08-1.57,0-.75,0-1.42,.08-2.09v-.67Z"/><path class="cls-6" d="M202.74,140.17c0,1.64-1.95,3.74-3.74,3.74-.37,0-.75-.07-1.05-.22-1.2-.6-2.24-.82-3.14-.82-3.06,0-4.34,2.92-4.49,4.79-.07,.82-.07,2.17-.07,3.59,0,2.77,.07,5.98,.07,6.65,0,7.03,.15,7.93,5.91,8.67,.37,.3,.45,.67,.45,1.05,0,.45-.22,.82-.6,.82-.08,0-4.56-.37-9.05-.37-2.24,0-4.48,.07-6.21,.37h-.07c-.37,0-.67-.3-.67-.75,0-.3,.22-.67,.6-1.05,4.71-.37,4.86-2.84,4.86-8.52v-9.05c-.07-3.81-.07-6.58-3.51-7.33-.3-.08-.45-.37-.45-.67,0-.22,.15-.52,.45-.6,3.07-.67,6.13-2.39,7.18-2.84,.45,.07,.89,.45,.89,1.2l-.22,3.81v.15s0,.3,.45,.3c2.69-2.77,6.51-4.93,9.35-4.93,2.24,0,3.07,.9,3.07,2.02Z"/><path class="cls-6" d="M227.41,169.47c-8.38,0-14.73-5.53-14.73-14.43,0-10.24,7.4-16.9,16.53-16.9,1.27,0,2.69,.15,4.11,.37,.6,.07,.82,.07,1.12,.07,.22,0,.45,0,.82-.07h.08c1.87,0,3.59,3.36,3.59,5.76,0,1.27-.6,1.64-1.19,1.64-1.35,0-3.14-2.39-3.14-2.39-1.12-1.5-3.66-3.44-6.5-3.44-5.46,0-10.24,4.04-10.24,11.74,0,13.38,10.54,13.68,12.34,13.68h.22c2.85,0,5.01-1.42,7.33-3.29,.22-.22,.45-.3,.75-.3,.6,0,1.05,.6,1.05,1.27,0,.9-4.48,6.28-12.11,6.28Z"/><path class="cls-6" d="M284.75,167.83c0,.37-.23,.67-.75,.67-.08,0-4.19-.45-8.52-.45-2.17,0-4.34,.07-6.13,.45h-.15c-.37,0-.6-.3-.6-.67s.23-.9,.68-1.2c4.93-.45,5.01-3.29,5.01-11.14,0-.6,0-5.83-.08-6.5-.3-5.61-4.18-7.48-6.8-7.48-5.16,0-7.93,4.04-8.15,6.06-.08,.97-.15,3.37-.15,5.98,0,3.59,.08,7.7,.22,8.9,.15,2.24,1.27,4.04,5.09,4.11,.37,.37,.52,.75,.52,1.12,0,.45-.22,.75-.6,.75-.08,0-4.19-.45-8.37-.45-2.24,0-4.56,.15-6.28,.52h-.08c-.37,0-.6-.37-.6-.82,0-.37,.15-.9,.6-1.2,3.82-.37,4.26-1.94,4.41-3.96,.3-3.81,.45-22.51,.45-29.46,0-14.65-.08-14.88-4.49-16-.22-.07-.37-.45-.37-.75,0-.37,.15-.67,.3-.67,3.52-.67,6.73-2.02,8.9-3.14h.15c.3,0,.75,.15,.75,.67-.3,6.88-.22,12.93-.37,24.67l-.15,4.86c0,.22,.15,.37,.3,.37,.08,0,.15,0,.22-.07,4.11-4.79,8.15-4.79,9.2-4.79,5.53,0,10.09,3.44,10.32,9.79,.07,1.42,.07,5.46,.15,7.48,0,2.09,0,5.98,.08,6.88,.15,2.24,1.12,4.19,4.71,4.26,.37,.3,.6,.75,.6,1.2Z"/><path class="cls-6" d="M309.19,169.62c-7.48,0-14.28-5.31-14.28-15.25,0-8.67,6.2-16.37,14.58-16.37,6.73,0,10.47,4.79,10.47,7.93,0,.97-.9,3.21-5.08,3.44-3.66,.15-9.2,.22-12.71,.22-1.57,0-2.17,.45-2.17,3.29,0,6.8,4.04,13.23,11.29,13.23,3.82,0,5.68-1.35,7.33-2.84,.15-.15,.3-.22,.44-.22,.6,0,1.27,.75,1.27,1.35s-3.07,5.23-11.14,5.23Zm-8.37-21.53c2.47-.9,7.4-1.35,11.29-1.72,.67-.07,2.24-.37,2.24-1.57,0-1.94-2.02-4.71-5.91-4.71-6.2,0-8,6.65-8,7.63,0,.22,.08,.37,.22,.37h.15Zm6.36-17.35c-.82,0-1.27-.37-1.27-1.27v-.15c1.72-3.14,4.34-7.25,5.83-9.42,.75-1.12,1.5-1.57,2.62-1.57,1.2,0,3.37,.75,3.37,2.99,0,1.64-1.27,2.77-10.17,9.42h-.37Z"/><path class="cls-1" d="M277.46,54.81c5.66,.78,9.67,6.1,8.55,11.64-.96,4.72-4.98,8.36-9.87,8.36-4.49,0-9.18-3.76-9.83-8.31-.69-4.87,2.44-9.69,7.05-11.25,1.45-.49,2.82-.61,4.11-.44Zm-9.26,10.27c0,4.52,2.8,7.16,8.39,7.92,3.54,0,6.1-2.16,7.68-6.47,0-1.02,1.79-6.54-5.76-9.6-1.1-.28-1.88-.23-3.12-.23-3.1,0-5.42,2-6.96,6-.29,.37-.23,1.85-.23,2.39Zm1.94-2.38c2.89,.98,4.33,1.7,4.33,2.16,0,.43-1.62,1.15-4.86,2.16-.37-1.11-.55-1.83-.55-2.16,0-1.44,.36-2.16,1.08-2.16Zm2.98-4.06l2.16,4.33c0,.34,.07,.82-.53,.82-3-1.15-4.54-1.88-4.62-2.16v-.53c1.27-1.64,2.26-2.45,2.98-2.45Zm1.9,7.31c0,.18,.09,.26,.26,.26-1.03,2.81-1.84,4.43-2.43,4.88-1.38-.9-2.28-1.8-2.72-2.72v-.26c.4-.71,2.03-1.43,4.88-2.16Zm1.35-8.39c1.44,.22,2.16,.59,2.16,1.08-1.19,2.84-1.91,4.28-2.16,4.33-.96,0-2.16-4.58-2.16-5.12,.74,0,1.46-.1,2.16-.29Zm0,8.92c.32,0,1.04,1.63,2.16,4.88-1.08,.58-2,.53-2.69,.53-.95,0-1.49-.26-1.64-.79,.95-3.08,1.67-4.62,2.16-4.62Zm3.25-7.84c.48,0,1.38,.82,2.69,2.45,0,.65,.57,.96-4.33,2.43h-.53v-.26c.98-3.08,1.7-4.62,2.16-4.62Zm-2.16,7.31h.26c2.76,.8,4.38,1.52,4.88,2.16-.69,1.23-1.68,2.23-2.98,2.98-.5-.03-1.22-1.66-2.16-4.88v-.26Zm5.15-3.25c.94,.31,.79,1.62,.79,2.69,0,.95-.26,1.49-.79,1.64-3.08-1.15-4.62-1.96-4.62-2.43,2.47-1.27,4.01-1.9,4.62-1.9Z"/><path class="cls-8" d="M188.75,49.27c1.16,0,1.09,.9,1.09,1.4,0,.38-.21,.84-.62,1.4,1.4,1.18,1.24,1.9,1.24,2.66s-.52,1.39-1.56,1.87c-2.18,4.38-5.2,10.49-10.26,12.12-5.3,1.71-9.65-4.27-6.76-8.87,1.28-2.04,2.76-2.08,4.84-2.63,3.56-.94,6.01-1.72,7.34-2.34-.26-.8-1.16-2.81,2.34-3.59h1.09v-1.4c.22-.55,.71-.62,1.25-.62Zm-16.09,14.36c0,.81,.6,1.85,1.5,1.19,.83-.61-.06-1.78,.13-2.65,.19-.9,.82-1.55,1.56-2.05,1.02-.69,2.02-.42,2.96-.83,.29-.13,.49-.47,.4-.78-.34-1.04-3.8,.63-4.37,1.01-1.45,.95-2.17,2.39-2.17,4.12Zm12.02-9.83c.16,.41,.31,.62,.47,.62,.35,0,.71-.16,1.09-.47,.21,.65,.47,1.01,.78,1.09l.78-.47h.3c.06,.62,.22,.94,.47,.94,.93,0,.94-.63,.94-1.24,0-1.02-.83-1.75-2.49-2.19-1.56,.28-2.34,.85-2.34,1.72Z"/><path class="cls-4" d="M253.74,46.97c0,.3-1.04,1.5-3.12,3.58,0,1.48,.22,3.77-2.34,5.46v.32l1.09,.15,3.75-3.59h.15c.37,0,.32,.44,.32,.62l-3.12,3.28,.32,.47c0,.72,.2,1.98-2.65,3.28-.55,1.35-1.54,2.34-2.97,2.97-1.38,3.14-3.88,2.96-4.99,2.96-1.08,0-2.32-.26-3.73-.77-2.63,0-2.71-7.02-2.35-7.02,0-1.45,.94-2.54,2.81-3.28,.88-1.87,1.81-2.81,2.81-2.81,1.02-1.98,2.01-2.97,2.97-2.97,.29,0,.6,.11,.94,.32l3.43-3.28c.53,.28,.47,.44,.47,.62-2.25,2.4-3.45,3.59-3.59,3.59,.1,.74,.15,1.15,.15,1.24h.17c2.3-2.59,4.38-2.34,5.76-2.34l1.09-.94c1.24-1.46,1.97-2.18,2.18-2.18l.47,.32Zm-8.89,8.42v.15c2.7-.52,4.05-1.76,4.05-3.75v-.3c-2.4,0-3.51,1.56-4.05,3.9Zm.47,2.03c-.26,0-.99,.31-2.18,.93v.17c1.96,.54,2.31,.46,3.9,.46,1.14-.3,1.71-.61,1.71-.93l-3.43-.62Zm-2.65,2.96c-.33,0-2.34,.37-2.34,1.09,1.42,.31,2.4,.47,2.96,.47,1.67-.21,2.5-.53,2.5-.94-1.42-.41-2.46-.62-3.12-.62Zm-1.24-6.7c0,1.72-.09,.96,.46,3.58,.73-.68,1.09-1.46,1.09-2.34l-.62-3.28c-.62,.46-.93,1.14-.93,2.03Zm-1.88,9.51c-1.35,.35-2.02,.71-2.02,1.09,1.11,.31,2.04,.47,2.81,.47,.81,0,1.88,.09,2.64-.94-1.8-.41-2.94-.62-3.43-.62Zm-1.09-6.23c0,.35,.16,1.39,.47,3.11h.32c.52-.9,.77-1.63,.77-2.18,0-.96-.21-2.05-.62-3.28-.38,0-.69,.78-.94,2.35Zm-2.81,2.49c0,1.09-.07,1.38,.47,3.59,.73-.76,1.09-1.49,1.09-2.18,0-.34-.21-1.48-.62-3.43-.63,.46-.94,1.13-.94,2.02Z"/><g><path class="cls-2" d="M314.75,53.77c-.1-.06-.21-.12-.31-.17-.31-.15-.63-.25-.97-.31-.58-.1-1.19-.08-1.79,.1-.52,.15-.98,.42-1.35,.78-.15,.14-.27,.32-.4,.5-.23,.32-.49,.69-.92,.95-2.14,1.28-4.75,0-6.58,2.28-.15,.18-.29,.38-.41,.58-.71,1.15-1.05,2.57-.96,4.12,.16,2.98,2.76,5.47,5.67,5.44,2.75-.03,4.87-2.01,5.89-3.18,.6-.7,1.17-1.47,1.68-2.29,.68-1.09,1.27-2.28,1.76-3.54,.29-.75,.44-1.45,.45-2.12,0-.52-.13-1.05-.36-1.54-.16-.33-.36-.63-.6-.91-.24-.26-.5-.5-.8-.68Zm-9.77,12.61c-.16,.11-.37,.07-.48-.08s-.07-.37,.09-.49,.37-.07,.48,.09,.07,.37-.09,.48Zm1.39,.29c-.16,.11-.37,.07-.48-.09s-.07-.37,.09-.48,.37-.07,.48,.09,.07,.37-.09,.48Zm1.34,.22c-.16,.11-.37,.07-.48-.09s-.07-.37,.09-.48,.37-.07,.48,.09,.07,.37-.09,.48Zm-1.13-1.62c-.16,.11-.37,.07-.48-.09s-.07-.37,.09-.48,.37-.07,.48,.09,.07,.37-.09,.48Zm1.39,.29c-.16,.11-.37,.07-.48-.09s-.07-.37,.09-.48,.37-.07,.48,.09,.07,.37-.09,.48Zm-.2-1.97c.16-.11,.37-.07,.48,.09s.07,.37-.09,.48-.37,.07-.48-.09-.07-.37,.09-.48Zm1.59,2.15c-.16,.11-.37,.07-.48-.09s-.07-.37,.09-.48,.37-.07,.48,.09,.07,.37-.09,.48Zm.2-1.29c-.16,.11-.37,.07-.48-.09s-.07-.37,.09-.48,.37-.07,.48,.09,.07,.37-.09,.48Zm-.19-1.97c.16-.11,.37-.07,.48,.09s.07,.37-.09,.48-.37,.07-.48-.09-.07-.37,.09-.48Zm1.54,2.18c-.16,.11-.37,.07-.48-.09s-.07-.37,.09-.48,.37-.07,.48,.09,.07,.37-.09,.48Zm.25-1.32c-.16,.11-.37,.07-.48-.09s-.07-.37,.09-.48,.37-.07,.48,.09,.07,.37-.09,.48Zm1.29,.25c-.16,.11-.37,.07-.48-.09s-.07-.37,.09-.48,.37-.07,.48,.09,.07,.37-.09,.48Zm-1.08-1.66c-.16,.11-.37,.07-.48-.08s-.07-.37,.09-.49,.37-.07,.48,.09,.07,.37-.09,.48Zm1.34,.22c-.16,.11-.37,.07-.48-.09s-.07-.38,.08-.48,.37-.07,.49,.09,.07,.37-.09,.48Zm.26-1.33c-.16,.11-.37,.07-.48-.09s-.07-.37,.09-.48,.37-.07,.48,.09,.07,.37-.09,.48Zm1.34,.21c-.16,.11-.37,.07-.48-.09s-.07-.37,.08-.49,.37-.07,.49,.09,.07,.37-.09,.48Zm.26-1.33c-.16,.11-.37,.07-.48-.08s-.07-.37,.09-.48,.37-.07,.48,.09,.07,.37-.09,.48Z"/><path class="cls-2" d="M319.44,49.16c-.27-.17-.6-.2-.91-.1-.14,.04-.29,.03-.41-.05-.12-.08-.21-.2-.23-.35-.05-.32-.23-.6-.5-.77-.51-.32-1.18-.16-1.5,.35-.31,.5-.16,1.17,.33,1.49l.03,.02c.23,.14,.3,.45,.16,.68l-1.46,2.34c.11,.06,.21,.11,.31,.17,.3,.18,.57,.41,.82,.66l1.51-2.44c.14-.23,.45-.3,.68-.16l.03,.02c.51,.3,1.17,.15,1.48-.36,.32-.51,.16-1.18-.35-1.5Z"/></g><path class="cls-3" d="M220.18,45.91c-.33-.33-.81-.52-1.44-.59,.39-.39,.48-1.06,.28-2.04-.43-.43-.52-.78-1.75-.28-.19,.19-.38,.67-.58,1.46-.29-.67-.58-1.19-1.38-1.24-.28-.01-.59,.01-.79,.22-.22,.22-.23,1.1-.01,2.61l-.14,.14c-3.27-1.22-4.71,.64-5.68,1.61-6.77,7.99-9.29,12.84-7.57,14.56,1.86,1.86,7.01-.95,15.45-8.44,1.2-1.2,1.44-2.81,.72-4.82,2-1.04,2.52-1.64,2.91-2.04,.15-.62,.15-1,0-1.16Zm-15.6,9.79c.1-.51,.71-.56,1.1-.38,.19,.09,.37,.23,.49,.41,1,1.49-1.82,1.21-1.59-.04Zm3.79-1.56c-.49-.02-1.99-1.05-1.59-1.62,.2-.29,.63-.35,.97-.24,.05,.02,.11,.05,.17,.08,.67,.4,1.8,1.83,.45,1.77Zm3.08-3.01c-.82,.83-2.81-1.01-1.82-1.74,.18-.13,.41-.12,.66-.01,.72,.31,1.51,1.41,1.17,1.76Zm7.11-3.78c-.62,.22-1.28,.41-1.92,.57-.3-.29-.62-.55-.92-.83-.15-.14-.3-.28-.38-.46-.17-.37,.04-.77-.04-1.16-.05-.25-.29-.58,.08-.73,.17-.07,.38,0,.52,.11,.14,.12,.23,.29,.29,.47,.02,.04,.03,.08,.05,.12,.04,.09,.1,.17,.19,.2,.53,.16,.73-1.27,1.42-.6,.14,.13,.15,.35,.11,.54-.02,.11-.06,.21-.07,.32,0,.11,.03,.23,.12,.29,.06,.04,.15,.05,.22,.05l.46,.03c.92,.06,.42,.88-.14,1.08Z"/><g><path class="cls-7" d="M74.72,16.36v8.33c0,6.92,5.61,12.53,12.53,12.53s12.53-5.61,12.53-12.53v-8.33L118.83,.39h-20.3l-23.81,15.97Z"/><path class="cls-7" d="M124.85,16.36v8.33c0,6.92,5.61,12.53,12.53,12.53s12.53-5.61,12.53-12.53v-8.33L159.44,.39h-20.3l-14.29,15.97Z"/><path class="cls-7" d="M174.98,16.36v8.33c0,6.92,5.61,12.53,12.53,12.53s12.53-5.61,12.53-12.53V.39h-20.3l-4.76,15.97Z"/><path class="cls-7" d="M220.35,.39l4.76,15.97v8.33c0,6.92,5.61,12.53,12.53,12.53s12.53-5.61,12.53-12.53v-8.33L240.65,.39h-20.3Z"/><path class="cls-7" d="M281.26,.39h-20.3l14.29,15.97v8.33c0,6.92,5.61,12.53,12.53,12.53s12.53-5.61,12.53-12.53v-8.33L281.26,.39Z"/></g><g><path class="cls-9" d="M99.78,16.36v8.33c0,6.92,5.61,12.53,12.53,12.53s12.53-5.61,12.53-12.53v-8.33L139.14,.39h-20.3l-19.05,15.97Z"/><path class="cls-9" d="M149.92,16.36v8.33c0,6.92,5.61,12.53,12.53,12.53s12.53-5.61,12.53-12.53v-8.33L179.74,.39h-20.3l-9.52,15.97Z"/><path class="cls-9" d="M200.05,.39V24.69c0,6.92,5.61,12.53,12.53,12.53s12.53-5.61,12.53-12.53v-8.33L220.35,.39h-20.3Z"/><path class="cls-9" d="M240.65,.39l9.52,15.97v8.33c0,6.92,5.61,12.53,12.53,12.53s12.53-5.61,12.53-12.53v-8.33L260.96,.39h-20.3Z"/><path class="cls-9" d="M301.56,.39h-20.3l19.05,15.97v8.33c0,6.92,5.61,12.53,12.53,12.53s12.53-5.61,12.53-12.53v-8.33L301.56,.39Z"/></g></g></g></g></svg>