<?xml version="1.0" encoding="UTF-8"?><svg id="_イヤー_2" xmlns="http://www.w3.org/2000/svg" viewBox="0 0 471.76 103.15"><defs><style>.cls-1{fill:#fff;}.cls-2{fill:#b5341d;}.cls-3{fill:#e4007f;}.cls-4,.cls-5{fill:#231815;}.cls-5{fill-rule:evenodd;}</style></defs><g id="_イヤー_1-2"><g><g><path class="cls-4" d="M18.36,15.23c0-.09,0-.19,0-.28,.21-.08,.36-.27,.39-.5,.02-.1,.03-.2,.03-.3,.01-.49-.29-.85-.41-.96-.08-.11-.07-.07-.08-.11,0,0,0-.07,.03-.17,.06-.19,.03-.4-.1-.57-.12-.16-.31-.26-.52-.26h-.31v-.03c0-.32-.23-.59-.54-.64-.33-.05-.63-.08-.77-.13-.03,0-.05-.01-.06-.02-.05-.31-.32-.54-.64-.54-1.11,0-1.8-.25-2.05-.66-.11-.16-.28-.27-.47-.29-.06,0-.1,0-.12,0h-.02c-.99,0-1.69-.2-2.12-.54l-.47-.13c-.18,.01-.33,.09-.45,.17h0c-.14-.13-.31-.19-.5-.17-.25,.02-.5,.03-.76,.03-1.25,0-2.47-.31-3.78-.31-.62,0-1.26,.07-1.89,.31-.22,.08-.38,.28-.42,.51-.02,.16-.09,.22-.43,.48-.27,.2-.74,.64-.8,1.31-.67,.54-.71,1.43-.72,2.14,0,.63,.05,1.27,.05,1.82,0,.2,0,.38-.02,.55-.03,.23,.08,.45,.27,.59,.18,.12,.32,.17,.42,.21,.02,.28,.22,.52,.5,.58,.49,.09,.96,.09,1.3,.15,.37,.06,.42,.15,.42,.15,.11,.27,.4,.44,.71,.38,.25-.05,.48-.07,.69-.07,.99-.03,1.66,.49,2.96,.6,.04,.11,.11,.2,.2,.27,.15,.13,.34,.17,.54,.13,.04,0,.11-.01,.16-.01,.6-.04,1.22,.54,2.22,.61,.18,0,.36-.03,.53-.1,.34,.21,.74,.23,1.04,.23h.03c.47,0,.95-.06,1.31-.06,.13,0,.24,0,.31,.02,.27,.05,.56-.08,.68-.33,.1-.3,.7-.47,1.33-1.03h.43c.22,0,.42-.11,.53-.29,.03-.05,.06-.09,.07-.14,.17-.13,.36-.36,.34-.63,0-.11-.02-.21-.05-.3,.06-.02,.11-.03,.16-.05,.82-.36,.82-1.16,.83-1.63"/><path class="cls-4" d="M67.4,34.86c-.11-.6-.35-.73-.28-.8,0-.03,0-.09,.03-.17,.08-.29-.07-.6-.35-.74-.16,.13-.11-.88-.75-1.88-.12-.15-.29-.23-.47-.23h-.12c-.22,0-.35-.04-.35-.05v-.03c-.02-.35-.31-.61-.66-.6h-.18c-.63,.04-1.05-.4-2.06-.52-.08-.25-.32-.43-.59-.44h-.33c-.39,0-.74-.02-.93-.08-.19-.07-.15-.06-.18-.12-.08-.28-.32-.48-.62-.48h-4.23c-.29,0-.53,.18-.61,.44-.18,0-.43-.04-.71-.06-.09-.21-.29-.37-.54-.38-.28-.02-.55-.03-.82-.03-.73,0-1.48,.04-2.15,.04-.39,0-.76-.01-1.08-.05v-.96c.13-.08,.25-.2,.31-.31,.1-.21,.11-.37,.12-.5,.58-.25,1.17-.48,1.77-.69,.26,.09,.54,.13,.8,.13,1.32-.03,2.69-.76,3.47-.74,.17,0,.29,.03,.38,.08,.17,.09,.37,.09,.55,.01,.11-.05,.21-.13,.28-.23,.03,0,.07,0,.12,0,.15,0,.34,.02,.56,.02,.05,0,.11,0,.17,0,.18,0,.35-.08,.46-.22,.05-.05,.09-.12,.11-.19,1.92-.16,2.44-1.28,3.69-1.22,.21,.02,.41-.05,.55-.21,.09-.09,.14-.19,.16-.31,.03-.02,.05-.04,.08-.06,.05-.05,.1-.11,.13-.17,.1-.05,.18-.12,.24-.21,.01-.01,.02-.03,.03-.04,.21-.04,.57-.42,.52-.73,0-.13-.03-.25-.07-.36l-.21-.29c-.18-.12-.33-.18-.44-.21,.03-.16-.01-.33-.11-.46-.12-.17-.32-.27-.53-.27h-5.86c-.17,0-.34,.07-.46,.19-.07,.07-.11,.14-.14,.23-1.13,.05-1.92,.32-2.87,.31-.22,0-.44-.01-.69-.05-.31-.03-.59,.15-.69,.44-.05,.01-.13,.03-.24,.03-.36,0-.91-.1-1.44-.1h-.11c-.41-.5-.94-.74-1.37-.96-.21-1.28-.35-2.65-.49-4.01-.04-.31-.3-.56-.61-.58v.02s-.06-.14-.07-.36c-.01-.34-.3-.62-.64-.62h-.77c-.03-.09-.08-.16-.14-.22-.12-.12-.29-.19-.46-.19h-.62c-.17-.17-.4-.29-.65-.28-.75,.11-.93,.4-1.03,.35-.02,0-.02,0-.04-.01-.3-.13-.64-.02-.81,.26-.03,.06-.05,.11-.07,.15-.1,0-.25,.03-.44,.05-.28,0-.99,.4-.96,1.06,0,.08,.01,.12,.01,.12,0,0,0,.02,0,.04-.54,.64-.56,1.46-.58,2.25,0,.65,.05,1.31,.05,1.89h0c-.24,.1-.41,.32-.43,.59-.14,1.25-.47,1.58-1.7,1.71-.2,0-.39,.11-.49,.26-.06-.07-.13-.12-.2-.15-.25-.13-.43-.12-.57-.13-.08,0-.15,.01-.22,.01-.35-.56-.91-.7-1.17-.78-.45-3.99-.46-6.91-.52-11.25,0-.19-.08-.36-.22-.48-.14-.12-.32-.18-.51-.15-.06,0-.09,0-.1,0-.01,0-.02,0-.02,0-.02,0-.02,.01-.09-.08-.11-.11-.48-.42-.97-.42-.18,0-.36,.04-.55,.09-.26,.08-.44,.3-.46,.56-.09,.03-.23,.09-.42,.21l-.23,.31c-.07,.2-.08,.37-.08,.52,0,.39,.07,.76,.08,1-.18,.05-.32,.17-.4,.35-.12,.26-.16,.53-.16,.78,.04,.78,.42,1.41,.5,1.61,0,0-.02,.01-.03,.01-.2,.09-.35,.29-.37,.52-.02,.23,.08,.45,.26,.58,.04,.03,.06,.05,.08,.06-.03,.07-.12,.23-.27,.48-.06,.18-.09,.27-.09,.41,0,.24,.1,.42,.22,.54-.19,.31-.27,.66-.27,.96,.03,.75,.32,1.42,.44,1.91-.2,.1-.35,.3-.37,.54,0,.05,0,.09,0,.13-.04,1.52-.82,1.86-2.59,1.98-.03-.07-.08-.15-.14-.2-.12-.12-.29-.19-.46-.18-.39,.01-.74,.01-1.07,.01-2.37,0-3.76-.28-6.11-.29-.41-.61-1.2-.66-1.62-.68-.21-.02-.41,.07-.54,.23-.13,.15-.18,.38-.13,.57,0,.01,0,.02,0,.03-.03,.02-.09,.05-.17,.1-.21,.1-.54,.47-.54,.9l.05,.25c.48,1.13,1.42,1.46,1.72,1.94,.13,.17,.35,.27,.58,.25,.19-.02,.38-.03,.58-.03,1.28,0,2.66,.34,4.08,.35,.6,0,1.2-.07,1.81-.27,.61,.23,1.27,.26,1.9,.26,.54,0,1.06-.03,1.56-.03,.4,0,.77,.03,1.08,.09,0,.11,.04,.29,.41,.53,.35,.15,.67,.21,.86,.3,.18,.12,.1,.03,.13,.12,0,.03,0,.07-.01,.1-.03,.17,.01,.35,.11,.49,.05,.06,.1,.12,.16,.16,0,.05,0,.09,0,.13,0,.05,.01,.1,.02,.15-.13,.08-.22,.19-.27,.34-.34,.94-.67,1.11-1.41,1.29-.75,.15-1.87,.08-3.2,.18-.33,.03-.59,.29-.6,.62h.02c-.06,.05-.38,.16-.62,.54-.31,.04-.65,.05-.98,.05s-.66-.01-.99-.01c-.68,0-1.37,.03-2.01,.41-.59,.36-.94,1.03-.99,1.89-.55,.38-.64,1.09-.65,1.49-.01,.59-.1,1.08-.14,1.08-.19,.21-.23,.52-.07,.76,.05,.09,.11,.15,.16,.19-.15,1.6-.42,3.34-.42,5.12,0,.74,.05,1.49,.17,2.24,.16,.71,.55,1.15,.55,1.36,.07,.46,.09,.94,.09,1.44,0,1.25-.16,2.63-.17,4.07,0,.47,.02,.94,.08,1.41,.02,.22,.15,.41,.35,.51,.03,.01,.06,.03,.09,.04,0,.25-.08,.67-.09,1.11,0,.15,.01,.32,.07,.52,.07,.23,.26,.4,.5,.44,.01-.03,.03,.03,.24,.17,.62,2.14,2.47,3.14,4.55,3.56,.28,.5,.9,.62,1.08,.62,.07,.01,.12,.02,.16,.03,.05,.24,.23,.44,.48,.51,.15,.04,.28,.04,.42,.04,.33,0,.64-.05,.83-.05,.04,.06,.08,.11,.14,.16,.14,.11,.31,.15,.48,.14,.34-.05,.85-.05,1.46-.05,1.07,0,2.42,0,3.52-.24,.17-.03,.31-.13,.41-.28,.03-.05,.04-.09,.06-.14,.13,.01,.3,.03,.49,.05,.06,.08,.13,.14,.19,.19,.03,.1,.09,.19,.16,.27,.15,.16,.38,.22,.59,.17,.2-.03,.38-.05,.53-.05,1.18-.11,1.1,1.15,2.42,2.22,.09,.71,.17,1.4,.17,2,0,.91-.17,1.49-.64,1.82-.46,.09-1.02,.21-1.42,.64-.74-.01-1.46-.02-2.17-.02-2.93,0-5.72,.15-8.26,.58-.18,.03-.35,.14-.45,.3,.02,.21-1.03,.31-2.13,.39-.19,.02-.35,.13-.46,.29-.03,.04-.04,.07-.06,.11-.02,0-.05,0-.08,0-.28,0-.53,.19-.62,.46-.1,.35-.12,.64-.17,.78h0c-.31,.07-.54,.33-.54,.64v1.37c0,.28,.2,.54,.47,.62,.99,.27,2.11,.33,3.26,.33s2.44-.06,3.59-.06c.21,0,.42,0,.62,0,.08,.22,.27,.38,.51,.42,.42,.06,.86,.09,1.32,.09,1.16,0,2.41-.14,3.46-.14,1.75,.08,2.44,.21,2.45,1.41,0,.05,0,.11,0,.17,0,.18,.07,.37,.21,.5,.04,.03,.08,.07,.13,.09-.21,.74-.82,1.39-.89,2.78-.61,.36-1.45,.47-2.46,.46-.6,0-1.25-.03-1.9-.03-1.04,0-2.14,.07-3.16,.55l-.33,.33c-.23,.57-.32,1.14-.32,1.67,.01,1.45,.57,2.65,.54,3.85v.04c0,.21,.1,.4,.27,.53,1.2,.86,2.46,1.98,4.43,2.36,.19,.61,.64,.89,.88,1.05,0,.05,0,.11,0,.15,0,.38,.02,.76,.02,1.09,0,.8-.15,1.03-.23,1.04-.25,.08-.43,.31-.45,.57-.14,1.89-.55,3.97-.55,6.08,0,.89,.08,1.8,.28,2.69,.05,.2,.19,.36,.38,.44,.46,.17,.81,.7,1.56,1.19,.26,.15,.58,.11,.8-.11h.05c.14,0,.21,.09,.21,.09,.05,.21,.19,.38,.38,.46,.12,.05,.23,.09,.41,.09,.02,0,.03,0,.05,0,.07,0,.14-.01,.21-.05,.09,.04,.18,.05,.25,.04,.17,0,.29-.04,.41-.09,.13-.05,.22-.13,.28-.24,.03,.02,.04,.04,.06,.06,.18,.21,.48,.29,.74,.18,.21-.08,.35-.27,.39-.48,1.26-.46,1.43-1.56,1.89-1.55,.24-.08,.42-.3,.44-.54,.04-.48,.29-.99,.32-1.8,.08-.04,.15-.09,.21-.16,.12-.15,.18-.34,.15-.52-.03-.23-.05-.44-.05-.64-.01-1.09,.45-1.86,.57-3.16,.11-.03,.21-.1,.29-.19,.12-.14,.17-.33,.14-.52-.03-.2-.05-.38-.05-.54,.03-.92,.37-1.24,1-1.71h1c.78,.84,1.41,.72,1.29,1.2,0,.05,0,.09,0,.13-.02,.17,.04,.35,.14,.48,.11,.14,.27,.21,.44,.23,.2-.05,.24,.24,.78,.65,.03,.23,.17,.42,.37,.51,.63,.19,.94,1.37,2.25,1.94,.06,.18,.19,.34,.37,.4,.54,.21,.88,.73,1.35,1.42,.14,.19,.38,.3,.62,.25,.05,0,.09,0,.12,0,.1,0,.09,.02,.1,0,0,0,.02,0,0,.12v.14c-.02,.17,.03,.36,.15,.48,.11,.13,.27,.21,.45,.23,.42,.03,.56,.21,.94,.64,.33,.4,.95,1.02,1.95,1h.01c.19,0,.37-.09,.49-.23,.21-.26,.57-.55,.87-1.03,.13-.2,.13-.46,.01-.66-.37-.66-.69-1.35-.89-2.16-.06-.24-.26-.42-.5-.47-.01-.03-.04-.04-.05-.07-.06-.06-.12-.11-.19-.15-.07-.12-.16-.21-.3-.27,0,.03-.1-.11-.33-.25-.04-.18-.16-.33-.33-.42-.64-.21-.99-1.45-2.37-1.98-.11-.15-.25-.27-.38-.33-.03-.07-.06-.14-.12-.21-.05-.05-.1-.07-.16-.11-.08-.15-.2-.28-.32-.33-.06-.03-.1-.04-.14-.05-.52-.61-1.06-1.25-1.75-1.8v-1.79c.4-.2,.62-.55,.76-.77,.33-.04,.58-.23,.66-.3v-.03s.03,0,.09,.01c.21,.06,.43,0,.59-.13,.1-.09,.18-.21,.21-.34,1.38-.42,1.57-1.8,2.03-1.92,.14-.09,.25-.24,.28-.41,.13-.58,.19-1.03,.19-1.47,0-.55-.08-1.03-.18-1.75l-.22-.42c-1.01-.62-2.01-.58-1.88-.74-.11-.21-.32-.36-.55-.36-.2-.01-.39-.01-.58-.01-.67,0-1.35,.03-1.98,.03-1.47,.02-2.6-.19-2.99-.69-.02-.21-.03-.41-.03-.6,0-1.6,.55-2.71,.88-4.24,.39-.09,.68-.42,.75-.58,.04-.06,.07-.11,.09-.15,.74-.11,1.3-.28,1.97-.28,.16,0,.34,.02,.54,.03,.17,.02,.34-.03,.48-.13,.05-.03,.09-.08,.12-.13,.31,.09,.9,.33,1.51,.35,.19,.01,.4-.03,.6-.13,.12,.07,.25,.1,.35,.09,.17,0,.29-.05,.41-.09,.11-.05,.22-.13,.28-.24l.06,.05c.17,.21,.46,.29,.71,.19,.25-.09,.43-.33,.43-.6v-.45c.08,0,.18-.03,.31-.1,.1-.05,.18-.15,.25-.25,.2-.09,.36-.25,.39-.48,0-.03,.01-.07,.02-.15,0-.28-.14-.45-.29-.58v-.3c0-.17-.07-.33-.19-.46-.08-.08-.2-.1-.32-.13-.04-.07-.08-.13-.15-.18-.86-.67-1.95-.77-3.07-.82-.04-.1-.1-.19-.18-.27-.14-.12-.33-.18-.51-.15-.19,.02-.36,.03-.5,.03-.59,.01-1.09-.2-1.85-.28-.33-.48-.91-.58-1.15-.64-.16-.04-.27-.09-.32-.11h0s0-.07,.03-.14c.06-.26-.05-.53-.27-.68-.44-.25-.75-1.21-.73-2.43,0-1.21,.25-2.57,.49-3.48,.5-.21,.81-.58,1.02-.84,.74-.08,1.14-.31,1.63-.3,.12,0,.25,.01,.4,.04,.2,.03,.4-.03,.55-.16,.08-.09,.15-.19,.18-.3,.98-.12,2.16-.11,3.03-.87,.14,.01,.28,.02,.42,.02,1.23-.01,1.98-.35,2.92-.34,.14,0,.29,.01,.46,.03,.18,.01,.36-.04,.49-.16,.14-.12,.22-.3,.22-.48-.04-.09,0-.03,.66-.42,.14-.1,.24-.25,.27-.41,.01-.05,.02-.1,.02-.15,.1-.01,.19-.03,.26-.07,.19-.07,.34-.23,.39-.42,.04-.17,.25-.31,.76-.58,.42-.19,1.08-.68,1.17-1.53,1.19-.74,1.57-1.84,2.34-2.11,.25-.11,.4-.36,.38-.63,0-.09,0-.19,0-.3-.02-1.78,.55-3.15,.56-5.2,.23-.1,.39-.32,.4-.58,0-.13,0-.27,0-.42,0-.39-.02-.77-.02-1.13-.01-.6,.07-1.1,.19-1.27,.15-.25,.12-.56-.08-.77-.13-.15-.15-.23-.16-.45-.02-.39,.25-1.03,.33-1.78,.02-.23,.03-.46,.03-.69,.01-1.6-.57-2.98-1.7-3.82m-17.59,8.31c0-.16,0-.33,.03-.5,.04-.23-.06-.46-.24-.6-.26-.17-.43-.65-.42-1.35,0-.54,.1-1.16,.2-1.72,.62-.35,1.67-.49,2.89-.48,1.2,0,2.57,.11,3.85,.11,.36,0,.72,0,1.06-.03,.29,.27,.64,.7,1.21,.99,.04,.91,.22,1.68,.44,2.38-.21,.3-.22,.66-.23,.91,.03,.5,.07,.9,.27,1.29-.18,.58-.51,1.23-.52,2.22-.55,.38-.66,1.07-.67,1.59-.23,.16-.4,.38-.44,.56-.03,.07-.06,.15-.07,.22-.24,.03-.49,.12-.7,.31-.15,.13-.26,.3-.32,.48-1.22,.29-2.56,.46-4.09,.46-.27,0-.55,0-.84-.01-.23-.28-.59-.5-.98-.56-.05-.46-.02-1.17-.31-1.83,.17-.45,.23-.9,.23-1.33-.01-1.13-.35-2.16-.34-3.12m-8.79,2.43h0Zm-10.83,1.32c0-.1,0-.2,.01-.31v-.15c-.07-.31-.25-.49-.42-.57,0-.17,.03-.36,.03-.57,0-.24,0-.66-.3-.99,0-.2,0-.41,0-.61,0-.72,.05-1.39,.16-1.93,.34-.16,.54-.48,.62-.64,.04-.09,.08-.16,.11-.21,.04,0,.09,0,.16,.01,.1,0,.28-.01,.48-.15,1.34-.96,.88-.88,2.86-1.25,.88-.15,1.81-.3,2.63-.29,.58,0,1.11,.07,1.52,.25,.12-.09,.28,.56,1.03,.87,.05,.41,.16,.94,.65,1.27,.1,1.02,.29,1.86,.29,2.85,0,.24,0,.5-.04,.76v.15c.08,.33,.27,.5,.44,.58,.02,.33,.04,.64,.04,.94,0,2.04-.51,3.48-1.4,4.47-.67,.11-1.35,.16-2.04,.16-2.51,0-4.96-.73-6.5-1.78,0-.11,.01-.21,.01-.31-.02-1.13-.35-1.77-.33-2.55m10.19-18.11c-.07,.03-.12,.08-.18,.13-.06,.06-.11,.13-.14,.19-.55,.05-1.06,.24-1.44,.58-.74-.42-1.56-.6-2.26-.81,0-.08,0-.16,0-.24,0-.16,0-.42-.1-.68,.25-.13,.66-.4,.77-.98,.39-.12,.72-.28,1.01-.45,.27,.12,.59,.19,.93,.19,.26,.38,.68,.54,1.06,.61,.04,.08,.1,.16,.16,.23,.06,.06,.12,.11,.18,.14v1.08Z"/><path class="cls-4" d="M13.43,35.32c-1.1-.43-2.08-.76-2.42-1.37-.09-.15-.24-.26-.42-.3-1.38-.28-2.85-.5-4.31-.5-1.2,0-2.39,.14-3.52,.52-.21,.07-.36,.23-.42,.44-1.31,.27-1.64,1.52-2.06,1.68-.18,.13-.28,.33-.28,.54v1.64c0,.24,.14,.46,.35,.58,.44,0,.49,1.37,1.81,1.96,.49,1.43,1.91,1.47,1.84,1.92,.09,.23,.31,.4,.56,.41,.29,.02,.57,.03,.84,.03,1.72,0,3.01-.34,4.53-.34,.28,0,.57,.01,.88,.03,.29,.03,.55-.14,.66-.4,.67-.08,1.09-.56,1.28-.83,.27-.34,.29-.38,.48-.41,.31-.02,.55-.26,.59-.56,.12-1.07,.39-1.88,.4-2.83,0-.59-.12-1.22-.45-1.89l-.34-.31Z"/><path class="cls-4" d="M11.47,64.55c-.22-.14-.64-.41-1.22-.4-.14,0-.29,.01-.44,.03-.22,.04-.41,.19-.48,.4-.77,1.86-1.74,3.1-3.86,3.42-.32,.04-.55,.31-.55,.64,0,.02,0,.03,0,.05-.02,0-.05,0-.1,0-.04,0-.09,0-.15-.01-.19-.02-.38,.05-.52,.18-.13,.13-.21,.32-.19,.51,0,.07,0,.12,0,.15,0,.07,0,.09,0,.11h-.04c-.31,0-.56,.21-.63,.51-.17,.9-.36,1.56-.6,1.6-.28,.13-.43,.44-.35,.74,.02,.07,.02,.09,.02,.1h-.03c-.06,.06-.21,.24-.27,.5-.48,.29-.66,.86-.69,1.11-.05,.17-.09,.31-.12,.36-.33,.03-.59,.34-.57,.68,0,.03,0,.06,0,.09,.03,.22-.12,.15-.22,.84,0,.03,0,.07,0,.1-.19,.14-.38,.36-.47,.74-.05,.31,.13,.61,.43,.71,.07-.03,.13,.09,.28,.27-.06,.11-.09,.23-.07,.33,0,.19,.05,.3,.1,.42,.07,.15,.19,.26,.33,.33,0,.03,0,.06,0,.09,0,.26,.04,.47,.04,.54-.08,.33,.11,.66,.43,.76,.35,.1,.64,.13,.78,.17h0c.06,.31,.32,.54,.63,.54h2.59c.32,0,.59-.23,.64-.54,.07-.04,.39-.11,.82-.14,.31-.05,.53-.31,.54-.61,.04-.6,.32-.7,1.03-1.1,.16-.09,.28-.25,.33-.44,.15-.9,.33-1.44,.54-1.43,.21-.07,.37-.25,.42-.48,.47-2.21,1.05-4.44,1.05-7.24,0-.58-.03-1.18-.08-1.82,0-.05-.01-.09-.03-.13,.08-.07,.15-.13,.18-.21,.13-.22,.12-.38,.12-.49,.31-.23,.44-.62,.44-.76,.02-.09,.04-.17,.05-.21,.12-.11,.19-.28,.19-.46,0-.23-.12-.44-.32-.55"/><path class="cls-4" d="M179.52,29.96h-.8c-.96-.47-2.03-.61-3.11-.61-2.16,0-4.46,.56-6.2,.61-.25,0-.46,.15-.56,.36h-.11c-1.06,.02-1.58,.36-2.23,.34-.1,0-.19,0-.29-.02-.18-.01-.37,.05-.5,.17-.09,.08-.14,.17-.17,.27-1.55,.12-2.7,.56-4.18,.55-.23,0-.49,0-.74-.03-.2-.02-.4,.06-.53,.19-.13-.08-.33-.16-.61-.2-.13,0-.12,.03-.13,.01l-.36,.2c-.22,.31-1.29,.44-2.43,.48-.27,.02-.49,.19-.57,.44h-.27c-.15,0-.44-.01-.72,.12-.12-.09-.28-.17-.49-.16-.09,0-.18,.01-.26,.03l-.27,.15c-.04,.21-1.09,.03-2.13,.22-.22-.29-.57-.43-.68-.45-.01,0-.03-.01-.04-.02,.07-.15,.25-.43,.29-1,0-.12-.01-.26-.04-.41,.13-.05,.25-.14,.32-.27,.44-.72,.58-1.51,.58-2.27,0-1.1-.29-2.16-.51-3.11-.06-.27-.29-.47-.55-.5l-.02-.03c-.04-.08-.07-.32-.09-.61-.02-.27-.21-.5-.46-.58-.15-.57-.59-.93-.83-1.09-.33-.27-.34-.24-.36-.48v-.07c.03-.34-.2-.64-.53-.69-.32-.08-.38-.14-.43-.89,0-.1,0-.21,.02-.33,.02-.21-.08-.42-.24-.56-.05-.05-.11-.07-.17-.1v-.07h0c0-.18-.07-.35-.19-.46-.12-.12-.28-.19-.46-.19h-.58v-.03c0-.3-.19-.55-.47-.62-.74-.2-1.55-.32-2.46-.32h-.17c-.09-.13-.2-.25-.32-.29-.24-.12-.41-.11-.54-.11-.15,0-.26,.01-.33,.01h-.02c-.17,0-.34,.07-.46,.19-.07,.07-.11,.14-.14,.22h-.36l-.14,.02c-.64,.22-.67,.71-.67,.93-.13,.03-.31,.11-.48,.45-.18,.48-.12,.91-.16,1.23-.01,.13-.03,.22-.06,.25-.28,.07-.5,.33-.5,.62v2.33c0,.25,.15,.48,.38,.58,.01,0,.09,.07,.15,.48,.05,.38,.04,.89,.17,1.41,.06,.2,.2,.36,.39,.44,.21-.05,.34,.86,.59,1.91l.27,.37c.85,.39,1.11,2.08,2.69,2.87v1.05c-.33,.21-.52,.53-.64,.8-.36,.08-.68,.25-.93,.47-.14-.13-.34-.25-.62-.25-.07,0-.12,.01-.13,.01l-.32,.14c-.49,.56-2.63,.21-4.22,.76-.13-.13-.32-.24-.59-.24-.1,0-.2,.02-.27,.04-1.04,.36-2.68,.81-3.88,.81-.37,0-.7-.05-.94-.13-.16-.05-.35-.03-.49,.05-.1,.05-.19,.13-.25,.23-.03,0-.07,0-.11,0-.25,0-.65-.07-1.07-.07-.15,0-.31,.01-.48,.05-.24,.06-.41,.24-.47,.47-.2,.02-.55,.05-.89,.52l-.08,.31v2.32c0,.31,.23,.58,.53,.63,.73,0,1.15,1.23,2.96,1.31h.13c.1,.19,.29,.32,.51,.34,3.1,.23,6.35,.29,9.67,.29,1.02,0,2.04,0,3.06-.01l.19-.02c.56-.18,1.59-.33,2.58-.33,1.04-.03,2.02,.23,2.32,.48v1.62c-.48,.14-.74,.52-.86,.73-2.11,.64-2.78,2.51-3.78,3.46-1.61,.14-1.86,1.08-2.59,.96h-.05c-.18,0-.35,.07-.48,.21-.11,.12-.18,.29-.17,.46-.04,.02-.1,.06-.21,.12-.19,.1-.48,.43-.51,.81-1.4,.66-1.72,1.71-2.89,1.68-.21,0-.41,.13-.52,.31-.09,.46-1.69,.66-1.96,2.32-1.16,.88-3.23,1.2-4.52,2.73-.89,.16-1.13,.59-1.53,.52-.07,0-.14,0-.21-.01-.18-.03-.37,.03-.51,.15-.11,.09-.19,.23-.21,.37-1.58,.48-2.08,1.66-3.07,1.82-.2,.05-.35,.18-.43,.36-.11,.58-1.4,.62-2.28,1.78-1.09,.43-1.81,1.17-2.47,1.82-1.16,.15-1.86,.85-2.38,1.41-.62,.15-1.34,.33-1.87,.88h-.65c-.29,0-.56,.2-.63,.49,.07,.25-.58,.4-.96,1.28-1.28,.46-1.88,1.12-3.13,1.1h-.17c-.34-.01-.64,.23-.67,.57l-.02,.02c-.09,.04-.33,.08-.61,.09-.25,.02-.47,.17-.56,.4-.21,.42-.23,.51-.71,.54h-.05c-.16,0-.33,.07-.45,.19-.09,.09-.15,.21-.18,.34-2.15,.67-2.36,2.67-3.72,2.76-.2,.03-.36,.17-.45,.35-.29,.8-1.82,1.02-3.5,1.29-.25,.05-.46,.25-.51,.5-.08,.03-.22,.08-.41,.16l-.03,.02c-.1-.05-.19-.07-.28-.05-.19,0-.31,.05-.42,.1l-.27,.23c-.35,.5-.42,.66-.93,.68-.07,0-.14,0-.22,0-.28-.04-.56,.11-.67,.39-.09,.71-1.86,.52-3.11,1.68-2.65,.42-5.01,1.04-7.79,1.2-.32,.02-.58,.26-.61,.58-1.87,.9-2.08,2.6-3.42,2.69-.21,.04-.39,.17-.48,.36-.39,1.35-3.43,1.45-3.84,4.38-.41,.21-.66,.64-.69,.9l-.02,.23c.13,.74,.36,.85,.31,.97,0,.05,0,.1-.02,.18-.07,.29,.08,.6,.34,.73,.81,.28,1.19,1.8,2.92,2.31,.55,.6,1.34,.76,2.04,.76h.05c1.08-.01,2.21-.29,3.05-.28,.03,0,.07,0,.11,0,.21,0,.39-.07,.53-.22,.1-.13,.16-.3,.15-.46,.05,0,.14-.02,.25-.02,.07,0,.18,0,.28,.02,.19,0,.37-.06,.51-.19,.08-.07,.13-.17,.16-.27,2.47-.42,2.8-2.36,4.67-2.22,.25,0,.53,.03,.87,.09,.17,.03,.35,0,.49-.11s.24-.25,.27-.42h0c.07-.05,.39-.11,.83-.15,.22-.04,.41-.18,.5-.39,.03-.13,.25-.26,.71-.45,.32-.15,.79-.34,1.12-.79h.16c.28,0,.52-.19,.62-.46,0-.03,.08-.11,.49-.26,.28-.1,.78-.25,1.09-.7,.55-.11,.67-.34,.74-.27,.03,0,.09,0,.17,.02,.28,.07,.57-.05,.71-.29,.24-.68,1.85-.7,2.8-2.01h.61c.3,0,.57-.22,.63-.52-.02-.01,.04-.03,.22-.28,1.6-.7,1.93-1.84,3.37-1.79,.08,0,.15,0,.24,0,.24,.02,.48-.1,.6-.31,.21-.6,1.61-.64,2.54-1.8,.91-.25,1.4-.92,1.77-1.35,.44-.49,.65-.74,1.35-.77h.01c.19,.01,.38-.05,.51-.19,.06-.06,.1-.13,.13-.21,.69-.1,.85-.38,.99-.31,.05,0,.1,0,.18,.02,.2,.05,.41,0,.58-.15,.08-.07,.13-.16,.17-.25,.99-.13,1.22-.62,1.59-.54h.08c.29,.03,.56-.16,.65-.44,.14-.45,.58-.7,1.32-1.01,.58-.26,1.36-.54,1.85-1.25,.81,0,1.3-.6,1.49-.89,.27-.33,.24-.35,.5-.36h.06c.29,.02,.57-.16,.66-.44,.48-1.74,2.87-2.07,5.2-2.87l.27-.2c.8-.99,2.05-1.71,3.15-2.75,.44,0,.83-.31,.96-.54,.07-.09,.11-.17,.14-.23,1.9-.46,2.29-2,3.32-2.14,.16-.04,.31-.15,.39-.29,.09-.15,.11-.32,.07-.49-.02-.04-.02-.07-.02-.1,.12-.04,.37-.11,.65-.26,.94-.73,.97-1.35,1.19-1.22,.05,0,.12,0,.22,.04,.31,.09,.63-.05,.77-.34,.05-.25,.71-.44,1.61-.6,.27-.06,.47-.28,.5-.56l.02-.02c.08-.05,.32-.07,.6-.09,.29-.01,.54-.23,.59-.52-.11-.15,.38-.19,.83-.85h2.21c1.16,1.28,2.72,2.24,4.85,2.53,.07,.25,.28,.45,.55,.47,1.67,.16,3.37,.3,5.23,.3h.8c.09,.21,.29,.37,.54,.38,3.33,.23,6.18,.57,6.65,2.79,.04,.17,.15,.31,.29,.4,.11,.07,.22,.09,.34,.09,.01,.02,.03,.04,.04,.05,0,.25,0,.5,0,.75,0,2.17-.33,4.08-.33,6.39,0,.27,0,.56,.01,.86-.13,.1-.24,.22-.28,.35-.13,.29-.15,.52-.16,.68-.13,0-.25,.04-.35,.11-.15,.1-.25,.26-.27,.45-.07,1.23-1.47,1.38-3.32,1.77-.23,.05-.41,.22-.48,.45-.56,.13-.97,.5-1.23,.73-.35,.3-.47,.42-.88,.44-.3,0-.57,.21-.62,.52-.02,.04,.02,.04-.24,.15-.2,.07-.51,.12-.84,.26-1.38-.3-2.6-.58-2.9-1.26-.12-.21-.33-.34-.57-.34h-.12c-1.23,.06-1.27-1.05-2.24-2.31,0-.14,0-.28,0-.42-.02-.68-.05-1.45-.56-2.04v-.05c0-.17-.07-.33-.19-.45-.12-.12-.28-.19-.46-.19h-.41c-.27,0-.51,.17-.61,.43-.05,.13-.05,.23-.05,.29-.01,.12,.03,.23,.08,.34-.09,.05-.15,.13-.21,.21-.02,0-.03-.02-.04-.02-.14-.02-.28-.05-.41-.07,.01-.04,.01-.08,0-.11,0-.14-.03-.25-.07-.37-.07-.18-.22-.33-.4-.39-.15-.05-.29-.06-.42-.06-.04,0-.05,0-.09,0v-.02c0-.17-.08-.34-.19-.46-.12-.12-.29-.19-.46-.19h-.41c-.17,0-.33,.07-.46,.19-.06,.06-.06,.14-.09,.21-.18,0-.34,.08-.46,.2-.37,.38-.76,.76-1.12,1.25-.16,.1-.61,.34-.78,.86l-.12,.05c-.48,.52-.36,.96-.43,1.19,0,.01,0,.02,0,.03-.1,.03-.2,.09-.28,.17-.12,.12-.18,.28-.18,.46v1.64c0,.18,.08,.36,.22,.48,.04,.03,.09,.07,.14,.09h0c.09,1.25,.68,1.51,.6,1.96v.06c0,.27,.17,.52,.43,.61,.27,.07,.44,.37,.67,.95,.19,.45,.38,1.08,.95,1.52,.1,.67,.63,1.07,.88,1.23,.33,.25,.32,.2,.34,.42,0,.03,0,.07,0,.1-.01,.18,.04,.36,.15,.49,.12,.14,.28,.21,.45,.22,.52-.1,.75,.8,2.18,.99,.03,.09,.1,.17,.17,.23,.14,.12,.34,.17,.53,.14,.09-.01,.16-.02,.25-.02,.46-.03,.83,.31,1.8,.35,.05,0,.09,0,.13,0,.54,.58,1.35,.68,2.06,.68,1.05,0,2.17-.25,2.81-.31,.17-.02,.34-.11,.44-.25,.03-.03,.05-.07,.07-.1,.31,.03,.6,.04,.87,.04,2.72-.03,4.17-1.17,6.25-1.33,.17-.02,.33-.1,.44-.23,.06-.07,.1-.15,.13-.24,1.63-.28,2.39-1.33,3.39-1.61,.26-.08,.45-.33,.45-.61v-.03h.04c.2,0,.4-.1,.51-.26,.07-.09,.11-.19,.12-.3,.17,.01,.34-.04,.47-.15,.14-.12,.22-.29,.22-.48v-.04h.04c.2,0,.39-.09,.51-.24,.09-.13,.15-.28,.13-.44,.31,.02,.59-.18,.66-.5,.02-.07,.03-.17,.03-.25v-.07c1.28-.52,2.51-1.45,2.79-3.15,.25-.07,.45-.3,.47-.57,.17-2.33,.57-4.79,.57-7.32,0-1.15-.08-2.32-.31-3.49-.17-.76-.21-1.48-.21-2.24,0-1,.08-2.04,.08-3.18,0-.68-.03-1.41-.13-2.18-.04-.28-.26-.5-.54-.55h0s-.09-.37-.15-.83c-.05-.31-.32-.54-.63-.54h-.04v-.04c0-.31-.23-.58-.53-.63-.89-.15-1.13-.23-1.1-.39-.04-.33-.33-.59-.66-.58-.1,0-.19,0-.25,0-.26,0-.44-.04-.47-.07h.02c-.02-.3-.22-.53-.49-.6-.1-.03-.18-.03-.19-.03-.87,.03-1.48-.41-2.63-.53-.03-.09-.09-.17-.17-.25-.13-.12-.3-.19-.48-.17-.16,.01-.31,.02-.45,.02-.99,0-1.78-.33-3.06-.34h-.1c-.1-.19-.29-.33-.52-.36-.47-.04-.94-.06-1.44-.06-1.35,0-2.78,.11-4.06,.11-1.62,.01-2.87-.21-3.5-.79,.14-.21,.2-.46,.18-.65-.02-.23-.06-.44-.13-.64,.13-.14,.22-.28,.27-.36,.13-.18,.11-.17,.13-.17h.05s.06,0,.13,.01c.33,.07,.65-.13,.74-.46,.02-.11,.03-.19,.03-.26,.41-.14,.65-.5,.7-.62,.02-.03,.03-.05,.04-.06,.01,0,.03,0,.06,.01,.18,.05,.36,.03,.52-.07,.15-.09,.26-.24,.29-.42,.02-.08,.03-.16,.03-.24v-.02c.51-.17,.82-.54,.97-.75,.26-.33,.27-.36,.47-.38,.31-.03,.56-.26,.6-.57,.03-1.05,1.15-1.25,2.05-2.49,.89-.22,1.58-.94,1.73-1.88,1.11-.9,1.44-2.19,2.09-2.73,.61-.08,1.23-.17,1.8-.43,.19,.07,.39,.09,.57,.09,.71-.02,1.36-.26,1.95-.25,.16,0,.32,.01,.47,.05,.33,.09,.68-.11,.78-.44h.03c.24-.21,1.26,.13,1.95-.61,.05,0,.09,0,.13,0,1.29-.07,1.62-.66,2.2-.6,.05,0,.11,0,.17,0,.18,.02,.37-.04,.5-.16,.13-.12,.2-.29,.2-.48v-.05s.06,0,.11,0c.03,0,.08,0,.14,0,.22,.03,.44-.07,.58-.25,.02-.03,.05-.07,.07-.11,.11-.01,.25-.04,.41-.11,.97-.77,.86-1.29,1.13-1.17,.02,0,.06,0,.1,.01,.36,.05,.68-.19,.73-.54,.05-.33,.08-.63,.13-.76,0-.03,.01-.05,.02-.07,.26-.05,.47-.25,.53-.51,.04-.23,.07-.46,.07-.67-.03-1.01-.47-1.45-.48-1.84-.04-.33-.31-.57-.64-.57"/><path class="cls-4" d="M225.11,30.89c.28-.33,.26-.36,.55-.38,.05,0,.13,0,.22,.03,.24,.04,.5-.06,.64-.27,.6-.86,1.31-1.47,2.38-1.8,.18-.05,.32-.18,.4-.35,.32-.84,.48-1.59,.69-1.61,.19-.11,.32-.32,.32-.56v-1.37c0-.21-.11-.42-.28-.53-.05-.03-.11-.06-.16-.09,0,0,0-.01,0-.02,0-.13-.14-.29-.31-.42-.07-.18-.18-.31-.22-.36h0s0-.02,0-.03c.07-.22,.01-.46-.14-.63-.35-.32-.67-.38-.94-.4-.06-.43-.4-.72-.53-.79,0-.15-.04-.3-.14-.42-.12-.15-.31-.24-.5-.24h-.29c-.05-.05-.08-.13-.14-.15-.24-.14-.43-.14-.59-.15-.18,0-.36,.03-.49,.04-.05-.07-.12-.14-.2-.19-.22-.13-.5-.12-.71,.02-.14,.28-1.3,.03-2.06,.94-1.48,.58-1.92,1.68-2.88,1.82-.23,.05-.42,.23-.48,.46-.04,.24-.32,.4-1.09,.49-.31,.03-.55,.29-.57,.6h.02s-.15,.07-.36,.07c-.19,0-.36,.09-.48,.23-.62,.79-.89,1.31-1.63,1.41-.19,.03-.37,.14-.46,.3-.15,.43-1.41,.58-2.77,.64-.19,.02-.37,.12-.48,.28-.23,.37-.24,.66-.27,.82-.13,.03-.26,.1-.36,.2-.12,.13-.18,.32-.16,.5,.02,.16,.03,.32,.03,.48,.01,.86-.33,1.53-.34,2.71,0,.2,0,.42,.03,.64l.18,.38c.79,.74,1.52,1.15,1.78,1.82,.07,.2,.25,.35,.45,.4,.88,.19,1.42,.68,1.93,1.38l.33,.24c.56,.18,1.14,.27,1.72,.27h.02c1.73,0,3.47-.86,3.94-2.57,1.07-.9,1.22-1.86,2.09-1.9,.32-.04,.55-.3,.56-.62h0c.07-.05,.38-.15,.61-.51,.6-.14,.98-.59,1.15-.84"/><path class="cls-4" d="M245.3,54.6c.2-.01,.55-.05,.89-.51l.05-.13c.03-.09,.05-.19,.05-.33,.02-.16-.07-.39-.21-.54,.07-.18,.11-.36,.12-.5,0-.01,.01-.04,.01-.06,.11,0,.21-.03,.32-.07,.18-.07,.31-.22,.38-.4,.06-.03,.13-.05,.19-.1,.15-.11,.24-.29,.25-.47,.06-1.03,.15-1.72,.15-2.51,0-.55-.04-1.14-.16-1.87-.04-.21-.17-.4-.37-.48-.24-.11-.48-.17-.7-.23h0c0-.15-.02-.25-.06-.36-.05-.13-.14-.25-.25-.32-.05-.21-.19-.38-.38-.46-.1-.04-.23-.09-.4-.09-.08-.01-.18,0-.27,.05-.1-.14-.25-.25-.43-.27-.46-.08-.9-.09-1.21-.15-.32-.07-.35-.13-.35-.13-.08-.19-.24-.34-.44-.4-.04,0-.12-.02-.2-.02-.2,0-.36,.06-.49,.15-.12-.1-.27-.15-.44-.15-.43,0-.84,.01-1.24,.01-2.91,0-5.53-.33-8.53-.33-.6,0-1.2,.01-1.84,.04-.18,.01-.36,.11-.48,.25-.02,0-.06,.01-.12,.01-.13,0-.32-.05-.43-.11-.04-.03-.07-.05-.09-.06-.06-.29-.31-.5-.6-.51-.41-.04-.43-.12-.66-.61-.13-.28-.23-.66-.44-1.05,.08-.13,.15-.28,.13-.41,0-.18-.05-.3-.1-.42-.07-.17-.21-.29-.39-.36-.01-.05-.02-.14-.02-.25,0-.31,.07-.75,.07-1.19,0-.26-.01-.59-.17-.9,.09-.12,.17-.29,.17-.5,0-.07-.01-.16-.03-.24-.04-.16-.13-.3-.27-.39,0-.03,0-.08,0-.13,0-.11,0-.24,.02-.39,0-.28-.16-.54-.42-.64-.09-.03-.22-.07-.37-.07h-.04c-.06-.08-.14-.13-.23-.17-.17-.08-.37-.08-.54,0-.62,.28-1.05,.7-1.42,1.09-.18,.18-.23,.46-.13,.7,.47,.9,.04,2.87,.66,4.38-.02,.03-.04,.05-.05,.08-.15,.26-.15,.48-.16,.67,0,.31,.05,.6,.07,.78-.45,.31-.74,.74-.94,1.19-.94,.17-1.95,.24-2.98,.24-2.21,0-4.57-.28-6.79-.32-.16-.19-.37-.32-.54-.37-.48-.13-.88-.09-1.11-.13,0,0-.01,0-.02,0-.01-.14-.07-.27-.17-.38-.12-.13-.29-.21-.48-.21h-.72c-.36-.46-.88-.63-1.23-.77-.48-.18-.68-.31-.72-.45-.08-.24-.3-.4-.56-.42-1.11-.08-1.6-.16-2.21-.16-.45,0-.9,.05-1.62,.17l-.41,.25c-.59,.81-.93,1.58-1.46,1.89l-.27,.34c-.06,.18-.06,.34-.06,.46,0,.33,.06,.64,.06,.83-.14,.08-.24,.21-.28,.37-.07,.23,0,.48,.18,.64,.01,.07,.04,.27,.08,.52,.02,.19,.13,.53,.4,.76,.07,1.36,.48,2.83,1.92,3.28,.05,.29,.31,.52,.61,.53,.38,0,.71,.03,.88,.08,.18,.07,.11,.04,.14,.09,.05,.25,.25,.44,.51,.49,.88,.15,1.43,.33,1.44,.54,.1,.29,.4,.47,.7,.42,.14-.02,.27-.03,.39-.03,.68-.02,1.22,.32,2.29,.34h.11c.33,.42,.87,.51,1.09,.56,.13,.03,.23,.06,.29,.08h0c0,.21,.07,.4,.21,.53,.15,.13,.34,.18,.53,.15,.04,0,.07,0,.11,0,.22,.02,.17,.02,.44,.36,.14,.23,.48,.68,1.05,.84,.07,.24,.27,.42,.53,.46,.74,.15,.94,.34,1.09,1.08,.03,.24,.19,.43,.4,.52,.03,.92,.39,1.71,1.02,2.2,.56,.44,1.25,.63,2.02,.7,.3,.5,.91,.68,1.37,.7,.26,.51,.75,.71,1.05,.83v.16c0,.31,.22,.57,.52,.64,.14,.04,.13,0,.17,.43,0,.24-.05,.54-.12,.83-.05,0-.09,0-.14,0-.18,0-.32,.05-.45,.1-.18,.07-.31,.23-.37,.41,0,.09-.23,.25-1.02,.25h-.18c-.01-.09-.04-.21-.11-.34-.11-.24-.46-.41-.68-.39-.13,0-.23,.03-.31,.05l-.21,.11c-.75,.6-1.29,1.21-1.96,1.58l-.31,.38c-.04,.19,0,.2-.02,.2-.02,.6-.25,.68-.98,1.03-.22,.09-.37,.32-.38,.57-.01,.81-.31,1.5-.32,2.63,0,.23,.01,.48,.05,.75,.03,.3,.29,.54,.6,.55h.09s.01,0,.02,0c.05,.15,.16,.27,.31,.35,.28,.14,.62,.06,.81-.19,.09-.12,.1-.09,.1-.11,0,0,0-.01,.09,.11,.17,.23,.48,.31,.74,.22,.23-.09,.38-.29,.41-.51,1.04-.39,1.7-1.15,2.1-2.04,.16,0,.32-.07,.44-.19,.06-.06,.07-.15,.09-.23h1.06c.11,.17,.27,.31,.4,.33,.08,.03,.15,.05,.22,.06-.01,1.92-.01,3.92-.01,5.92,0,.19,.08,.36,.22,.49,.04,.04,.1,.08,.16,.1,0,.2-.02,.38-.02,.57,0,2.13,.59,3.55,.59,5.4,0,.27,.18,.51,.43,.6,.02,0,.06,0,.13,.27,.06,.26,.07,.68,.12,1.11,.04,.26,.23,.48,.49,.54,.05,.03,.02-.03,.1,.15,.05,.17,.07,.5,.08,.87,0,.27,.18,.5,.44,.6,.31,.11,.44,.25,.56,.56,.08,.24,.31,.4,.57,.42,.1,0,.21,.02,.33,.02h.09c.62,0,1.35-.28,1.59-.99v-.05c.33-.38,.35-.84,.35-1.21,0-.59-.11-1.22-.1-1.65,0-.18,.03-.32,.05-.38,.25-.09,.42-.33,.42-.61v-1.37c0-.19-.08-.37-.22-.48-.09-.09-.21-.13-.33-.15,.16-.54,.21-1.11,.21-1.68,0-1.53-.37-3.12-.37-4.38,0-.84,.16-1.47,.54-1.86l.09-.21c.21,0,.4-.11,.52-.29,.17-.23,.39-.31,.92-.33,.47,0,1.06,.09,1.68,.1,.61,.03,1.41-.19,1.87-.87,.17-.03,.32-.1,.44-.24,.11-.15,.14-.34,.11-.52,0-.04,.01-.15,.02-.26,.25-.11,.43-.35,.39-.64-.02-.19-.09-.34-.19-.46,.07-.07,.11-.13,.13-.2,0-.02,.02-.04,.02-.06,.08-.04,.13-.09,.19-.17,.17-.23,.17-.55,0-.78,.07-.16,.15-.41,.13-.68v-.03c0-.17-.07-.33-.19-.45-.02-.02-.04-.04-.06-.05,0-.09-.02-.2-.06-.35-.02-.18-.25-.44-.51-.56-.24-.42-.7-.62-.88-.66-.1-.04-.17-.07-.2-.09,0-.17-.06-.34-.17-.47-.13-.13-.3-.2-.48-.19-.07,0-.12,0-.13,0-.31,.07-.52-.31-1.26-.48v-.11c0-.33-.26-.61-.59-.64-.32,.11-.44-.52-1.32-.9,0-.07,.01-.14,.01-.22,0-.13,0-.28-.1-.48,.09-.32,.08-.64,.09-.94,0-.13,0-.25,0-.38,1.68-.93,2.76-2.07,4.63-2.34,.24-.04,.43-.21,.51-.42,1.71-.12,2.75-.98,3.67-1.61h.09c1.46-.03,2.05-.63,2.99-.59,.14,0,.29,0,.46,.03,.27,.03,.56-.11,.68-.37,0-.19,.87-.35,2.02-.31,.19,0,.37-.1,.5-.25,.05-.07,.1-.15,.11-.24"/><path class="cls-4" d="M291.55,52.66c-.06-.23-.24-.42-.48-.48-.05-.03-.03,.03-.1-.15-.06-.17-.08-.51-.08-.88-.01-.31-.25-.58-.56-.62-.75-1.84-2.4-2.02-2.45-3.17-.05-.26-.26-.47-.52-.52,0,.01-.02-.01-.11-.09-.02-.3-.22-.54-.33-.64-.05-.25-.24-.45-.5-.5-1.3-.26-2.52-.78-4.16-.93-.03-.09-.08-.19-.15-.25-.12-.12-.29-.19-.46-.19h-2.19c-.16,0-.33,.07-.45,.18-.06,.06-.11,.13-.14,.21-2.77,.04-3.98,1.33-6.2,1.29-.24,0-.5-.01-.78-.05-.18-.01-.36,.05-.5,.17-.06,.05-.11,.13-.15,.21-.48,.05-.82,.33-.96,.47-.19,.17-.14,.14-.26,.15-.04,0-.11,0-.22-.03-.27-.07-.54,.05-.7,.27-.28,.53-1.3,.78-2.66,.8-.24-.31-.65-.44-.77-.45,0,0-.02,0-.03,0-.04-.15-.13-.28-.25-.37-.95-.55-1.22-2.49-3.01-3.34v-.1c0-.33-.24-.6-.56-.64-.56-.05-.96-.43-1.84-.67l-.41,.03c-.3,.13-.58,.17-.91,.17-.6,0-1.36-.18-2.29-.19-.51,0-1.07,.06-1.66,.27-.2,.07-.36,.24-.42,.45-.07,.24-.2,.35-.65,.5-.25,.07-.43,.28-.47,.53-.14,1.15-.54,2.22-.54,3.74-.64,.56-.93,1.27-1.26,1.8-.84,.28-1.6,.89-1.9,1.84-.54,.1-.99,.48-1.15,.92-.05,.09-.06,.18-.06,.28-.02,.13,.04,.28,.13,.42-.7,1-.5,2.31-.9,2.52-.18,.19-.22,.48-.11,.72,.75,1.49,1.51,2.18,1.5,3.49,0,.3-.03,.64-.13,1.05-1.05,.9-.76,2.35-.92,3.19-.72,.44-.77,1.25-.78,1.89-.09,.03-.17,.09-.23,.15-.12,.13-.19,.3-.17,.48,.02,.39,.03,.77,.03,1.13,0,1.47-.15,2.8-.27,4.22-.05,.03-.08,.07-.12,.11-.09,0-.18,.03-.27,.08-.16,.09-.28,.25-.32,.43-.16,.76-.19,1.5-.19,2.19,0,.59,.02,1.15,.02,1.68,0,.99-.08,1.85-.46,2.67-.06,.12-.11,.27-.11,.43-.03,.23,.2,.59,.42,.68v.11c-.02,1.39,.77,2.21,1.41,2.73,.66,.57,1.1,.92,1.23,1.62,.03,.21,.17,.38,.37,.47,.46,.21,1.07,.6,1.99,.63,.04,.09,.1,.17,.18,.24,.15,.12,.34,.17,.53,.13,.14-.03,.28-.04,.42-.04,1.07-.05,1.91,.94,3.46,1.03,.37,0,.75-.08,1.16-.26,1.33,.26,3.02,.5,4.64,.5,1.19,0,2.35-.13,3.36-.5,.86,.17,2.1,.51,3.3,.51,.43,0,.87-.04,1.29-.17,.31,.17,.65,.21,.94,.21,.57,0,1.1-.14,1.49-.3,1.31,.09,2.92,.2,4.58,.2,1.74,0,3.54-.12,5.15-.5,.2-.05,.36-.2,.44-.38,.71-.01,1.41-.19,1.89-.69,.79-.07,1.04-.36,1.33-.32,.07,0,.16,.01,.27,.04,.25,.05,.52-.06,.66-.27,.61-.97,1.91-1.61,2.73-3.02,1.34-.23,1.91-1.49,2-2.57,.14-1.07,.09-2.24,.21-3.14,.53-.3,.63-.99,.63-1.22,0-.12,.03-.22,.05-.29,.27-.07,.47-.32,.48-.62,.06-4.41,.47-7.42,.47-10.67,0-1.15-.05-2.33-.18-3.6,.23-.8,.31-1.7,.32-2.6,0-1.76-.32-3.59-.62-4.84m-9.33,14.57c0,1.05-.02,2.12-.11,3.25-.2,.07-.37,.25-.41,.48-.11,.66-.05,1.37-.11,1.8-.12,0-.34,.03-.57,.5-.34,1.23-.11,2.57-.47,3.1,0,0-.03-.02-.03-.02-.27,.18-.9,.44-1.34,.81-.26,.23-.88,.6-1.49,.59-.29,0-.58-.07-.9-.25-.16-.09-.35-.11-.52-.06-.98,.32-2.31,.43-3.67,.53-.28,.02-.48,.19-.59,.37-.2,.02-.38,.05-.52,.05-.06-.18-.21-.33-.41-.4-.27-.09-.57,0-.72,.24h0s-.07,.05-.12,.08c-.02-.05-.06-.09-.08-.13-.11-.13-.27-.21-.44-.22-.07-.01-.12-.01-.15-.01-.18,0-.41-.01-.65-.01-.25-.02-.77,.03-1.11,.38h-.11c-.56,0-1.13,.11-1.52,.1-.13,0-.22,0-.28-.02-.09-.26-.33-.43-.61-.43h-9.14c-.8-.86-1.22-2.14-1.22-3.72,0-.5,.05-1.04,.13-1.6,.13-.07,.23-.17,.31-.25,.2-.05,.38-.21,.46-.43,.02-.09,.05-.19,.05-.32,0-.26-.13-.44-.27-.56,.21-1.01,.99-1.79,1.16-3.33,.11-.04,.21-.1,.28-.19,.12-.14,.18-.32,.16-.5-.03-.19-.04-.36-.04-.52-.02-1.19,.49-2.05,.57-3.52,.57-.4,.65-1.08,.68-1.62,.49-.36,.59-.97,.68-1.28,.11-.52,.19-.54,.2-.54,.29-.07,.5-.33,.5-.62v-.56c.25,0,.71-.03,1.06-.42h.04c1.6-.03,2.42-.59,3.61-.57,.1,0,.21,0,.32,.01h.16c.3-.08,.46-.25,.55-.41,.2,0,.41,.01,.61,.01,.98-.03,2.05,0,2.82-.7,1.68-.06,2.96-.46,4.41-.54,.29-.03,.49-.21,.6-.39,.77-.07,1.03-.37,1.32-.32,.05,0,.14,0,.23,.02h.21c.3-.03,.5-.26,.59-.46,.91-.12,1.85-.28,2.66-.28,.4,0,.75,.04,1.06,.13,0,.09,.02,.22,.2,.43,.27,.27,.48,.19,.57,.21,.11,0,.2-.01,.27-.03,.03,.06,.08,.14,.12,.24,.07,.16,.26,.42,.55,.58,.26,1.35,.96,1.89,.9,2.93,0,.1,0,.2,0,.3,0,.07,0,.1,0,.1-.01,.07,0,.13,.02,.21,0,0,0,.02,0,.03-.4,1.86-.45,3.62-.45,5.4,0,.77,.01,1.54,.01,2.33m-.84-12.78l-.1,.14-.27,.38,.38-.52Z"/><path class="cls-4" d="M376.51,61.99h-.68c-.07,0-.15,.02-.23,.05-.03,0-.05-.02-.08-.03-.03-.19-.13-.37-.31-.47-.8-.47-1.92-.75-3.05-.76-.94,0-1.95,.21-2.62,.92-.34,.03-.61,.24-.7,.31v.03s0,0-.06-.01c-.21-.07-.43-.02-.59,.11-.16,.13-.25,.34-.23,.54v.09c-.04,.08,.01,.03-.08,.08-.17,.06-.56,.07-.98,.11-.3,.03-.54,.25-.58,.55-.19,.04-.82,.02-1.24,.58-1.49,.19-2.34,1.06-3.11,1.61-1.27,.05-2.08,.45-3,.54-.33,.03-.57,.31-.57,.64,0,.02,0,.03,0,.05-.03,0-.06,0-.09,0-.05,0-.1,0-.15-.01-.34-.03-.64,.19-.7,.52,0,.28-.46,.44-1.61,.43-.06,0-.08,0-.08,0-.3,0-.55,.2-.62,.48,0,.08-.14,.21-.88,.23-.46,0-1-.05-1.54-.05-.2,0-.39,0-.58,.03-.17,.02-.33,.11-.44,.25-.04,.06-.08,.11-.1,.18-.12,0-.27-.02-.44-.03-.11,0-.37,.03-.6,.15-1.19-.53-1.97-.78-1.96-1.99,0-.06,0-.12,0-.19,0-.17-.04-.33-.14-.45,.04-.15,.06-.29,.06-.42-.05-.99-.6-1.9-.56-2.42,0-.15,.03-.23,.08-.31,.13-.16,.18-.39,.12-.59-.19-.62-.41-1.55-.4-2.2,0-.28,.04-.51,.09-.6,.14-.28,.06-.62-.19-.8h.01c-.02-.06-.03-.19-.03-.35,0-.25,.03-.58,.03-.93,0-.34-.03-.9-.42-1.28,.02-.01,.03-.03,.05-.05,.14-.12,.32-.41,.35-.72,.02-.07,.03-.16,.04-.27,.03-.25-.23-.62-.45-.68-.07-2.56-.21-3.63-.27-6.27,0-.2-.1-.38-.26-.5,.06-.06,.12-.12,.15-.19,.13-.24,.13-.42,.13-.56,0-.19-.02-.33-.02-.4v-.19c-.08-.32-.24-.49-.4-.58-.02-2.47-.21-4.39-.21-6.37,0-.92,.04-1.87,.17-2.91,.52-.33,.63-.9,.68-1.31,1.66-.62,2.51-1.64,4.1-1.75,.34-.03,.59-.31,.59-.64v-.03h.05c.17,0,.33-.07,.45-.19,.12-.12,.19-.28,.19-.46v-.4c.35-.37,.5-.86,.54-1.35,.15-.07,.29-.16,.36-.32,.05-.09,.09-.21,.09-.38,0-.1-.04-.17-.07-.25,.02-.06,.04-.11,.04-.17v-1.37c0-.17-.08-.34-.19-.45-.12-.13-.28-.19-.45-.19h-.04s0-.06,0-.11c0-.03,0-.07,0-.13,.01-.18-.05-.36-.17-.5-.12-.13-.3-.21-.48-.21h-.22c-.21-.39-.55-.59-.8-.7-.17-.56-.68-.7-.98-.7-.04,0-.09,.01-.14,.02-.15-.17-.36-.29-.6-.23-.69,.15-1.22,.22-1.69,.22-.53,0-1.02-.07-1.62-.25-.66-1.98-.67-3.46-.82-5.93-.01-.23-.16-.45-.37-.54-.01,0-.11-.07-.16-.48-.05-.38-.05-.89-.17-1.41-.06-.25-.27-.44-.52-.48-.05-.01-.11-.01-.15-.01-.6,.02-.96,.22-1.07,.25-.01,0-.03-.02-.06-.05-.17-.17-.43-.24-.66-.17-.72,.29-.7,.95-.72,1.23,0,.16,.02,.3,.02,.41h0c-.24,.09-.42,.31-.44,.58v.17c0,1.74-.31,3.22-.31,5.12,0,.39,.01,.8,.05,1.21,.02,.19,.11,.35,.25,.46,0,.02,.02,.07,.02,.13,0,.13-.05,.31-.11,.43-.03,.04-.05,.07-.06,.08-.21,.05-.39,.2-.47,.4-.55,1.37-1.13,2.13-2.9,2.16h-.05c-.16,0-.32,.07-.45,.2-.02,.02-.05,.05-.06,.08-1.84-.63-2.6-2.27-2.76-4.91,.09-.03,.16-.09,.22-.15,.12-.13,.18-.31,.16-.49-.02-.21-.03-.39-.03-.56,0-.84,.17-1.46,.17-2.28,0-.38-.04-.78-.17-1.23-.07-.24-.27-.42-.5-.46-.02-.03-.04-.05-.06-.07-.05-.05-.11-.1-.17-.13-.53-1.49-1.46-2.06-1.57-3.2-.03-.19-.13-.36-.3-.46-.53-.34-.7-.86-.72-1.8,0-1.26,.42-2.98,.43-4.68,0-.42-.03-.84-.1-1.27-.03-.17-.13-.32-.27-.42-.68-.4-.71-.34-.67-.42,0-.18-.07-.36-.21-.48-.14-.12-.32-.18-.51-.16-.05,.01-.09,.01-.12,.01-.2,.05-.1-.13-.76-.82l-.4-.15c-.37,0-.7-.03-.87-.08-.18-.08-.12-.05-.15-.1-.07-.29-.32-.5-.62-.5-2.47,.09-3.01-2.23-5.97-2.78-.06-.12-.16-.22-.24-.28-.06-.2-.21-.37-.42-.44-.18-.06-.35-.07-.48-.07-.3,0-.56,.04-.76,.06-.07-.21-.24-.38-.46-.42-.25-.06-.5-.09-.71-.09-1.13,.06-1.44,.55-1.91,.49h-.09c-.26-.01-.51,.14-.62,.38-.36,1.02-.5,1.96-.79,2-.24,.12-.37,.38-.35,.65,.03,.15,.03,.3,.03,.42,.09,1.37-1.25,1.83-1.36,4.06,0,.13,0,.27,.02,.42-.02,.01-.04,.03-.05,.05-.19,.17-.27,.4-.28,.58-.03,.1-.05,.2-.05,.32,0,.15,.04,.27,.09,.38-.02,.05-.03,.1-.04,.15-.38,2.84-.6,5.85-.6,9.07,0,.62,0,1.25,.02,1.88-.22,.09-.37,.31-.38,.56,0,.17,0,.34,0,.49v.35c.03,1.07-.16,1.86-.38,1.92-.23,.15-.36,.42-.28,.69,.03,.13,.04,.27,.04,.4,.01,.52-.24,1.02-.27,1.74,0,.17,.03,.38,.1,.57-.19,.41-.19,.84-.2,1.23,0,.38,.03,.74,.03,1.06-.02,.72-.12,.78-.16,.78-.3,.05-.51,.31-.52,.62,0,.37-.04,.7-.09,.88-.08,.19-.04,.13-.09,.15-.29,.07-.51,.33-.51,.63v2.86c0,.21,.12,.42,.28,.54,.05,.03,.11,.06,.17,.08,0,.2-.05,.51-.07,.84-.07,.03-.13,.07-.19,.13-.13,.13-.19,.29-.19,.47,0,.06,0,.11,0,.15,.04,.64-.54,1.49-.58,2.61,0,.26,.05,.54,.15,.8-.07,.13-.13,.29-.13,.46,0,.06,.01,.12,.02,.17l.08,.23c.27,.46,.45,.97,.45,1.72,0,.3,.21,.56,.51,.62,.05,.03,.02-.04,.09,.15,.05,.17,.08,.51,.09,.88,0,.2,.09,.38,.26,.5,.74,.53,1.37,1.17,1.9,1.9,.12,.17,.3,.26,.5,.27,.21,0,.35,.05,.35,.06h-.02c.01,.35,.3,.63,.65,.62h.04c.47,.03,.52,.2,.87,.78,.23,.48,.74,1.3,1.75,1.42,.04,.07,.08,.15,.14,.21,.13,.12,.29,.19,.46,.19h1.64c.18,0,.36-.08,.48-.22,.05-.05,.1-.12,.12-.19,.93-.05,1.73-.41,2.23-1.03,2.91-.74,4.51-2.7,6.4-3.99,.15-.11,.24-.27,.27-.45,.07-1.53,1.96-2.05,2.18-4.6,.58-.41,.65-1.11,.67-1.66,.81-.55,1.05-1.03,1.83-1.01,.12,0,.26,.01,.44,.04,.19,.03,.4-.03,.54-.16,.07-.07,.12-.14,.16-.23,.25,0,.54,.01,.82,.01,1.61,0,3.11-.12,4.53-.31,.23-.03,.42-.18,.51-.39,.09,0,.18,0,.25,0,.25,0,.49-.03,.69-.03,.41,.64,.9,.94,1.1,1.28v2.6l.14,.4c.07,.06,.17,.42,.16,.92,0,.52-.07,1.16-.07,1.78,0,.22,0,.44,.04,.65,.03,.23,.18,.42,.39,.51-.01,.24-.01,.48-.01,.72,0,2.22,.34,4.03,.34,6.1,0,.37-.01,.75-.04,1.13,0,.2,.06,.39,.2,.52,.06,.05,.13,.1,.2,.13,0,.22,0,.46,0,.7,0,2.31,.13,4.51,.54,6.47-.11,.49-.14,1.03-.14,1.59,0,1.42,.2,3.06,.2,4.5,0,1.65-.29,2.87-1.02,3.28-.63,.19-1.44,.31-2.07,.9h-.36c-1.95,0-4.14,.16-6.18,.16-1,0-1.94-.04-2.79-.15l-.26,.02c-1.16,.34-2.91,.25-4.47,.52-.03-.03-.05-.06-.08-.09-.11-.12-.27-.19-.45-.19h-1.36c-.17,0-.33,.07-.46,.19-.06,.05-.1,.12-.13,.19-.26,0-.52,0-.77,0-2.17,0-4.08,.23-5.95,.23-.72,0-1.43-.03-2.15-.12-.06-.2-.19-.37-.38-.45-.11-.04-.24-.08-.39-.08-.13-.02-.28,.04-.41,.13-.29-.15-.6-.19-.77-.22-.17-.03-.32-.06-.38-.08-.09-.31-.4-.52-.73-.46-.13,.02-.23,.03-.32,.03-.46,.09-.69-.5-1.85-.62-.04-.07-.07-.13-.13-.19-.12-.11-.28-.18-.45-.18h-1.37c-.17,0-.34,.07-.46,.19-.04,.05-.08,.1-.12,.16h-.06c-1.6,0-2.6,1.32-2.6,2.67,0,.39,.07,.79,.23,1.18-.12,.13-.24,.32-.23,.58,0,.09,.01,.17,.03,.25l.12,.23c.47,.61,.78,.96,.82,1.69,.01,.28,.2,.52,.48,.6,1.45,.18,1.74,2.77,4.76,2.91,.03,.09,.09,.17,.16,.23,.15,.12,.33,.17,.51,.15,.23-.03,.47-.05,.68-.05,.92,0,1.77,.25,2.74,.26,.3,0,.63-.03,.96-.11,.12,.11,.28,.18,.45,.18h2.13c.03,.08,.09,.16,.15,.23,.13,.12,.3,.19,.48,.17h.25c1.36,0,2.47,.2,3.73,.21,.62,0,1.27-.05,1.98-.22,.18-.04,.33-.15,.42-.31,.21-.32,.36-.37,.81-.4,.54,0,1.31,.23,2.12,.31,.46,.03,.99,.06,1.51,.06s1.01-.02,1.48-.06c1.79-.18,3.56-.12,5.05-.27,.18-.02,.34-.11,.45-.25,.1-.13,.15-.27,.13-.43,.07-.02,.18-.03,.33-.02,.13,0,.29,0,.44,0,.05,.06,.08,.12,.14,.17,.15,.1,.34,.13,.52,.09,.06,0,.27,.04,.54,.05,.13,0,.3,0,.52-.13,.03-.02,.04-.05,.07-.07,.05,.05,.08,.12,.15,.14,.03,.09,.08,.17,.14,.24,.14,.15,.35,.23,.55,.21,.31-.04,.61-.06,.89-.06,1.76,.03,2.62,.65,3.31,1.68,.18,2.51,.55,4.76,.55,7.34,0,.38,0,.76-.02,1.14,0,.19,.07,.38,.2,.5,.08,.07,.15,.11,.24,.14,.02,.31,.03,.63,.03,.96,0,1.33-.14,2.82-.14,4.22,0,1.04,.08,2.02,.39,2.89,.12,.26,.27,.36,.39,.41,0,.13,0,.31,.06,.52,.03,.23,.4,.69,.84,.66,.16,0,.28-.05,.41-.1,.21,.38,.53,.69,.91,.9,.1,.06,.21,.09,.31,.09,.11,0,.22-.03,.32-.09,.13-.08,.2-.2,.26-.33h0s.07,.01,.16,.01c.32,0,.51-.17,.63-.35,.64-.15,1.05-.63,1.23-.96,.27-.44,.39-.6,.55-.63,.24-.07,.42-.26,.47-.51,.12-.73,.18-1.39,.18-2.01-.02-2.37-.76-3.93-.86-6.33,0-.17-.08-.33-.21-.44-.06-.06-.14-.11-.22-.13-.1-1.53-.53-2.65-.53-4.09,0-.05,0-.11,0-.18,0-.17-.06-.34-.18-.47-.09-.08-.18-.13-.29-.17-.11-.86-.19-1.72-.19-2.51,.09-2.33,.49-3.65,2.62-3.73,.19,0,.36-.08,.48-.22,.06-.06,.1-.13,.13-.21,1.01-.13,1.51-.59,2.23-.55,.1,0,.22,0,.35,.02,.2,.03,.4-.03,.53-.18,.08-.08,.14-.17,.18-.27,1.62-.25,2.02-1.29,3.07-1.19,.06,0,.13,0,.2,.01,.3,.02,.58-.16,.67-.44,0,0,0-.05,.27-.12,.26-.07,.67-.07,1.09-.13,.17-.02,.32-.1,.43-.24,.05-.05,.08-.11,.1-.17,1-.14,1.26-.63,1.68-.56,.05,0,.13,0,.21,.02,.2,.03,.4-.04,.54-.17,.09-.09,.15-.19,.17-.31,1.44-.33,1.7-1.29,2.6-1.19,.1,0,.22,.01,.36,.03,.26,.04,.52-.08,.65-.3,.45-1,2.63-1,3.82-2.73v-.02c.69-.17,1.11-.67,1.34-.99,.36-.43,.43-.56,.85-.59,.35,0,.63-.29,.63-.64v-.1c.12-.06,.23-.15,.29-.21,.15,0,.29-.05,.41-.14,.17-.12,.25-.3,.25-.5v-.03h.03c.26,0,.49-.15,.59-.39,.23-.54,.31-1.08,.31-1.58,0-.96-.23-1.8-.25-2.65,0-.35-.29-.63-.65-.63m-55.77,18.29l-.06-.04,.06,.04Z"/></g><g><path class="cls-5" d="M400.56,62.97c-.37,1.87-1.6,2.76-1.93,4.65,2.96,1.95,8.26,1.81,11.29,3.68,.65,1.17-1.4,1.49-1.81,2.43-.51,5.82-1.82,10.64-4.24,16.59-1.44,3.56-3.28,9.51-6.36,9.19-3.83-.41-1.04-3.94,.01-5.61,1.94-3.08,3.87-7.86,4.78-10.95-2.13-1.47-6.36-3.55-4.4-6.96,2.71,.04,3.17,2.11,5.17,2.8,1.6-1.08,1.23-4.36,2.29-6.05-1.52-1.47-4.57-1.58-7.19-2.05-2.83,1.48-2.65,14.58-7.45,13.89-4.59-.65,.92-9.94,2.07-12.78,1.8-4.38,3.53-12.35,7.76-8.84"/><path class="cls-5" d="M442.99,71.09c-.45,4.43-3.42,6.06-5.23,8.96,.38,3.02,3.53,13.92-.73,13.69-3.98-.2-.03-8.85-2.21-11.31-4.18,1.73-6.16,5.96-11.27,6.68-.16-.57-.82-.68-1.07-1.18,.38-3.06,3.8-4.22,6.19-5.85,2.22-1.49,4.84-3.16,6.7-4.96,2.15-2.07,4.2-7.97,7.61-6.04"/><path class="cls-5" d="M452.54,74.71c.12-2.26,3.8-2.64,6.68-3.79,2.56-1.03,8.63-4.64,9.11-1.08,.28,2.18-4.98,3.5-7.92,4.51-3.68,1.28-6.47,3.31-7.87,.36"/><path class="cls-5" d="M422.72,78.14c-6.76,.87,.94-7.05,0,0"/><path class="cls-5" d="M460.89,77.08c1.42,.39,.62,2.8,1.49,3.71,3.35,1.18,9.51-.41,9.38,2.74-.15,3.43-5.73,.73-9.3,.91-1.63,3.56,1.44,12.51-1.8,12.78-3.64,.31,.56-9.03-.46-12.62-3.15-1.62-11.82,.96-11.92-2.3-.1-3.02,8.11-1.42,11.58-1.63,1.03-.43,.32-2.8,1.03-3.58"/><path class="cls-5" d="M416.19,80.04c-1.16,1.96-4.24,.51-4.16-1.05,.15-2.38,4.53-2.27,4.16,1.05"/></g><g><path class="cls-1" d="M433.19,31.12c.04-.57-.19-.88-.16-1.45-.05-.01-.12,.01-.13-.05,.06-.31-.14-.38-.08-.7-.04,0-.12,0-.12-.05,.03-.44-.21-.64-.16-1.1-.06,0-.13,.01-.13-.04,0-.28-.03-.54-.21-.66,.05-.38-.14-.51-.07-.9-.15-.07-.3-.14-.3-.36-.22-.03-.22-.27-.29-.46-.17-.02-.22-.14-.21-.31-.28,0-.16-.37-.42-.4v-.16c-.18-.07-.32-.19-.37-.39-.25-.09-.42-.24-.51-.47-.25-.09-.41-.24-.5-.47-.21-.05-.33-.19-.42-.36h-.2c-.13-.29-.46-.38-.58-.67h-.21c-.19-.36-.65-.47-.8-.86-.39,.05-.34-.31-.63-.36-.11-.2-.27-.36-.5-.48-.1-.2-.28-.36-.5-.46-.19-.36-.63-.53-.8-.86h-.21c-.05-.23-.35-.22-.38-.47-.26,.02-.34-.13-.42-.28-.18,.02-.29-.04-.29-.19-.2,.02-.3-.03-.3-.19-.27,.05-.24-.19-.5-.16v-.11c-.18-.03-.39-.03-.41-.2-.27,.02-.33-.16-.58-.16v-.11c-.19-.03-.4-.03-.42-.19-.26,.01-.33-.16-.58-.16v-.12c-.3,0-.44-.15-.71-.15v-.11c-.19-.03-.4-.03-.42-.19-.28,0-.43-.15-.71-.16v-.11c-.28,.05-.31-.13-.58-.09v-.11c-.41,.02-.56-.21-1.01-.15v-.12c-.42,.05-.57-.13-1-.07v-.13c-.27,.02-.45-.06-.49-.27-.29-.09-.51-.09-.79,0,.04,.16-.15,.1-.17,.19-.63,.05-1.24,.11-1.97,.07,.05,.2-.56,.17-.58,.05,.41-.03,.64-.21,1.09-.19-.08-.25,.38,.01,.34-.21-.62-.03-1.09,.06-1.63,.09-.01,.05,0,.11-.04,.12-.41-.01-.65,.14-1.05,.15-.01,.05,0,.11-.04,.13-.24,0-.42,.05-.5,.19-.53,.01-.7,.37-1.25,.36,0,.05,0,.11-.04,.11-.4-.02-.54,.2-.96,.16-.05,.17-.27,.18-.5,.19,0,.05,0,.11-.04,.11-.37-.05-.4,.22-.79,.15-.06,.31-.63,.11-.7,.4-.2-.03-.17,.13-.38,.08,0,.05,0,.11-.05,.11-.27,0-.35,.21-.66,.16-.02,.22-.39,.11-.42,.31-.38-.05-.41,.23-.8,.16,0,.05,.02,.11-.05,.11-.23-.05-.21,.13-.44,.08-.07,.3-.64,.11-.71,.4-.2-.05-.16,.13-.38,.08-.03,.22-.27,.23-.5,.27,0,.16-.1,.21-.29,.19-.02,.24-.4,.17-.47,.39h-.16c-.05,.11-.12,.21-.21,.27-.33-.04-.23,.33-.59,.27-.12,.27-.4,.36-.54,.6h-.16c-.25,.36-.64,.59-.92,.94h-.17c.06,.17-.13,.11-.08,.27-.37,.14-.49,.51-.84,.66,.02,.34-.38,.29-.38,.63-.16,.06-.29,.17-.29,.39-.39,.05-.29,.56-.62,.67,.02,.17-.05,.27-.2,.27,.01,.26-.17,.32-.17,.56h-.13c-.03,.17-.02,.36-.2,.39,.02,.25-.18,.31-.17,.55h-.12c.02,.21-.15,.23-.09,.48h-.12c0,.3-.2,.44-.16,.78-.3-.03-.07,.46-.34,.47,.04,.36-.23,.43-.17,.82-.21,.06-.2,.33-.2,.59h-.12c.03,.35-.2,.47-.17,.82h-.12c.06,.33-.13,.42-.08,.74h-.13c.01,.51-.2,.81-.17,1.33h-.12v1.81s.11,0,.12,.04c.02,.28,.11,.5,.3,.62v.64h-.13v3.57s.11,0,.13,.04c-.07,.52,.09,.83,.08,1.3,.04,0,.11-.01,.12,.03,.04,.5,.16,.92,.17,1.45,.04,0,.11,0,.12,.04v.15c.32,.05,.25,.47,.5,.59-.02,.25,.06,.38,.21,.47,0,.23,.18,.29,.16,.54,.05,.01,.12,0,.12,.04,.11,.25,.09,.64,.09,.99,.04,0,.11,0,.12,.04-.04,.64,.14,1.07,.17,1.64,.04,0,.12,0,.12,.04-.05,.33,.14,.42,.08,.75,.19,.03,.21,.22,.21,.44,.11,.03,.09,.17,.09,.31,.03,0,.11,0,.12,.04,0,.17,.08,.29,.21,.36,0,.23,.18,.29,.16,.54,.16,0,.22,.11,.2,.28,.2-.06,.09,.13,.12,.19,.02,.04,.29,.21,.29,.23-.05,.15,.14,.08,.09,.24,.22,.1,.38,.26,.5,.47,.2,.08,.32,.21,.41,.31,.05,.05,.05,.12,.1,.15,.07,.07,.26,.03,.2,.19,.24,0,.35,.11,.41,.27,.24,0,.31,.13,.38,.27,.22-.05,.2,.13,.42,.08,0,.15,.11,.21,.31,.19-.03,.31,.45,.14,.49,.4,.18-.02,.29,.04,.29,.19,.31-.01,.37,.2,.7,.15v.11c.46,.03,.57,.39,1.09,.36v.11c.24,0,.47,0,.5,.19,.41-.01,.62,.17,1,.16v.11c.37-.05,.48,.13,.84,.08v.12c.62-.04,.92,.23,1.58,.15v.12c.53-.03,.86,.13,1.43,.07v.12c.23,.01,.54-.04,.67,.08,.24,0,.47,0,.5,.19,.22-.05,.18,.13,.41,.08,.05,.23,.3,.26,.58,.27v.12h.72v.19c.25,.04,.13,.43,.5,.36v.11c.2-.01,.4-.01,.49,.07,.03-.18,.49,.04,.47-.19h.24v.11c.9,.2,1.8,.13,2.73,0,0-.05-.01-.11,.03-.11,.26,.03,.27-.14,.54-.09,.01-.05,0-.11,.06-.12,.24-.01,.39-.13,.65-.15,.03-.17,.24-.17,.43-.19,.04-.26,.48-.15,.53-.4,.17,.01,.14-.14,.34-.08,.02-.24,.4-.17,.46-.4,.2,.04,.2-.11,.29-.19,.22-.03,.42-.1,.49-.27h.18c.09-.29,.49-.29,.62-.55h.17c.02-.19,.17-.27,.42-.27,0-.16,.09-.22,.28-.2,.02-.22,.3-.19,.34-.38h.16c.07-.22,.34-.27,.42-.48,.19,.06,.13-.11,.3-.07,0-.23,.27-.23,.33-.4h.17c.17-.23,.33-.48,.67-.55,.05-.15,.17-.23,.33-.27,.09-.23,.26-.39,.5-.47,.12-.23,.25-.44,.59-.48,.12-.29,.46-.4,.63-.67h.16c0-.16,.25-.21,.29-.27,.1-.14-.01-.04,.13-.11,.05-.03,.09-.17,.12-.19,.08-.09,.27-.12,.25-.28,.16,.06,.08-.1,.21-.08v-.19c.25,.01,.16-.3,.41-.28-.03-.15,.14-.1,.09-.27,.17-.06,.3-.17,.3-.4,.22,.05,.12-.23,.33-.19-.07-.27,.24-.2,.16-.46,.35-.07,.31-.48,.63-.56-.02-.17,.04-.27,.21-.27-.03-.24,.13-.32,.29-.4-.02-.17,.04-.27,.2-.27-.01-.17,.05-.27,.21-.27,.02-.07-.02-.14,0-.2,0,0,.15-.07,.17-.11,.04-.11-.04-.21,.12-.16,0-.17,.04-.31,.21-.31,.06-.19,.07-.44,.29-.48-.04-.18,.15-.15,.08-.36h.13c-.01-.27,.19-.31,.17-.58,.18-.02,.19-.19,.21-.36h.13c-.03-.27,.18-.32,.17-.59h.11c.01-.21,.03-.42,.21-.47-.05-.35,.22-.4,.17-.75h.13c-.06-.26,.14-.28,.08-.54h.13c0-.27,.16-.4,.17-.66h.12c.01-.17,.03-.35,.21-.36-.06-.38,.23-.4,.17-.78,.31,.03,.07-.46,.34-.48-.02-.38,.22-.52,.16-.94,.29-.04,.06-.58,.34-.63-.02-.61,.23-.96,.16-1.61h.12v-2.47s-.11,0-.12-.04m-16.52-16c0-.08-.15-.01-.22-.04-.08,.16,.26,.17,.22,.04"/><path class="cls-2" d="M433.32,31.16c-.05,0-.11,0-.12-.04,.04-.57-.19-.88-.17-1.45-.05-.01-.12,.01-.13-.04,.06-.31-.14-.39-.09-.7-.04,0-.12,0-.12-.05,.03-.44-.2-.64-.16-1.1-.06,0-.13,.01-.13-.04,0-.28-.03-.54-.21-.66,.05-.38-.14-.51-.08-.9-.15-.07-.3-.14-.3-.36-.22-.03-.22-.27-.29-.46-.16-.02-.22-.14-.2-.31-.28,0-.17-.37-.42-.4v-.16c-.18-.07-.32-.19-.37-.39-.25-.09-.42-.24-.51-.47-.24-.09-.41-.24-.5-.47-.21-.05-.33-.19-.42-.36h-.2c-.13-.29-.46-.38-.58-.67h-.21c-.18-.36-.64-.47-.79-.86-.39,.05-.34-.31-.63-.36-.11-.2-.27-.36-.49-.48-.1-.2-.28-.36-.5-.46-.19-.36-.63-.53-.8-.86h-.21c-.05-.23-.35-.22-.38-.47-.25,.02-.34-.13-.42-.28-.17,.02-.29-.04-.29-.19-.19,.02-.3-.03-.3-.19-.27,.05-.24-.19-.5-.16v-.11c-.18-.03-.4-.03-.41-.2-.27,.02-.33-.16-.58-.16v-.11c-.18-.03-.4-.03-.43-.19-.26,.01-.32-.16-.58-.16v-.12c-.29,0-.43-.15-.71-.15v-.11c-.18-.03-.39-.03-.42-.19-.28,0-.43-.15-.71-.16v-.11c-.28,.05-.31-.13-.58-.09v-.11c-.41,.02-.56-.21-1.01-.15v-.12c-.42,.05-.57-.13-1-.07v-.13c-.28,.02-.45-.06-.5-.27-.29-.09-.51-.09-.79,0,.04,.16-.15,.1-.17,.19-.64,.05-1.25,.11-1.97,.07,.05,.2-.57,.17-.58,.05,.41-.03,.64-.21,1.08-.19-.08-.25,.37,.01,.35-.21-.62-.03-1.09,.06-1.63,.09-.01,.05,0,.11-.04,.12-.41-.01-.64,.14-1.05,.15-.01,.05,0,.11-.04,.13-.24,0-.42,.05-.5,.19-.53,.01-.7,.37-1.25,.36,0,.05,0,.11-.04,.11-.4-.02-.54,.2-.96,.16-.05,.17-.27,.18-.5,.19-.01,.05,0,.11-.04,.11-.38-.05-.4,.22-.8,.15-.05,.31-.63,.11-.7,.4-.2-.03-.16,.13-.37,.08,0,.05,0,.11-.05,.11-.27,0-.34,.21-.66,.16-.02,.21-.39,.11-.42,.31-.38-.05-.4,.23-.8,.16,0,.05,.02,.11-.05,.11-.23-.05-.22,.13-.44,.08-.07,.3-.64,.11-.71,.4-.2-.05-.17,.13-.38,.08-.03,.22-.27,.23-.5,.27,0,.16-.1,.21-.3,.19-.02,.24-.4,.17-.46,.39h-.16c-.05,.12-.12,.21-.21,.27-.34-.04-.23,.33-.59,.27-.11,.27-.39,.36-.54,.6h-.17c-.25,.36-.64,.59-.92,.94h-.17c.06,.17-.13,.11-.08,.27-.36,.14-.49,.51-.84,.66,.03,.34-.37,.29-.37,.63-.16,.06-.29,.17-.29,.39-.39,.05-.29,.56-.62,.67,.02,.17-.05,.27-.2,.27,.01,.26-.17,.32-.17,.56h-.13c-.03,.17-.02,.36-.21,.39,.02,.25-.18,.31-.17,.55h-.12c.03,.21-.15,.23-.09,.48h-.13c0,.3-.2,.44-.16,.78-.3-.03-.07,.46-.34,.47,.05,.36-.23,.43-.17,.82-.21,.06-.2,.33-.2,.59h-.12c.02,.35-.19,.47-.17,.82h-.12c.06,.33-.14,.42-.09,.74h-.13c.01,.51-.2,.81-.17,1.33h-.12v1.81s.11,0,.12,.04c.02,.28,.11,.5,.29,.62v.63h-.13v3.57s.11,0,.13,.04c-.07,.52,.09,.83,.09,1.3,.04,0,.11-.01,.12,.03,.04,.5,.15,.92,.17,1.45,.04,0,.11,0,.12,.04v.15c.32,.05,.25,.47,.5,.59-.02,.25,.07,.38,.21,.47,0,.23,.18,.29,.16,.54,.05,.01,.12,0,.13,.04,.11,.25,.08,.64,.09,.99,.04,0,.11,0,.12,.04-.04,.64,.14,1.07,.17,1.64,.05,0,.12,0,.13,.05-.05,.32,.14,.42,.08,.74,.19,.03,.2,.22,.2,.44,.1,.03,.09,.17,.09,.31,.04,0,.12,0,.12,.04,0,.17,.08,.29,.21,.36,0,.23,.19,.29,.16,.54,.17,0,.22,.11,.21,.28,.2-.06,.08,.13,.12,.19,.02,.04,.29,.21,.29,.23-.05,.15,.14,.08,.09,.24,.22,.1,.38,.26,.5,.47,.2,.08,.32,.21,.42,.31,.04,.05,.04,.12,.09,.15,.07,.07,.26,.03,.2,.19,.25,0,.34,.11,.41,.27,.23,0,.31,.13,.38,.27,.22-.05,.2,.13,.42,.08,0,.15,.11,.21,.31,.19-.03,.31,.46,.14,.49,.4,.17-.02,.29,.04,.29,.19,.31-.01,.37,.2,.71,.15v.11c.46,.03,.57,.39,1.08,.36v.11c.24,0,.48,0,.5,.19,.42-.01,.62,.17,1,.16v.11c.37-.05,.48,.13,.84,.08v.12c.62-.04,.92,.23,1.58,.15v.12c.53-.03,.86,.13,1.43,.07v.12c.23,.01,.54-.04,.67,.08,.24,0,.47,0,.5,.19,.22-.05,.18,.13,.41,.08,.05,.23,.3,.26,.58,.27v.12h.71v.19c.25,.04,.13,.43,.51,.36v.11c.2-.01,.4-.01,.49,.07,.03-.19,.49,.04,.47-.19h.24v.11c.89,.2,1.79,.13,2.72,0,0-.05-.01-.11,.04-.11,.26,.03,.26-.14,.54-.09,0-.05,0-.11,.06-.12,.24-.01,.39-.13,.65-.15,.03-.17,.25-.17,.43-.19,.04-.26,.48-.15,.53-.4,.17,.01,.14-.14,.33-.08,.02-.24,.41-.17,.47-.4,.2,.04,.21-.11,.29-.19,.23-.03,.42-.1,.5-.27h.17c.09-.29,.49-.29,.62-.55h.17c.03-.19,.17-.27,.42-.27,0-.16,.09-.22,.28-.2,.02-.23,.3-.19,.34-.38h.16c.07-.22,.33-.27,.42-.48,.19,.06,.13-.11,.3-.07,0-.23,.27-.23,.33-.4h.17c.17-.23,.34-.48,.67-.55,.05-.15,.18-.23,.33-.27,.09-.23,.26-.39,.5-.47,.12-.23,.25-.44,.59-.48,.12-.29,.47-.4,.63-.67h.17c0-.16,.25-.21,.29-.27,.09-.14-.01-.04,.13-.11,.05-.03,.08-.17,.12-.19,.08-.09,.27-.12,.24-.28,.16,.06,.09-.1,.22-.08v-.19c.25,.01,.16-.3,.41-.28-.03-.15,.14-.1,.08-.27,.18-.06,.3-.17,.29-.4,.23,.05,.12-.23,.34-.19-.08-.27,.24-.2,.17-.46,.34-.07,.31-.48,.63-.56-.02-.17,.04-.27,.21-.27-.03-.24,.13-.32,.29-.4-.03-.17,.04-.27,.2-.27-.01-.17,.05-.27,.21-.27,.02-.07-.02-.14,0-.2,0,0,.15-.07,.17-.11,.04-.11-.04-.21,.11-.16,0-.17,.04-.3,.21-.31,.06-.19,.07-.44,.29-.48-.03-.18,.14-.15,.08-.36h.13c-.01-.27,.19-.31,.17-.58,.17-.02,.19-.19,.21-.36h.13c-.02-.27,.18-.32,.16-.59h.12c0-.21,.02-.42,.21-.47-.05-.35,.22-.4,.17-.75h.13c-.06-.26,.14-.28,.08-.54h.12c0-.27,.16-.4,.17-.66h.12c.01-.17,.04-.35,.21-.36-.06-.38,.23-.4,.17-.78,.31,.03,.07-.46,.34-.48-.02-.38,.22-.52,.16-.94,.29-.04,.06-.58,.34-.63-.02-.61,.23-.96,.17-1.61h.12v-2.47Zm-38.9,7.81c-.15-.05-.08-.26-.08-.35,0-.16,.01-.29,0-.43,0-.08-.07-.13-.1-.2-.14-.7,.12-1.53,0-2.28,.21,.08-.01,.55,.17,.63v.78c-.06,.15,.15,.03,.13,.13,.01,.58,.25,1.35-.13,1.72m.63-1.3c-.24,0-.11,.36-.29,.4-.07-.2,.14-.64-.13-.66v-.94h.13c.08,.27,.28,.44,.5,.59-.03,.24-.27,.29-.21,.62m32.06-10.74c-.05,.36,.15,.49,.09,.86-.22,.05,.04-.36-.22-.27,.07-.31-.11-.4-.08-.67,.13-.03,.06,.13,.21,.08m-2.71-5.72c-.22,.05-.19-.13-.41-.08-.02-.14-.13-.19-.09-.4,.22,.11,.38,.27,.51,.48m-3.71-1.33h.21c.01,.22,.19,.31,.29,.47-.29,.05-.36-.09-.59-.07-.05-.21,.15-.19,.09-.4m-3.21-2.63c.02,.2,.36,.11,.5,.19,.06,.31-.12,.39-.08,.66h-.12c-.23-.12-.32-.38-.58-.47-.04-.18-.18-.25-.38-.27,.07-.17-.17-.05-.13-.19,.35-.05,.45,.13,.79,.08m-1.26,6.31c.14-.05,.1,.27,.04,.28-.14,.04-.11-.27-.04-.28m-.75-4.43c.17,.02,.14-.14,.34-.07v.11c-.07,.1-.18,.15-.13,.36h-.29c-.06-.2,.14-.18,.08-.39m-.49,1.22h.41c.01,.29-.22,.6-.5,.39,.07-.09,.11-.21,.09-.39m-2.01-1.77h.13v-.28c.1,.03,.08-.05,.09-.11,.11-.05,.29-.03,.28-.19,.23,.03,.25-.13,.5-.07-.04,.35-.21,.58-.16,1.02-.23-.05-.09,.26-.13,.4-.08,.05-.22,.04-.21,.19h-.67c.02-.36,.16-.58,.16-.94m.5,5.53h.13v.12h-.13v-.12Zm-.08,.39v-.19c.13-.06,.13,.25,0,.19m-.59-2.62c.19-.06,.14,.11,.29,.07v.27c-.2-.03-.11,.21-.29,.19v-.54Zm-2.5-3.89c.37,.06,.47-.13,.76-.16,.13-.04,.04-.32,.25-.31-.11-.43,.31-.36,.66-.36v-.11h.13v.11c-.23,.22-.35,.54-.51,.82h-.58c0,.13-.2,.07-.21,.19-.28-.05-.78,.11-.92-.08,.13-.03,.46,.11,.41-.11m.29,6.32c-.19-.04-.25,.03-.21,.19h-.21v-.11c.17-.2,.27-.48,.29-.82h.13c-.06-.25,.13-.28,.08-.54h.13c.05-.15,.03-.33,.07-.48,0,0,.08,.01,.09,0,.01-.1-.04-.21,0-.31,0,0,.11,.01,.12,0,.05-.05-.05-.21,0-.27,.21-.04-.06,.37,.21,.27-.06,.54,.11,.84,.08,1.33-.33,.11-.37,.5-.75,.55-.09,0-.02,.14-.04,.2m-.7,2.28h.07v-.2c.39-.17,.55-.57,.92-.74v-.2h.21c-.04-.24,.07-.17,.17-.27,.07-.08,.25-.23,.41-.19v.47c-.21,.09-.42,.18-.49,.39-.24,0-.35,.11-.38,.27-.41-.04-.31,.36-.68,.36-.07,.02,0,.18-.16,.12,0,.04,0,.09-.07,.08v-.08Zm.79,1.68v.08h-.08v.11h-.13c0,.05-.01,.09-.08,.08,0,.18-.18,.2-.29,.27-.06-.17,.12-.12,.08-.27h.21v-.08h.08v-.11h.13s.01-.09,.08-.08m-7.06-7.61c.21-.16,.28-.45,.63-.48,.17-.18,.27-.44,.59-.47,.03-.15,.24-.13,.25-.31,.23,.02,.33-.11,.38-.27,.17-.03,.38-.03,.42-.19,.23-.05,.5-.07,.58-.27,.24,0,.47,0,.5-.19,.3,.01,.36-.19,.68-.17,.07,0,.02-.1,.08-.11,.15,.15,.38,.24,.75,.19v-.08h.33c.02,.17-.22,.05-.33,.08,.04,.2-.39-.05-.3,.2-.27-.06-.28,.13-.53,.08-.05,0-.05,.06-.05,.12-.27-.03-.33,.15-.58,.15-.08,.11-.2,.19-.38,.19-.04,0-.04,.06-.04,.11-.28-.06-.2,.21-.46,.16-.05,0-.04,.06-.04,.11-.21-.05-.17,.13-.37,.08-.08,.17-.28,.24-.5,.28-.08,.07-.09,.23-.3,.19-.03,.24-.44,.15-.46,.39-.19-.05-.13,.14-.34,.08-.05,.01-.04,.07-.03,.13-.36,0-.51,.2-.8,.27,.04-.16,.13-.27,.33-.27m3.97,4.31h-.12c.06,.27-.23,.21-.17,.47-.15-.05-.07,.11-.2,.08-.02,.05,.05,.21-.04,.2-.14,.04-.13-.29,.04-.2-.07-.29,.13-.36,.09-.62h.11c-.04-.17,.05-.16,.09-.2,0-.01-.02-.1,0-.12,.03-.04,.14-.07,.16-.08,.12-.03,.09-.15,.12-.19,.05-.05,.15-.05,.21-.12,.03-.03,0-.11,.08-.08-.06-.11,.19-.11,.12,0h-.12c.02,.27-.19,.31-.16,.59-.17,0-.24,.11-.22,.27m-.04,6.87c-.15,.04-.07-.12-.08-.2h.12c-.02,.06,.05,.21-.04,.2m-11.77-3.57c-.23,0-.08,.36-.25,.4-.14,.04-.07-.13-.08-.2,.21,0,.09-.29,.21-.39h.13v.19Zm6.31,16.08c-.22,.03-.22,.23-.29,.4-.14,0-.21,.07-.22,.19h-.2c-.06-.21,.14-.19,.1-.4,.21,.04,.11-.22,.32-.19-.07-.3,.26-.24,.29-.47,.23,.09-.11,.25,0,.47m.86,3.1c-.03-.21,.21-.18,.22-.36,.13,0,.18,.09,.29,.12-.08,.16-.22,.28-.51,.23m18.37-7.06v-.27h.17c.02,.16-.04,.24-.17,.27m.87-1.69h-.08v.12h-.12v-.12h.12s0-.09,.08-.07v.07Zm6.14,2.36h-.13c.02,.26-.19,.31-.17,.58-.22-.01-.15,.25-.21,.36,0,.02-.12-.01-.13,0-.04,.04,.06,.28-.08,.2-.06-.27,.13-.29,.08-.56,.26,0,.07-.4,.34-.39-.07-.25,.11-.25,.08-.47h.21v.27Zm4.08-10.17c-.2-.04-.46-.04-.54-.19-.09,.03,0,.23-.04,.31,.26-.05,.28,.11,.51,.09,.06,.16-.21,0-.2,.11-.07,.19,.27-.02,.2,.15-.13,.03-.36-.05-.42,.04-.07,.17,.22,0,.21,.12,0,.13-.21,.26,.08,.23-.02,.09-.08,.12-.12,.19h-.09c-.19-.15-.49-.22-.88-.19v-.12c-.42,.07-.61-.1-.99-.07-.04,.13,.12,.06,.21,.07,.06,.21,.32,.2,.58,.2,.02,.23,.45,.07,.5,.27-.4,.02-.55-.2-1-.15v-.11h-.25c-.09,.04-.01,.22-.13,.23-.02,.11,.2-.03,.17,.07,.04,.13-.13,.03-.09,.17-.22,.05-.19-.14-.41-.09,.03-.24-.34-.23-.46-.12-.16-.07-.43-.05-.43-.27-.21,0-.4-.01-.42-.2-.11,.03-.33-.05-.37,.05,.03,.16,.32,.06,.29,.27,.15-.07,.19,.07,.2,.08-.02-.02,.15,.05,.18,.07,.06,0,.15-.02,.19,0,.03,.02,.05,.22,.2,.12,0,.19,.23,.15,.29,.27-.26,.06-.27-.11-.49-.07,0-.19-.16-.21-.38-.2-.04-.21-.3-.21-.5-.27-.01-.15-.15-.21-.34-.19v-.12c-.3-.03-.76,.09-.92-.07-.27,.11-.65,.11-1,.07-.08,0-.06-.07-.08-.07-.28-.08-.94,.12-1-.08h-3.5c.06,.43-.13,.61-.09,1.02h-.13c.04,.52-.17,.83-.16,1.34-.26,.03-.22,.35-.22,.63h-.11c.06,.37-.17,.48-.17,.78-.21,.03-.21,.24-.21,.47h-.13c.03,.5-.36,.59-.38,1.03-.28,.05-.11,.51-.42,.55,.06,.21-.14,.18-.08,.38h-.13c.06,.24-.16,.25-.2,.4-.17,.06-.01-.17-.17-.11,.12-.08,.02-.37,.21-.4,.06-.14-.19,0-.13-.15-.12,.05-.18,.09-.2,.15-.01,.06-.07,.02-.08,.05-.05,.09-.05,.31-.09,.36-.01,.02-.12-.01-.13,0-.04,.15-.01,.34-.28,.27,.01-.11,.14-.11,.08-.27,.17,.05,.12-.09,.12-.19-.19-.07-.06,.15-.2,.12,.01-.21,.07-.36,.2-.44,.02-.11-.23,.03-.2-.08,.07-.22,.4-.41,.2-.62,.2,.04-.02-.29,.21-.2-.03-.07,.05-.25-.04-.27-.12,.07-.16,.21-.17,.39h-.12c.07,.13-.08,.15-.08,.15-.05,.11-.04,.33-.08,.4,0,.01-.12-.01-.13,0-.06,.15-.03,.34-.3,.27,.16-.31,.32-.62,.51-.9-.21-.38,.15-.74,.08-1.25h.12c.03-1.09,.14-2.1,.08-3.26-.22-.15-.39,.09-.65,.03-.06,0-.06,.07-.05,.12-.51,0-.89,.14-1.47,.09-.05,0-.04,.06-.04,.11-.5,0-.8,.17-1.32,.15-.05,.01-.05,.06-.05,.11-.32-.05-.48,.08-.75,.08-.05,0-.04,.06-.03,.12h-.29c-.04,.16-.33,.08-.33,.27-.24,.01-.46,.02-.51,.2-.28-.07-.2,.2-.46,.16-.05,0-.03,.05-.03,.11-.37-.03-.35,.28-.67,.28-.04,.07-.15,.06-.12,.19-.43,.03-.55,.33-.97,.37,0,.19-.31,.11-.33,.3-.27-.01-.33,.16-.59,.16-.03,.21-.4,.09-.42,.31-.17-.09-.19,.09-.29,.16-.1,.05-.3-.07-.21,.12-.38-.04-.31,.36-.66,.35-.02,.2-.32,.12-.34,.31-.37,.04-.51,.32-.7,.55h-.22c0,.4-.37,.47-.38,.86-.15-.05-.08,.11-.21,.07-.07,.51,.11,.79,.08,1.27,.01,.04,.07,.04,.13,.03,.01,.7,.23,1.19,.17,1.97,0,.04,.07,.04,.13,.03-.06,.31,.13,.39,.08,.71,0,.04,.06,.04,.12,.03-.06,.44,.2,.58,.16,.98,0,.05,.07,.05,.13,.04,0,.23,0,.44,.2,.48-.03,.49,.33,.61,.38,1.03,.19,.06,.26,.25,.29,.46,.37,.18,.43,.62,.71,.88v.34s.07,.05,.13,.05c0,.25,.14,.39,.17,.62,0,.05,.06,.05,.12,.04,0,.29-.04,.6,.21,.67-.07,.42,.23,.48,.16,.9,.02,.04,.07,.04,.13,.03,0,.25,0,.5,.2,.56-.08,.43,.24,.48,.16,.9,.19,.03,.07,.36,.34,.32-.07,.26,.21,.19,.17,.44,.19,0,.19,.19,.46,.15,.06,0,.05-.06,.05-.12,.51,.06,.83-.07,1.29-.07,.05,0,.05-.07,.05-.12,.48,.08,.66-.13,1.05-.15,.04,0,.04-.06,.04-.11,.39,.03,.51-.2,.79-.28v-.47h.13c0-.4,.23-.56,.17-1.03h.12c0-.22,0-.44,.22-.47-.02-.26,.18-.31,.17-.59,.16,0,.22-.09,.2-.27h.13c-.06-.27,.24-.2,.16-.48,.17,0,.23-.09,.21-.27,.16,0,.21-.12,.21-.27,.24,.03,.29-.11,.29-.3,.17,0,.23-.11,.21-.28,.14,.03,.05-.14,.21-.08,.08-.2,.3-.33,.46-.47,.24-.23,.47-.54,.75-.67,.04-.02,.02-.14,.08-.19,.03-.04,.17-.04,.2-.08,.06-.03,.06-.15,.08-.19,.03-.02,.11,.01,.13,0,.05-.03,.02-.12,.09-.19,.09-.1,.3-.11,.28-.27,.29-.07,.36-.07,.63,0v.27c.06-.1,.33-.01,.3-.19h.3v.19c-.24-.04-.23,.15-.42,.15,.02,.09,.23,.01,.33,.04,.07,.17-.21,0-.21,.11-.06,.17,.27-.02,.21,.16-.34-.08-.1,.38-.42,.32-.03,.14,.2,.04,.29,.07,.04,.12-.14,.05-.08,.19-.21-.05-.17,.12-.38,.08-.04,.07-.15,.07-.12,.2-.23,.11-.39,.26-.51,.47-.22,.11-.39,.27-.51,.47-.15-.05-.08,.11-.2,.09v.19c-.13-.03-.05,.13-.21,.07,.01,.44-.49,.38-.49,.79-.13-.03-.06,.14-.21,.08,.09,.21-.15,.23-.16,.27-.03,.06,.02,.15,0,.21-.02,0-.12-.02-.13,0-.05,.1,0,.34-.21,.27,.03,.27-.19,.32-.17,.58-.2,.03-.21,.25-.21,.48h-.13c.08,.46-.16,.62-.16,1.02h-.13c.06,.3-.05,.45-.07,.67-.23,.11-.39,.27-.5,.47-.2,0-.22,.17-.3,.27-.18,.03-.39,.03-.42,.2-.22-.04-.21,.13-.46,.07-.05,.01-.04,.06-.04,.12-.4-.02-.5,.23-.95,.15-.12,.2-.46,.21-.8,.2-.06,0-.05,.06-.04,.11-.86,.04-1.59,.23-2.43,.08,.03-.13-.14-.05-.08-.19-.2,.01-.31-.05-.29-.24-.07-.03-.12-.09-.21-.11,0-.3-.3-.31-.29-.63-.1-.06-.21-.12-.21-.27-.2-.05-.18-.29-.29-.39v-.28c-.18-.09-.23-.31-.22-.59-.25-.16-.25-.57-.28-.94-.18-.09-.24-.27-.22-.55,0-.04-.06-.04-.12-.04,.02-.13-.01-.19-.08-.23v-.39c-.15,0,0-.29-.21-.24,0-.21-.02-.43-.22-.47v-.31c-.15-.05-.08-.31-.29-.31,.1-.21-.19-.29-.21-.3-.02-.03,.01-.09,0-.12-.03-.11-.22-.17-.17-.32-.19-.03-.1-.32-.33-.31-.02-.42-.36-.54-.36-.98-.02-.04-.07-.04-.13-.04-.03-.31-.22-.46-.18-.82,0-.04-.05-.04-.11-.03,.04-.27-.15-.33-.08-.63-.01-.05-.07-.05-.13-.03-.04-.57-.24-.98-.17-1.66,0-.04-.07-.04-.12-.03,.06-.43-.14-.62-.09-1.03-.25,.02-.44,.09-.5,.27-.26-.07-.24,.13-.3,.2-.06,.06-.28,.04-.2,.19-.17-.1-.19,.09-.3,.15-.09,.05-.29-.07-.21,.12-.27-.01-.3,.16-.42,.23-.03,.01-.06,.11-.09,.11-.11,.05-.28-.07-.21,.12-.19-.02-.28,.04-.28,.19-.28,0-.34,.16-.59,.16-.06,.01-.05,.06-.03,.12-.3,0-.64-.04-.68,.19-.38-.01-.74-.01-.9,.16,.05-.17-.13-.12-.1-.27-.6,.07-.71-.33-1.21-.36-.02-.17-.22-.17-.4-.19-.04-.18-.18-.25-.39-.27-.06-.15-.17-.26-.34-.31-.01-.19-.09-.33-.28-.35-.03-.17-.03-.37-.21-.4,.02-.22-.12-.31-.29-.34-.02-.17-.02-.38-.21-.4,.03-.25-.18-.27-.16-.51-.02-.04-.07-.04-.13-.03,.06-.29-.09-.38-.08-.63,0-.05-.07-.05-.12-.05-.14-.74-.12-1.86,0-2.62h.12c-.07-.38,.13-.51,.08-.86h.13c-.04-.56,.19-.86,.16-1.41h.13c-.06-.42,.13-.61,.08-1.02h.12v-2.71s-.07-.04-.12-.04c.05-.53-.06-.9-.08-1.37-.02-.05-.07-.05-.13-.05,0-.34-.15-.57-.16-.9-.02-.05-.07-.05-.13-.03,.04-.28-.15-.34-.08-.64-.07-.03-.12-.1-.21-.11,.05-.21-.06-.25-.08-.4,.22-.08,.1,.17,.29,.12,0,.17,.02,.33,.21,.35,.04-.17,.16-.4,0-.55h.29c.04-.14-.2-.01-.13-.19-.06-.13,.15-.03,.13-.11,.08-.19-.13-.11-.13-.23,.11,.02,.15-.02,.13-.13,.1,.09,.24,.15,.38,.2-.08,.24,.21,.15,.12,.4h.3c.02-.18-.02-.31-.09-.4,.19,.01,.33,.07,.29,.27,.14,.04,.06-.12,.09-.19,.24-.03,.25-.25,.3-.48,.19,.04,.13-.19,.33-.15-.05-.36,.33-.31,.37-.58,.46-.19,.58-.7,1.09-.82,.17-.18,.27-.43,.59-.48,.02-.15,.23-.13,.24-.31,.39,.05,.29-.37,.66-.35,.12-.12,.15-.31,.43-.27v-.12h.13s0-.09,.08-.07v.07h-.08v.12h-.13c-.08,.19-.34,.23-.38,.46-.24,.09-.42,.25-.5,.48-.39,.1-.44,.53-.83,.63,.02,.14-.15,.13-.08,.31-.36,.13-.46,.49-.81,.62v.2c-.26,.09-.33,.4-.62,.46,0,.19-.16,.22-.16,.4-.25,.05-.28,.3-.51,.36-.03,.36,.18,.49,.17,.82,0,.05,.06,.05,.12,.04-.07,.31,.11,.4,.09,.67,.18,.07,.05-.16,.2-.12,.15-.04,.01,.19,.2,.12,.12,.67,.05,1.53,.13,2.23,.19-.15,.09-.56,.37-.62-.05-.21,.14-.19,.09-.4h.13c-.07-.27,.24-.19,.17-.48,.18-.02,.18-.21,.21-.39,.28-.02,.12-.46,.42-.47,0-.15,.04-.27,.2-.27-.02-.23,.12-.32,.29-.37-.07-.35,.35-.25,.29-.58,.21-.03,.18-.28,.42-.28,0-.26,.19-.36,.38-.47v.27c-.22,.13-.33,.36-.38,.67-.18,.03-.18,.22-.21,.38h-.12c0,.25-.18,.3-.17,.56-.18,.03-.18,.22-.21,.4h-.13c.03,.24-.22,.21-.17,.47-.24-.02-.08,.31-.33,.27-.03,.22-.08,.42-.3,.47,.02,.19-.04,.27-.21,.27,.09,.21-.15,.23-.17,.27-.02,.05,.03,.15,0,.2-.01,.01-.11-.02-.13,0-.06,.11,0,.34-.2,.27,.06,.28-.24,.2-.17,.48h-.12c-.09,.26-.09,.58-.09,.94h-.12c-.07,.73,.03,1.43-.08,2.08,0,.04-.02,.09-.08,.08v1.84c0,.05,.06,.03,.08,.07,.01,.15-.04,.36,.08,.4v.39s.07,.05,.12,.04c.03,.4,.36,.51,.39,.9,.2,.06,.2,.33,.5,.31v.11h.95c.06,0,.06-.05,.04-.11,.29,.06,.33-.11,.59-.08,.05,0,.05-.06,.04-.12,.37-.01,.61-.14,.96-.15,.06-.01,.06-.06,.05-.12,.23,.06,.25-.09,.45-.07,.05-.01,.04-.06,.04-.12,.19,0,.21-.03,.34-.07,.02,0,.03-.08,.03-.08,.13-.05,.28,.05,.22-.11,.19,.01,.29-.04,.29-.2,.19,.06,.16-.1,.32-.08,0-.11,.04-.25-.12-.2,.06-.38-.1-.55-.08-.9-.01-.04-.07-.04-.12-.04,0-.5-.22-.82-.17-1.37-.01-.05-.06-.04-.12-.03,.06-.49-.12-.72-.09-1.18,0-.05-.07-.04-.13-.04,0-.69-.29-1.35-.12-2.08,.15,.05,.26,.14,.34,.27h-.22v.82s.08,.04,.13,.04c-.07,.38,.14,.52,.09,.9,0,.05,.06,.05,.12,.04-.01,.65,.18,1.11,.17,1.76,0,.05,.06,.05,.12,.05-.04,.34,.07,.56,.13,.82,.17,0,.03-.3,.08-.43,0-.05-.06-.05-.12-.04,.06-.54-.11-.86-.08-1.37-.01-.04-.07-.04-.12-.04-.03-.17,.06-.45-.09-.51-.12-.72-.1-1.57-.09-2.39h.17v-.59c.06,0,.13,0,.12-.07,.27,.04,.26,.21,.5,.27v.28h.16c.09-.04,.02-.25,.05-.36,.22,0,.29,.13,.37,.27,.04,.13-.14,.05-.21,.08-.04,.16,.05,.19,.13,.23,.07,.13-.14,.02-.13,.11-.01,.1,.19-.02,.13,.12-.19-.09-.19,.4,0,.31-.06,.38,.14,.52,.09,.9,0,.05,.06,.04,.12,.04v.55c.17,.06,0-.2,.13-.19h.17c-.04,.27,.14,.33,.08,.62,0,.05,.06,.05,.11,.04,0,.64,.19,1.11,.18,1.77,.04,.06,.17,.04,.13,.2,.08-.09,.23-.09,.33-.16,.04-.04,0-.08,.03-.12,.02-.02,.11,.01,.13,0,.05-.02,.04-.16,.08-.19,.02-.02,.18-.05,.21-.08,.08-.07,.08-.1,.08-.19,.31-.02,.46-.19,.5-.47h.13c-.06-.31,.13-.38,.09-.67h.11c.02-.09,0-.19,0-.27,.02-.09,.1-.33,.17-.36,.06,.52-.15,.78-.17,1.21,.3,.01,.24-.29,.55-.27,.05,0,.05-.07,.04-.12,.22,0,.46-.01,.5-.19,.28,.07,.2-.21,.45-.15,.05-.01,.05-.06,.05-.11,.27-.02,.44-.14,.58-.28h.38c.05-.07,.16-.07,.13-.19,.18-.03,.4-.03,.42-.2h.38c.06-.15,.4-.06,.42-.27,.27,.05,.29-.13,.57-.07,.06,0,.06-.06,.06-.12h.29c-.07,.2,.23,.06,.25,.19,.17-.25,.52-.34,.62-.66,.42,.05,.33-.35,.68-.36,.04,0,.03-.06,.03-.11,.28,.05,.3-.13,.59-.08,.01-.11,.26-.01,.2-.19,.28,.05,.32-.11,.58-.08,.08-.23,.5-.13,.68-.27h.53s.05-.06,.04-.12c.37,.07,.51-.1,.84-.07,.11-.16,.32-.21,.63-.19,.04-.09,.14-.59-.09-.55,.06-.65-.09-1.09-.08-1.7-.13,0-.07-.19-.21-.19,.04-.27-.02-.44-.07-.63-.01-.05-.07-.05-.13-.05,.04-.41-.15-.59-.09-1.01,0-.05-.06-.04-.12-.04v-2.16h.12c-.06-.31,.13-.38,.09-.67h.13c-.03-.34,.19-.47,.16-.82h.12c-.05-.27,.15-.31,.08-.6,.34-.02,.09-.6,.42-.62-.06-.21,.14-.19,.08-.4h.13c-.07-.24,.18-.19,.17-.39,.42,.07,.46-.19,.5-.47,.23-.04,.31-.23,.46-.36,.25,.01,.33,.22,.47,.36,.09-.09,.29-.09,.49-.08,.02,.11,.13,.11,.09,.27-.1-.01-.12-.13-.29-.07v.15c.07,.04,.12,.11,.2,.13-.08,.12-.08,.15,0,.27-.18,.07-.03,.46-.08,.68h-.13c.05,.39-.14,.54-.08,.94h-.13c-.11,.19-.01,.68-.17,.74v1.65c0,.05,.07,.04,.09,.09,.04,.36-.1,.89,.07,1.13v.39s.07,.04,.13,.04c-.02,.29,.14,.39,.08,.7,0,.05,.06,.05,.13,.04-.05,.46,.13,.72,.17,1.1,.22,.04,.08,.42,.33,.44,0,.37,.17,.59,.16,.98,.42,.02,1.08-.08,1.68-.04,.04,0,.04-.06,.03-.11h.3v.11c.72-.04,1.28,.06,1.92,.08v.12c.7,.01,1.31,.12,2,.15v.12c.63-.05,.99,.13,1.63,.07v.12c.77,.15,1.66,.04,2.47,0,.03,0,.03-.06,.03-.12h.38c-.07,.23,.32,.01,.21,.27,.11-.11,.36-.07,.58-.07v.27h-.17c.05,.14,.13,.25,.09,.48h-.21c-.05,.21,.06,.25,.12,.35,.06,.18-.21,.07-.12,.27,.17,.04,.3,.11,.5,.12v.19Zm-13.14,11.77c-.14,.04-.12-.29,.04-.2,0-.05,.01-.09,.09-.08v.08h-.09c-.02,.06,.05,.2-.04,.2m-6.31-2.91c.02,.09-.07,.06-.07,.08-.05,.11,.18,.09,.07,.2h-.16c.02,.15-.04,.35,.1,.38,0,.1-.1,.1-.13,.17-.18-.05-.18-.26-.38-.28,.01-.05,.2-.25,0-.27-.06,.06-.08,.19-.12,.27-.14,.05-.03-.12-.16-.07,0,.07-.05,.09-.13,.07,.02,.13,0,.2-.08,.23,.05,.09,.17,.13,.21,.24-.29,.07-.2-.2-.43-.19,.08-.04,.28-.37,0-.36v-.19h.14c.02-.17,0-.29-.14-.31,.07-.1,.19-.14,.14-.36h.16c.05-.17-.07-.17-.08-.27,.15,.03,.05-.19,.08-.27,.19,.07,.06-.15,.21-.12,.02,.12-.06,.34,.03,.4,.21,.05-.03-.32,.17-.27,0,.17-.08,.44,.21,.36v.27c.17-.01,.05-.2,.08-.27,.01-.01,.12,0,.13,0,.05-.05-.04-.21,0-.28h.16c.06,.15-.11,.51,.13,.48-.02,.05,.05,.2-.04,.19-.14,.06-.03-.13-.11-.11-.17,.1,.04,.35,.03,.31m-1.37,.2c.05,.13-.13,.05-.2,.08,0-.13-.07-.19-.2-.2,.08-.09,.17-.18,.12-.39h.17c0,.13,.04,.31-.08,.35,.04,.08,.14,.1,.2,.16m-2.62,.16h-.3c.1,.13,.13,.31,.21,.47-.09-.02-.08,.05-.09,.11h-.21c-.05-.17-.21-.25-.21-.47-.12,.06-.12,.23-.38,.15-.04,.09-.15,.12-.13,.28,.03,.09,.2,.07,.2,.19h-.28c0-.1,0-.19-.13-.15-.01-.17-.03-.34,.13-.35-.16,.02-.24-.48,0-.44-.08-.09-.18-.15-.13-.36,.27,0,.21-.34,.21-.59,.27,0,.15-.36,.42-.35v-.48c.07,.01,.08-.03,.08-.08,.2-.03,0,.32,.12,.36,.21,.04-.04-.33,.16-.28v.36c0,.08,.15,.01,.21,.03v.27c.19,.05-.03-.29,.21-.19v-.4h.21v.59h-.13c.06,.4-.14,.55-.08,.94-.19,.03-.25,.25-.12,.36m-1.38,0h-.3c0-.11,.05-.25-.11-.2v-.28c.27,.02,.17-.33,.41-.34v-.48h.22v.48c-.22,.04-.17,.33-.42,.34-.07,.28,.12,.34,.2,.48m-5.72-15.35v.13h-.08c0-.07,0-.14,.08-.13m1.3,10.76h.12v-.2c.14-.04,.07,.12,.09,.2h-.09c.07,.11-.19,.11-.12,0"/><path class="cls-3" d="M416.67,15.12c0-.08-.15-.01-.22-.04-.08,.16,.26,.17,.22,.04"/><rect class="cls-3" x="419.17" y="18.93" width=".12" height=".12"/><rect class="cls-3" x="420.1" y="19.32" width=".08" height=".07"/><path class="cls-3" d="M418.46,19.71c-.06,.16-.18,.25-.17,.47-.2,.03-.21,.24-.21,.48-.21-.09-.04,.19-.2,.15,.06,.28-.13,.33-.08,.6h-.13c.05,.26-.14,.29-.09,.54h-.12c0,.38-.21,.54-.16,.94-.07,0-.17,0-.13,.08v2.04c0,.06,.1,.02,.13,.07v.51c.17,.15,0,.62,.24,.7,.09-.05,.01-.29,.04-.42,0-.07-.11-.03-.12-.07v-2.99h.12c-.06-.31,.1-.38,.09-.67h.13c-.03-.36,.2-.48,.16-.86h.12c-.06-.26,.14-.29,.08-.55h.13c0-.5,.28-.73,.37-1.14h-.2v.12Z"/><path class="cls-3" d="M420.1,19.79h-.21v.09c.08-.03,.24,.05,.21-.09"/><path class="cls-3" d="M419.89,20.06v.12c.11,.06,.11-.17,0-.12"/><rect class="cls-3" x="419.67" y="20.8" width=".12" height=".12"/><path class="cls-3" d="M419.59,21.13c.13,.05,.13-.18,0-.12v.12Z"/><path class="cls-3" d="M419.47,21.47h.12c0-.07-.04-.09-.12-.07v.07Z"/><rect class="cls-3" x="418.59" y="21.87" width=".07" height=".07"/><path class="cls-3" d="M418.46,22.14v.08h.13c0-.07-.04-.09-.13-.08"/><path class="cls-3" d="M418.38,22.53c.12,.06,.12-.17,0-.12v.12Z"/><rect class="cls-3" x="418.29" y="22.81" width=".09" height=".07"/><path class="cls-3" d="M397.14,25.52h.12c0-.07-.05-.09-.12-.08v.08Z"/><path class="cls-3" d="M397.42,25.44c-.01,.09,.07,.08,.13,.08,.03-.08-.05-.08-.13-.08"/><path class="cls-3" d="M419.89,25.64c.11,.05,.11-.17,0-.12v.12Z"/><path class="cls-3" d="M396.26,25.98v.31c.13,.05,.13-.35,0-.31"/><path class="cls-3" d="M397.63,26.1v.09h.12c.01-.07-.04-.09-.12-.09"/><rect class="cls-3" x="397.76" y="26.39" width=".08" height=".07"/><path class="cls-3" d="M417.58,26.38c.05,.12-.08,.4,.08,.4-.04-.11,.09-.4-.08-.4"/><path class="cls-3" d="M396.55,26.78h-.13c0,.1,0,.19,.13,.15v-.15Z"/><path class="cls-3" d="M417.67,26.85v.08h.13c0-.07-.04-.09-.13-.08"/><path class="cls-3" d="M397.93,27.05v.07h.12c0-.07-.04-.09-.12-.07"/><path class="cls-3" d="M418.16,28.38c0-.07-.1-.03-.08-.12v-.52c-.13-.02-.08-.09-.12-.19-.01-.05-.07-.04-.08-.08-.04-.13,.09-.39-.08-.43v.51c.18,.21,.03,.72,.08,1.06,.22,.03-.08,.54,.2,.51,.19-.09,.03-.52,.08-.74"/><path class="cls-3" d="M396.55,27.12v.2c.13,.05,.13-.26,0-.2"/><path class="cls-3" d="M398.26,27.12v.2c.13,.05,.13-.26,0-.2"/><path class="cls-3" d="M420.3,27.12v.12c.12,.05,.12-.17,0-.12"/><path class="cls-3" d="M420.47,27.52v-.19c-.13-.06-.13,.25,0,.19"/><path class="cls-3" d="M396.76,27.4h-.13c.02,.08-.06,.24,.09,.19,.09,0,.02-.13,.04-.19"/><path class="cls-3" d="M420.55,27.71c.08,0,.01-.14,.03-.19h-.11c0,.07-.07,.23,.08,.19"/><path class="cls-3" d="M396.84,28.07c-.03-.1,.08-.37-.08-.36,.04,.11-.08,.37,.08,.36"/><rect class="cls-3" x="420.59" y="27.79" width=".09" height=".09"/><path class="cls-3" d="M396.92,28.1s-.04-.03-.08-.03v.94c.19-.14,.04-.62,.08-.9"/><path class="cls-3" d="M431.82,29.48v.12c.13,.06,.13-.17,0-.12"/><path class="cls-3" d="M397.04,31.33c.02,.09-.18-.02-.12,.11,.07,.66-.11,1.09-.09,1.72,.19,0,.05-.29,.09-.43-.01-.09,.19,.03,.12-.11-.06-.4,.14-.56,.09-.94-.02-.1,.2,.02,.12-.12v-1.8h-.12c.03,.58-.15,.96-.09,1.57"/><rect class="cls-3" x="431.53" y="30.15" width=".08" height=".07"/><path class="cls-3" d="M431.19,30.23c-.1,.15,.25,.17,.21,.04,0-.09-.16-.02-.21-.04"/><path class="cls-3" d="M413.45,30.61h.13c.07-.11-.18-.11-.13,0"/><path class="cls-3" d="M413.38,30.7c.07,.01,.07-.03,.07-.08h-.07v.08Z"/><path class="cls-3" d="M413.29,30.82c.08,.01,.08-.06,.08-.12h-.08v.12Z"/><rect class="cls-3" x="412.95" y="30.89" width=".13" height=".11"/><path class="cls-3" d="M421.47,31.28c.03,.15,.24,.07,.34,.07,.96,.04,2-.02,2.92,0,.15-.03,.02,.19,.21,.12h.79c.27,0,.65,.06,.75-.08-1.52-.18-3.32-.09-5.01-.11"/><path class="cls-3" d="M431.7,31.63c.07-.01,.24,.06,.21-.07h-.21v.07Z"/><path class="cls-3" d="M418.29,31.75c.13,.06,.13-.17,0-.12v.12Z"/><path class="cls-3" d="M418.08,31.83v-.08h-.41c0,.16,.29,.04,.41,.08"/><path class="cls-3" d="M417.17,31.91c.04,.05,.43,.11,.41-.03-.04-.05-.45-.1-.41,.03"/><path class="cls-3" d="M409.94,32.1h.13c0-.07-.03-.09-.13-.07v.07Z"/><path class="cls-3" d="M416.67,32.1c-.09,.16,.25,.18,.21,.04,0-.08-.15-.01-.21-.04"/><rect class="cls-3" x="408.65" y="32.58" width=".13" height=".11"/><path class="cls-3" d="M418.59,33.05c-.07,0-.15,0-.13,.07-.09,.68-.18,1.38-.17,2.16,.02,.1-.19-.02-.13,.12,.07,.3-.1,.39-.08,.67,.14,.04,.08-.13,.08-.2,.22,.08,.05-.2,.22-.16-.03-.22,.14-.23,.08-.47,.06,0,.15,.01,.13-.08-.01-.9,.15-1.62,.07-2.55,0-.03-.02-.05-.07-.04v.48Z"/><rect class="cls-3" x="420.59" y="32.89" width=".09" height=".08"/><polygon class="cls-3" points="407.65 33.13 407.65 33.16 407.78 33.16 407.78 33.05 407.65 33.05 407.65 33.13"/><path class="cls-3" d="M407.27,33.16c-.27-.05,.01,.22,0,0"/><path class="cls-3" d="M407.57,33.25c.07,.01,.08-.03,.09-.09h-.09v.09Z"/><path class="cls-3" d="M396.55,33.25v.27c.13,.05,.13-.34,0-.27"/><rect class="cls-3" x="420.47" y="33.26" width=".11" height=".11"/><path class="cls-3" d="M407.36,33.44v-.08c-.07-.01-.08,.03-.09,.08h.09Z"/><path class="cls-3" d="M407.27,33.44h-.11c-.07,.11,.19,.11,.11,0"/><rect class="cls-3" x="420.38" y="33.45" width=".08" height=".07"/><path class="cls-3" d="M396.76,33.63c.13,.07,.13-.17,0-.11v.11Z"/><path class="cls-3" d="M396.26,35.01c.01,.1-.19-.03-.13,.12-.15,.63-.06,1.48-.08,2.23,.14,.03,.03,.18,.08,.27,.03,.05,.11,.03,.13,.08,.02,.05-.07,.25,.08,.23,.02-1-.07-2.1,.08-2.98,0-.09,.19,.02,.13-.11v-1.14h-.13c.05,.53-.2,.78-.16,1.29"/><rect class="cls-3" x="420.3" y="33.91" width=".08" height=".08"/><path class="cls-3" d="M403.77,34.86v.19c.13,.06,.13-.25,0-.19"/><rect class="cls-3" x="419.89" y="34.86" width=".07" height=".07"/><path class="cls-3" d="M407.86,35.71c.13,.06,.13-.17,0-.12v.12Z"/><rect class="cls-3" x="407.57" y="35.79" width=".09" height=".08"/><path class="cls-3" d="M398.42,36.19v-.19c-.13-.06-.13,.25,0,.19"/><path class="cls-3" d="M398.55,36.34v-.15h-.12c0,.1,0,.19,.12,.15"/><path class="cls-3" d="M417.97,36.27h.11c0-.07-.04-.09-.11-.08v.08Z"/><path class="cls-3" d="M398.63,36.54c-.01-.07,.06-.23-.08-.19,.02,.08-.06,.23,.08,.19"/><path class="cls-3" d="M398.75,36.74v-.2h-.12c.01,.1-.03,.25,.12,.2"/><path class="cls-3" d="M399.05,37.01c-.09-.1-.13-.23-.3-.27-.02,.2,.08,.29,.3,.27"/><rect class="cls-3" x="418.88" y="36.93" width=".08" height=".08"/><rect class="cls-3" x="418.8" y="37.13" width=".09" height=".08"/><path class="cls-3" d="M418.66,37.4c.12,.02,.16-.01,.13-.11-.11-.03-.15,.01-.13,.11"/><polygon class="cls-3" points="398.05 37.6 398.05 37.48 397.93 37.48 397.93 37.6 398.01 37.6 398.05 37.6"/><path class="cls-3" d="M398.14,37.67c.01-.06-.04-.07-.09-.07v.07h.09Z"/><path class="cls-3" d="M398.26,37.76c.02-.09-.07-.07-.12-.09v.09h.12Z"/><path class="cls-3" d="M398.05,37.95v-.07h-.12c-.03,.08,.05,.07,.12,.07"/><path class="cls-3" d="M398.34,38.35v-.28h-.2c.01-.07-.01-.11-.09-.11-.04,.26,.18,.27,.3,.4"/><path class="cls-3" d="M397.75,38.07c0,.07,.03,.07,.08,.08v-.08h-.08Z"/><path class="cls-3" d="M396.34,38.15v.2c.13,.05,.13-.27,0-.2"/><path class="cls-3" d="M397.93,38.35c-.03-.07,.05-.24-.09-.2,.01,.07-.05,.23,.09,.2"/><path class="cls-3" d="M400.93,38.15v.08h.12c.01-.07-.04-.09-.12-.08"/><path class="cls-3" d="M404.15,38.15c-.07-.01-.07,.03-.08,.08h.08v-.08Z"/><path class="cls-3" d="M398.75,38.35c.14,.05,.14-.18,0-.12v.12Z"/><path class="cls-3" d="M400.85,38.27c-.13-.05-.64-.11-.72,.03,.13,.05,.65,.11,.72-.03"/><polygon class="cls-3" points="403.93 38.35 404.07 38.35 404.07 38.27 404.07 38.23 403.93 38.23 403.93 38.35"/><path class="cls-3" d="M398.05,38.54v-.19h-.12c0,.1-.04,.25,.12,.19"/><path class="cls-3" d="M399.01,38.62c.05-.08,.07-.21,.13-.27h-.2c.02,.09-.08,.3,.08,.27"/><rect class="cls-3" x="396.42" y="38.43" width=".13" height=".11"/><path class="cls-3" d="M398.26,38.54c.12,.06,.12-.17,0-.11v.11Z"/><path class="cls-3" d="M400.13,38.54c-.15-.05-.54,.11-.5-.11h-.29v.19c.24-.05,.69,.09,.79-.08"/><rect class="cls-3" x="398.05" y="38.54" width=".09" height=".15"/><path class="cls-3" d="M400.56,38.54c.03,.17-.17,.03-.29,.08-.04,.02,.02,.06-.07,.07-.27,.03-.62-.09-.76,.07,.11,.11,.29,.13,.43,.2,.23-.14,.77-.02,.78-.4-.01-.03-.03-.03-.08-.03"/><path class="cls-3" d="M400.93,38.62h.12c.07-.11-.18-.11-.12,0"/><path class="cls-3" d="M400.85,38.7c.07,.01,.08-.03,.08-.07h-.08v.07Z"/><path class="cls-3" d="M400.76,38.82c.09,.01,.08-.05,.09-.12h-.09v.12Z"/><path class="cls-3" d="M400.56,38.89v.08c.07,.02,.08-.03,.08-.08h-.08Z"/><path class="cls-3" d="M405.15,41.29c.06-.4-.13-.56-.08-.94-.01-.06-.13-.03-.13-.09v-.47c-.15-.11-.04-.46-.25-.5-.11,.07-.04,.31,.08,.31,.02,.66,.23,1.15,.17,1.88,0,.06,.13,.01,.13,.08-.06,.31,.14,.39,.08,.71h.11v-.91c0-.06-.11,0-.11-.07"/><path class="cls-3" d="M404.15,39.45h.13c0-.08-.05-.09-.13-.08v.08Z"/><path class="cls-3" d="M397.42,39.56v-.11c-.11-.06-.11,.17,0,.11"/><path class="cls-3" d="M397.42,39.56v.07h.13c.03-.07-.05-.07-.13-.07"/><rect class="cls-3" x="403.86" y="39.56" width=".07" height=".07"/><path class="cls-3" d="M408.45,39.63h.12c0-.07-.04-.09-.12-.07v.07Z"/><path class="cls-3" d="M400.64,39.76v.08h.12c0-.07-.04-.09-.12-.08"/><path class="cls-3" d="M397.75,39.92v-.08h-.12c-.03,.09,.06,.07,.12,.08"/><path class="cls-3" d="M412.16,39.84c-.02,.09,.05,.07,.13,.08,.01-.09-.06-.07-.13-.08"/><path class="cls-3" d="M397.42,40.04v-.12c-.11-.05-.11,.18,0,.12"/><path class="cls-3" d="M403.36,40.04c.12,.06,.12-.17,0-.12v.12Z"/><path class="cls-3" d="M397.42,40.04v.07h.13c.03-.09-.05-.07-.13-.07"/><path class="cls-3" d="M397.84,40.12h.08c.02-.07-.02-.08-.08-.08v.08Z"/><path class="cls-3" d="M403.06,40.23c.11,.05,.11-.17,0-.11v.11Z"/><path class="cls-3" d="M399.34,41.06c-.43-.02-.55-.35-1-.36v-.11h-.2c-.07-.21-.29-.3-.51-.36,.06,.2,.15,.36,.42,.36-.02,.26,.36,.16,.38,.39,.19,.02,.39,.02,.42,.19,.25,.05,.51,.08,.58,.28h.51v-.19c-.2-.03-.32-.12-.6-.09v-.11Z"/><path class="cls-3" d="M398.14,40.3h.12c0-.07-.05-.09-.12-.07v.07Z"/><path class="cls-3" d="M402.14,40.78h.12c.01-.07-.04-.09-.12-.08v.08Z"/><path class="cls-3" d="M401.35,40.98c.12,.06,.12-.17,0-.12v.12Z"/><path class="cls-3" d="M400.64,41.16v.09h.62c-.05-.17-.44-.03-.62-.09"/><path class="cls-3" d="M400.13,41.32c.07,.15-.11,.08-.07,.2h.58c.03-.12-.14-.05-.08-.2h-.42Z"/><path class="cls-3" d="M405.27,42.28c.05,.11-.08,.39,.09,.39-.04-.12,.09-.4-.09-.39"/><path class="cls-3" d="M406.65,42.38v.08h.13c0-.07-.04-.09-.13-.08"/><path class="cls-3" d="M405.35,42.66v.27c.13,.05,.13-.33,0-.27"/><path class="cls-3" d="M405.48,43.05c-.07,.01-.09,.32,.04,.27,.07,0,.1-.31-.04-.27"/><rect class="cls-3" x="406.87" y="43.05" width=".07" height=".09"/><path class="cls-3" d="M407.03,43.41c.09,0,.02-.14,.04-.19h-.13c.02,.07-.05,.23,.09,.19"/><path class="cls-3" d="M418.66,43.41h.13c.06-.11-.19-.11-.13,0"/><path class="cls-3" d="M405.58,43.41v.19c.12,.07,.12-.25,0-.19"/><path class="cls-3" d="M418.66,43.41h-.07v.11c.09,.02,.07-.05,.07-.11"/><rect class="cls-3" x="407.07" y="43.52" width=".09" height=".08"/><path class="cls-3" d="M418.38,43.6v.08c.07,0,.08-.03,.08-.08h-.08Z"/><rect class="cls-3" x="405.65" y="43.69" width=".13" height=".11"/><path class="cls-3" d="M407.16,43.88h.11c-.02-.07,.06-.23-.07-.19-.1,0-.02,.14-.04,.19"/><path class="cls-3" d="M418.38,43.68h-.08v.11c.09,.02,.08-.05,.08-.11"/><path class="cls-3" d="M407.36,44.07c-.02-.07,.06-.23-.09-.19,.02,.07-.06,.23,.09,.19"/><path class="cls-3" d="M417.97,44.07h.11c.07-.11-.18-.11-.11,0"/><path class="cls-3" d="M407.44,44.27c-.03-.07,.06-.23-.08-.2,0,.07-.07,.24,.08,.2"/><path class="cls-3" d="M417.88,44.07v.09c.07,.01,.08-.03,.08-.09h-.08Z"/><path class="cls-3" d="M417.88,44.16h-.08v.11c.08,.01,.07-.05,.08-.11"/><path class="cls-3" d="M407.74,44.74h.04v-.2c-.24,.03-.06-.33-.34-.27v.19c.21-.02,.1,.27,.3,.28"/><path class="cls-3" d="M419.17,44.27v.07h.12c.01-.07-.04-.09-.12-.07"/><path class="cls-3" d="M417.67,44.35h-.08v.11c.09,.02,.08-.05,.08-.11"/><path class="cls-3" d="M417.46,44.54h-.09v.09c.08,.01,.08-.03,.09-.09"/><path class="cls-3" d="M417.37,44.63h-.07v.11c.08,.01,.07-.05,.07-.11"/><path class="cls-3" d="M408.15,45.48c.17-.05,.08,.11,.21,.09,.05-.19-.15-.16-.08-.36-.15,0-.21-.12-.22-.27-.2,.03-.11-.21-.28-.19-.04,.24,.15,.27,.16,.47,.17,0,.23,.1,.2,.27"/><path class="cls-3" d="M406.65,45.02v.07h.13c0-.07-.04-.09-.13-.07"/><path class="cls-3" d="M406.57,45.29v.11c.12,.06,.12-.17,0-.11"/><path class="cls-3" d="M416.88,45.29c-.1-.02-.08,.05-.08,.11h.08v-.11Z"/><path class="cls-3" d="M416.8,45.4h-.13c-.06,.11,.19,.11,.13,0"/><path class="cls-3" d="M406.94,45.48c-.01,.09,.06,.07,.13,.09v-.09h-.13Z"/><path class="cls-3" d="M407.07,45.57v.11c.13,.05,.13-.17,0-.11"/><path class="cls-3" d="M408.36,45.57v.19c.12,.05,.12-.27,0-.19"/><path class="cls-3" d="M406.94,45.96h.13c0-.07-.04-.09-.13-.09v.09Z"/><rect class="cls-3" x="407.27" y="45.87" width=".09" height=".08"/><path class="cls-3" d="M407.16,46.15v-.12c-.13-.05-.13,.19,0,.12"/><path class="cls-3" d="M407.16,46.15v.08h.11c.03-.08-.05-.07-.11-.08"/><path class="cls-3" d="M408.57,46.15v.2c.13,.05,.13-.26,0-.2"/><rect class="cls-3" x="415.87" y="46.15" width=".08" height=".08"/><rect class="cls-3" x="407.27" y="46.35" width=".09" height=".07"/><path class="cls-3" d="M415.87,46.35c-.07-.01-.08,.03-.08,.07h.08v-.07Z"/><path class="cls-3" d="M408.65,46.5h.13c0-.07-.04-.09-.13-.08v.08Z"/><path class="cls-3" d="M415.79,46.42h-.13c-.06,.12,.19,.12,.13,0"/><path class="cls-3" d="M408.78,46.82c.13,.06,.13-.25,0-.19v.19Z"/><path class="cls-3" d="M415.66,46.62c-.06-.02-.07,.03-.07,.07h.07v-.07Z"/><path class="cls-3" d="M415.59,46.7c-.17-.05-.13,.09-.13,.2h.09c.09,.01,.02-.14,.05-.2"/><rect class="cls-3" x="407.36" y="46.9" width=".07" height=".07"/><path class="cls-3" d="M415.45,46.9h-.08v.19c.15,.04,.07-.12,.08-.19"/><path class="cls-3" d="M414.96,48.12h.13c-.02-.45,.25-.62,.27-1.03-.13-.03-.05,.13-.2,.07-.02,.45-.42,.56-.37,1.06h-.12c.08,.6-.3,.78-.3,1.3,.25,0,.21-.31,.42-.36-.02-.42,.24-.58,.17-1.05"/><path class="cls-3" d="M409.07,47.45v-.15h-.12c-.02,.1-.02,.19,.12,.15"/><path class="cls-3" d="M407.57,47.45v.19c.13,.07,.13-.25,0-.19"/><path class="cls-3" d="M407.65,47.76v.08h.13c0-.07-.04-.09-.13-.08"/><path class="cls-3" d="M409.28,47.84h-.13c.02,.07-.06,.25,.09,.19,.08,.01,.02-.13,.04-.19"/><rect class="cls-3" x="415.87" y="47.84" width=".08" height=".08"/><path class="cls-3" d="M407.86,48.23v-.3c-.13-.05-.13,.35,0,.3"/><path class="cls-3" d="M415.79,48.12v.11c.12,.06,.12-.17,0-.11"/><path class="cls-3" d="M408.06,48.59h-.11c.02,.07-.06,.23,.08,.19,.09,0,.02-.14,.04-.19"/><rect class="cls-3" x="415.66" y="48.59" width=".13" height=".11"/><path class="cls-3" d="M409.58,48.78h-.13c.03,.07-.05,.23,.09,.19,.09,0,0-.13,.04-.19"/><path class="cls-3" d="M415.59,48.98c.12,.06,.12-.17,0-.12v.12Z"/><path class="cls-3" d="M408.15,49.17v-.19c-.13-.06-.13,.25,0,.19"/><path class="cls-3" d="M408.28,49.17h-.13c-.01,.11-.01,.19,.13,.16v-.16Z"/><path class="cls-3" d="M415.45,49.25h.13c0-.07-.05-.09-.13-.08v.08Z"/><path class="cls-3" d="M409.78,49.33h-.12c.02,.07-.06,.24,.08,.19,.09,0,.02-.13,.04-.19"/><path class="cls-3" d="M408.28,49.53v.19c.13,.06,.13-.25,0-.19"/><path class="cls-3" d="M414.57,49.65h.09v-.12c-.09-.02-.08,.06-.09,.12"/><path class="cls-3" d="M414.37,49.72v.08c.08,.02,.08-.03,.08-.08h-.08Z"/><path class="cls-3" d="M410.28,50.46v-.19c-.17,0-.23-.09-.21-.27-.15,.05-.08-.11-.2-.08,.02,.29,.17,.46,.41,.54"/><path class="cls-3" d="M408.57,50.27v-.15h-.12c-.01,.1-.01,.19,.12,.15"/><rect class="cls-3" x="409.07" y="50.66" width=".08" height=".08"/><rect class="cls-3" x="414.08" y="50.86" width=".08" height=".08"/><rect class="cls-3" x="414.57" y="50.87" width=".09" height=".07"/><rect class="cls-3" x="408.95" y="50.94" width=".12" height=".11"/><path class="cls-3" d="M409.28,51.05c.13,.06,.13-.17,0-.11v.11Z"/><path class="cls-3" d="M414.37,50.94v.11c.13,.06,.13-.17,0-.11"/><rect class="cls-3" x="413.87" y="51.13" width=".08" height=".08"/><path class="cls-3" d="M413.79,51.25c0-.09-.15-.01-.21-.04-.09,.15,.26,.17,.21,.04"/><rect class="cls-3" x="413.38" y="51.33" width=".07" height=".07"/><path class="cls-3" d="M409.36,51.53v-.12c-.11-.06-.11,.17,0,.12"/><path class="cls-3" d="M409.78,51.53c.13,.05,.13-.18,0-.12v.12Z"/><path class="cls-3" d="M413.29,51.46c-.07-.05-.51-.11-.51,.03,.08,.05,.5,.1,.51-.03"/><path class="cls-3" d="M410.16,51.68h-.5c.05-.13-.14-.03-.08-.15h-.21c.02,.1,.13,.11,.08,.27,.19,0,.33,.04,.34,.19h.46s.05,.07,.13,.08c.17,.02,.51-.07,.59-.16-.27-.03-.52-.09-.79-.11v-.12Z"/><path class="cls-3" d="M412.66,51.53c-.11,.03-.38-.08-.37,.07,.11-.03,.38,.08,.37-.07"/><path class="cls-3" d="M411.45,51.68h.71c-.06-.13-.65-.13-.71,0"/><path class="cls-3" d="M411.37,51.72c-.01-.05-.36-.09-.3,.04,0,.05,.35,.09,.3-.04"/></g></g></g></svg>