<?xml version="1.0" encoding="UTF-8"?><svg id="_イヤー_2" xmlns="http://www.w3.org/2000/svg" viewBox="0 0 282.24 49.72"><defs><style>.cls-1,.cls-2{fill:#fff;}.cls-2{fill-rule:evenodd;}</style></defs><g id="_イヤー_1-2"><g><path class="cls-2" d="M244.82,14.81c-.2,.98-.84,1.45-1.02,2.45,1.56,1.03,4.34,.95,5.94,1.94,.34,.61-.74,.78-.95,1.28-.27,3.06-.96,5.59-2.23,8.72-.76,1.87-1.72,5-3.34,4.83-2.01-.22-.55-2.07,0-2.95,1.02-1.62,2.04-4.13,2.51-5.76-1.12-.77-3.34-1.87-2.31-3.66,1.42,.02,1.67,1.11,2.72,1.47,.84-.57,.65-2.29,1.2-3.18-.8-.77-2.4-.83-3.78-1.08-1.48,.78-1.39,7.66-3.92,7.3-2.41-.34,.48-5.22,1.09-6.72,.94-2.3,1.85-6.49,4.08-4.64"/><path class="cls-2" d="M222.02,19.94c.23,.64,1.41,.41,1.71,.98-.92,1.46-2.22,2.51-3.29,3.8,.16,1.54,2.93,.73,3.28,2.09-.12,1.01-1.99,.44-2.51,.16-.82,1.06,.24,3.92-.71,5.12-2.83,.71-1.25-3.7-1.46-5.82-.86,.12-.91,1.16-1.97,1.06-.72-1.55,1.24-2.3,2.08-3.13,1.02-1,1.97-2.02,2.8-2.95-.68-.7-4.44,.27-4.51-.97-.06-.86,1.24-.97,2.09-.63,1.21-1.33-.19-3.85,.11-4.86,.21-.7,1.11-1.08,1.8-.63,.97,.62,.84,4.25,.58,5.77"/><path class="cls-2" d="M208.22,13.47c.67,.61-.52,1.51-.71,2.17,1.14,1.65,2.27,3.27,3.58,4.76,.67,.76,1.97,1.3,1.93,2.6-1.66,1.43-2.88-.82-3.73-1.81-1.05-1.24-2.07-2.61-2.91-3.54-1.07,1.6-2.2,3.27-3.35,4.98-1.01,1.5-1.8,3.87-3.9,4.21-.84-2.12,1.52-3.8,2.64-5.31,1.27-1.72,2.35-3.56,3.65-4.96-.01-.53,.32-.7,.36-1.16,1.01-.42,1.5-1.43,2.46-1.93"/><path class="cls-2" d="M267.12,19.08c-.24,2.33-1.8,3.19-2.75,4.71,.2,1.59,1.86,7.32-.38,7.19-2.09-.11-.01-4.65-1.16-5.95-2.2,.91-3.24,3.13-5.92,3.51-.09-.3-.43-.36-.56-.62,.2-1.61,2-2.22,3.26-3.07,1.17-.78,2.54-1.66,3.52-2.61,1.13-1.09,2.21-4.19,4-3.17"/><path class="cls-2" d="M272.14,20.98c.07-1.19,2-1.39,3.51-1.99,1.35-.54,4.53-2.44,4.79-.57,.15,1.15-2.62,1.84-4.16,2.37-1.93,.67-3.4,1.74-4.14,.19"/><path class="cls-2" d="M196.77,15.51c.53,.85,.13,2.93-.48,3.52-.29-.02-.59-.04-.88-.05-.84-1.09-.06-3.43,1.37-3.46"/><path class="cls-2" d="M177.05,15.36c.96,1.35-.34,4.02-.31,5.87,.61,.25,1.47,.27,2.19,.41,.52-1.33-.11-3.96,.98-4.66,.65,1.19-.15,3.69,.48,4.88,3.64-.7,2.66,2.8-.41,2.19-.01,.25-.03,.49-.04,.74,.23,.56,1.97-.2,2.17,.7-.24,.92-1.65,.54-2.26,1.06,.03,.76-.25,1.81,.02,2.36,1.09,.87,4.5,1.47,2.76,3.53-1.39,.12-1.82-.61-2.44-1.16-.63,1.09-.09,4.2-2.09,3.28-.62-1.11,.43-2.48,.63-3.64-.1-.34-.26-.61-.7-.63-.09-.73,.64-.53,.65-1.14-1.74,.34-1.63,2.74-3.68,2.75-.19-1.37,1.4-2.92,2.41-3.7,.43-.34,1.19-.42,1.23-.97,.13-1.62-2.24-.46-2.24-2.18,.52-.33,1.11,.24,1.91,.1,.5-.07,.5-.68,.51-1.3-.46-.51-1.46-.55-2.32-.71-1.28,1.02-.76,4.03-2.73,4.27-.73-1.52-2.21-2.04-3.36-3.41-.82,2.22,.34,6.09-.98,7.45-2.42,.33-3.1-2.93-1.28-3.6-.02-1.19,.32-2.71,.05-3.68-1.82,1.08-2.67,3.25-4.64,4.17,.59-2.68,5.05-3.2,4.92-6.66-.76-.48-2.71,.11-2.59-1.17,.57-.36,1.95,.19,2.51-.16,.78-1.15,.23-3.79,1.83-4.03,.17,1.16,.21,2.43,.1,3.83,1.35,.65,2.49-.22,3.13-.86,1.09,.03,1.66,1.02,1.22,1.97-1,.71-3.69-.46-4.3,.66,1.01,1.23,2.48,2.06,3.51,3.28,2.11-2.11,1.86-6.85,3.17-9.85"/><path class="cls-2" d="M192.72,16.92c.42,1.02,.5,2.35,.85,3.43,.69,.04,1.37,.07,2.06,.11,.58-.21-.46-.87,.05-1.02,1.12,.05,1.54,.74,1.99,1.43-.36,1.15-2.45,.39-3.57,.7-.06,1.44,.47,2.37,1.31,3.01-.65,4.12,4.07,6.61,2.54,10.59-1.93,.66-3.04-1.49-2.2-2.91-.79-2.23-1.59-4.45-2.29-6.75-.83-.09-1.53-.04-2.07,.19-.06,1.12-.12,2.25-.18,3.38,1.01,.16,1.88-.56,2.8,0,.39,2.34-5.7,4.24-6.15,2.03-.26-1.3,1.01-1.38,1.45-2.27,.49-1.02,.1-1.77,.59-2.92-.42-.69-2.34-.04-2.45-1.01,1.04-1.06,3.77-.26,5.48-.6,.06-1.13-.18-1.98-.6-2.68-1.95-.27-4.73,.56-5.87-.32,.76-1.43,3.68-.46,5.49-.73,.67-.99-.91-3.42,.78-3.64"/><path class="cls-2" d="M256.47,22.79c-3.55,.46,.49-3.7,0,0"/><path class="cls-2" d="M276.53,22.23c.75,.21,.33,1.47,.78,1.95,1.76,.62,5-.22,4.93,1.44-.08,1.8-3.01,.38-4.89,.48-.85,1.87,.76,6.57-.95,6.72-1.91,.16,.3-4.75-.24-6.63-1.65-.85-6.21,.51-6.27-1.21-.05-1.59,4.26-.75,6.09-.86,.54-.22,.17-1.47,.54-1.88"/><path class="cls-2" d="M253.03,23.78c-.61,1.03-2.23,.27-2.18-.55,.08-1.25,2.38-1.19,2.18,.55"/><path class="cls-2" d="M208.51,21.88c-.33,1.46-3.65,.7-3.96-.36,.55-1.06,3.15-.11,3.96,.36"/><path class="cls-2" d="M227.05,22.27c.85-.18-.2,1.27,.51,1.5,.84,.16,1.42-.27,2.06,.11,.51,1.52-1.38,1.52-2.31,1.94l-.18,3.52c1.16,.71,3.48-.5,3.93,.8-.39,1.88-3.18,.17-4.48,1.09-.58-.28-1.14-.56-1.41-1.1,1.1-.79,1.53-2.34,1.55-4.34-.81-.55-2.5,.41-2.91-.59-.02-1.73,2.27-.9,3.18-1.6,.02-.44,.04-.88,.07-1.32"/><path class="cls-2" d="M209.12,24.27c.02,.86-.82,.75-1.24,1.11-.37,1.5-1.22,2.48-1.68,3.89,.05,.51,.95,.27,1.46,.37,.12-.53-.03-1.37,.53-1.74,2.08,.37,1.6,3.03,3.49,3.57-.02,1.18-1.88,.92-2.37,.32-1.99-.21-3.9-.25-5.57-.44,.02-.26-.09-.39-.27-.46,.33-2.49,1.87-3.63,2.51-5.76-.59-.54-2.14-.22-2.14-1.29,1.34-.13,4.28-.67,5.28,.43"/></g><g><g><path class="cls-1" d="M22.9,0C11.37,0,1.99,9.38,1.99,20.9c0,5.21,1.93,10.21,5.44,14.06,.02,.02,.04,.04,.05,.06,3.49,3.5,7.61,4.78,10.75,3.35,2.5-1.14,3.85-3.71,3.62-6.88,0-.05-.03-.1-.07-.14-.04-.03-.09-.05-.14-.05l-2.98,.22c-.11,0-.19,.1-.18,.21,.12,1.72-.48,3.02-1.65,3.55-1.43,.65-3.99,.3-6.92-2.63-2.92-3.22-4.53-7.4-4.53-11.76C5.38,11.24,13.24,3.39,22.9,3.39s17.51,7.86,17.51,17.51c0,6.62-3.66,12.6-9.56,15.61-.1,.05-.13,.16-.09,.26l.66,1.42,.65,1.27c.03,.07,.1,.11,.18,.11,.03,0,.06,0,.09-.02,7.07-3.58,11.46-10.73,11.46-18.65C43.8,9.38,34.42,0,22.9,0Z"/><path class="cls-1" d="M30.78,9.15c-1.15-1.68-3.01-2.82-5.24-3.22-1.74-.31-3.79-.06-5.05,.31-1.01,.3-1.78,.67-2.25,.93-.09,.05-.13,.16-.08,.26l1.25,2.69c.02,.05,.07,.09,.12,.11,.05,.02,.11,0,.16-.02,.18-.11,.83-.47,1.76-.75,.88-.26,2.37-.42,3.51-.22,1.34,.24,2.42,.88,3.06,1.81,.49,.72,.66,1.53,.5,2.35-.51,2.54-3.13,3.02-5.22,2.65-.89-.16-3.2-.63-3.68-.88-.05-.03-.12-.03-.17,0-.06,.02-.1,.07-.11,.13l-.66,2.34c-.03,.09,.02,.18,.1,.23,.89,.47,3,1.33,3.94,1.49,.63,.11,1.25,.17,1.85,.17,3.74,0,6.58-2.14,7.24-5.46,.34-1.7-.02-3.44-1.02-4.9Z"/><path class="cls-1" d="M23.87,16.28c-.46-.17-1.75-.56-2.89-.91-.64-.2-1.24-.38-1.63-.5-.05-.02-.11-.01-.16,.02-.05,.03-.08,.07-.1,.12l-.79,3c-.01,.05,0,.11,.03,.16,.03,.05,.08,.08,.14,.09,.59,.08,3.41,.91,4.24,1.21,5.19,1.89,7,5.83,6.07,8.57-.48,1.41-1.41,2.43-2.78,3.04-1.16,.51-2.63,.7-4.17,.54,.02-.04,.03-.08,.03-.12-.37-5.08-2.37-9.24-5.1-10.58-1.5-.74-3.12-.62-4.55,.33-1.42,.94-2.12,2.45-1.96,4.25,.28,3.16,3.21,6.74,6.83,8.31,1.87,.82,3.89,1.25,5.82,1.25,1.61,0,3.16-.31,4.47-.89,2.23-.99,3.83-2.73,4.61-5.05,1.7-5.02-1.79-10.54-8.11-12.84Zm-5.49,14.4c-2.66-1.19-4.6-3.78-4.75-5.48-.06-.69,.2-.96,.46-1.13,.25-.17,.47-.25,.69-.25,.16,0,.32,.04,.5,.13,1.21,.59,2.64,3.08,3.11,6.73Z"/><path class="cls-1" d="M45.78,49.16l-.11-.34-1.14-2.45c-.04-.08-.13-.13-.22-.11-1.53,.32-3.38-.54-7.24-2.73-4.27-2.42-6.52-1.55-10.26-.1l-.07,.03c-.37,.14-.77,.3-1.19,.45l-.46,.17c-.36,.14-.96,.37-1.04,.37-.14-.03-.84-.47-1.3-.76-.81-.51-1.92-1.21-3.62-2.16-5.02-2.8-8.64-.9-12.83,1.3-1.77,.93-3.78,1.99-6.18,2.85-.05,.02-.09,.05-.11,.1s-.02,.1,0,.15l1.27,2.74c.04,.09,.15,.14,.25,.1,2.53-.93,4.57-2.01,6.36-2.95,3.85-2.03,6.18-3.25,9.6-1.34,1.62,.9,2.68,1.57,3.46,2.06,2.32,1.46,2.87,1.63,5.35,.68l.44-.17c.44-.16,.85-.32,1.23-.47l.05-.02c3.54-1.37,4.5-1.74,7.37-.11,3.34,1.89,5.89,3.23,8.3,3.23,.67,0,1.31-.1,1.95-.31,.1-.03,.16-.15,.13-.25Z"/></g><g><path class="cls-1" d="M116.6,38.57c-.19-.03-.37,.04-.59,.19-1.86,1.22-3.81,1.82-5.76,1.82-1.85,0-3.31-.54-4.48-1.65-1.16-1.1-1.73-2.48-1.73-4.21s.58-3.09,1.76-4.22c1.19-1.14,2.65-1.69,4.48-1.69s3.67,.55,5.57,1.64c.18,.1,.37,.18,.56,.15,.22-.03,.3-.17,.3-.38v-2.9c0-.23-.14-.44-.35-.53-5.58-2.38-10.01-1.76-13.16,1.25-1.88,1.8-2.84,4.05-2.84,6.69,0,1.66,.42,3.22,1.24,4.65,.82,1.43,1.95,2.56,3.37,3.38,1.41,.81,3.14,1.23,5.14,1.23,2.43,0,4.61-.52,6.49-1.54,.18-.1,.3-.29,.3-.5v-3.04c0-.18-.14-.31-.29-.33Z"/><path class="cls-1" d="M82.54,25.79c-.09-.21-.3-.34-.52-.34h-1.71c-.23,0-.44,.14-.53,.35l-7.4,17.32c-.08,.18-.08,.34,.03,.49,.11,.13,.37,.13,.57,.13h2.51c.23,0,.44-.14,.53-.35l1.52-3.6h7.48l1.59,3.54,.05,.11c.09,.21,.3,.35,.53,.35h2.51c.19,0,.46,0,.57-.13,.11-.14,.11-.31,.03-.49l-7.75-17.37Zm-3.56,10.68l2.18-5.25,2.34,5.25h-4.52Z"/><path class="cls-1" d="M132.26,7.28c-.05-.12-.18-.2-.31-.2h-1.02c-.14,0-.26,.08-.31,.21l-4.41,10.33c-.04,.11-.05,.2,.02,.29,.06,.08,.22,.08,.34,.08h1.5c.14,0,.26-.08,.31-.21l.91-2.15h4.46l.95,2.11,.03,.07c.05,.13,.18,.21,.31,.21h1.5c.11,0,.28,0,.34-.08,.07-.09,.07-.18,.02-.29l-4.62-10.36Zm-2.12,6.37l1.3-3.13,1.4,3.13h-2.7Z"/><g><path class="cls-1" d="M66.87,26.65c-1.43-.74-3.37-1.11-5.78-1.11h-5.76c-.32,0-.57,.26-.57,.57v17.07c0,.32,.26,.57,.57,.57h5.41c1.56,0,2.6-.04,3.17-.14,.58-.09,1.21-.27,1.89-.54,1.17-.44,2.21-1.11,3.1-1.97,.87-.84,1.54-1.83,2.01-2.94,.47-1.11,.71-2.29,.71-3.5,0-1.69-.43-3.28-1.28-4.72-.85-1.44-2.02-2.55-3.46-3.29Zm-8.52,2.21h2.49c1.14,0,1.96,.04,2.46,.13,.48,.08,.99,.25,1.54,.5,.53,.25,1.01,.57,1.43,.96,1.13,1.06,1.68,2.39,1.68,4.07s-.54,3.11-1.64,4.23c-.34,.34-.72,.63-1.12,.86-.41,.23-.93,.42-1.55,.58-.63,.16-1.54,.23-2.71,.23h-2.56v-11.57Z"/><rect class="cls-1" x="93.02" y="25.54" width="3.59" height="18.23" rx=".57" ry=".57"/><path class="cls-1" d="M136.08,25.54h-2.45c-.32,0-.57,.26-.57,.57v6.82h-8.46v-6.82c0-.32-.26-.57-.57-.57h-2.45c-.32,0-.57,.26-.57,.57v17.09c0,.32,.26,.57,.57,.57h2.45c.32,0,.57-.26,.57-.57v-6.87h8.46v6.87c0,.32,.26,.57,.57,.57h2.45c.32,0,.57-.26,.57-.57V26.12c0-.32-.26-.57-.57-.57Z"/><rect class="cls-1" x="141.56" y="25.54" width="3.59" height="18.23" rx=".57" ry=".57"/></g><g><path class="cls-1" d="M114.34,7.15h-1.37c-.1,0-.19,.04-.25,.12l-3.13,3.89-3.15-3.89c-.06-.08-.15-.12-.25-.12h-1.39c-.18,0-.32,.14-.32,.32v10.23c0,.18,.14,.32,.32,.32h1.46c.18,0,.32-.14,.32-.32v-7.05l2.61,3.24c.06,.08,.15,.12,.25,.12h.27c.1,0,.19-.04,.25-.12l2.57-3.24v7.04c0,.18,.14,.32,.32,.32h1.47c.18,0,.32-.14,.32-.32V7.47c0-.18-.14-.32-.32-.32Z"/><path class="cls-1" d="M124.28,16.06h-4.15v-2.54h3.87c.18,0,.32-.14,.32-.32v-1.31c0-.18-.14-.32-.32-.32h-3.87v-2.48h4.01c.18,0,.32-.14,.32-.32v-1.3c0-.18-.14-.32-.32-.32h-5.8c-.18,0-.32,.14-.32,.32v10.22c0,.18,.14,.32,.32,.32h5.94c.18,0,.32-.14,.32-.32v-1.3c0-.18-.14-.32-.32-.32Z"/><path class="cls-1" d="M145.92,7.13h-8.55c-.18,0-.32,.14-.32,.32v1.3c0,.18,.14,.32,.32,.32h3.19v8.62c0,.18,.14,.32,.32,.32h1.47c.18,0,.32-.14,.32-.32V9.08h3.25c.18,0,.32-.14,.32-.32v-1.3c0-.18-.14-.32-.32-.32Z"/></g><g><path class="cls-1" d="M61.01,16.03h-4.12v-2.49h3.83c.19,0,.34-.15,.34-.34v-1.31c0-.19-.15-.34-.34-.34h-3.83v-2.43h3.98c.19,0,.34-.15,.34-.34v-1.3c0-.19-.15-.34-.34-.34h-5.78c-.19,0-.34,.15-.34,.34v10.18c0,.19,.15,.34,.34,.34h5.92c.19,0,.34-.15,.34-.34v-1.3c0-.19-.15-.34-.34-.34Z"/><path class="cls-1" d="M69.83,12.19c.68-.49,1.02-1.18,1.02-2.05,0-.58-.14-1.11-.42-1.56-.28-.45-.69-.81-1.22-1.06-.52-.25-1.22-.37-2.12-.37h-2.67c-.19,0-.34,.15-.34,.34v10.19c0,.19,.15,.34,.34,.34h3.45c.83,0,1.53-.14,2.1-.42,.57-.28,1.01-.66,1.31-1.12,.3-.46,.46-.99,.46-1.58,0-.74-.25-1.39-.75-1.93-.31-.34-.7-.6-1.15-.78Zm-3.61,1.3h1.02c.68,0,1.18,.06,1.47,.17,.27,.1,.48,.25,.62,.45,.14,.2,.21,.42,.21,.66s-.07,.45-.2,.66c-.14,.21-.31,.36-.54,.46-.17,.07-.56,.16-1.49,.16h-1.1v-2.55Zm2.06-2.34c-.26,.24-.74,.36-1.43,.36h-.63v-2.38h.91c1.35,0,1.53,.6,1.53,1.13,0,.37-.12,.67-.38,.9Z"/><rect class="cls-1" x="74.33" y="7.15" width="2.14" height="10.87" rx=".34" ry=".34"/><path class="cls-1" d="M83.75,11.91l-1.12-.66c-.46-.27-.8-.53-1-.77-.17-.2-.26-.41-.26-.64s.1-.41,.32-.57c.25-.18,.57-.27,.98-.27,.76,0,1.61,.27,2.29,.92,.1,.09,.19,.16,.31,.11,.11-.04,.11-.18,.11-.31v-1.66c0-.11-.06-.22-.15-.28-.76-.51-1.62-.77-2.53-.77-.97,0-1.78,.28-2.4,.84-.63,.57-.95,1.31-.95,2.21,0,.6,.17,1.15,.51,1.62,.32,.45,.84,.89,1.58,1.35l1.11,.67c.78,.49,1.18,.98,1.18,1.48,0,.28-.11,.5-.33,.7-.24,.2-.55,.3-.92,.3-.93,0-1.88-.41-2.61-1.33-.09-.11-.19-.2-.33-.15-.14,.05-.14,.19-.14,.33v1.85c0,.11,.05,.21,.14,.27,.88,.66,1.88,1,2.95,1,.96,0,1.76-.29,2.37-.86,.62-.58,.93-1.33,.93-2.24,0-1.27-.68-2.32-2.03-3.13Z"/><path class="cls-1" d="M97.43,7.15h-1.47c-.19,0-.34,.15-.34,.34v5.79c0,.94-.09,1.38-.17,1.58-.11,.28-.28,.52-.52,.72-.48,.4-1.12,.6-1.9,.6-.55,0-1.03-.1-1.43-.3-.39-.2-.67-.45-.86-.77-.13-.22-.28-.72-.28-1.83V7.49c0-.19-.15-.34-.34-.34h-1.47c-.19,0-.34,.15-.34,.34v5.77c0,.86,.06,1.48,.18,1.9,.12,.41,.27,.77,.46,1.06,.19,.29,.41,.56,.68,.79,.86,.74,2.01,1.12,3.42,1.12s2.52-.38,3.39-1.13c.27-.23,.5-.49,.68-.79,.18-.29,.34-.66,.46-1.08,.12-.43,.18-1.04,.18-1.87V7.49c0-.19-.15-.34-.34-.34Z"/></g></g></g></g></svg>